<svg width="1224" height="22" viewBox="0 0 1224 22" fill="none" xmlns="http://www.w3.org/2000/svg">
<path d="M7.672 5.85V7.082H2.772V16H1.344V5.85H7.672ZM12.8796 8.468V16H11.6056V9.574H9.07156L8.95956 11.394C8.77756 14.432 8.11956 16 6.36956 16H6.13156V14.894H6.27156C6.94356 14.894 7.58756 14.166 7.74156 11.044L7.85356 8.468H12.8796ZM19.713 12.85V12.374C17.403 12.598 15.933 12.948 15.933 13.984C15.933 14.698 16.479 15.174 17.389 15.174C18.579 15.174 19.713 14.628 19.713 12.85ZM17.109 16.182C15.695 16.182 14.519 15.398 14.519 14.012C14.519 12.234 16.535 11.702 19.615 11.366V11.184C19.615 9.798 18.859 9.35 17.907 9.35C16.843 9.35 16.241 9.91 16.185 10.848H14.869C14.981 9.224 16.437 8.314 17.893 8.314C19.979 8.314 20.903 9.294 20.889 11.422L20.875 13.158C20.861 14.432 20.917 15.286 21.071 16H19.783C19.741 15.72 19.699 15.412 19.685 14.964C19.223 15.748 18.453 16.182 17.109 16.182ZM22.8573 8.468H26.1333C27.6453 8.468 28.8773 8.86 28.8773 10.386C28.8773 11.184 28.5273 11.744 27.8273 12.038C28.6113 12.262 29.1853 12.794 29.1853 13.802C29.1853 15.37 27.9673 16 26.3573 16H22.8573V8.468ZM24.1313 11.632H26.0493C26.9873 11.632 27.5473 11.38 27.5473 10.526C27.5473 9.742 26.9593 9.574 26.0073 9.574H24.1313V11.632ZM24.1313 12.682V14.894H26.1613C27.2813 14.894 27.8553 14.572 27.8553 13.788C27.8553 12.948 27.2953 12.682 26.1193 12.682H24.1313ZM36.9496 16H35.6756V12.71H31.9516V16H30.6776V8.468H31.9516V11.604H35.6756V8.468H36.9496V16ZM43.7755 12.85V12.374C41.4655 12.598 39.9955 12.948 39.9955 13.984C39.9955 14.698 40.5415 15.174 41.4515 15.174C42.6415 15.174 43.7755 14.628 43.7755 12.85ZM41.1715 16.182C39.7575 16.182 38.5815 15.398 38.5815 14.012C38.5815 12.234 40.5975 11.702 43.6775 11.366V11.184C43.6775 9.798 42.9215 9.35 41.9695 9.35C40.9055 9.35 40.3035 9.91 40.2475 10.848H38.9315C39.0435 9.224 40.4995 8.314 41.9555 8.314C44.0415 8.314 44.9655 9.294 44.9515 11.422L44.9375 13.158C44.9235 14.432 44.9795 15.286 45.1335 16H43.8455C43.8035 15.72 43.7615 15.412 43.7475 14.964C43.2855 15.748 42.5155 16.182 41.1715 16.182ZM52.4918 8.468V16H51.2178V13.326H49.8878C49.8178 13.326 49.7478 13.326 49.6778 13.312L47.6338 16H46.0518L48.3338 12.962C47.3818 12.64 46.7378 11.912 46.7378 10.792C46.7378 9.238 47.8018 8.468 49.5378 8.468H52.4918ZM51.2178 9.574H49.6078C48.6698 9.574 48.0398 9.966 48.0398 10.876C48.0398 11.898 48.8378 12.22 49.7198 12.22H51.2178V9.574Z" fill="#0370C7"/>
<path d="M59.274 16H58L61.99 5.85H63.278L59.274 16Z" fill="#747474"/>
<path d="M71.304 16V7.082H68V5.85H76.036V7.082H72.732V16H71.304ZM75.8351 18.45V17.386H76.3531C77.1931 17.386 77.5991 17.33 77.9351 16.154L77.9911 16L75.2751 8.468H76.6891L78.6071 14.278L80.4691 8.468H81.7991L79.1111 16.322C78.5511 17.946 78.1871 18.45 76.4931 18.45H75.8351ZM82.9413 8.468H84.2153V9.658C84.6773 8.86 85.4613 8.342 86.6793 8.342C88.4153 8.342 89.8993 9.798 89.8993 12.262C89.8993 14.768 88.4153 16.182 86.6793 16.182C85.4613 16.182 84.6773 15.664 84.2153 14.866V18.45H82.9413V8.468ZM84.1593 12.262C84.1593 14.25 85.2233 15.09 86.3573 15.09C87.6593 15.09 88.5133 14.068 88.5133 12.262C88.5133 10.456 87.6593 9.434 86.3573 9.434C85.2233 9.434 84.1593 10.274 84.1593 12.262ZM94.1885 16H91.4725V8.468H92.7465V11.128H94.2025C96.1625 11.128 97.0165 11.898 97.0165 13.508C97.0165 15.37 95.9105 16 94.1885 16ZM92.7465 12.234V14.894H94.0765C95.1965 14.894 95.7705 14.53 95.7705 13.508C95.7705 12.5 95.2105 12.234 94.0345 12.234H92.7465ZM99.5365 16H98.2625V8.468H99.5365V16Z" fill="#0370C7"/>
<path d="M106.274 16H105L108.99 5.85H110.278L106.274 16Z" fill="#747474"/>
<path d="M125.08 14.768V18.114H123.764V16H116.666V18.114H115.35V14.768H115.784C116.96 14.768 117.366 12.052 117.408 8.818L117.45 5.85H123.848V14.768H125.08ZM122.42 14.768V7.082H118.822L118.794 9.28C118.752 12.08 118.234 13.914 117.604 14.768H122.42ZM126.578 8.468H129.854C131.366 8.468 132.598 8.86 132.598 10.386C132.598 11.184 132.248 11.744 131.548 12.038C132.332 12.262 132.906 12.794 132.906 13.802C132.906 15.37 131.688 16 130.078 16H126.578V8.468ZM127.852 11.632H129.77C130.708 11.632 131.268 11.38 131.268 10.526C131.268 9.742 130.68 9.574 129.728 9.574H127.852V11.632ZM127.852 12.682V14.894H129.882C131.002 14.894 131.576 14.572 131.576 13.788C131.576 12.948 131.016 12.682 129.84 12.682H127.852ZM140.978 12.654H135.182C135.224 14.278 136.4 15.062 137.506 15.062C138.626 15.062 139.242 14.558 139.564 13.816H140.88C140.544 15.104 139.34 16.182 137.506 16.182C135.126 16.182 133.81 14.474 133.81 12.248C133.81 9.854 135.406 8.342 137.464 8.342C139.774 8.342 141.132 10.26 140.978 12.654ZM137.464 9.434C136.344 9.434 135.308 10.05 135.196 11.562H139.634C139.592 10.498 138.822 9.434 137.464 9.434ZM148.921 8.342C150.769 8.342 151.889 9.7 152.071 10.988H150.783C150.601 10.092 149.831 9.462 148.837 9.462C147.717 9.462 146.667 10.344 146.667 12.234C146.667 14.138 147.717 15.062 148.837 15.062C149.915 15.062 150.657 14.334 150.839 13.55H152.155C151.889 14.964 150.559 16.182 148.795 16.182C146.625 16.182 145.281 14.544 145.281 12.248C145.281 10.008 146.695 8.342 148.921 8.342ZM158.974 9.574H156.398V16H155.124V9.574H152.548V8.468H158.974V9.574ZM160.817 12.262C160.817 14.278 161.909 15.062 163.071 15.062C164.233 15.062 165.325 14.194 165.325 12.262C165.325 10.246 164.233 9.462 163.071 9.462C161.909 9.462 160.817 10.204 160.817 12.262ZM163.071 8.342C164.821 8.342 166.683 9.532 166.683 12.262C166.683 14.992 164.821 16.182 163.071 16.182C161.321 16.182 159.459 14.992 159.459 12.262C159.459 9.532 161.321 8.342 163.071 8.342ZM174.118 8.468V16H172.844V9.574H170.31L170.198 11.394C170.016 14.432 169.358 16 167.608 16H167.37V14.894H167.51C168.182 14.894 168.826 14.166 168.98 11.044L169.092 8.468H174.118ZM181.441 16V10.316L177.549 16H176.275V8.468H177.549V14.152L181.441 8.468H182.715V16H181.441ZM190.867 14.894H191.917V17.806H190.713V16H184.875V8.468H186.149V14.894H189.593V8.468H190.867V14.894ZM195.917 16H193.201V8.468H194.475V11.128H195.931C197.891 11.128 198.745 11.898 198.745 13.508C198.745 15.37 197.639 16 195.917 16ZM194.475 12.234V14.894H195.805C196.925 14.894 197.499 14.53 197.499 13.508C197.499 12.5 196.939 12.234 195.763 12.234H194.475ZM201.265 16H199.991V8.468H201.265V16ZM204.87 10.078H203.26V8.468H204.87V10.078ZM204.87 16H203.26V14.39H204.87V16ZM216.188 16H214.676L211.876 7.152V16H210.448V5.85H212.842L215.432 14.306L218.022 5.85H220.416V16H218.988V7.152L216.188 16ZM223.64 12.262C223.64 14.278 224.732 15.062 225.894 15.062C227.056 15.062 228.148 14.194 228.148 12.262C228.148 10.246 227.056 9.462 225.894 9.462C224.732 9.462 223.64 10.204 223.64 12.262ZM225.894 8.342C227.644 8.342 229.506 9.532 229.506 12.262C229.506 14.992 227.644 16.182 225.894 16.182C224.144 16.182 222.282 14.992 222.282 12.262C222.282 9.532 224.144 8.342 225.894 8.342ZM234.261 8.342C236.109 8.342 237.229 9.7 237.411 10.988H236.123C235.941 10.092 235.171 9.462 234.177 9.462C233.057 9.462 232.007 10.344 232.007 12.234C232.007 14.138 233.057 15.062 234.177 15.062C235.255 15.062 235.997 14.334 236.179 13.55H237.495C237.229 14.964 235.899 16.182 234.135 16.182C231.965 16.182 230.621 14.544 230.621 12.248C230.621 10.008 232.035 8.342 234.261 8.342ZM243.846 16L241.256 12.654H240.29V16H239.002V8.468H240.29V11.548H241.228L243.622 8.468H245.134L242.292 12.024L245.428 16H243.846ZM246.644 8.468H249.92C251.432 8.468 252.664 8.86 252.664 10.386C252.664 11.184 252.314 11.744 251.614 12.038C252.398 12.262 252.972 12.794 252.972 13.802C252.972 15.37 251.754 16 250.144 16H246.644V8.468ZM247.918 11.632H249.836C250.774 11.632 251.334 11.38 251.334 10.526C251.334 9.742 250.746 9.574 249.794 9.574H247.918V11.632ZM247.918 12.682V14.894H249.948C251.068 14.894 251.642 14.572 251.642 13.788C251.642 12.948 251.082 12.682 249.906 12.682H247.918ZM259.141 12.85V12.374C256.831 12.598 255.361 12.948 255.361 13.984C255.361 14.698 255.907 15.174 256.817 15.174C258.007 15.174 259.141 14.628 259.141 12.85ZM256.537 16.182C255.123 16.182 253.947 15.398 253.947 14.012C253.947 12.234 255.963 11.702 259.043 11.366V11.184C259.043 9.798 258.287 9.35 257.335 9.35C256.271 9.35 255.669 9.91 255.613 10.848H254.297C254.409 9.224 255.865 8.314 257.321 8.314C259.407 8.314 260.331 9.294 260.317 11.422L260.303 13.158C260.289 14.432 260.345 15.286 260.499 16H259.211C259.169 15.72 259.127 15.412 259.113 14.964C258.651 15.748 257.881 16.182 256.537 16.182ZM267.157 16H265.547V14.39H267.157V16ZM270.587 16H268.977V14.39H270.587V16ZM263.727 16H262.117V14.39H263.727V16Z" fill="#0370C7"/>
</svg>
