<svg width="1224" height="22" viewBox="0 0 1224 22" fill="none" xmlns="http://www.w3.org/2000/svg">
    <path d="M7.672 5.85V7.082H2.772V16H1.344V5.85H7.672ZM12.8796 8.468V16H11.6056V9.574H9.07156L8.95956 11.394C8.77756 14.432 8.11956 16 6.36956 16H6.13156V14.894H6.27156C6.94356 14.894 7.58756 14.166 7.74156 11.044L7.85356 8.468H12.8796ZM19.713 12.85V12.374C17.403 12.598 15.933 12.948 15.933 13.984C15.933 14.698 16.479 15.174 17.389 15.174C18.579 15.174 19.713 14.628 19.713 12.85ZM17.109 16.182C15.695 16.182 14.519 15.398 14.519 14.012C14.519 12.234 16.535 11.702 19.615 11.366V11.184C19.615 9.798 18.859 9.35 17.907 9.35C16.843 9.35 16.241 9.91 16.185 10.848H14.869C14.981 9.224 16.437 8.314 17.893 8.314C19.979 8.314 20.903 9.294 20.889 11.422L20.875 13.158C20.861 14.432 20.917 15.286 21.071 16H19.783C19.741 15.72 19.699 15.412 19.685 14.964C19.223 15.748 18.453 16.182 17.109 16.182ZM22.8573 8.468H26.1333C27.6453 8.468 28.8773 8.86 28.8773 10.386C28.8773 11.184 28.5273 11.744 27.8273 12.038C28.6113 12.262 29.1853 12.794 29.1853 13.802C29.1853 15.37 27.9673 16 26.3573 16H22.8573V8.468ZM24.1313 11.632H26.0493C26.9873 11.632 27.5473 11.38 27.5473 10.526C27.5473 9.742 26.9593 9.574 26.0073 9.574H24.1313V11.632ZM24.1313 12.682V14.894H26.1613C27.2813 14.894 27.8553 14.572 27.8553 13.788C27.8553 12.948 27.2953 12.682 26.1193 12.682H24.1313ZM36.9496 16H35.6756V12.71H31.9516V16H30.6776V8.468H31.9516V11.604H35.6756V8.468H36.9496V16ZM43.7755 12.85V12.374C41.4655 12.598 39.9955 12.948 39.9955 13.984C39.9955 14.698 40.5415 15.174 41.4515 15.174C42.6415 15.174 43.7755 14.628 43.7755 12.85ZM41.1715 16.182C39.7575 16.182 38.5815 15.398 38.5815 14.012C38.5815 12.234 40.5975 11.702 43.6775 11.366V11.184C43.6775 9.798 42.9215 9.35 41.9695 9.35C40.9055 9.35 40.3035 9.91 40.2475 10.848H38.9315C39.0435 9.224 40.4995 8.314 41.9555 8.314C44.0415 8.314 44.9655 9.294 44.9515 11.422L44.9375 13.158C44.9235 14.432 44.9795 15.286 45.1335 16H43.8455C43.8035 15.72 43.7615 15.412 43.7475 14.964C43.2855 15.748 42.5155 16.182 41.1715 16.182ZM52.4918 8.468V16H51.2178V13.326H49.8878C49.8178 13.326 49.7478 13.326 49.6778 13.312L47.6338 16H46.0518L48.3338 12.962C47.3818 12.64 46.7378 11.912 46.7378 10.792C46.7378 9.238 47.8018 8.468 49.5378 8.468H52.4918ZM51.2178 9.574H49.6078C48.6698 9.574 48.0398 9.966 48.0398 10.876C48.0398 11.898 48.8378 12.22 49.7198 12.22H51.2178V9.574Z" fill="#0370C7"/>
    <path d="M59.274 16H58L61.99 5.85H63.278L59.274 16Z" fill="#747474"/>
    <path d="M71.304 16V7.082H68V5.85H76.036V7.082H72.732V16H71.304ZM75.8351 18.45V17.386H76.3531C77.1931 17.386 77.5991 17.33 77.9351 16.154L77.9911 16L75.2751 8.468H76.6891L78.6071 14.278L80.4691 8.468H81.7991L79.1111 16.322C78.5511 17.946 78.1871 18.45 76.4931 18.45H75.8351ZM82.9413 8.468H84.2153V9.658C84.6773 8.86 85.4613 8.342 86.6793 8.342C88.4153 8.342 89.8993 9.798 89.8993 12.262C89.8993 14.768 88.4153 16.182 86.6793 16.182C85.4613 16.182 84.6773 15.664 84.2153 14.866V18.45H82.9413V8.468ZM84.1593 12.262C84.1593 14.25 85.2233 15.09 86.3573 15.09C87.6593 15.09 88.5133 14.068 88.5133 12.262C88.5133 10.456 87.6593 9.434 86.3573 9.434C85.2233 9.434 84.1593 10.274 84.1593 12.262ZM94.1885 16H91.4725V8.468H92.7465V11.128H94.2025C96.1625 11.128 97.0165 11.898 97.0165 13.508C97.0165 15.37 95.9105 16 94.1885 16ZM92.7465 12.234V14.894H94.0765C95.1965 14.894 95.7705 14.53 95.7705 13.508C95.7705 12.5 95.2105 12.234 94.0345 12.234H92.7465ZM99.5365 16H98.2625V8.468H99.5365V16Z" fill="#0370C7"/>
</svg>
