<svg width="80" height="80" viewBox="0 0 80 80" fill="none" xmlns="http://www.w3.org/2000/svg">
<g clip-path="url(#clip0_3_246625)">
<rect width="80" height="80" rx="40" fill="#FFC200"/>
<path d="M123.069 31.836L123.069 31.8365C122.827 32.6746 122.221 33.4282 121.476 34.082C120.727 34.7379 119.821 35.3081 118.95 35.776C118.653 35.9356 118.359 36.0837 118.077 36.2196C118.536 36.1335 119.019 36.0586 119.492 36.0113C120.449 35.9157 121.411 35.9277 122.05 36.2266C122.379 36.3802 122.638 36.6174 122.754 36.9656C122.867 37.3082 122.829 37.7217 122.642 38.206M123.069 31.836L122.45 38.132M123.069 31.836C123.132 31.617 123.146 31.4136 123.101 31.2307C123.055 31.0441 122.951 30.8943 122.804 30.7818C122.523 30.5662 122.094 30.4923 121.615 30.4908C120.645 30.4879 119.285 30.7857 117.92 31.1742C116.55 31.5644 115.153 32.0525 114.1 32.4425C113.981 32.4865 113.867 32.5292 113.757 32.5704C114.47 32.0261 115.398 31.2946 116.272 30.5379C117.149 29.7785 117.982 28.9842 118.485 28.324C118.733 27.9982 118.919 27.6806 118.974 27.4013C119.001 27.2574 118.997 27.1084 118.932 26.9724C118.866 26.834 118.749 26.7352 118.602 26.6709C118.339 26.5559 117.97 26.5093 117.547 26.5029C117.119 26.4965 116.612 26.5313 116.062 26.5946C114.961 26.7212 113.666 26.9635 112.433 27.2293C111.198 27.4953 110.02 27.7858 109.151 28.0097C108.716 28.1216 108.359 28.217 108.11 28.2844C107.985 28.3181 107.888 28.3448 107.822 28.3631L107.746 28.3841L107.727 28.3895L107.722 28.3909L107.72 28.3913L107.72 28.3913C107.72 28.3914 107.72 28.3914 107.776 28.5897M123.069 31.836L107.776 28.5897M122.642 38.206L122.45 38.132M122.642 38.206C122.643 38.2059 122.643 38.2058 122.643 38.2057L122.45 38.132M122.642 38.206C122.554 38.4361 122.34 38.7054 122.051 38.9957C121.755 39.2919 121.36 39.6296 120.882 39.996C119.927 40.7292 118.628 41.5865 117.105 42.4676C114.095 44.2094 110.191 46.0527 106.296 47.2187M122.45 38.132C121.877 39.6278 113.944 44.7459 106.101 47.0616M106.296 47.2187C106.299 47.1711 106.303 47.124 106.307 47.0774L106.101 47.0616M106.296 47.2187C106.035 50.5128 105.331 56.0492 103.377 61.6714C101.395 67.3726 98.1205 73.1845 92.6963 76.8238M106.296 47.2187C106.25 47.2323 106.205 47.2458 106.16 47.2591L106.101 47.0616M106.101 47.0616L92.6963 76.8238M92.6963 76.8238L92.5815 76.6528L92.6962 76.8238C92.6963 76.8238 92.6963 76.8238 92.6963 76.8238ZM67.8878 82.1223L67.9645 81.9296L67.95 81.9258L67.9444 81.9242L67.9431 81.9239L67.9429 81.9238L67.8878 82.1223ZM67.8878 82.1223L68.0792 82.1984L68.0894 82.1728C67.9566 82.1414 67.8878 82.1223 67.8878 82.1223ZM107.776 28.5897L107.72 28.3914L107.711 28.394L107.702 28.3974L100.172 31.2927M107.776 28.5897L100.172 31.2927M100.172 31.2927C100.229 31.051 100.307 30.7071 100.392 30.2955C100.561 29.4697 100.757 28.3681 100.861 27.2711C100.965 26.1794 100.981 25.0706 100.777 24.2405C100.675 23.8252 100.514 23.4588 100.261 23.2017C100.001 22.9367 99.6583 22.8023 99.2366 22.8337C98.8102 22.8654 98.4131 23.0868 98.0505 23.4165C97.6871 23.7469 97.3436 24.1991 97.0219 24.7234C96.3783 25.7721 95.8022 27.1416 95.3209 28.4936C94.8388 29.8476 94.4486 31.1936 94.179 32.2004C94.0441 32.704 93.9393 33.1232 93.8682 33.4167C93.8326 33.5634 93.8054 33.6788 93.7872 33.7576L93.7664 33.8477L93.7611 33.871L93.7598 33.877L93.7594 33.8785L93.7593 33.879C93.7593 33.8791 93.7593 33.8791 93.9603 33.924L100.172 31.2927ZM92.9098 40.6839L92.9054 40.7196L93.1097 40.7451L92.9258 40.6523L92.9258 40.6525L92.9254 40.6533L92.9237 40.6566L92.9171 40.6697L92.9098 40.6839ZM117.231 36.6057C116.241 36.8309 115.513 37.0578 115.513 37.0578L117.231 36.6057Z" fill="#FFF5E1" stroke="black" stroke-width="0.411904"/>
<path d="M0.794167 70.1268L0.805193 70.1172L9.69941 68.9466L22.4476 96.5041L22.4478 96.5244L22.4496 96.7125C22.451 96.8777 22.4527 97.1208 22.4536 97.4321C22.4556 98.0547 22.4549 98.9502 22.4443 100.041C22.423 102.223 22.3621 105.186 22.2033 108.31C22.0446 111.435 21.7881 114.718 21.3765 117.541C20.9632 120.375 20.3979 122.711 19.6385 123.969C19.2706 124.578 18.5248 125.264 17.4676 125.946C16.415 126.626 15.0706 127.292 13.5266 127.869C10.4378 129.024 6.56677 129.817 2.66248 129.662C-1.24103 129.508 -5.16711 128.406 -8.38313 125.782C-11.5969 123.161 -14.1218 119.002 -15.1962 112.696C-17.3475 100.069 -13.3402 89.417 -8.78675 81.9142C-6.51026 78.1631 -4.09892 75.2021 -2.25702 73.1793C-1.33617 72.168 -0.557972 71.3915 -0.0105715 70.8684C0.263119 70.6068 0.479084 70.4086 0.626299 70.2761C0.699905 70.2098 0.756321 70.1599 0.794167 70.1268Z" fill="#0A003C" stroke="black" stroke-width="0.411904"/>
<path d="M81.5072 84.6227C81.4301 84.6327 81.3328 84.6451 81.2166 84.6592C80.8922 84.6985 80.4212 84.7515 79.8362 84.806C78.6659 84.9148 77.0404 85.0293 75.2196 85.0518C71.5684 85.0968 67.1683 84.7707 64.0709 83.3142L63.7794 83.1772L63.7773 83.4992C63.746 88.2872 63.6721 92.6271 63.6061 95.77C63.5731 97.3414 63.5421 98.6136 63.5193 99.4928C63.5079 99.9324 63.4985 100.274 63.4921 100.505L63.4861 100.715C63.4536 100.726 63.4151 100.738 63.3707 100.753C63.2024 100.807 62.948 100.886 62.6052 100.985C61.9195 101.185 60.8802 101.465 59.4693 101.79C56.6475 102.439 52.3393 103.265 46.4014 103.967C40.4717 104.668 33.3592 104.668 27.7237 104.492C24.9071 104.405 22.4616 104.273 20.7205 104.163C19.8499 104.108 19.1555 104.059 18.6789 104.023C18.4405 104.006 18.2567 103.991 18.1325 103.981L18.1179 103.98C18.1109 103.893 18.1015 103.774 18.0898 103.624C18.0628 103.277 18.0239 102.767 17.9763 102.115C17.8811 100.811 17.751 98.9382 17.6118 96.6639C17.3332 92.1151 17.0177 85.9613 16.8701 79.5402L16.8666 79.3897L16.7222 79.3473C13.6751 78.4525 10.5329 77.9265 7.36207 77.7803L7.36208 77.7802L7.35468 77.7801C4.6691 77.7528 0.971786 78.5597 -2.03809 79.3662C-3.54647 79.7704 -4.8883 80.1763 -5.85303 80.481C-6.33546 80.6334 -6.72374 80.7606 -6.99157 80.8498C-7.02077 80.8595 -7.04855 80.8687 -7.07485 80.8775C-7.06314 80.8165 -7.04968 80.7476 -7.03437 80.6711C-6.96286 80.3137 -6.8512 79.791 -6.69088 79.1315C-6.37024 77.8124 -5.85512 75.9468 -5.0778 73.7638C-3.52276 69.3967 -0.920893 63.7665 3.26668 58.7C8.88692 52.0496 16.3865 47.2798 24.7669 45.0255L24.7814 45.0216L24.7953 45.0156C27.9601 43.6442 31.4645 43.0188 34.1838 42.7371C35.5423 42.5964 36.7021 42.5418 37.5218 42.5223C37.9316 42.5126 38.2563 42.5117 38.4781 42.5132C38.5891 42.5139 38.6742 42.5152 38.7315 42.5164L38.7962 42.5179L38.8123 42.5183L38.816 42.5184L38.8162 42.5185L38.8164 42.5185L38.8171 42.5185L38.8173 42.5185L38.8182 42.5185L38.8254 42.5188L38.8546 42.5201L38.9695 42.5253C39.0708 42.53 39.2204 42.5375 39.4131 42.5481C39.7987 42.5695 40.3571 42.6037 41.0476 42.6554C42.4286 42.7588 44.3373 42.932 46.4478 43.2106C50.6776 43.7692 55.6855 44.7482 58.8913 46.4236L81.5072 84.6227ZM81.5072 84.6227C81.5014 84.586 81.4949 84.544 81.4877 84.496C81.4502 84.245 81.3942 83.8308 81.3196 83.1747C81.1703 81.8626 80.9463 79.5802 80.6462 75.6952C80.3455 71.8009 80.3457 65.9601 80.4207 61.099C80.4582 58.6672 80.5145 56.4783 80.5614 54.8973C80.5848 54.1068 80.6059 53.4683 80.6212 53.0273C80.6285 52.8139 80.6345 52.6468 80.6388 52.5311C80.5297 52.5171 80.374 52.4967 80.1736 52.4698C79.7462 52.4124 79.1158 52.3253 78.3036 52.2063C76.6791 51.9684 74.3269 51.6032 71.4149 51.0937L71.4139 51.0935C66.3846 50.1864 60.7736 47.4068 59.286 46.6312L59.2853 46.6308L58.8918 46.4238L81.5072 84.6227Z" fill="#B6DFF9" stroke="black" stroke-width="0.411904"/>
<path d="M29.754 43.0983C29.7968 43.0896 29.8355 43.0819 29.8698 43.0751C29.8953 43.1841 29.9302 43.3478 29.9717 43.578C30.0628 44.0837 30.1853 44.9095 30.3079 46.1818C30.5533 48.7267 30.7994 53.0539 30.7994 60.1725C30.7994 74.3724 25.6312 85.8886 22.97 89.6138C21.4533 91.5757 19.5373 93.1875 17.3516 94.3418L14.5294 89.9321L14.5491 89.8842C14.5886 89.7874 14.6468 89.6444 14.7214 89.459C14.8705 89.0882 15.0852 88.548 15.348 87.87C15.8734 86.514 16.5908 84.6062 17.359 82.3987C18.8944 77.9862 20.6359 72.3663 21.4492 67.5598C22.2142 63.0717 22.1615 57.667 21.9195 53.3927C21.7984 51.2538 21.6297 49.3946 21.4912 48.0699C21.422 47.4075 21.3603 46.8786 21.3159 46.5152C21.2937 46.3335 21.2758 46.1931 21.2634 46.098L21.2585 46.0602C21.7162 45.6579 22.4527 45.2698 23.3295 44.9121C24.251 44.5361 25.3053 44.2024 26.3041 43.9241C27.3023 43.6461 28.2414 43.4245 28.9311 43.2725C29.2759 43.1964 29.5581 43.1378 29.754 43.0983Z" fill="#0A003C" stroke="black" stroke-width="0.411904"/>
<path d="M-6.05323 80.9575C-6.06934 81.0042 -6.09284 81.0732 -6.12279 81.1629C-6.18373 81.3455 -6.27137 81.6141 -6.37779 81.9574C-6.59063 82.644 -6.87846 83.6289 -7.17792 84.8203C-7.77711 87.2043 -8.42146 90.4102 -8.60625 93.7062C-8.79123 97.0056 -8.51439 100.375 -7.28832 103.099C-6.06752 105.811 -3.90363 107.891 -0.280631 108.629C3.02794 109.3 6.03176 108.167 8.71312 105.989C11.398 103.808 13.7445 100.59 15.7186 97.1293C19.666 90.2103 22.0937 82.3809 22.7598 80.127L22.7773 80.0675L22.8249 80.0276C24.5523 78.5774 25.8988 76.588 26.8156 74.952C27.2732 74.1354 27.622 73.4103 27.8561 72.8896C27.9732 72.6294 28.0616 72.4204 28.1205 72.2768C28.15 72.2051 28.1721 72.1497 28.1868 72.1124L28.2032 72.0704L28.2072 72.06L28.2081 72.0575L28.2084 72.057L28.2084 72.0569L28.2085 72.0569L28.6061 72.1437L28.6065 72.1438L28.6065 72.144L28.6064 72.1451L28.6061 72.1503L28.6048 72.1719C28.6038 72.1912 28.6024 72.2201 28.6011 72.2574C28.5983 72.3319 28.5957 72.4399 28.5962 72.5723C28.5971 72.8374 28.6106 73.1979 28.6601 73.5812C28.7098 73.9656 28.7948 74.3657 28.9356 74.7135C29.0771 75.0628 29.2677 75.342 29.5179 75.5086C29.7206 75.6436 29.9725 75.6285 30.3003 75.4289C30.6299 75.2283 30.9894 74.865 31.3476 74.4047C32.0612 73.4876 32.7241 72.2454 33.0903 71.3575C33.2597 70.9466 33.3231 70.3898 33.2864 69.7471C33.2499 69.1073 33.1149 68.3973 32.9011 67.6897C32.4715 66.2681 31.7343 64.8909 30.8777 64.1192C30.0017 63.3347 28.2692 62.2842 26.7376 61.4221C25.9753 60.993 25.2686 60.6138 24.7524 60.3418C24.4944 60.2059 24.284 60.0968 24.1383 60.0217C24.0654 59.9842 24.0087 59.9552 23.9703 59.9355L23.9266 59.9133L23.9155 59.9077L23.9127 59.9063L23.9121 59.9059L23.9119 59.9059L24.0048 59.7221L23.9119 59.9058L23.852 59.8756L-6.05323 80.9575ZM-6.05323 80.9575C-5.12875 80.445 -3.85214 80.0144 -2.44027 79.6576C-0.997046 79.2928 0.574327 79.0082 2.02986 78.7908C3.48495 78.5735 4.82159 78.4238 5.79455 78.3284C6.28095 78.2808 6.67625 78.2467 6.94979 78.2245C7.08655 78.2135 7.19286 78.2054 7.26487 78.2001L7.34669 78.1942L7.36741 78.1927L7.37256 78.1924L7.37382 78.1923L7.37411 78.1923L7.36035 77.9868L7.37419 78.1922L7.42774 78.1886L7.47272 78.1594L12.9254 74.6091L13.0082 74.5552L13.0179 74.4569L12.813 74.4365L13.0179 74.4568L13.018 74.4566L13.018 74.4558L13.0183 74.4526L13.0196 74.4399L13.0247 74.3897L13.0444 74.1964C13.0617 74.0285 13.0871 73.7855 13.1195 73.4853C13.1842 72.8849 13.2767 72.0561 13.3879 71.1421C13.6107 69.3111 13.9074 67.1487 14.205 65.7944C14.4943 64.4775 15.2909 63.3009 16.0277 62.446C16.3946 62.0202 16.7432 61.6783 16.9998 61.443C17.1281 61.3254 17.2331 61.2347 17.3057 61.1737C17.342 61.1431 17.3701 61.1201 17.389 61.1048L17.4102 61.0878L17.4153 61.0838L17.4164 61.0829L17.4165 61.0827L17.4166 61.0827L-6.05323 80.9575ZM23.8215 59.8158L23.8215 59.8159L17.4293 61.0728L17.4403 61.061L17.2897 60.9205L17.4403 61.061L17.4404 61.0609L17.4407 61.0605L17.4423 61.0589L17.4486 61.0522L17.4736 61.0256C17.4958 61.0021 17.5286 60.9677 17.5708 60.9237C17.6553 60.8357 17.7777 60.7097 17.9287 60.5584C18.2308 60.2554 18.6466 59.8516 19.102 59.4469C19.5582 59.0414 20.0501 58.6388 20.505 58.3359C20.7324 58.1845 20.9469 58.0605 21.1401 57.9737C21.3356 57.8858 21.497 57.8417 21.6214 57.8374C21.8874 57.8282 22.1563 57.9303 22.4196 58.1095C22.6826 58.2884 22.9267 58.5352 23.1374 58.7909C23.3474 59.0456 23.519 59.3028 23.6384 59.497C23.698 59.5938 23.7442 59.6744 23.7753 59.7304C23.7909 59.7584 23.8027 59.7802 23.8104 59.7948L23.819 59.8112L23.821 59.815L23.8214 59.8158L23.8215 59.8158Z" fill="#FFF5E1" stroke="black" stroke-width="0.411904"/>
<path d="M63.777 80.4083C63.7808 81.1268 63.7831 81.7761 63.7844 82.3415C63.7569 82.1835 63.728 82.0188 63.6978 81.8478C63.3786 80.0381 62.9172 77.5266 62.3482 74.7193C61.211 69.1084 59.6417 62.3034 57.9169 57.5616C56.1927 52.8214 54.3286 49.3037 52.8938 46.9692C52.1765 45.802 51.5665 44.9306 51.135 44.35C50.9919 44.1575 50.8684 43.9969 50.7672 43.8682C51.0613 43.9036 51.4745 43.9601 51.9715 44.0459C53.0022 44.2238 54.3899 44.5275 55.822 45.03C58.7025 46.0408 61.6848 47.828 62.4023 50.9383C62.7694 52.5293 63.0414 55.4369 63.2413 58.9198C63.4408 62.397 63.5678 66.4313 63.6484 70.266C63.7289 74.1003 63.763 77.7336 63.777 80.4083Z" fill="#0A003C" stroke="black" stroke-width="0.411904"/>
<path d="M15.7388 65.1809C15.6975 65.1897 15.6548 65.1897 15.6134 65.1809C15.5308 65.1469 15.4648 65.0815 15.4296 64.9989C15.3944 64.9163 15.3929 64.8231 15.4254 64.7394L16.9654 60.7747C17.001 60.693 17.0661 60.628 17.1476 60.5929C17.2291 60.5577 17.3208 60.5551 17.4041 60.5855C17.4868 60.6195 17.5528 60.6849 17.588 60.7675C17.6232 60.8501 17.6247 60.9433 17.5922 61.027L16.0521 64.9917C16.0232 65.05 15.9784 65.0988 15.9228 65.1323C15.8673 65.1658 15.8035 65.1827 15.7388 65.1809Z" fill="black"/>
<path d="M28.329 72.4712H28.2126C28.1473 72.4459 28.091 72.4014 28.0511 72.3436C28.0112 72.2858 27.9895 72.2172 27.9888 72.1468V69.9391C28.0018 69.859 28.0427 69.7861 28.1042 69.7336C28.1657 69.681 28.2438 69.6521 28.3245 69.6521C28.4052 69.6521 28.4833 69.681 28.5448 69.7336C28.6063 69.7861 28.6472 69.859 28.6603 69.9391V71.2277L29.9138 69.7229C29.9743 69.667 30.053 69.635 30.1351 69.6329C30.2173 69.6308 30.2974 69.6587 30.3607 69.7114C30.424 69.7642 30.4662 69.8382 30.4795 69.9198C30.4928 70.0014 30.4763 70.0851 30.4331 70.1554L28.6155 72.3901C28.5767 72.424 28.5308 72.4488 28.4813 72.4629C28.4317 72.4769 28.3798 72.4797 28.329 72.4712Z" fill="black"/>
<path d="M43.3251 12.3615L43.3386 12.567L43.4102 12.5623L43.4634 12.5141L43.4634 12.5141L43.4635 12.514L43.464 12.5135L43.4666 12.5112L43.4777 12.5013C43.4876 12.4925 43.5027 12.4792 43.5227 12.4618C43.5627 12.4271 43.6223 12.376 43.7 12.3115C43.8555 12.1824 44.0832 11.9998 44.3705 11.7869C44.9456 11.3608 45.7571 10.8152 46.7042 10.3353C48.609 9.37008 51.0082 8.69728 53.1393 9.70913C54.1667 10.1969 54.619 11.0787 54.7127 12.1676C54.8073 13.2671 54.5322 14.5594 54.1114 15.8076C53.6919 17.052 53.134 18.234 52.6799 19.1063C52.453 19.5421 52.2526 19.8996 52.109 20.1479C52.0373 20.272 51.9797 20.3688 51.9403 20.4344C51.9319 20.4484 51.9243 20.4609 51.9175 20.472C51.9111 20.4826 51.9055 20.4918 51.9007 20.4997L34.6222 33.0643C34.558 32.9943 34.4702 32.8973 34.3626 32.7759C34.1209 32.5032 33.7794 32.1071 33.3818 31.615C32.586 30.6303 31.5672 29.2641 30.6714 27.7344C29.7746 26.2029 29.0076 24.5185 28.7053 22.8962C28.4034 21.2763 28.5676 19.7376 29.5055 18.4669C31.428 15.8622 34.8667 14.3818 37.8613 13.5545C39.3534 13.1423 40.7242 12.8953 41.7221 12.7513C42.2209 12.6793 42.626 12.6332 42.906 12.605C43.046 12.591 43.1547 12.5814 43.2281 12.5754C43.2648 12.5724 43.2927 12.5703 43.3113 12.5689L43.3321 12.5674L43.3372 12.5671L43.3383 12.567L43.3386 12.567L43.3251 12.3615Z" fill="black" stroke="black" stroke-width="0.411904"/>
<path d="M35.7054 44.6739L36.4837 35.7193L37.8149 36.1304L37.8156 36.1306L47.2382 39.0785L47.403 43.5639L47.403 43.5645L47.5594 48.1721C47.5208 48.1867 47.4723 48.204 47.4131 48.2227C47.2233 48.2828 46.9246 48.3586 46.5007 48.4145C45.6531 48.5263 44.304 48.5591 42.3246 48.2286C39.676 47.7836 38.0097 46.8693 37.0094 46.0762C36.5087 45.6792 36.1732 45.3113 35.9643 45.0454C35.8599 44.9124 35.787 44.8049 35.7409 44.7319C35.7265 44.7091 35.7147 44.6897 35.7054 44.6739Z" fill="#FFF5E1" stroke="black" stroke-width="0.411904"/>
<path d="M38.2912 36.767L38.2914 36.7669L38.2881 36.7585C38.2194 36.5858 38.1693 36.4064 38.1385 36.2235L47.2616 39.0605L47.417 43.2905C46.258 43.0715 44.4577 42.6011 42.7277 41.6614C40.8684 40.6514 39.106 39.1084 38.2912 36.767Z" fill="black" stroke="black" stroke-width="0.411904"/>
<path d="M41.1569 39.1913L41.157 39.1913L41.1531 39.1896C39.2743 38.3507 37.6549 37.0175 36.4653 35.3303L36.3889 35.222L36.2588 35.2466C35.2712 35.4327 34.2505 35.3009 33.3415 34.8699C32.4324 34.4388 31.6813 33.7303 31.1949 32.8448L31.1949 32.8448L31.1931 32.8416C30.2785 31.2451 30.2359 29.6343 30.655 28.3505C31.0771 27.0577 31.9579 26.1184 32.8668 25.8328C33.7892 25.5429 34.7465 25.7647 35.4913 26.0753C35.8611 26.2295 36.1717 26.4028 36.3897 26.5376C36.4985 26.6048 36.5838 26.6622 36.6415 26.7024C36.6703 26.7225 36.6921 26.7383 36.7065 26.7489L36.7224 26.7606L36.7261 26.7634L36.7267 26.7639L36.7268 26.7639L36.7268 26.7639L36.7268 26.764L37.3197 27.2186L37.0434 26.5243L35.6741 23.0836C35.6886 23.0581 35.7064 23.0271 35.7273 22.9909C35.7941 22.8754 35.8933 22.707 36.0221 22.4964C36.2797 22.075 36.6556 21.485 37.1281 20.8117C38.0742 19.4632 39.4021 17.7885 40.9373 16.4639C42.4771 15.1353 44.1955 14.1848 45.9269 14.2268C47.6368 14.2684 49.4254 15.2815 51.1142 18.0274L51.1174 18.0377C51.1245 18.0603 51.1351 18.0941 51.1488 18.1386C51.1763 18.2277 51.2163 18.3593 51.2664 18.5294C51.3666 18.8694 51.5072 19.3627 51.6684 19.9746C51.9907 21.1985 52.395 22.8956 52.7228 24.7884C53.0507 26.6818 53.3013 28.7672 53.318 30.7688C53.3347 32.7727 53.1166 34.6789 52.5167 36.2213C51.9145 37.7695 51.1149 38.8175 50.2117 39.501C49.3087 40.1844 48.2899 40.5126 47.2341 40.6017C45.1137 40.7807 42.8577 39.9934 41.1569 39.1913Z" fill="#FFF5E1" stroke="black" stroke-width="0.411904"/>
<path d="M36.1246 31.3414L36.1107 31.3397L36.0968 31.3398C36.065 31.3402 36.0339 31.3291 36.0093 31.3082C36.0092 31.3081 36.0091 31.308 36.009 31.3079L32.1171 27.9571C32.0962 27.9313 32.0846 27.8987 32.0846 27.8649C32.0846 27.8288 32.0978 27.7942 32.1214 27.7676C32.1328 27.7563 32.1461 27.7474 32.1607 27.7412C32.176 27.7347 32.1924 27.7313 32.209 27.7313C32.2255 27.7313 32.2419 27.7347 32.2572 27.7412C32.2725 27.7477 32.2864 27.7572 32.2982 27.7694L32.3047 27.7761L32.3118 27.7822L36.2093 31.1378C36.2197 31.1489 36.2281 31.1618 36.234 31.1759L36.424 31.0963L36.234 31.1759C36.2406 31.1916 36.244 31.2086 36.244 31.2259C36.244 31.2432 36.2406 31.2602 36.234 31.2759L36.424 31.3555L36.234 31.2759C36.2278 31.2907 36.2189 31.3042 36.2078 31.3156C36.1968 31.3253 36.1839 31.3326 36.17 31.3371L36.2334 31.533L36.17 31.3371C36.1553 31.3418 36.1398 31.3433 36.1246 31.3414Z" fill="black" stroke="black" stroke-width="0.411904"/>
<path d="M32.3141 30.9619H32.3057L32.2973 30.9626C32.2643 30.9653 32.2314 30.9547 32.2058 30.9328C32.1802 30.9109 32.164 30.8794 32.1612 30.845C32.1584 30.8106 32.1694 30.7767 32.1913 30.7508C32.2132 30.7249 32.2441 30.7091 32.2771 30.7064L32.2861 30.7056L32.2951 30.7041L35.0702 30.2297C35.0978 30.2315 35.1244 30.2419 35.1462 30.2599L35.2774 30.1011L35.1462 30.2599C35.1711 30.2805 35.1881 30.3095 35.1938 30.342C35.1994 30.3745 35.1933 30.4079 35.1767 30.436C35.1623 30.4605 35.1409 30.4794 35.1158 30.4907L32.3504 30.9619H32.3141Z" fill="black" stroke="black" stroke-width="0.411904"/>
<path d="M43.2026 21.9407L43.2026 21.9407L43.1983 21.9406C43.1669 21.9397 43.1366 21.9284 43.1122 21.9082C43.0905 21.8835 43.0783 21.8513 43.0783 21.8176C43.0783 21.7815 43.0922 21.7473 43.1167 21.7219L43.1233 21.7151L43.1293 21.7077C43.5277 21.2113 44.092 20.8784 44.7163 20.7709C45.3397 20.6635 45.9806 20.7881 46.5196 21.1215C46.5465 21.1396 46.5657 21.1679 46.5727 21.2005C46.5798 21.2338 46.5735 21.2685 46.5554 21.2969L46.5554 21.2969L46.5544 21.2985C46.5454 21.313 46.5336 21.3254 46.5199 21.3351C46.5061 21.3447 46.4906 21.3514 46.4743 21.3549C46.4581 21.3584 46.4413 21.3585 46.425 21.3553C46.4086 21.3521 46.3931 21.3457 46.3792 21.3362L46.3794 21.3359L46.369 21.3298C45.8751 21.0355 45.2918 20.9313 44.7272 21.0365C44.164 21.1416 43.658 21.4478 43.3021 21.8984C43.2898 21.9123 43.2748 21.9233 43.258 21.9306C43.2406 21.9382 43.2216 21.9417 43.2026 21.9407Z" fill="black" stroke="black" stroke-width="0.411904"/>
<path d="M52.0975 22.2294L52.0976 22.2294L52.094 22.2259C51.7992 21.933 51.4239 21.7353 51.0162 21.6586C50.6086 21.5819 50.1875 21.6297 49.8072 21.7958L49.8071 21.7956L49.8004 21.7989C49.7703 21.8133 49.7359 21.8152 49.7046 21.804C49.6732 21.7929 49.6471 21.7695 49.6325 21.7385C49.6178 21.7076 49.6159 21.6719 49.6273 21.6394C49.6385 21.6075 49.6614 21.5818 49.6907 21.5672C50.117 21.374 50.5913 21.3156 51.0512 21.3996C51.5113 21.4836 51.9354 21.7064 52.2673 22.0385C52.2912 22.0637 52.3049 22.0976 52.3049 22.1332C52.3049 22.1679 52.2919 22.201 52.269 22.226C52.2436 22.2492 52.2113 22.2628 52.1774 22.2651C52.1632 22.2647 52.1491 22.2616 52.1359 22.256C52.1215 22.2499 52.1085 22.2408 52.0975 22.2294Z" fill="black" stroke="black" stroke-width="0.411904"/>
<path d="M49.8867 30.9616L49.8612 30.9609L49.8363 30.9665C49.8319 30.9675 49.8273 30.968 49.8228 30.968C49.7969 30.954 49.776 30.9316 49.7636 30.9038C49.7489 30.8709 49.7477 30.8334 49.7602 30.7995C50.3974 29.1675 50.1745 28.0235 49.7516 27.2749C49.3453 26.5559 48.7709 26.2304 48.6815 26.1839C48.6512 26.1658 48.6282 26.1369 48.6174 26.1023C48.6068 26.0682 48.6089 26.0315 48.6232 25.999C48.6402 25.9702 48.6668 25.9489 48.6979 25.9389C48.7295 25.9287 48.7637 25.9308 48.7939 25.9447L48.7957 25.9456L48.8147 25.9564C48.832 25.9665 48.8583 25.9823 48.8919 26.004C48.9591 26.0476 49.0553 26.1146 49.1671 26.2068C49.3911 26.3914 49.6753 26.6746 49.9159 27.0681C50.3905 27.8443 50.7131 29.0777 50.0068 30.893C49.9952 30.9135 49.9786 30.9305 49.9588 30.9425C49.9369 30.9557 49.9119 30.9623 49.8867 30.9616ZM48.7911 25.9431L48.7913 25.9432L48.7912 25.9432C48.7911 25.9432 48.7911 25.9431 48.7911 25.9431Z" fill="black" stroke="black" stroke-width="0.411904"/>
<path d="M51.8897 26.5639L51.8897 26.5639L51.8907 26.5689C51.8942 26.5859 51.8943 26.6034 51.8909 26.6203C51.8875 26.6373 51.8808 26.6533 51.8713 26.6674C51.8617 26.6815 51.8495 26.6935 51.8353 26.7027L51.944 26.871L51.8353 26.7027C51.8249 26.7094 51.8137 26.7145 51.802 26.7178H51.7616C51.7315 26.7176 51.7021 26.7071 51.6784 26.6878C51.6552 26.6689 51.6387 26.6426 51.6318 26.6128L51.2386 24.4366C51.2386 24.4366 51.2386 24.4365 51.2386 24.4365C51.2323 24.401 51.2401 24.3645 51.2602 24.3349C51.2794 24.3065 51.3082 24.2869 51.3405 24.2793C51.3746 24.2751 51.4092 24.2835 51.4379 24.3032C51.467 24.3231 51.4881 24.3534 51.4967 24.3883L51.8897 26.5639Z" fill="black" stroke="black" stroke-width="0.411904"/>
<path d="M45.9427 26.3314L45.9033 26.3371C45.8768 26.3344 45.8516 26.3238 45.8308 26.3063C45.807 26.2862 45.7906 26.2582 45.7847 26.227C45.7847 26.2269 45.7847 26.2268 45.7846 26.2266L45.3937 24.0718C45.3944 24.0421 45.4046 24.0134 45.4228 23.9901C45.443 23.9641 45.4717 23.9467 45.5032 23.9407C45.5348 23.9347 45.5676 23.9404 45.5955 23.9569C45.6203 23.9715 45.6398 23.9939 45.6513 24.0208L46.042 26.1835C46.042 26.1835 46.042 26.1836 46.042 26.1836C46.045 26.2003 46.0446 26.2173 46.0411 26.2338L46.2423 26.2776L46.0411 26.2338C46.0375 26.2502 46.0307 26.2659 46.0211 26.2797C46.0115 26.2936 45.9994 26.3052 45.9856 26.3141C45.9725 26.3225 45.9579 26.3284 45.9427 26.3314Z" fill="black" stroke="black" stroke-width="0.411904"/>
<path d="M51.9842 20.1062C51.693 19.6644 51.319 19.2818 50.8814 18.9806C50.302 18.5819 49.6306 18.3395 48.9313 18.2766L48.9298 18.2765C48.2147 18.2173 47.4951 18.3077 46.8163 18.5418C46.1375 18.776 45.5143 19.1489 44.9858 19.637L44.9037 19.7128L44.9225 19.8228L44.9225 19.8229L44.9226 19.823L44.9226 19.823L44.9228 19.8245L44.9239 19.8316L44.9285 19.8622C44.9323 19.8898 44.9378 19.9312 44.9436 19.9851C44.9552 20.0929 44.9685 20.2502 44.9744 20.445C44.9862 20.8352 44.9685 21.3732 44.8508 21.9648C44.6158 23.1465 43.9858 24.5293 42.4036 25.3924C40.7821 26.2768 39.3951 26.5238 38.419 26.5522C37.9305 26.5664 37.544 26.5259 37.2816 26.4825C37.1505 26.4608 37.0504 26.4384 36.9843 26.4218C36.9512 26.4135 36.9266 26.4066 36.9108 26.402L36.8986 26.3984L34.7568 25.4375L33.4524 22.16L40.4844 15.7199L49.2004 12.0061L53.0274 16.1418L51.9842 20.1062Z" fill="black" stroke="black" stroke-width="0.411904"/>
<path d="M47.3718 34.4653L47.2854 34.464C46.6355 34.4538 46.0029 34.2514 45.4663 33.8819C44.9313 33.5134 44.5154 32.9949 44.2701 32.3906C44.2597 32.358 44.2618 32.3225 44.276 32.2913C44.2906 32.2592 44.3167 32.2345 44.3485 32.2217C44.3637 32.216 44.3799 32.2133 44.3961 32.2138C44.4125 32.2144 44.4287 32.2182 44.4438 32.2251C44.4589 32.2321 44.4725 32.2421 44.4838 32.2544C44.4951 32.2668 44.504 32.2814 44.5098 32.2975L44.5097 32.2975L44.5112 32.3015C44.7268 32.8657 45.1059 33.3519 45.5996 33.6969C46.0933 34.0419 46.6788 34.2298 47.2801 34.2361L47.2801 34.2361L47.2823 34.2361C47.3169 34.2361 47.3504 34.2496 47.3756 34.2743C47.4001 34.2984 47.4149 34.3312 47.4165 34.3662C47.4158 34.4013 47.4019 34.4345 47.378 34.4593C47.376 34.4614 47.3739 34.4634 47.3718 34.4653Z" fill="black" stroke="black" stroke-width="0.411904"/>
</g>
<defs>
<clipPath id="clip0_3_246625">
<rect width="80" height="80" rx="40" fill="white"/>
</clipPath>
</defs>
</svg>
