<svg width="1440" height="72" viewBox="0 0 1440 72" fill="none" xmlns="http://www.w3.org/2000/svg">
<rect width="1440" height="72" fill="white"/>
<g clip-path="url(#clip0_219_112364)">
<path d="M108 26.2612C108 23.9078 109.908 22 112.261 22H131.739C134.092 22 136 23.9078 136 26.2613V45.7388C136 48.0922 134.092 50 131.739 50H112.261C109.908 50 108 48.0922 108 45.7388V26.2612Z" fill="#FF3000"/>
<path d="M129.09 45.1875C127.84 45.1875 126.979 44.5024 126.979 42.3801V41.9236H128.368V42.3804C128.368 43.5087 128.674 43.8175 129.09 43.8175C129.507 43.8175 129.799 43.5087 129.799 42.9848C129.799 42.3265 129.701 41.964 128.729 41.2789C127.59 40.4865 127.063 39.6402 127.063 38.5522C127.063 37.1687 127.812 36.3359 129.09 36.3359C129.979 36.3359 131.16 36.6046 131.16 38.861V39.385H129.771V38.861C129.771 37.9746 129.479 37.6791 129.09 37.6791C128.674 37.6791 128.451 37.9746 128.451 38.4983C128.451 39.0355 128.576 39.4787 129.549 40.2042C130.757 41.1041 131.188 41.8161 131.188 42.9845C131.188 44.1529 130.632 45.1875 129.09 45.1875ZM124.354 45.1875C123.104 45.1875 122.243 44.6099 122.243 42.3801V41.9236H123.632V42.3804C123.632 43.5087 123.938 43.8175 124.354 43.8175C124.771 43.8175 125.062 43.5087 125.062 42.9848C125.062 42.3265 124.965 41.964 123.993 41.2789C122.854 40.4865 122.326 39.6402 122.326 38.5522C122.326 37.1687 123.076 36.3359 124.354 36.3359C125.243 36.3359 126.424 36.6046 126.424 38.861V39.385H125.035V38.861C125.035 37.9746 124.743 37.6791 124.354 37.6791C123.938 37.6791 123.715 37.9746 123.715 38.4983C123.715 39.0355 123.84 39.4787 124.812 40.2042C126.021 41.1041 126.451 41.8161 126.451 42.9845C126.451 44.1529 125.896 45.1875 124.354 45.1875ZM129.09 35.6641C127.84 35.6641 126.979 34.979 126.979 32.8567V32.4002H128.368V32.8569C128.368 33.9853 128.674 34.2941 129.09 34.2941C129.507 34.2941 129.799 33.9853 129.799 33.4613C129.799 32.8031 129.701 32.4406 128.729 31.7555C127.59 30.963 127.063 30.1167 127.063 29.0288C127.063 27.6453 127.812 26.8125 129.09 26.8125C129.979 26.8125 131.16 27.0812 131.16 29.3376V29.8615H129.771V29.3376C129.771 28.4512 129.479 28.1557 129.09 28.1557C128.674 28.1557 128.451 28.4512 128.451 28.9749C128.451 29.5121 128.576 29.9553 129.549 30.6808C130.757 31.5807 131.188 32.2927 131.188 33.4611C131.188 34.6295 130.632 35.6641 129.09 35.6641ZM124.354 35.6641C123.104 35.6641 122.243 35.0865 122.243 32.8567V32.4002H123.632V32.8569C123.632 33.9853 123.938 34.2941 124.354 34.2941C124.771 34.2941 125.062 33.9853 125.062 33.4613C125.062 32.8031 124.965 32.4406 123.993 31.7555C122.854 30.963 122.326 30.1167 122.326 29.0288C122.326 27.6453 123.076 26.8125 124.354 26.8125C125.243 26.8125 126.424 27.0812 126.424 29.3376V29.8615H125.035V29.3376C125.035 28.4512 124.743 28.1557 124.354 28.1557C123.938 28.1557 123.715 28.4512 123.715 28.9749C123.715 29.5121 123.84 29.9553 124.812 30.6808C126.021 31.5807 126.451 32.2927 126.451 33.4611C126.451 34.6295 125.896 35.6641 124.354 35.6641ZM114.202 41.9236H114.479C115.091 41.9236 115.396 41.6281 115.396 40.2581V39.479C115.396 38.109 115.09 37.8134 114.479 37.8134H114.202V41.9236ZM114.202 45.0531H112.813V36.47H114.479C116.285 36.47 116.785 37.464 116.785 39.3446V40.3922C116.785 42.2726 116.285 43.2668 114.479 43.2668H114.202V45.0531ZM114.479 31.057H114.201V28.29H114.479C115.104 28.29 115.396 28.4916 115.396 29.4316V29.9152C115.396 30.8555 115.104 31.057 114.479 31.057ZM117.049 35.53L115.979 31.957C116.493 31.5406 116.785 30.8555 116.785 30.0094V29.3379C116.785 27.7663 116.063 26.9469 114.479 26.9469H112.812V35.53H114.201V32.4002H114.382C114.451 32.4002 114.549 32.4002 114.701 32.3867L115.535 35.5297L117.049 35.53ZM118.632 41.9236L119.34 37.8134H119.452L120.16 41.9236H118.632ZM120.688 45.0531H122.076L120.535 36.47H118.257L116.702 45.0531H118.09L118.41 43.2668H120.382L120.688 45.0531ZM119.535 35.6641C117.826 35.6641 117.507 34.4149 117.507 32.8971V26.9469H118.951V33.0181C118.951 34.0793 119.146 34.3209 119.535 34.3209C119.924 34.3209 120.118 34.0793 120.118 33.0181V26.9469H121.562V32.8973C121.562 34.4149 121.243 35.6641 119.535 35.6641Z" fill="white"/>
<rect x="152" y="22" width="2" height="28" rx="1" fill="#D9D9D9"/>
<path d="M176.446 22.3128C178.647 22.3128 180.278 22.8864 181.339 24.0335C182.427 25.1806 182.971 26.8622 182.971 29.0782V32.6369C182.971 34.8529 182.427 36.5345 181.339 37.6816C180.278 38.8287 178.647 39.4022 176.446 39.4022H174.377V49.6872H170V22.3128H176.446ZM174.377 26.2235V35.4916H176.446C177.135 35.4916 177.666 35.3091 178.037 34.9441C178.408 34.5791 178.594 33.9013 178.594 32.9106V28.8045C178.594 27.8138 178.408 27.1359 178.037 26.7709C177.666 26.406 177.135 26.2235 176.446 26.2235H174.377Z" fill="#FF3000"/>
<path d="M189.016 43.3911C189.016 44.3818 189.215 45.0857 189.613 45.5028C190.038 45.8939 190.595 46.0894 191.284 46.0894C191.974 46.0894 192.518 45.8939 192.916 45.5028C193.34 45.0857 193.552 44.3818 193.552 43.3911V28.6089C193.552 27.6182 193.34 26.9274 192.916 26.5363C192.518 26.1192 191.974 25.9106 191.284 25.9106C190.595 25.9106 190.038 26.1192 189.613 26.5363C189.215 26.9274 189.016 27.6182 189.016 28.6089V43.3911ZM184.64 28.8827C184.64 26.6667 185.21 24.9721 186.351 23.7989C187.491 22.5996 189.136 22 191.284 22C193.433 22 195.077 22.5996 196.218 23.7989C197.359 24.9721 197.929 26.6667 197.929 28.8827V43.1173C197.929 45.3333 197.359 47.041 196.218 48.2402C195.077 49.4134 193.433 50 191.284 50C189.136 50 187.491 49.4134 186.351 48.2402C185.21 47.041 184.64 45.3333 184.64 43.1173V28.8827Z" fill="#FF3000"/>
<path d="M213.465 39.4804V43.1173C213.465 45.3333 212.908 47.041 211.794 48.2402C210.707 49.4134 209.089 50 206.94 50C204.791 50 203.16 49.4134 202.046 48.2402C200.959 47.041 200.415 45.3333 200.415 43.1173V28.8827C200.415 26.6667 200.959 24.9721 202.046 23.7989C203.16 22.5996 204.791 22 206.94 22C209.089 22 210.707 22.5996 211.794 23.7989C212.908 24.9721 213.465 26.6667 213.465 28.8827V31.5419H209.327V28.6089C209.327 27.6182 209.115 26.9274 208.691 26.5363C208.293 26.1192 207.749 25.9106 207.059 25.9106C206.37 25.9106 205.813 26.1192 205.388 26.5363C204.99 26.9274 204.791 27.6182 204.791 28.6089V43.3911C204.791 44.3818 204.99 45.0726 205.388 45.4637C205.813 45.8547 206.37 46.0503 207.059 46.0503C207.749 46.0503 208.293 45.8547 208.691 45.4637C209.115 45.0726 209.327 44.3818 209.327 43.3911V39.4804H213.465Z" fill="#FF3000"/>
<path d="M228.813 39.4804V43.1173C228.813 45.3333 228.256 47.041 227.142 48.2402C226.054 49.4134 224.436 50 222.288 50C220.139 50 218.508 49.4134 217.394 48.2402C216.306 47.041 215.763 45.3333 215.763 43.1173V28.8827C215.763 26.6667 216.306 24.9721 217.394 23.7989C218.508 22.5996 220.139 22 222.288 22C224.436 22 226.054 22.5996 227.142 23.7989C228.256 24.9721 228.813 26.6667 228.813 28.8827V31.5419H224.675V28.6089C224.675 27.6182 224.463 26.9274 224.038 26.5363C223.64 26.1192 223.097 25.9106 222.407 25.9106C221.717 25.9106 221.16 26.1192 220.736 26.5363C220.338 26.9274 220.139 27.6182 220.139 28.6089V43.3911C220.139 44.3818 220.338 45.0726 220.736 45.4637C221.16 45.8547 221.717 46.0503 222.407 46.0503C223.097 46.0503 223.64 45.8547 224.038 45.4637C224.463 45.0726 224.675 44.3818 224.675 43.3911V39.4804H228.813Z" fill="#FF3000"/>
<path d="M235.964 49.6872H231.468V22.3128H235.367V39.6369L236.959 33.6145L240.54 22.3128H245.354V49.6872H241.415V30.4078L239.625 37.1341L235.964 49.6872Z" fill="#FF3000"/>
<path d="M247.652 49.6872C247.864 49.1657 247.997 48.6574 248.05 48.162C248.103 47.6406 248.129 47.041 248.129 46.3631V42.1397C248.129 40.7058 248.328 39.4935 248.726 38.5028C249.151 37.486 249.92 36.7561 251.034 36.3128C249.124 35.4264 248.169 33.5754 248.169 30.7598V28.6089C248.169 26.4972 248.673 24.9199 249.681 23.8771C250.716 22.8343 252.373 22.3128 254.655 22.3128H261.259V49.6872H256.883V38.5419H255.371C254.363 38.5419 253.633 38.8026 253.182 39.324C252.732 39.8454 252.506 40.7449 252.506 42.0223V46.324C252.506 46.8715 252.493 47.3277 252.466 47.6927C252.466 48.0577 252.44 48.3575 252.387 48.5922C252.36 48.8268 252.32 49.0223 252.267 49.1788C252.214 49.3352 252.161 49.5047 252.108 49.6872H247.652ZM254.774 26.2235C254.005 26.2235 253.434 26.4451 253.063 26.8883C252.718 27.3315 252.546 28.0484 252.546 29.0391V31.7374C252.546 32.8324 252.771 33.5885 253.222 34.0056C253.7 34.4227 254.35 34.6313 255.172 34.6313H256.883V26.2235H254.774Z" fill="#FF3000"/>
<path d="M283.259 33L289.259 39L295.259 33" stroke="#1D1D1D" stroke-width="2" stroke-linecap="square"/>
</g>
<path d="M335.259 36H355.259M335.259 30H355.259M335.259 42H355.259" stroke="#1D1D1D" stroke-width="2" stroke-linejoin="round"/>
<path d="M373.611 42H371.547L368.603 32.608V42H366.619V30.4H369.771L372.587 39.648L375.387 30.4H378.539V42H376.555V32.608L373.611 42ZM388.748 38.24H382.332C382.46 39.84 383.58 40.624 384.668 40.624C385.676 40.624 386.444 40.24 386.78 39.424H388.652C388.268 40.8 386.956 42.208 384.748 42.208C381.98 42.208 380.396 40.112 380.396 37.632C380.396 35.04 382.172 33.2 384.62 33.2C387.26 33.2 388.924 35.36 388.748 38.24ZM384.62 34.688C383.724 34.688 382.508 35.232 382.332 36.848H386.812C386.764 35.504 385.74 34.688 384.62 34.688ZM398.059 42H396.155V38.336H392.315V42H390.411V33.392H392.315V36.832H396.155V33.392H398.059V42ZM407.98 42.208C406.108 42.208 404.156 40.96 403.948 38.208H402.268V42H400.364V33.392H402.268V36.704H404.012C404.396 34.304 406.204 33.2 407.98 33.2C410.076 33.2 412.22 34.608 412.22 37.712C412.22 40.832 410.076 42.208 407.98 42.208ZM407.98 40.656C409.196 40.656 410.252 39.696 410.252 37.712C410.252 35.728 409.196 34.752 407.98 34.752C406.876 34.752 405.9 35.728 405.9 37.712C405.9 39.696 406.876 40.656 407.98 40.656Z" fill="#1D1D1D"/>
<path fill-rule="evenodd" clip-rule="evenodd" d="M450.438 26H447.831V46H450.438C454.872 46 458.259 41.3921 458.259 36C458.259 30.6079 454.872 26 450.438 26Z" fill="#E6B900"/>
<path fill-rule="evenodd" clip-rule="evenodd" d="M448.081 26C443.647 26 440.259 30.6079 440.259 36C440.259 41.3921 443.647 46 448.081 46C452.515 46 455.902 41.3921 455.902 36C455.902 30.6079 452.515 26 448.081 26Z" fill="#FFCF08"/>
<path d="M447.887 31.2261C447.957 31.0496 448.204 31.0496 448.274 31.2261L449.288 33.784C449.315 33.853 449.376 33.9023 449.449 33.9138L451.882 34.2978C452.044 34.3232 452.115 34.5175 452.009 34.6427L450.228 36.7432C450.188 36.7893 450.171 36.8504 450.18 36.9105L450.594 39.7687C450.62 39.9449 450.43 40.0715 450.28 39.9791L448.188 38.6984C448.122 38.6577 448.039 38.6577 447.972 38.6984L445.881 39.9791C445.73 40.0715 445.541 39.9449 445.566 39.7687L445.981 36.9105C445.99 36.8504 445.972 36.7893 445.933 36.7432L444.152 34.6427C444.046 34.5175 444.117 34.3232 444.278 34.2978L446.712 33.9138C446.784 33.9023 446.846 33.853 446.873 33.784L447.887 31.2261Z" fill="#CCA500"/>
<path d="M472.651 32.08V34.896H475.083C477.707 34.896 479.403 35.76 479.403 38.352C479.403 40.976 477.723 42 474.987 42H470.619V30.4H478.539V32.08H472.651ZM472.651 40.32H475.051C476.507 40.32 477.307 39.664 477.307 38.4C477.307 37.04 476.475 36.544 475.003 36.544H472.651V40.32ZM482.395 37.712C482.395 39.696 483.451 40.656 484.667 40.656C485.883 40.656 486.939 39.696 486.939 37.712C486.939 35.728 485.883 34.752 484.667 34.752C483.451 34.752 482.395 35.728 482.395 37.712ZM484.667 33.2C486.763 33.2 488.907 34.608 488.907 37.712C488.907 40.832 486.763 42.208 484.667 42.208C482.571 42.208 480.427 40.832 480.427 37.712C480.427 34.608 482.571 33.2 484.667 33.2ZM498.2 42H496.296V38.336H492.456V42H490.552V33.392H492.456V36.832H496.296V33.392H498.2V42ZM501.033 44.8H500.169V43.344H500.889C501.721 43.344 502.073 43.28 502.457 42.16L502.553 41.952L499.433 33.392H501.513L503.465 39.568L505.417 33.392H507.369L504.345 41.984C503.529 44.208 502.969 44.8 501.033 44.8ZM511.995 33.2C513.883 33.2 515.515 34.432 515.851 36.336H513.995C513.819 35.424 513.035 34.784 511.995 34.784C510.795 34.784 509.739 35.664 509.739 37.696C509.739 39.744 510.827 40.624 511.947 40.624C512.891 40.624 513.803 40.208 514.059 39.056H515.915C515.531 41.072 513.755 42.208 511.915 42.208C509.419 42.208 507.771 40.272 507.771 37.712C507.771 35.152 509.419 33.2 511.995 33.2ZM520.754 42H517.474V33.392H519.378V36.288H520.706C523.074 36.288 524.082 37.184 524.082 39.088C524.082 41.264 522.866 42 520.754 42ZM519.378 37.792V40.496H520.482C521.634 40.496 522.178 40.16 522.178 39.072C522.178 38.096 521.618 37.792 520.466 37.792H519.378ZM527.218 42H525.314V33.392H527.218V42Z" fill="#1D1D1D"/>
<path d="M838 43H834.5C833.137 43 832 42.153 832 40.8V26.4C832 26.176 832.176 26 832.4 26H847.6C847.824 26 848 26.176 848 26.4V40.8C848 42.153 846.863 43 845.5 43H844C842.542 43 841.605 43.276 840.4 44.5C840.137 44.753 839.77 45.168 839.3 45.745C839.159 45.8955 838.966 45.9853 838.76 45.9956C838.554 46.0058 838.353 45.9357 838.198 45.8C838.035 45.655 838 45.454 838 45.237V43ZM834 28V40.4C834 40.763 834.211 41 834.6 41H839.7V42.7C841.007 41.54 842.288 41 844 41H845.4C845.789 41 846 40.763 846 40.4V28H834Z" fill="#1D1D1D"/>
<path d="M870.672 42H868.64V32.096H863.392V42H861.36V30.4H870.672V42ZM874.927 37.696C874.927 39.68 875.903 40.656 877.151 40.656C878.495 40.656 879.279 39.536 879.279 37.696C879.279 35.888 878.495 34.752 877.151 34.752C875.903 34.752 874.927 35.712 874.927 37.696ZM873.103 33.392H875.007V34.544C875.519 33.696 876.415 33.2 877.567 33.2C879.679 33.2 881.263 34.944 881.263 37.696C881.263 40.464 879.679 42.208 877.567 42.208C876.415 42.208 875.519 41.712 875.007 40.864V44.8H873.103V33.392ZM884.308 37.712C884.308 39.696 885.364 40.656 886.58 40.656C887.796 40.656 888.852 39.696 888.852 37.712C888.852 35.728 887.796 34.752 886.58 34.752C885.364 34.752 884.308 35.728 884.308 37.712ZM886.58 33.2C888.676 33.2 890.82 34.608 890.82 37.712C890.82 40.832 888.676 42.208 886.58 42.208C884.484 42.208 882.34 40.832 882.34 37.712C882.34 34.608 884.484 33.2 886.58 33.2ZM900.254 38.24H893.838C893.966 39.84 895.086 40.624 896.174 40.624C897.182 40.624 897.95 40.24 898.286 39.424H900.158C899.774 40.8 898.462 42.208 896.254 42.208C893.486 42.208 891.902 40.112 891.902 37.632C891.902 35.04 893.678 33.2 896.126 33.2C898.766 33.2 900.43 35.36 900.254 38.24ZM896.126 34.688C895.23 34.688 894.014 35.232 893.838 36.848H898.318C898.27 35.504 897.246 34.688 896.126 34.688ZM907.566 42L904.734 38.24H903.838V42H901.918V33.392H903.838V36.736H904.878L907.358 33.392H909.534L906.286 37.568L909.758 42H907.566ZM917.969 34.896H915.041V42H913.137V34.896H910.193V33.392H917.969V34.896ZM922.635 42H919.355V33.392H921.259V36.288H922.587C924.955 36.288 925.963 37.184 925.963 39.088C925.963 41.264 924.747 42 922.635 42ZM921.259 37.792V40.496H922.363C923.515 40.496 924.059 40.16 924.059 39.072C924.059 38.096 923.499 37.792 922.347 37.792H921.259ZM929.099 42H927.195V33.392H929.099V42ZM942.29 42H940.226L937.282 32.608V42H935.298V30.4H938.45L941.266 39.648L944.066 30.4H947.218V42H945.234V32.608L942.29 42ZM951.042 37.712C951.042 39.696 952.098 40.656 953.314 40.656C954.53 40.656 955.586 39.696 955.586 37.712C955.586 35.728 954.53 34.752 953.314 34.752C952.098 34.752 951.042 35.728 951.042 37.712ZM953.314 33.2C955.41 33.2 957.554 34.608 957.554 37.712C957.554 40.832 955.41 42.208 953.314 42.208C951.218 42.208 949.074 40.832 949.074 37.712C949.074 34.608 951.218 33.2 953.314 33.2ZM962.845 33.2C964.733 33.2 966.365 34.432 966.701 36.336H964.845C964.669 35.424 963.885 34.784 962.845 34.784C961.645 34.784 960.589 35.664 960.589 37.696C960.589 39.744 961.677 40.624 962.797 40.624C963.741 40.624 964.653 40.208 964.909 39.056H966.765C966.381 41.072 964.605 42.208 962.765 42.208C960.269 42.208 958.621 40.272 958.621 37.712C958.621 35.152 960.269 33.2 962.845 33.2ZM974.907 34.896H971.979V42H970.075V34.896H967.131V33.392H974.907V34.896ZM976.821 44.8H975.957V43.344H976.677C977.509 43.344 977.861 43.28 978.245 42.16L978.341 41.952L975.221 33.392H977.301L979.253 39.568L981.205 33.392H983.157L980.133 41.984C979.317 44.208 978.757 44.8 976.821 44.8ZM986.13 37.696C986.13 39.68 987.106 40.656 988.354 40.656C989.698 40.656 990.482 39.536 990.482 37.696C990.482 35.888 989.698 34.752 988.354 34.752C987.106 34.752 986.13 35.712 986.13 37.696ZM984.306 33.392H986.21V34.544C986.722 33.696 987.618 33.2 988.77 33.2C990.882 33.2 992.466 34.944 992.466 37.696C992.466 40.464 990.882 42.208 988.77 42.208C987.618 42.208 986.722 41.712 986.21 40.864V44.8H984.306V33.392ZM1002.01 33.392V42H1000.11V36.032L996.009 42H994.105V33.392H996.009V39.392L1000.11 33.392H1002.01ZM1009.46 37.456C1010.41 37.728 1010.98 38.32 1010.98 39.472C1010.98 41.376 1009.32 42.208 1007.16 42.208C1005.27 42.208 1003.59 41.392 1003.29 39.2H1005.11C1005.29 40.176 1006.01 40.8 1007.22 40.8C1008.44 40.8 1009.08 40.32 1009.08 39.568C1009.08 38.672 1008.47 38.336 1007.38 38.336H1005.98V36.848H1007.29C1008.23 36.848 1008.82 36.528 1008.82 35.776C1008.82 34.992 1008.36 34.592 1007.29 34.592C1006.22 34.592 1005.35 35.104 1005.21 36.176H1003.38C1003.69 34.144 1005.42 33.168 1007.32 33.168C1009.19 33.168 1010.71 33.92 1010.71 35.648C1010.71 36.496 1010.3 37.088 1009.46 37.456ZM1022.83 33.392V42H1020.99V35.184L1018.46 42H1016.99L1014.46 35.216V42H1012.62V33.392H1015.5L1017.76 39.536L1019.95 33.392H1022.83ZM1030.54 38.608V37.952C1027.82 38.208 1026.72 38.608 1026.72 39.584C1026.72 40.336 1027.34 40.784 1028.3 40.784C1029.71 40.784 1030.54 40.08 1030.54 38.608ZM1027.88 42.208C1026.01 42.208 1024.7 41.2 1024.7 39.632C1024.7 37.472 1027.36 36.96 1030.49 36.624V36.464C1030.49 34.992 1029.66 34.544 1028.7 34.544C1027.74 34.544 1027.02 35.056 1026.97 36.096H1025.1C1025.23 34.352 1026.68 33.136 1028.76 33.136C1030.83 33.136 1032.44 34.08 1032.4 36.832C1032.4 37.248 1032.36 38.272 1032.36 39.056C1032.36 40.144 1032.44 41.28 1032.62 42H1030.88C1030.81 41.632 1030.76 41.424 1030.72 40.832C1030.16 41.776 1029.16 42.208 1027.88 42.208Z" fill="#1D1D1D"/>
<path d="M1069.99 29.1734L1069.23 29.8202L1069.99 30.7197L1070.76 29.8202L1069.99 29.1734ZM1061.27 36.661L1062.06 36.0507L1061.27 36.661ZM1078.72 36.661L1077.93 36.0507L1078.72 36.661ZM1070.02 44.9976L1069.36 45.7433C1069.74 46.0823 1070.31 46.0823 1070.69 45.7433L1070.02 44.9976ZM1070.76 28.5267C1068.46 25.8236 1064.5 24.9988 1061.5 27.5832L1062.81 29.0981C1064.82 27.3654 1067.52 27.8088 1069.23 29.8202L1070.76 28.5267ZM1061.5 27.5832C1058.6 30.0856 1058.18 34.2944 1060.47 37.2712L1062.06 36.0507C1060.42 33.9218 1060.7 30.9127 1062.81 29.0981L1061.5 27.5832ZM1079.51 37.2712C1081.8 34.3057 1081.44 30.0645 1078.47 27.5744L1077.19 29.1069C1079.31 30.8884 1079.58 33.9104 1077.93 36.0507L1079.51 37.2712ZM1078.47 27.5744C1075.44 25.0329 1071.53 25.8147 1069.23 28.5267L1070.76 29.8202C1072.45 27.8178 1075.12 27.3768 1077.19 29.1069L1078.47 27.5744ZM1060.47 37.2712C1061.35 38.4131 1063.21 40.1937 1064.97 41.8181C1066.76 43.4618 1068.56 45.03 1069.36 45.7433L1070.69 44.2518C1069.87 43.5162 1068.1 41.9774 1066.33 40.3456C1064.53 38.6946 1062.81 37.0314 1062.06 36.0507L1060.47 37.2712ZM1070.69 45.7433C1071.49 45.0251 1073.27 43.4613 1075.05 41.8153C1076.8 40.19 1078.63 38.4109 1079.51 37.2712L1077.93 36.0507C1077.17 37.0336 1075.47 38.6983 1073.69 40.3484C1071.93 41.9779 1070.17 43.5211 1069.36 44.2518L1070.69 45.7433Z" fill="#1D1D1D"/>
<path d="M1098.35 42H1096.29L1093.34 32.608V42H1091.36V30.4H1094.51L1097.33 39.648L1100.13 30.4H1103.28V42H1101.3V32.608L1098.35 42ZM1107.1 37.712C1107.1 39.696 1108.16 40.656 1109.38 40.656C1110.59 40.656 1111.65 39.696 1111.65 37.712C1111.65 35.728 1110.59 34.752 1109.38 34.752C1108.16 34.752 1107.1 35.728 1107.1 37.712ZM1109.38 33.2C1111.47 33.2 1113.62 34.608 1113.62 37.712C1113.62 40.832 1111.47 42.208 1109.38 42.208C1107.28 42.208 1105.14 40.832 1105.14 37.712C1105.14 34.608 1107.28 33.2 1109.38 33.2ZM1123.17 33.392V42H1121.26V36.032L1117.17 42H1115.26V33.392H1117.17V39.392L1121.26 33.392H1123.17ZM1136.48 33.392V42H1134.58V34.896H1130.9V42H1129V33.392H1136.48ZM1146.06 42H1144.15V34.896H1141.62L1141.5 36.752C1141.26 40.352 1140.3 42 1138.31 42H1137.96V40.496H1138.15C1138.86 40.496 1139.51 39.744 1139.69 36.48L1139.85 33.392H1146.06V42ZM1153.6 38.608V37.952C1150.88 38.208 1149.78 38.608 1149.78 39.584C1149.78 40.336 1150.4 40.784 1151.36 40.784C1152.77 40.784 1153.6 40.08 1153.6 38.608ZM1150.95 42.208C1149.08 42.208 1147.76 41.2 1147.76 39.632C1147.76 37.472 1150.42 36.96 1153.56 36.624V36.464C1153.56 34.992 1152.72 34.544 1151.76 34.544C1150.8 34.544 1150.08 35.056 1150.04 36.096H1148.16C1148.29 34.352 1149.75 33.136 1151.83 33.136C1153.89 33.136 1155.51 34.08 1155.46 36.832C1155.46 37.248 1155.43 38.272 1155.43 39.056C1155.43 40.144 1155.51 41.28 1155.68 42H1153.94C1153.88 41.632 1153.83 41.424 1153.78 40.832C1153.22 41.776 1152.23 42.208 1150.95 42.208ZM1165.11 42H1163.21V38.336H1159.37V42H1157.46V33.392H1159.37V36.832H1163.21V33.392H1165.11V42ZM1170.7 42H1167.42V33.392H1169.32V36.288H1170.65C1173.02 36.288 1174.03 37.184 1174.03 39.088C1174.03 41.264 1172.81 42 1170.7 42ZM1169.32 37.792V40.496H1170.43C1171.58 40.496 1172.12 40.16 1172.12 39.072C1172.12 38.096 1171.56 37.792 1170.41 37.792H1169.32ZM1177.16 42H1175.26V33.392H1177.16V42Z" fill="#1D1D1D"/>
<path d="M1208 44.9994C1208 44.4815 1208.1 43.9794 1208.24 43.5C1209.03 40.9122 1211.72 39 1215.01 39C1218.29 39 1220.99 40.9122 1221.77 43.5C1221.92 43.9794 1222 44.5174 1222 45.0055M1219.51 31.5C1219.51 33.9853 1217.49 36 1215.01 36C1212.52 36 1210.51 33.9853 1210.51 31.5C1210.51 29.0147 1212.52 27 1215.01 27C1217.49 27 1219.51 29.0147 1219.51 31.5Z" stroke="#1D1D1D" stroke-width="2" stroke-linecap="square" stroke-linejoin="round"/>
<path d="M1236.36 42V30.4H1240.73C1242.84 30.4 1244.9 30.976 1244.9 33.36C1244.9 34.448 1244.3 35.408 1243.61 35.84C1244.57 36.272 1245.35 37.024 1245.35 38.56C1245.35 41.056 1243.38 42 1241.02 42H1236.36ZM1238.39 36.8V40.368H1241.1C1242.55 40.368 1243.26 39.712 1243.26 38.56C1243.26 37.36 1242.54 36.8 1240.98 36.8H1238.39ZM1238.39 32.032V35.248H1240.92C1242.12 35.248 1242.84 34.736 1242.84 33.584C1242.84 32.56 1242.07 32.032 1240.92 32.032H1238.39ZM1248.53 37.712C1248.53 39.696 1249.58 40.656 1250.8 40.656C1252.01 40.656 1253.07 39.696 1253.07 37.712C1253.07 35.728 1252.01 34.752 1250.8 34.752C1249.58 34.752 1248.53 35.728 1248.53 37.712ZM1250.8 33.2C1252.89 33.2 1255.04 34.608 1255.04 37.712C1255.04 40.832 1252.89 42.208 1250.8 42.208C1248.7 42.208 1246.56 40.832 1246.56 37.712C1246.56 34.608 1248.7 33.2 1250.8 33.2ZM1261.96 30.4H1263.34C1263.21 31.536 1262.51 32.336 1260.68 32.336C1258.91 32.336 1258.14 31.536 1258.06 30.4H1259.45C1259.52 30.976 1259.87 31.28 1260.7 31.28C1261.52 31.28 1261.9 30.976 1261.96 30.4ZM1264.59 33.392V42H1262.68V36.032L1258.59 42H1256.68V33.392H1258.59V39.392L1262.68 33.392H1264.59ZM1273.59 34.896H1270.67V42H1268.76V34.896H1265.82V33.392H1273.59V34.896ZM1282.88 33.392V42H1280.98V36.032L1276.88 42H1274.98V33.392H1276.88V39.392L1280.98 33.392H1282.88Z" fill="#1D1D1D"/>
<g clip-path="url(#clip1_219_112364)">
<mask id="mask0_219_112364" style="mask-type:luminance" maskUnits="userSpaceOnUse" x="1308" y="24" width="24" height="24">
<path d="M1320 48C1326.63 48 1332 42.6274 1332 36C1332 29.3726 1326.63 24 1320 24C1313.37 24 1308 29.3726 1308 36C1308 42.6274 1313.37 48 1320 48Z" fill="white"/>
</mask>
<g mask="url(#mask0_219_112364)">
<path d="M1332 31.9688V40.0312L1320 41.5312L1308 40.0312V31.9688L1320 30.4688L1332 31.9688Z" fill="#0052B4"/>
<path d="M1332 24V31.9688H1308V24H1332Z" fill="#EEEEEE"/>
<path d="M1332 40.0312V48H1308V40.0312H1332Z" fill="#D80027"/>
</g>
</g>
<defs>
<clipPath id="clip0_219_112364">
<rect width="193.259" height="48" fill="white" transform="translate(108 12)"/>
</clipPath>
<clipPath id="clip1_219_112364">
<rect width="24" height="24" fill="white" transform="translate(1308 24)"/>
</clipPath>
</defs>
</svg>
