<svg width="808" height="48" viewBox="0 0 808 48" fill="none" xmlns="http://www.w3.org/2000/svg">
    <rect width="48" height="48" rx="10" fill="#FFCF08"/>
    <path d="M25.3907 30H23.9347V20.928H21.2467V19.936C22.8947 19.888 23.7747 19.648 24.3987 18.4H25.3907V30Z" fill="#1D1D1D"/>
    <rect x="57" y="1" width="46" height="46" rx="9" stroke="#EBEBEB" stroke-width="2"/>
    <path d="M80.1664 18.192C82.3104 18.192 83.9424 19.28 83.9424 21.264C83.9424 23.664 81.6384 25.904 78.1344 28.336H84.2144V30H75.7664V28.432C79.6384 25.424 81.9584 23.344 81.9584 21.424C81.9584 20.288 81.2384 19.648 80.0864 19.648C78.9824 19.648 77.9264 20.304 77.9264 22.112H76.0224C75.9744 19.776 77.6224 18.192 80.1664 18.192Z" fill="#1D1D1D"/>
    <rect x="113" y="1" width="46" height="46" rx="9" stroke="#EBEBEB" stroke-width="2"/>
    <path d="M135.867 28.736C137.211 28.736 138.219 28 138.219 26.736C138.219 25.248 137.051 24.736 135.323 24.736H134.763V23.152H135.243C137.035 23.152 137.931 22.56 137.931 21.36C137.931 20.192 136.987 19.648 135.915 19.648C134.507 19.648 133.723 20.496 133.547 21.856H131.691C131.867 19.648 133.467 18.192 136.027 18.192C137.963 18.192 139.883 19.072 139.883 21.248C139.883 22.4 139.211 23.36 138.187 23.856C139.579 24.368 140.187 25.504 140.187 26.688C140.187 29.056 138.155 30.208 135.835 30.208C133.163 30.208 131.675 28.448 131.547 26.4H133.403C133.579 27.68 134.363 28.736 135.867 28.736Z" fill="#1D1D1D"/>
    <rect x="169" y="1" width="46" height="46" rx="9" stroke="#EBEBEB" stroke-width="2"/>
    <path d="M192.895 20.88L189.247 25.632H192.895V20.88ZM196.847 25.632V27.28H194.799V30H192.895V27.28H187.167V25.696L192.911 18.4H194.799V25.632H196.847Z" fill="#1D1D1D"/>
    <rect x="225" y="1" width="46" height="46" rx="9" stroke="#EBEBEB" stroke-width="2"/>
    <path d="M247.94 28.736C249.22 28.736 250.228 27.824 250.228 26.272C250.228 24.544 249.044 23.728 247.892 23.728C246.804 23.728 246.036 24.256 245.796 24.944L244.004 24.848L244.772 18.4H251.716V20.08H246.34L245.972 22.992C246.532 22.544 247.332 22.272 248.372 22.272C250.356 22.272 252.196 23.632 252.196 26.24C252.196 28.832 250.212 30.208 247.908 30.208C245.22 30.208 243.812 28.448 243.684 26.448H245.524C245.7 27.792 246.404 28.736 247.94 28.736Z" fill="#1D1D1D"/>
    <rect x="281" y="1" width="46" height="46" rx="9" stroke="#EBEBEB" stroke-width="2"/>
    <path d="M301.783 26.272C301.783 27.808 302.711 28.736 304.039 28.736C305.367 28.736 306.311 27.808 306.311 26.272C306.311 24.736 305.383 23.792 304.055 23.792C302.727 23.792 301.783 24.736 301.783 26.272ZM304.167 19.648C302.583 19.648 301.687 21.248 301.639 23.616C302.151 22.864 303.079 22.288 304.423 22.288C306.551 22.288 308.279 23.824 308.279 26.24C308.279 28.544 306.551 30.208 304.055 30.208C301.047 30.208 299.703 27.936 299.703 24.544C299.703 21.2 300.919 18.192 304.311 18.192C306.759 18.192 307.878 19.776 308.055 21.312H306.119C305.991 20.176 305.207 19.648 304.167 19.648Z" fill="#1D1D1D"/>
    <rect x="345" y="1" width="46" height="46" rx="9" stroke="#EBEBEB" stroke-width="2"/>
    <path d="M362.167 24H373.833M373.833 24L368 18.1666M373.833 24L368 29.8333" stroke="#1D1D1D" stroke-width="2" stroke-linecap="round" stroke-linejoin="round"/>
    <rect x="666.5" y="0.5" width="141" height="47" rx="11.5" stroke="#D9D9D9"/>
    <path d="M692.711 30H690.679V20.096H685.431V30H683.399V18.4H692.711V30ZM696.534 25.712C696.534 27.696 697.59 28.656 698.806 28.656C700.022 28.656 701.078 27.696 701.078 25.712C701.078 23.728 700.022 22.752 698.806 22.752C697.59 22.752 696.534 23.728 696.534 25.712ZM698.806 21.2C700.902 21.2 703.046 22.608 703.046 25.712C703.046 28.832 700.902 30.208 698.806 30.208C696.71 30.208 694.566 28.832 694.566 25.712C694.566 22.608 696.71 21.2 698.806 21.2ZM710.339 30L707.507 26.24H706.611V30H704.691V21.392H706.611V24.736H707.651L710.131 21.392H712.307L709.059 25.568L712.531 30H710.339ZM718.814 26.608V25.952C716.094 26.208 714.99 26.608 714.99 27.584C714.99 28.336 715.614 28.784 716.574 28.784C717.982 28.784 718.814 28.08 718.814 26.608ZM716.158 30.208C714.286 30.208 712.974 29.2 712.974 27.632C712.974 25.472 715.63 24.96 718.766 24.624V24.464C718.766 22.992 717.934 22.544 716.974 22.544C716.014 22.544 715.294 23.056 715.246 24.096H713.374C713.502 22.352 714.958 21.136 717.038 21.136C719.102 21.136 720.718 22.08 720.67 24.832C720.67 25.248 720.638 26.272 720.638 27.056C720.638 28.144 720.718 29.28 720.894 30H719.15C719.086 29.632 719.038 29.424 718.99 28.832C718.43 29.776 717.438 30.208 716.158 30.208ZM727.987 25.456C728.931 25.728 729.507 26.32 729.507 27.472C729.507 29.376 727.843 30.208 725.683 30.208C723.795 30.208 722.115 29.392 721.811 27.2H723.635C723.811 28.176 724.531 28.8 725.747 28.8C726.963 28.8 727.603 28.32 727.603 27.568C727.603 26.672 726.995 26.336 725.907 26.336H724.499V24.848H725.811C726.755 24.848 727.347 24.528 727.347 23.776C727.347 22.992 726.883 22.592 725.811 22.592C724.739 22.592 723.875 23.104 723.731 24.176H721.907C722.211 22.144 723.939 21.168 725.843 21.168C727.715 21.168 729.235 21.92 729.235 23.648C729.235 24.496 728.819 25.088 727.987 25.456ZM736.392 26.608V25.952C733.672 26.208 732.568 26.608 732.568 27.584C732.568 28.336 733.192 28.784 734.152 28.784C735.56 28.784 736.392 28.08 736.392 26.608ZM733.736 30.208C731.864 30.208 730.552 29.2 730.552 27.632C730.552 25.472 733.208 24.96 736.344 24.624V24.464C736.344 22.992 735.512 22.544 734.552 22.544C733.592 22.544 732.872 23.056 732.824 24.096H730.952C731.08 22.352 732.536 21.136 734.616 21.136C736.68 21.136 738.296 22.08 738.248 24.832C738.248 25.248 738.216 26.272 738.216 27.056C738.216 28.144 738.296 29.28 738.472 30H736.728C736.664 29.632 736.616 29.424 736.568 28.832C736.008 29.776 735.016 30.208 733.736 30.208ZM746.993 22.896H744.065V30H742.161V22.896H739.217V21.392H746.993V22.896ZM750.283 24.288H752.059C754.427 24.288 755.419 25.184 755.419 27.088C755.419 29.264 754.235 30 752.091 30H748.379V21.392H750.283V24.288ZM750.283 28.496H751.835C752.971 28.496 753.531 28.112 753.531 27.072C753.531 26.112 752.971 25.792 751.819 25.792H750.283V28.496ZM768.371 26.24H761.955C762.083 27.84 763.203 28.624 764.291 28.624C765.299 28.624 766.067 28.24 766.403 27.424H768.275C767.891 28.8 766.579 30.208 764.371 30.208C761.603 30.208 760.019 28.112 760.019 25.632C760.019 23.04 761.795 21.2 764.243 21.2C766.883 21.2 768.547 23.36 768.371 26.24ZM764.243 22.688C763.347 22.688 762.131 23.232 761.955 24.848H766.435C766.387 23.504 765.363 22.688 764.243 22.688ZM781.443 21.392V30H770.035V21.392H771.939V28.496H774.787V21.392H776.691V28.496H779.539V21.392H781.443ZM784.506 20.176V18.4H786.186V20.176H784.506ZM788.282 18.4H789.962V20.176H788.282V18.4ZM791.45 26.24H785.034C785.162 27.84 786.282 28.624 787.37 28.624C788.378 28.624 789.146 28.24 789.482 27.424H791.354C790.97 28.8 789.658 30.208 787.45 30.208C784.682 30.208 783.098 28.112 783.098 25.632C783.098 23.04 784.874 21.2 787.322 21.2C789.962 21.2 791.626 23.36 791.45 26.24ZM787.322 22.688C786.426 22.688 785.21 23.232 785.034 24.848H789.514C789.466 23.504 788.442 22.688 787.322 22.688Z" fill="#1D1D1D"/>
</svg>
