<svg width="808" height="64" viewBox="0 0 808 64" fill="none" xmlns="http://www.w3.org/2000/svg">
<rect width="808" height="64" rx="12" fill="#FFF5CC"/>
<path opacity="0.5" d="M22.16 38H20.704V34.384H17.088V33.008H20.704V29.488H22.16V33.008H25.776V34.384H22.16V38ZM33.0886 34.288C33.0886 35.888 34.0806 36.992 35.6166 36.992C37.0886 36.992 38.1606 35.872 38.1606 34.288C38.1606 32.704 37.1206 31.536 35.6326 31.536C34.1126 31.536 33.0886 32.704 33.0886 34.288ZM35.7606 27.408C33.9526 27.408 32.9926 29.2 32.9126 31.888C33.4406 30.976 34.4326 30.272 35.9686 30.272C38.1286 30.272 39.7126 31.888 39.7126 34.208C39.7126 36.368 38.1126 38.208 35.6326 38.208C32.7366 38.208 31.4086 36.192 31.4086 32.608C31.4086 29.344 32.5606 26.192 35.9366 26.192C38.2086 26.192 39.2646 27.616 39.5206 29.088H37.9366C37.7446 28.048 36.9606 27.408 35.7606 27.408ZM48.7244 32.192C48.7244 28.976 47.5724 27.408 45.7644 27.408C43.9244 27.408 42.8044 28.976 42.8044 32.192C42.8044 35.44 43.9244 36.992 45.7644 36.992C47.6044 36.992 48.7244 35.44 48.7244 32.192ZM50.2764 32.192C50.2764 35.856 48.8524 38.208 45.7644 38.208C42.6764 38.208 41.2524 35.856 41.2524 32.192C41.2524 28.528 42.6764 26.192 45.7644 26.192C48.8524 26.192 50.2764 28.528 50.2764 32.192ZM59.3025 32.192C59.3025 28.976 58.1505 27.408 56.3425 27.408C54.5025 27.408 53.3825 28.976 53.3825 32.192C53.3825 35.44 54.5025 36.992 56.3425 36.992C58.1825 36.992 59.3025 35.44 59.3025 32.192ZM60.8545 32.192C60.8545 35.856 59.4305 38.208 56.3425 38.208C53.2545 38.208 51.8305 35.856 51.8305 32.192C51.8305 28.528 53.2545 26.192 56.3425 26.192C59.4305 26.192 60.8545 28.528 60.8545 32.192ZM68.8455 33.44V34.672H72.5415V35.872H68.8455V38H67.2135V35.872H65.7575V34.672H67.2135V33.44H65.7575V32.032H67.2135V26.4H70.6535C73.5335 26.4 75.5495 27.104 75.5495 29.92C75.5495 32.64 73.5335 33.44 70.6535 33.44H68.8455ZM68.8455 32.032H70.7335C72.4775 32.032 73.8855 31.68 73.8855 29.92C73.8855 28.16 72.4775 27.808 70.7335 27.808H68.8455V32.032Z" fill="#1D1D1D"/>
<path d="M115.392 28.08V30.896H117.824C120.448 30.896 122.144 31.76 122.144 34.352C122.144 36.976 120.464 38 117.728 38H113.36V26.4H121.28V28.08H115.392ZM115.392 36.32H117.792C119.248 36.32 120.048 35.664 120.048 34.4C120.048 33.04 119.216 32.544 117.744 32.544H115.392V36.32ZM131.728 29.392V38H129.824V32.032L125.728 38H123.824V29.392H125.728V35.392L129.824 29.392H131.728ZM141.135 38H139.231V30.896H136.703L136.575 32.752C136.335 36.352 135.375 38 133.391 38H133.039V36.496H133.231C133.935 36.496 134.591 35.744 134.767 32.48L134.927 29.392H141.135V38ZM151.129 34.24H144.713C144.841 35.84 145.961 36.624 147.049 36.624C148.057 36.624 148.825 36.24 149.161 35.424H151.033C150.649 36.8 149.337 38.208 147.129 38.208C144.361 38.208 142.777 36.112 142.777 33.632C142.777 31.04 144.553 29.2 147.001 29.2C149.641 29.2 151.305 31.36 151.129 34.24ZM147.001 30.688C146.105 30.688 144.889 31.232 144.713 32.848H149.193C149.145 31.504 148.121 30.688 147.001 30.688ZM159.375 30.896H156.447V38H154.543V30.896H151.599V29.392H159.375V30.896ZM164.449 29.392H168.497C170.289 29.392 171.729 29.84 171.729 31.616C171.729 32.496 171.345 33.104 170.593 33.44C171.441 33.696 172.081 34.288 172.081 35.424C172.081 37.264 170.641 38 168.705 38H164.449V29.392ZM166.353 32.912H168.353C169.297 32.912 169.841 32.64 169.841 31.872C169.841 31.12 169.281 30.88 168.337 30.88H166.353V32.912ZM166.353 34.288V36.512H168.481C169.617 36.512 170.177 36.128 170.177 35.36C170.177 34.544 169.617 34.288 168.465 34.288H166.353ZM185.512 26.4V28.096H179.736V38H177.704V26.4H185.512ZM194.024 38H191.96L189.016 28.608V38H187.032V26.4H190.184L193 35.648L195.8 26.4H198.952V38H196.968V28.608L194.024 38ZM201.673 38V26.4H203.641V35.024L209.305 26.4H211.273V38H209.305V29.376L203.641 38H201.673ZM213.985 38V26.4H215.953V35.024L221.617 26.4H223.585V38H221.617V29.376L215.953 38H213.985ZM237.681 29.392V38H235.777V32.032L231.681 38H229.777V29.392H231.681V35.392L235.777 29.392H237.681ZM250.032 29.392V38H248.192V31.184L245.664 38H244.192L241.664 31.216V38H239.824V29.392H242.704L244.96 35.536L247.152 29.392H250.032ZM254.352 38H252.176V35.824H254.352V38ZM258.939 38L263.259 26.4H265.403L269.755 38H267.531L266.619 35.424H261.915L261.019 38H258.939ZM264.251 28.752L262.507 33.728H266.011L264.251 28.752ZM273.477 38H271.301V35.824H273.477V38ZM282.652 34.144H284.604C284.108 36.752 282.284 38.208 279.596 38.208C276.204 38.208 274.236 35.808 274.236 32.16C274.236 28.512 276.316 26.192 279.692 26.192C282.268 26.192 284.108 27.648 284.572 30.256H282.62C282.252 28.672 281.148 27.856 279.628 27.856C277.788 27.856 276.332 29.36 276.332 32.16C276.332 34.976 277.756 36.544 279.612 36.544C281.196 36.544 282.284 35.744 282.652 34.144ZM288.117 38H285.941V35.824H288.117V38ZM303.313 38H301.281V28.096H296.033V38H294.001V26.4H303.313V38ZM306.352 40.8H305.488V39.344H306.208C307.04 39.344 307.392 39.28 307.776 38.16L307.872 37.952L304.752 29.392H306.832L308.784 35.568L310.736 29.392H312.688L309.664 37.984C308.848 40.208 308.288 40.8 306.352 40.8ZM325.326 29.392V38H313.918V29.392H315.822V36.496H318.67V29.392H320.574V36.496H323.422V29.392H325.326ZM333.284 38L330.452 34.24H329.556V38H327.636V29.392H329.556V32.736H330.596L333.076 29.392H335.252L332.004 33.568L335.476 38H333.284ZM344.728 29.392V38H342.824V32.032L338.728 38H336.824V29.392H338.728V35.392L342.824 29.392H344.728ZM354.519 38H352.615V34.336H348.775V38H346.871V29.392H348.775V32.832H352.615V29.392H354.519V38ZM362.072 34.608V33.952C359.352 34.208 358.248 34.608 358.248 35.584C358.248 36.336 358.872 36.784 359.832 36.784C361.24 36.784 362.072 36.08 362.072 34.608ZM359.416 38.208C357.544 38.208 356.232 37.2 356.232 35.632C356.232 33.472 358.888 32.96 362.024 32.624V32.464C362.024 30.992 361.192 30.544 360.232 30.544C359.272 30.544 358.552 31.056 358.504 32.096H356.632C356.76 30.352 358.216 29.136 360.296 29.136C362.36 29.136 363.976 30.08 363.928 32.832C363.928 33.248 363.896 34.272 363.896 35.056C363.896 36.144 363.976 37.28 364.152 38H362.408C362.344 37.632 362.296 37.424 362.248 36.832C361.688 37.776 360.696 38.208 359.416 38.208ZM367.789 38H365.613V35.824H367.789V38ZM373.673 38V26.4H378.041C380.153 26.4 382.217 26.976 382.217 29.36C382.217 30.448 381.609 31.408 380.921 31.84C381.881 32.272 382.665 33.024 382.665 34.56C382.665 37.056 380.697 38 378.329 38H373.673ZM375.705 32.8V36.368H378.409C379.865 36.368 380.569 35.712 380.569 34.56C380.569 33.36 379.849 32.8 378.297 32.8H375.705ZM375.705 28.032V31.248H378.233C379.433 31.248 380.153 30.736 380.153 29.584C380.153 28.56 379.385 28.032 378.233 28.032H375.705ZM387.807 38H384.527V29.392H386.431V32.288H387.759C390.127 32.288 391.135 33.184 391.135 35.088C391.135 37.264 389.919 38 387.807 38ZM386.431 33.792V36.496H387.535C388.687 36.496 389.231 36.16 389.231 35.072C389.231 34.096 388.671 33.792 387.519 33.792H386.431ZM394.271 38H392.367V29.392H394.271V38ZM400.126 29.2C402.014 29.2 403.646 30.432 403.982 32.336H402.126C401.95 31.424 401.166 30.784 400.126 30.784C398.926 30.784 397.87 31.664 397.87 33.696C397.87 35.744 398.958 36.624 400.078 36.624C401.022 36.624 401.934 36.208 402.19 35.056H404.046C403.662 37.072 401.886 38.208 400.046 38.208C397.55 38.208 395.902 36.272 395.902 33.712C395.902 31.152 397.55 29.2 400.126 29.2ZM412.188 30.896H409.26V38H407.356V30.896H404.412V29.392H412.188V30.896ZM418.509 34.608V33.952C415.789 34.208 414.685 34.608 414.685 35.584C414.685 36.336 415.309 36.784 416.269 36.784C417.677 36.784 418.509 36.08 418.509 34.608ZM415.853 38.208C413.981 38.208 412.669 37.2 412.669 35.632C412.669 33.472 415.325 32.96 418.461 32.624V32.464C418.461 30.992 417.629 30.544 416.669 30.544C415.709 30.544 414.989 31.056 414.941 32.096H413.069C413.197 30.352 414.653 29.136 416.733 29.136C418.797 29.136 420.413 30.08 420.365 32.832C420.365 33.248 420.333 34.272 420.333 35.056C420.333 36.144 420.413 37.28 420.589 38H418.845C418.781 37.632 418.733 37.424 418.685 36.832C418.125 37.776 417.133 38.208 415.853 38.208ZM422.371 29.392H426.419C428.211 29.392 429.651 29.84 429.651 31.616C429.651 32.496 429.267 33.104 428.515 33.44C429.363 33.696 430.003 34.288 430.003 35.424C430.003 37.264 428.563 38 426.627 38H422.371V29.392ZM424.275 32.912H426.275C427.219 32.912 427.763 32.64 427.763 31.872C427.763 31.12 427.203 30.88 426.259 30.88H424.275V32.912ZM424.275 34.288V36.512H426.403C427.539 36.512 428.099 36.128 428.099 35.36C428.099 34.544 427.539 34.288 426.387 34.288H424.275ZM437.378 38L434.546 34.24H433.65V38H431.73V29.392H433.65V32.736H434.69L437.17 29.392H439.346L436.098 33.568L439.57 38H437.378ZM445.853 34.608V33.952C443.133 34.208 442.029 34.608 442.029 35.584C442.029 36.336 442.653 36.784 443.613 36.784C445.021 36.784 445.853 36.08 445.853 34.608ZM443.197 38.208C441.325 38.208 440.013 37.2 440.013 35.632C440.013 33.472 442.669 32.96 445.805 32.624V32.464C445.805 30.992 444.973 30.544 444.013 30.544C443.053 30.544 442.333 31.056 442.285 32.096H440.413C440.541 30.352 441.997 29.136 444.077 29.136C446.141 29.136 447.757 30.08 447.709 32.832C447.709 33.248 447.677 34.272 447.677 35.056C447.677 36.144 447.757 37.28 447.933 38H446.189C446.125 37.632 446.077 37.424 446.029 36.832C445.469 37.776 444.477 38.208 443.197 38.208ZM455.05 37.312L452.506 33.632L455.05 29.968H456.874L454.73 33.632L456.874 37.312H455.05ZM458.602 37.312L456.058 33.632L458.602 29.968H460.426L458.282 33.632L460.426 37.312H458.602ZM464.33 28.08V30.896H466.762C469.385 30.896 471.082 31.76 471.082 34.352C471.082 36.976 469.402 38 466.666 38H462.298V26.4H470.218V28.08H464.33ZM464.33 36.32H466.73C468.186 36.32 468.986 35.664 468.986 34.4C468.986 33.04 468.154 32.544 466.682 32.544H464.33V36.32ZM474.505 33.696C474.505 35.68 475.481 36.656 476.729 36.656C478.073 36.656 478.857 35.536 478.857 33.696C478.857 31.888 478.073 30.752 476.729 30.752C475.481 30.752 474.505 31.712 474.505 33.696ZM472.681 29.392H474.585V30.544C475.097 29.696 475.993 29.2 477.145 29.2C479.257 29.2 480.841 30.944 480.841 33.696C480.841 36.464 479.257 38.208 477.145 38.208C475.993 38.208 475.097 37.712 474.585 36.864V40.8H472.681V29.392ZM487.65 34.608V33.952C484.93 34.208 483.826 34.608 483.826 35.584C483.826 36.336 484.45 36.784 485.41 36.784C486.818 36.784 487.65 36.08 487.65 34.608ZM484.994 38.208C483.122 38.208 481.81 37.2 481.81 35.632C481.81 33.472 484.466 32.96 487.602 32.624V32.464C487.602 30.992 486.77 30.544 485.81 30.544C484.85 30.544 484.13 31.056 484.082 32.096H482.21C482.338 30.352 483.794 29.136 485.874 29.136C487.938 29.136 489.554 30.08 489.506 32.832C489.506 33.248 489.474 34.272 489.474 35.056C489.474 36.144 489.554 37.28 489.73 38H487.986C487.922 37.632 487.874 37.424 487.826 36.832C487.266 37.776 486.274 38.208 484.994 38.208ZM498.25 30.896H495.322V38H493.418V30.896H490.474V29.392H498.25V30.896ZM503.532 38V26.4H505.5V35.024L511.164 26.4H513.132V38H511.164V29.376L505.5 38H503.532ZM515.636 29.392H519.684C521.476 29.392 522.916 29.84 522.916 31.616C522.916 32.496 522.532 33.104 521.78 33.44C522.628 33.696 523.268 34.288 523.268 35.424C523.268 37.264 521.828 38 519.892 38H515.636V29.392ZM517.54 32.912H519.54C520.484 32.912 521.028 32.64 521.028 31.872C521.028 31.12 520.468 30.88 519.524 30.88H517.54V32.912ZM517.54 34.288V36.512H519.668C520.804 36.512 521.364 36.128 521.364 35.36C521.364 34.544 520.804 34.288 519.652 34.288H517.54ZM530.244 34.608V33.952C527.524 34.208 526.42 34.608 526.42 35.584C526.42 36.336 527.044 36.784 528.004 36.784C529.412 36.784 530.244 36.08 530.244 34.608ZM527.588 38.208C525.716 38.208 524.404 37.2 524.404 35.632C524.404 33.472 527.06 32.96 530.196 32.624V32.464C530.196 30.992 529.364 30.544 528.404 30.544C527.444 30.544 526.724 31.056 526.676 32.096H524.804C524.932 30.352 526.388 29.136 528.468 29.136C530.532 29.136 532.148 30.08 532.1 32.832C532.1 33.248 532.068 34.272 532.068 35.056C532.068 36.144 532.148 37.28 532.324 38H530.58C530.516 37.632 530.468 37.424 530.42 36.832C529.86 37.776 528.868 38.208 527.588 38.208ZM541.753 38H539.849V34.336H536.009V38H534.105V29.392H536.009V32.832H539.849V29.392H541.753V38ZM545.914 38H543.738V35.824H545.914V38ZM559.062 38L555.254 32.848H553.814V38H551.798V26.4H553.814V31.152H555.286L558.918 26.4H561.302L556.934 31.92L561.478 38H559.062ZM563.542 33.712C563.542 35.696 564.598 36.656 565.814 36.656C567.03 36.656 568.086 35.696 568.086 33.712C568.086 31.728 567.03 30.752 565.814 30.752C564.598 30.752 563.542 31.728 563.542 33.712ZM565.814 29.2C567.91 29.2 570.054 30.608 570.054 33.712C570.054 36.832 567.91 38.208 565.814 38.208C563.718 38.208 561.574 36.832 561.574 33.712C561.574 30.608 563.718 29.2 565.814 29.2ZM578.963 38H577.059V30.896H574.531L574.403 32.752C574.163 36.352 573.203 38 571.219 38H570.867V36.496H571.059C571.763 36.496 572.419 35.744 572.595 32.48L572.755 29.392H578.963V38ZM588.525 38H586.621V30.896H584.093L583.965 32.752C583.725 36.352 582.765 38 580.781 38H580.429V36.496H580.621C581.325 36.496 581.981 35.744 582.157 32.48L582.317 29.392H588.525V38ZM598.52 34.24H592.104C592.232 35.84 593.352 36.624 594.44 36.624C595.448 36.624 596.216 36.24 596.552 35.424H598.424C598.04 36.8 596.728 38.208 594.52 38.208C591.752 38.208 590.168 36.112 590.168 33.632C590.168 31.04 591.944 29.2 594.392 29.2C597.032 29.2 598.696 31.36 598.52 34.24ZM594.392 30.688C593.496 30.688 592.28 31.232 592.104 32.848H596.584C596.536 31.504 595.512 30.688 594.392 30.688ZM605.831 38L602.999 34.24H602.103V38H600.183V29.392H602.103V32.736H603.143L605.623 29.392H607.799L604.551 33.568L608.023 38H605.831ZM616.699 36.496H617.979V40.032H616.251V38H609.371V29.392H611.275V36.496H614.795V29.392H616.699V36.496ZM627.322 29.392V38H625.418V32.032L621.322 38H619.418V29.392H621.322V35.392L625.418 29.392H627.322ZM639.001 38H636.825V35.824H639.001V38ZM635.161 38H632.985V35.824H635.161V38ZM631.321 38H629.145V35.824H631.321V38Z" fill="#1D1D1D"/>
<rect x="656" y="12" width="104" height="40" rx="12" fill="white"/>
<rect x="656.5" y="12.5" width="103" height="39" rx="11.5" stroke="#EBEBEB"/>
<path d="M668.521 32L679.521 32" stroke="#1D1D1D" stroke-width="2" stroke-linecap="square" stroke-linejoin="round"/>
<path d="M709.644 38H707.74V29.168H705.148V27.856C706.828 27.808 707.644 27.664 708.236 26.4H709.644V38Z" fill="#1D1D1D"/>
<path d="M742 27.0195L742 37.0114M737.003 32.0001H747.043" stroke="#1D1D1D" stroke-width="2" stroke-linecap="square" stroke-linejoin="round"/>
<path fill-rule="evenodd" clip-rule="evenodd" d="M784 40C788.418 40 792 36.4183 792 32C792 27.5817 788.418 24 784 24C779.582 24 776 27.5817 776 32C776 36.4183 779.582 40 784 40ZM782.207 28.7929C781.817 28.4024 781.183 28.4024 780.793 28.7929C780.402 29.1834 780.402 29.8166 780.793 30.2071L782.586 32L780.793 33.7929C780.402 34.1834 780.402 34.8166 780.793 35.2071C781.183 35.5976 781.817 35.5976 782.207 35.2071L784 33.4142L785.793 35.2071C786.183 35.5976 786.817 35.5976 787.207 35.2071C787.598 34.8166 787.598 34.1834 787.207 33.7929L785.414 32L787.207 30.2071C787.598 29.8166 787.598 29.1834 787.207 28.7929C786.817 28.4024 786.183 28.4024 785.793 28.7929L784 30.5858L782.207 28.7929Z" fill="#1D1D1D"/>
</svg>
