<svg width="360" height="48" viewBox="0 0 360 48" fill="none" xmlns="http://www.w3.org/2000/svg">
<rect width="360" height="48" rx="12" fill="white" fill-opacity="0.7"/>
<path opacity="0.5" d="M22.16 30H20.704V26.384H17.088V25.008H20.704V21.488H22.16V25.008H25.776V26.384H22.16V30ZM33.0886 26.288C33.0886 27.888 34.0806 28.992 35.6166 28.992C37.0886 28.992 38.1606 27.872 38.1606 26.288C38.1606 24.704 37.1206 23.536 35.6326 23.536C34.1126 23.536 33.0886 24.704 33.0886 26.288ZM35.7606 19.408C33.9526 19.408 32.9926 21.2 32.9126 23.888C33.4406 22.976 34.4326 22.272 35.9686 22.272C38.1286 22.272 39.7126 23.888 39.7126 26.208C39.7126 28.368 38.1126 30.208 35.6326 30.208C32.7366 30.208 31.4086 28.192 31.4086 24.608C31.4086 21.344 32.5606 18.192 35.9366 18.192C38.2086 18.192 39.2646 19.616 39.5206 21.088H37.9366C37.7446 20.048 36.9606 19.408 35.7606 19.408ZM48.7244 24.192C48.7244 20.976 47.5724 19.408 45.7644 19.408C43.9244 19.408 42.8044 20.976 42.8044 24.192C42.8044 27.44 43.9244 28.992 45.7644 28.992C47.6044 28.992 48.7244 27.44 48.7244 24.192ZM50.2764 24.192C50.2764 27.856 48.8524 30.208 45.7644 30.208C42.6764 30.208 41.2524 27.856 41.2524 24.192C41.2524 20.528 42.6764 18.192 45.7644 18.192C48.8524 18.192 50.2764 20.528 50.2764 24.192ZM59.3025 24.192C59.3025 20.976 58.1505 19.408 56.3425 19.408C54.5025 19.408 53.3825 20.976 53.3825 24.192C53.3825 27.44 54.5025 28.992 56.3425 28.992C58.1825 28.992 59.3025 27.44 59.3025 24.192ZM60.8545 24.192C60.8545 27.856 59.4305 30.208 56.3425 30.208C53.2545 30.208 51.8305 27.856 51.8305 24.192C51.8305 20.528 53.2545 18.192 56.3425 18.192C59.4305 18.192 60.8545 20.528 60.8545 24.192ZM68.8455 25.44V26.672H72.5415V27.872H68.8455V30H67.2135V27.872H65.7575V26.672H67.2135V25.44H65.7575V24.032H67.2135V18.4H70.6535C73.5335 18.4 75.5495 19.104 75.5495 21.92C75.5495 24.64 73.5335 25.44 70.6535 25.44H68.8455ZM68.8455 24.032H70.7335C72.4775 24.032 73.8855 23.68 73.8855 21.92C73.8855 20.16 72.4775 19.808 70.7335 19.808H68.8455V24.032Z" fill="#1D1D1D"/>
<path d="M115.392 20.08V22.896H117.824C120.448 22.896 122.144 23.76 122.144 26.352C122.144 28.976 120.464 30 117.728 30H113.36V18.4H121.28V20.08H115.392ZM115.392 28.32H117.792C119.248 28.32 120.048 27.664 120.048 26.4C120.048 25.04 119.216 24.544 117.744 24.544H115.392V28.32ZM131.728 21.392V30H129.824V24.032L125.728 30H123.824V21.392H125.728V27.392L129.824 21.392H131.728ZM141.135 30H139.231V22.896H136.703L136.575 24.752C136.335 28.352 135.375 30 133.391 30H133.039V28.496H133.231C133.935 28.496 134.591 27.744 134.767 24.48L134.927 21.392H141.135V30ZM151.129 26.24H144.713C144.841 27.84 145.961 28.624 147.049 28.624C148.057 28.624 148.825 28.24 149.161 27.424H151.033C150.649 28.8 149.337 30.208 147.129 30.208C144.361 30.208 142.777 28.112 142.777 25.632C142.777 23.04 144.553 21.2 147.001 21.2C149.641 21.2 151.305 23.36 151.129 26.24ZM147.001 22.688C146.105 22.688 144.889 23.232 144.713 24.848H149.193C149.145 23.504 148.121 22.688 147.001 22.688ZM159.375 22.896H156.447V30H154.543V22.896H151.599V21.392H159.375V22.896ZM164.449 21.392H168.497C170.289 21.392 171.729 21.84 171.729 23.616C171.729 24.496 171.345 25.104 170.593 25.44C171.441 25.696 172.081 26.288 172.081 27.424C172.081 29.264 170.641 30 168.705 30H164.449V21.392ZM166.353 24.912H168.353C169.297 24.912 169.841 24.64 169.841 23.872C169.841 23.12 169.281 22.88 168.337 22.88H166.353V24.912ZM166.353 26.288V28.512H168.481C169.617 28.512 170.177 28.128 170.177 27.36C170.177 26.544 169.617 26.288 168.465 26.288H166.353ZM185.512 18.4V20.096H179.736V30H177.704V18.4H185.512ZM194.024 30H191.96L189.016 20.608V30H187.032V18.4H190.184L193 27.648L195.8 18.4H198.952V30H196.968V20.608L194.024 30ZM201.673 30V18.4H203.641V27.024L209.305 18.4H211.273V30H209.305V21.376L203.641 30H201.673ZM213.985 30V18.4H215.953V27.024L221.617 18.4H223.585V30H221.617V21.376L215.953 30H213.985ZM237.681 21.392V30H235.777V24.032L231.681 30H229.777V21.392H231.681V27.392L235.777 21.392H237.681ZM250.032 21.392V30H248.192V23.184L245.664 30H244.192L241.664 23.216V30H239.824V21.392H242.704L244.96 27.536L247.152 21.392H250.032ZM254.352 30H252.176V27.824H254.352V30ZM258.939 30L263.259 18.4H265.403L269.755 30H267.531L266.619 27.424H261.915L261.019 30H258.939ZM264.251 20.752L262.507 25.728H266.011L264.251 20.752ZM273.477 30H271.301V27.824H273.477V30ZM282.652 26.144H284.604C284.108 28.752 282.284 30.208 279.596 30.208C276.204 30.208 274.236 27.808 274.236 24.16C274.236 20.512 276.316 18.192 279.692 18.192C282.268 18.192 284.108 19.648 284.572 22.256H282.62C282.252 20.672 281.148 19.856 279.628 19.856C277.788 19.856 276.332 21.36 276.332 24.16C276.332 26.976 277.756 28.544 279.612 28.544C281.196 28.544 282.284 27.744 282.652 26.144ZM288.117 30H285.941V27.824H288.117V30ZM299.641 30H297.465V27.824H299.641V30ZM295.801 30H293.625V27.824H295.801V30ZM291.961 30H289.785V27.824H291.961V30Z" fill="#1D1D1D"/>
</svg>
