<svg width="808" height="96" viewBox="0 0 808 96" fill="none" xmlns="http://www.w3.org/2000/svg">
    <g clip-path="url(#clip0_2_7688)">
        <rect x="0.5" y="0.5" width="245" height="47" rx="11.5" fill="white"/>
        <rect x="0.5" y="0.5" width="245" height="47" rx="11.5" stroke="#D9D9D9"/>
        <path d="M18 24H32M18 18H38M18 30H26" stroke="#1D1D1D" stroke-width="2" stroke-linejoin="round"/>
        <path d="M49.36 18.4H53.184C55.728 18.4 58.112 18.8 58.112 22.048C58.112 24.976 55.952 25.616 53.216 25.616H51.392V30H49.36V18.4ZM53.184 20.032H51.392V23.952H53.28C54.816 23.952 56 23.728 56 22.064C56 20.192 54.608 20.032 53.184 20.032ZM67.1761 26.24H60.7601C60.8881 27.84 62.0081 28.624 63.0961 28.624C64.1041 28.624 64.8721 28.24 65.2081 27.424H67.0801C66.6961 28.8 65.3841 30.208 63.1761 30.208C60.4081 30.208 58.8241 28.112 58.8241 25.632C58.8241 23.04 60.6001 21.2 63.0481 21.2C65.6881 21.2 67.3521 23.36 67.1761 26.24ZM63.0481 22.688C62.1521 22.688 60.9361 23.232 60.7601 24.848H65.2401C65.1921 23.504 64.1681 22.688 63.0481 22.688ZM74.4875 30L71.6555 26.24H70.7595V30H68.8395V21.392H70.7595V24.736H71.7995L74.2795 21.392H76.4555L73.2075 25.568L76.6795 30H74.4875ZM78.8546 25.712C78.8546 27.696 79.9106 28.656 81.1266 28.656C82.3426 28.656 83.3986 27.696 83.3986 25.712C83.3986 23.728 82.3426 22.752 81.1266 22.752C79.9106 22.752 78.8546 23.728 78.8546 25.712ZM81.1266 21.2C83.2226 21.2 85.3666 22.608 85.3666 25.712C85.3666 28.832 83.2226 30.208 81.1266 30.208C79.0306 30.208 76.8866 28.832 76.8866 25.712C76.8866 22.608 79.0306 21.2 81.1266 21.2ZM97.2194 21.392V30H95.3794V23.184L92.8514 30H91.3794L88.8514 23.216V30H87.0114V21.392H89.8914L92.1474 27.536L94.3394 21.392H97.2194ZM107.379 26.24H100.963C101.091 27.84 102.211 28.624 103.299 28.624C104.307 28.624 105.075 28.24 105.411 27.424H107.283C106.899 28.8 105.587 30.208 103.379 30.208C100.611 30.208 99.0273 28.112 99.0273 25.632C99.0273 23.04 100.803 21.2 103.251 21.2C105.891 21.2 107.555 23.36 107.379 26.24ZM103.251 22.688C102.355 22.688 101.139 23.232 100.963 24.848H105.443C105.395 23.504 104.371 22.688 103.251 22.688ZM116.691 30H114.787V26.336H110.947V30H109.043V21.392H110.947V24.832H114.787V21.392H116.691V30ZM127.748 28.512V32.032H126.02V30H119.732V32.032H118.004V28.512H118.468C119.428 28.512 119.924 27.264 120.068 24.128L120.196 21.392H126.468V28.512H127.748ZM124.564 28.512V22.896H121.876L121.796 24.352C121.668 26.64 121.364 27.856 120.676 28.512H124.564ZM130.37 25.712C130.37 27.696 131.426 28.656 132.642 28.656C133.858 28.656 134.914 27.696 134.914 25.712C134.914 23.728 133.858 22.752 132.642 22.752C131.426 22.752 130.37 23.728 130.37 25.712ZM132.642 21.2C134.738 21.2 136.882 22.608 136.882 25.712C136.882 28.832 134.738 30.208 132.642 30.208C130.546 30.208 128.402 28.832 128.402 25.712C128.402 22.608 130.546 21.2 132.642 21.2ZM138.527 21.392H142.575C144.367 21.392 145.807 21.84 145.807 23.616C145.807 24.496 145.423 25.104 144.671 25.44C145.519 25.696 146.159 26.288 146.159 27.424C146.159 29.264 144.719 30 142.783 30H138.527V21.392ZM140.431 24.912H142.431C143.375 24.912 143.919 24.64 143.919 23.872C143.919 23.12 143.359 22.88 142.415 22.88H140.431V24.912ZM140.431 26.288V28.512H142.559C143.695 28.512 144.255 28.128 144.255 27.36C144.255 26.544 143.695 26.288 142.543 26.288H140.431ZM153.134 26.608V25.952C150.414 26.208 149.31 26.608 149.31 27.584C149.31 28.336 149.934 28.784 150.894 28.784C152.302 28.784 153.134 28.08 153.134 26.608ZM150.478 30.208C148.606 30.208 147.294 29.2 147.294 27.632C147.294 25.472 149.95 24.96 153.086 24.624V24.464C153.086 22.992 152.254 22.544 151.294 22.544C150.334 22.544 149.614 23.056 149.566 24.096H147.694C147.822 22.352 149.278 21.136 151.358 21.136C153.422 21.136 155.038 22.08 154.99 24.832C154.99 25.248 154.958 26.272 154.958 27.056C154.958 28.144 155.038 29.28 155.214 30H153.47C153.406 29.632 153.358 29.424 153.31 28.832C152.75 29.776 151.758 30.208 150.478 30.208ZM164.644 30H162.74V26.336H158.9V30H156.996V21.392H158.9V24.832H162.74V21.392H164.644V30ZM174.597 30H172.693V26.336H168.853V30H166.949V21.392H168.853V24.832H172.693V21.392H174.597V30ZM180.182 30H176.902V21.392H178.806V24.288H180.134C182.502 24.288 183.51 25.184 183.51 27.088C183.51 29.264 182.294 30 180.182 30ZM178.806 25.792V28.496H179.91C181.062 28.496 181.606 28.16 181.606 27.072C181.606 26.096 181.046 25.792 179.894 25.792H178.806ZM186.646 30H184.742V21.392H186.646V30ZM196.645 26.24H190.229C190.357 27.84 191.477 28.624 192.565 28.624C193.573 28.624 194.341 28.24 194.677 27.424H196.549C196.165 28.8 194.853 30.208 192.645 30.208C189.877 30.208 188.293 28.112 188.293 25.632C188.293 23.04 190.069 21.2 192.517 21.2C195.157 21.2 196.821 23.36 196.645 26.24ZM192.517 22.688C191.621 22.688 190.405 23.232 190.229 24.848H194.709C194.661 23.504 193.637 22.688 192.517 22.688Z" fill="#1D1D1D"/>
        <path d="M212 21L218 27L224 21" stroke="#747474" stroke-width="2" stroke-linecap="square"/>
        <g clip-path="url(#clip1_2_7688)">
            <rect y="64" width="85" height="32" rx="8" fill="#FFCF08"/>
            <path d="M12.172 74.668C14.048 74.668 15.476 75.62 15.476 77.356C15.476 79.456 13.46 81.416 10.394 83.544H15.714V85H8.322V83.628C11.71 80.996 13.74 79.176 13.74 77.496C13.74 76.502 13.11 75.942 12.102 75.942C11.136 75.942 10.212 76.516 10.212 78.098H8.546C8.504 76.054 9.946 74.668 12.172 74.668ZM26.9793 85H25.3133V81.794H21.9533V85H20.2873V77.468H21.9533V80.478H25.3133V77.468H26.9793V85ZM30.1443 81.248C30.1443 82.984 31.0683 83.824 32.1323 83.824C33.1963 83.824 34.1203 82.984 34.1203 81.248C34.1203 79.512 33.1963 78.658 32.1323 78.658C31.0683 78.658 30.1443 79.512 30.1443 81.248ZM32.1323 77.3C33.9663 77.3 35.8423 78.532 35.8423 81.248C35.8423 83.978 33.9663 85.182 32.1323 85.182C30.2983 85.182 28.4223 83.978 28.4223 81.248C28.4223 78.532 30.2983 77.3 32.1323 77.3ZM43.1474 85H41.4814V82.088C40.6834 82.298 40.0534 82.382 39.3674 82.382C37.7854 82.382 36.8894 81.64 36.8894 80.002V77.468H38.5554V79.708C38.5554 80.66 39.0034 81.024 40.0254 81.024C40.4594 81.024 40.9074 80.968 41.4814 80.814V77.468H43.1474V85ZM52.0861 77.468V85H50.4201V79.778L46.8361 85H45.1701V77.468H46.8361V82.718L50.4201 77.468H52.0861Z" fill="#1D1D1D"/>
            <path fill-rule="evenodd" clip-rule="evenodd" d="M69 88C73.4183 88 77 84.4183 77 80C77 75.5817 73.4183 72 69 72C64.5817 72 61 75.5817 61 80C61 84.4183 64.5817 88 69 88ZM67.2071 76.7929C66.8166 76.4024 66.1834 76.4024 65.7929 76.7929C65.4024 77.1834 65.4024 77.8166 65.7929 78.2071L67.5858 80L65.7929 81.7929C65.4024 82.1834 65.4024 82.8166 65.7929 83.2071C66.1834 83.5976 66.8166 83.5976 67.2071 83.2071L69 81.4142L70.7929 83.2071C71.1834 83.5976 71.8166 83.5976 72.2071 83.2071C72.5976 82.8166 72.5976 82.1834 72.2071 81.7929L70.4142 80L72.2071 78.2071C72.5976 77.8166 72.5976 77.1834 72.2071 76.7929C71.8166 76.4024 71.1834 76.4024 70.7929 76.7929L69 78.5858L67.2071 76.7929Z" fill="#1D1D1D"/>
            <rect x="97" y="64" width="100" height="32" rx="8" fill="#FFCF08"/>
            <path d="M105.336 81.486H107.058C107.394 83.082 108.584 83.726 109.956 83.726C111.608 83.726 112.798 82.55 112.98 80.59H108.542V79.12H112.966C112.742 77.258 111.58 76.138 109.97 76.138C108.626 76.138 107.45 76.824 107.114 78.378H105.392C105.77 76.152 107.492 74.682 109.9 74.682C112.98 74.682 114.842 76.782 114.842 79.918C114.842 83.082 113.036 85.182 109.97 85.182C107.52 85.182 105.714 83.74 105.336 81.486ZM121.382 85L118.904 81.71H118.12V85H116.44V77.468H118.12V80.394H119.03L121.2 77.468H123.104L120.262 81.122L123.3 85H121.382ZM125.203 81.248C125.203 82.984 126.127 83.824 127.191 83.824C128.255 83.824 129.179 82.984 129.179 81.248C129.179 79.512 128.255 78.658 127.191 78.658C126.127 78.658 125.203 79.512 125.203 81.248ZM127.191 77.3C129.025 77.3 130.901 78.532 130.901 81.248C130.901 83.978 129.025 85.182 127.191 85.182C125.357 85.182 123.481 83.978 123.481 81.248C123.481 78.532 125.357 77.3 127.191 77.3ZM138.1 78.784H135.538V85H133.872V78.784H131.296V77.468H138.1V78.784ZM139.775 87.45H139.019V86.176H139.649C140.377 86.176 140.685 86.12 141.021 85.14L141.105 84.958L138.375 77.468H140.195L141.903 82.872L143.611 77.468H145.319L142.673 84.986C141.959 86.932 141.469 87.45 139.775 87.45ZM147.921 81.234C147.921 82.97 148.775 83.824 149.867 83.824C151.043 83.824 151.729 82.844 151.729 81.234C151.729 79.652 151.043 78.658 149.867 78.658C148.775 78.658 147.921 79.498 147.921 81.234ZM146.325 77.468H147.991V78.476C148.439 77.734 149.223 77.3 150.231 77.3C152.079 77.3 153.465 78.826 153.465 81.234C153.465 83.656 152.079 85.182 150.231 85.182C149.223 85.182 148.439 84.748 147.991 84.006V87.45H146.325V77.468ZM157.769 85H154.899V77.468H156.565V80.002H157.727C159.799 80.002 160.681 80.786 160.681 82.452C160.681 84.356 159.617 85 157.769 85ZM156.565 81.318V83.684H157.531C158.539 83.684 159.015 83.39 159.015 82.438C159.015 81.584 158.525 81.318 157.517 81.318H156.565ZM163.425 85H161.759V77.468H163.425V85Z" fill="#1D1D1D"/>
            <path fill-rule="evenodd" clip-rule="evenodd" d="M181 88C185.418 88 189 84.4183 189 80C189 75.5817 185.418 72 181 72C176.582 72 173 75.5817 173 80C173 84.4183 176.582 88 181 88ZM179.207 76.7929C178.817 76.4024 178.183 76.4024 177.793 76.7929C177.402 77.1834 177.402 77.8166 177.793 78.2071L179.586 80L177.793 81.7929C177.402 82.1834 177.402 82.8166 177.793 83.2071C178.183 83.5976 178.817 83.5976 179.207 83.2071L181 81.4142L182.793 83.2071C183.183 83.5976 183.817 83.5976 184.207 83.2071C184.598 82.8166 184.598 82.1834 184.207 81.7929L182.414 80L184.207 78.2071C184.598 77.8166 184.598 77.1834 184.207 76.7929C183.817 76.4024 183.183 76.4024 182.793 76.7929L181 78.5858L179.207 76.7929Z" fill="#1D1D1D"/>
            <rect x="209" y="64" width="152" height="32" rx="8" fill="#FFCF08"/>
            <path d="M224.994 81.626H226.702C226.268 83.908 224.672 85.182 222.32 85.182C219.352 85.182 217.63 83.082 217.63 79.89C217.63 76.698 219.45 74.668 222.404 74.668C224.658 74.668 226.268 75.942 226.674 78.224H224.966C224.644 76.838 223.678 76.124 222.348 76.124C220.738 76.124 219.464 77.44 219.464 79.89C219.464 82.354 220.71 83.726 222.334 83.726C223.72 83.726 224.672 83.026 224.994 81.626ZM237.931 77.468V85H236.265V78.784H233.045V85H231.379V77.468H237.931ZM241.477 81.234C241.477 82.97 242.331 83.824 243.423 83.824C244.599 83.824 245.285 82.844 245.285 81.234C245.285 79.652 244.599 78.658 243.423 78.658C242.331 78.658 241.477 79.498 241.477 81.234ZM239.881 77.468H241.547V78.476C241.995 77.734 242.779 77.3 243.787 77.3C245.635 77.3 247.021 78.826 247.021 81.234C247.021 83.656 245.635 85.182 243.787 85.182C242.779 85.182 241.995 84.748 241.547 84.006V87.45H239.881V77.468ZM249.685 81.248C249.685 82.984 250.609 83.824 251.673 83.824C252.737 83.824 253.661 82.984 253.661 81.248C253.661 79.512 252.737 78.658 251.673 78.658C250.609 78.658 249.685 79.512 249.685 81.248ZM251.673 77.3C253.507 77.3 255.383 78.532 255.383 81.248C255.383 83.978 253.507 85.182 251.673 85.182C249.839 85.182 247.963 83.978 247.963 81.248C247.963 78.532 249.839 77.3 251.673 77.3ZM260.389 85V81.71H259.731L257.519 85H255.559L258.331 81.038L255.783 77.468H257.645L259.633 80.394H260.389V77.468H262.055V80.394H262.783L264.799 77.468H266.717L264.141 81.024L266.899 85H264.953L262.741 81.71H262.055V85H260.389ZM274.99 77.468V85H273.324V79.778L269.74 85H268.074V77.468H269.74V82.718L273.324 77.468H274.99ZM276.865 77.468H280.407C281.975 77.468 283.235 77.86 283.235 79.414C283.235 80.184 282.899 80.716 282.241 81.01C282.983 81.234 283.543 81.752 283.543 82.746C283.543 84.356 282.283 85 280.589 85H276.865V77.468ZM278.531 80.548H280.281C281.107 80.548 281.583 80.31 281.583 79.638C281.583 78.98 281.093 78.77 280.267 78.77H278.531V80.548ZM278.531 81.752V83.698H280.393C281.387 83.698 281.877 83.362 281.877 82.69C281.877 81.976 281.387 81.752 280.379 81.752H278.531ZM289.647 82.032V81.458C287.267 81.682 286.301 82.032 286.301 82.886C286.301 83.544 286.847 83.936 287.687 83.936C288.919 83.936 289.647 83.32 289.647 82.032ZM287.323 85.182C285.685 85.182 284.537 84.3 284.537 82.928C284.537 81.038 286.861 80.59 289.605 80.296V80.156C289.605 78.868 288.877 78.476 288.037 78.476C287.197 78.476 286.567 78.924 286.525 79.834H284.887C284.999 78.308 286.273 77.244 288.093 77.244C289.899 77.244 291.313 78.07 291.271 80.478C291.271 80.842 291.243 81.738 291.243 82.424C291.243 83.376 291.313 84.37 291.467 85H289.941C289.885 84.678 289.843 84.496 289.801 83.978C289.311 84.804 288.443 85.182 287.323 85.182ZM299.718 85H298.052V81.794H294.692V85H293.026V77.468H294.692V80.478H298.052V77.468H299.718V85ZM308.651 77.468V85H306.985V79.778L303.401 85H301.735V77.468H303.401V82.718L306.985 77.468H308.651ZM317.26 81.71H311.646C311.758 83.11 312.738 83.796 313.69 83.796C314.572 83.796 315.244 83.46 315.538 82.746H317.176C316.84 83.95 315.692 85.182 313.76 85.182C311.338 85.182 309.952 83.348 309.952 81.178C309.952 78.91 311.506 77.3 313.648 77.3C315.958 77.3 317.414 79.19 317.26 81.71ZM313.648 78.602C312.864 78.602 311.8 79.078 311.646 80.492H315.566C315.524 79.316 314.628 78.602 313.648 78.602ZM327.647 77.468V85H326.037V79.036L323.825 85H322.537L320.325 79.064V85H318.715V77.468H321.235L323.209 82.844L325.127 77.468H327.647Z" fill="#1D1D1D"/>
            <path fill-rule="evenodd" clip-rule="evenodd" d="M345 88C349.418 88 353 84.4183 353 80C353 75.5817 349.418 72 345 72C340.582 72 337 75.5817 337 80C337 84.4183 340.582 88 345 88ZM343.207 76.7929C342.817 76.4024 342.183 76.4024 341.793 76.7929C341.402 77.1834 341.402 77.8166 341.793 78.2071L343.586 80L341.793 81.7929C341.402 82.1834 341.402 82.8166 341.793 83.2071C342.183 83.5976 342.817 83.5976 343.207 83.2071L345 81.4142L346.793 83.2071C347.183 83.5976 347.817 83.5976 348.207 83.2071C348.598 82.8166 348.598 82.1834 348.207 81.7929L346.414 80L348.207 78.2071C348.598 77.8166 348.598 77.1834 348.207 76.7929C347.817 76.4024 347.183 76.4024 346.793 76.7929L345 78.5858L343.207 76.7929Z" fill="#1D1D1D"/>
            <rect x="633.5" y="64.5" width="174" height="31" rx="7.5" stroke="#D9D9D9"/>
            <path d="M648.994 81.626H650.702C650.268 83.908 648.672 85.182 646.32 85.182C643.352 85.182 641.63 83.082 641.63 79.89C641.63 76.698 643.45 74.668 646.404 74.668C648.658 74.668 650.268 75.942 650.674 78.224H648.966C648.644 76.838 647.678 76.124 646.348 76.124C644.738 76.124 643.464 77.44 643.464 79.89C643.464 82.354 644.71 83.726 646.334 83.726C647.72 83.726 648.672 83.026 648.994 81.626ZM655.709 77.916C657.459 77.916 658.985 79.12 658.985 81.486C658.985 83.908 657.291 85.182 655.401 85.182C653.413 85.182 651.761 83.768 651.761 80.87V80.198C651.803 77.468 653.077 75.494 655.751 75.088L658.383 74.682V76.138L655.835 76.558C654.477 76.782 653.385 77.44 653.119 79.302C653.665 78.35 654.645 77.916 655.709 77.916ZM655.401 83.838C656.507 83.838 657.263 83.012 657.263 81.486C657.263 79.988 656.423 79.232 655.415 79.232C654.365 79.232 653.441 79.974 653.441 81.486C653.441 82.956 654.267 83.838 655.401 83.838ZM661.895 81.234C661.895 82.97 662.749 83.824 663.841 83.824C665.017 83.824 665.703 82.844 665.703 81.234C665.703 79.652 665.017 78.658 663.841 78.658C662.749 78.658 661.895 79.498 661.895 81.234ZM660.299 77.468H661.965V78.476C662.413 77.734 663.197 77.3 664.205 77.3C666.053 77.3 667.439 78.826 667.439 81.234C667.439 83.656 666.053 85.182 664.205 85.182C663.197 85.182 662.413 84.748 661.965 84.006V87.45H660.299V77.468ZM670.103 81.248C670.103 82.984 671.027 83.824 672.091 83.824C673.155 83.824 674.079 82.984 674.079 81.248C674.079 79.512 673.155 78.658 672.091 78.658C671.027 78.658 670.103 79.512 670.103 81.248ZM672.091 77.3C673.925 77.3 675.801 78.532 675.801 81.248C675.801 83.978 673.925 85.182 672.091 85.182C670.257 85.182 668.381 83.978 668.381 81.248C668.381 78.532 670.257 77.3 672.091 77.3ZM680.43 77.3C682.082 77.3 683.51 78.378 683.804 80.044H682.18C682.026 79.246 681.34 78.686 680.43 78.686C679.38 78.686 678.456 79.456 678.456 81.234C678.456 83.026 679.408 83.796 680.388 83.796C681.214 83.796 682.012 83.432 682.236 82.424H683.86C683.524 84.188 681.97 85.182 680.36 85.182C678.176 85.182 676.734 83.488 676.734 81.248C676.734 79.008 678.176 77.3 680.43 77.3ZM692.141 77.468V85H690.475V79.778L686.891 85H685.225V77.468H686.891V82.718L690.475 77.468H692.141ZM700.022 78.784H697.46V85H695.794V78.784H693.218V77.468H700.022V78.784ZM702.901 80.002H704.455C706.527 80.002 707.395 80.786 707.395 82.452C707.395 84.356 706.359 85 704.483 85H701.235V77.468H702.901V80.002ZM702.901 83.684H704.259C705.253 83.684 705.743 83.348 705.743 82.438C705.743 81.598 705.253 81.318 704.245 81.318H702.901V83.684ZM711.994 77.468H715.536C717.104 77.468 718.364 77.86 718.364 79.414C718.364 80.184 718.028 80.716 717.37 81.01C718.112 81.234 718.672 81.752 718.672 82.746C718.672 84.356 717.412 85 715.718 85H711.994V77.468ZM713.66 80.548H715.41C716.236 80.548 716.712 80.31 716.712 79.638C716.712 78.98 716.222 78.77 715.396 78.77H713.66V80.548ZM713.66 81.752V83.698H715.522C716.516 83.698 717.006 83.362 717.006 82.69C717.006 81.976 716.516 81.752 715.508 81.752H713.66ZM723.292 77.3C724.944 77.3 726.372 78.378 726.666 80.044H725.042C724.888 79.246 724.202 78.686 723.292 78.686C722.242 78.686 721.318 79.456 721.318 81.234C721.318 83.026 722.27 83.796 723.25 83.796C724.076 83.796 724.874 83.432 725.098 82.424H726.722C726.386 84.188 724.832 85.182 723.222 85.182C721.038 85.182 719.596 83.488 719.596 81.248C719.596 79.008 721.038 77.3 723.292 77.3ZM734.847 81.71H729.233C729.345 83.11 730.325 83.796 731.277 83.796C732.159 83.796 732.831 83.46 733.125 82.746H734.763C734.427 83.95 733.279 85.182 731.347 85.182C728.925 85.182 727.539 83.348 727.539 81.178C727.539 78.91 729.093 77.3 731.235 77.3C733.545 77.3 735.001 79.19 734.847 81.71ZM731.235 78.602C730.451 78.602 729.387 79.078 729.233 80.492H733.153C733.111 79.316 732.215 78.602 731.235 78.602ZM744.541 74.85V77.468C746.683 77.468 748.475 78.672 748.475 81.276C748.475 83.964 746.669 85.084 744.541 85.084V87.45H742.875V85.084C740.733 85.084 738.941 83.964 738.941 81.276C738.941 78.672 740.733 77.468 742.875 77.468V74.85H744.541ZM742.875 83.754V78.812C741.587 78.812 740.621 79.554 740.621 81.332C740.621 83.082 741.573 83.754 742.875 83.754ZM744.541 78.812V83.754C745.843 83.754 746.781 83.082 746.781 81.332C746.781 79.554 745.843 78.812 744.541 78.812ZM756.822 77.468V85H755.156V79.778L751.572 85H749.906V77.468H751.572V82.718L755.156 77.468H756.822ZM765.053 85H763.387V78.784H761.175L761.063 80.408C760.853 83.558 760.013 85 758.277 85H757.969V83.684H758.137C758.753 83.684 759.327 83.026 759.481 80.17L759.621 77.468H765.053V85ZM768.731 80.002H770.285C772.357 80.002 773.225 80.786 773.225 82.452C773.225 84.356 772.189 85 770.313 85H767.065V77.468H768.731V80.002ZM768.731 83.684H770.089C771.083 83.684 771.573 83.348 771.573 82.438C771.573 81.598 771.083 81.318 770.075 81.318H768.731V83.684ZM779.77 78.784H777.208V85H775.542V78.784H772.966V77.468H779.77V78.784ZM782.509 81.234C782.509 82.97 783.363 83.824 784.455 83.824C785.631 83.824 786.317 82.844 786.317 81.234C786.317 79.652 785.631 78.658 784.455 78.658C783.363 78.658 782.509 79.498 782.509 81.234ZM780.913 77.468H782.579V78.476C783.027 77.734 783.811 77.3 784.819 77.3C786.667 77.3 788.053 78.826 788.053 81.234C788.053 83.656 786.667 85.182 784.819 85.182C783.811 85.182 783.027 84.748 782.579 84.006V87.45H780.913V77.468ZM792.357 85H789.487V77.468H791.153V80.002H792.315C794.387 80.002 795.269 80.786 795.269 82.452C795.269 84.356 794.205 85 792.357 85ZM791.153 81.318V83.684H792.119C793.127 83.684 793.603 83.39 793.603 82.438C793.603 81.584 793.113 81.318 792.105 81.318H791.153ZM798.013 85H796.347V77.468H798.013V85Z" fill="#747474"/>
        </g>
    </g>
    <defs>
        <clipPath id="clip0_2_7688">
            <rect width="808" height="96" fill="white"/>
        </clipPath>
        <clipPath id="clip1_2_7688">
            <rect width="808" height="32" fill="white" transform="translate(0 64)"/>
        </clipPath>
    </defs>
</svg>
