<svg width="1224" height="80" viewBox="0 0 1224 80" fill="none" xmlns="http://www.w3.org/2000/svg">
    <rect width="1224" height="80" rx="20" fill="#F5F5F5"/>
    <rect opacity="0.01" x="16" width="1" height="16" fill="white"/>
    <rect x="16.5" y="16.5" width="723" height="47" rx="11.5" fill="white"/>
    <rect x="16.5" y="16.5" width="723" height="47" rx="11.5" stroke="#D9D9D9"/>
    <path d="M40.352 46H38.288L35.344 36.608V46H33.36V34.4H36.512L39.328 43.648L42.128 34.4H45.28V46H43.296V36.608L40.352 46ZM49.1046 41.712C49.1046 43.696 50.1606 44.656 51.3766 44.656C52.5926 44.656 53.6486 43.696 53.6486 41.712C53.6486 39.728 52.5926 38.752 51.3766 38.752C50.1606 38.752 49.1046 39.728 49.1046 41.712ZM51.3766 37.2C53.4726 37.2 55.6166 38.608 55.6166 41.712C55.6166 44.832 53.4726 46.208 51.3766 46.208C49.2806 46.208 47.1366 44.832 47.1366 41.712C47.1366 38.608 49.2806 37.2 51.3766 37.2ZM60.9071 37.2C62.7951 37.2 64.4271 38.432 64.7631 40.336H62.9071C62.7311 39.424 61.9471 38.784 60.9071 38.784C59.7071 38.784 58.6511 39.664 58.6511 41.696C58.6511 43.744 59.7391 44.624 60.8591 44.624C61.8031 44.624 62.7151 44.208 62.9711 43.056H64.8271C64.4431 45.072 62.6671 46.208 60.8271 46.208C58.3311 46.208 56.6831 44.272 56.6831 41.712C56.6831 39.152 58.3311 37.2 60.9071 37.2ZM72.0344 46L69.2024 42.24H68.3064V46H66.3864V37.392H68.3064V40.736H69.3464L71.8264 37.392H74.0024L70.7544 41.568L74.2264 46H72.0344ZM75.5739 37.392H79.6219C81.4139 37.392 82.8539 37.84 82.8539 39.616C82.8539 40.496 82.4699 41.104 81.7179 41.44C82.5659 41.696 83.2059 42.288 83.2059 43.424C83.2059 45.264 81.7659 46 79.8299 46H75.5739V37.392ZM77.4779 40.912H79.4779C80.4219 40.912 80.9659 40.64 80.9659 39.872C80.9659 39.12 80.4059 38.88 79.4619 38.88H77.4779V40.912ZM77.4779 42.288V44.512H79.6059C80.7419 44.512 81.3019 44.128 81.3019 43.36C81.3019 42.544 80.7419 42.288 79.5899 42.288H77.4779ZM90.1813 42.608V41.952C87.4613 42.208 86.3573 42.608 86.3573 43.584C86.3573 44.336 86.9813 44.784 87.9413 44.784C89.3493 44.784 90.1813 44.08 90.1813 42.608ZM87.5253 46.208C85.6533 46.208 84.3413 45.2 84.3413 43.632C84.3413 41.472 86.9973 40.96 90.1333 40.624V40.464C90.1333 38.992 89.3013 38.544 88.3413 38.544C87.3813 38.544 86.6613 39.056 86.6133 40.096H84.7413C84.8693 38.352 86.3253 37.136 88.4053 37.136C90.4693 37.136 92.0853 38.08 92.0373 40.832C92.0373 41.248 92.0052 42.272 92.0052 43.056C92.0052 44.144 92.0853 45.28 92.2613 46H90.5173C90.4533 45.632 90.4053 45.424 90.3573 44.832C89.7973 45.776 88.8053 46.208 87.5253 46.208Z" fill="#1D1D1D"/>
    <path d="M719.876 49.2979L720.583 50.0055L721.998 48.5923L721.291 47.8847L719.876 49.2979ZM715.708 42.2934C715.317 41.9026 714.684 41.9021 714.293 42.2924C713.903 42.6826 713.902 43.3158 714.292 43.7066L715.708 42.2934ZM721.291 47.8847L715.708 42.2934L714.292 43.7066L719.876 49.2979L721.291 47.8847ZM716 38C716 41.3137 713.314 44 710 44V46C714.418 46 718 42.4183 718 38H716ZM710 44C706.686 44 704 41.3137 704 38H702C702 42.4183 705.582 46 710 46V44ZM704 38C704 34.6863 706.686 32 710 32V30C705.582 30 702 33.5817 702 38H704ZM710 32C713.314 32 716 34.6863 716 38H718C718 33.5817 714.418 30 710 30V32Z" fill="#747474"/>
    <rect x="756.5" y="16.5" width="353" height="47" rx="11.5" fill="white"/>
    <rect x="756.5" y="16.5" width="353" height="47" rx="11.5" stroke="#D9D9D9"/>
    <path d="M775 37C774.448 37 774 37.4477 774 38C774 38.5523 774.448 39 775 39V37ZM775 50H774C774 50.5523 774.448 51 775 51V50ZM793 50V51C793.552 51 794 50.5523 794 50H793ZM793 32H794C794 31.4477 793.552 31 793 31V32ZM775 32V31C774.448 31 774 31.4477 774 32H775ZM789 30V29H787V30H789ZM787 34V35H789V34H787ZM781 30V29H779V30H781ZM779 34V35H781V34H779ZM793 37H775V39H793V37ZM775 33H793V31H775V33ZM792 38V50H794V38H792ZM793 49H775V51H793V49ZM776 50V32H774V50H776ZM787 30V34H789V30H787ZM779 30V34H781V30H779ZM792 32V38H794V32H792Z" fill="#747474"/>
    <path d="M815.84 44.304V48.384H813.952V46H805.968V48.384H804.08V44.304H804.544C805.808 44.304 806.512 42.08 806.576 38.24L806.64 34.4H814.32V44.304H815.84ZM812.288 44.304V36.096H808.592L808.512 38.88C808.432 41.776 807.824 43.28 807.008 44.304H812.288ZM822.713 42.608V41.952C819.993 42.208 818.889 42.608 818.889 43.584C818.889 44.336 819.513 44.784 820.473 44.784C821.881 44.784 822.713 44.08 822.713 42.608ZM820.057 46.208C818.185 46.208 816.873 45.2 816.873 43.632C816.873 41.472 819.529 40.96 822.665 40.624V40.464C822.665 38.992 821.833 38.544 820.873 38.544C819.913 38.544 819.193 39.056 819.145 40.096H817.273C817.401 38.352 818.857 37.136 820.937 37.136C823.001 37.136 824.617 38.08 824.569 40.832C824.569 41.248 824.536 42.272 824.536 43.056C824.536 44.144 824.617 45.28 824.793 46H823.049C822.985 45.632 822.937 45.424 822.889 44.832C822.329 45.776 821.337 46.208 820.057 46.208ZM833.313 38.896H830.385V46H828.481V38.896H825.537V37.392H833.313V38.896ZM839.634 42.608V41.952C836.914 42.208 835.81 42.608 835.81 43.584C835.81 44.336 836.434 44.784 837.394 44.784C838.802 44.784 839.634 44.08 839.634 42.608ZM836.978 46.208C835.106 46.208 833.794 45.2 833.794 43.632C833.794 41.472 836.45 40.96 839.586 40.624V40.464C839.586 38.992 838.754 38.544 837.794 38.544C836.834 38.544 836.114 39.056 836.066 40.096H834.194C834.322 38.352 835.778 37.136 837.858 37.136C839.922 37.136 841.538 38.08 841.49 40.832C841.49 41.248 841.458 42.272 841.458 43.056C841.458 44.144 841.538 45.28 841.714 46H839.97C839.906 45.632 839.858 45.424 839.81 44.832C839.25 45.776 838.258 46.208 836.978 46.208Z" fill="#1D1D1D"/>
    <rect x="1126" y="16" width="82" height="48" rx="12" fill="#FFCF08"/>
    <path d="M1151.05 34.4H1153.08V46H1151.05V40.88H1145.51V46H1143.48V34.4H1145.51V39.2H1151.05V34.4ZM1160.83 42.608V41.952C1158.11 42.208 1157.01 42.608 1157.01 43.584C1157.01 44.336 1157.63 44.784 1158.59 44.784C1160 44.784 1160.83 44.08 1160.83 42.608ZM1158.17 46.208C1156.3 46.208 1154.99 45.2 1154.99 43.632C1154.99 41.472 1157.65 40.96 1160.78 40.624V40.464C1160.78 38.992 1159.95 38.544 1158.99 38.544C1158.03 38.544 1157.31 39.056 1157.26 40.096H1155.39C1155.52 38.352 1156.97 37.136 1159.05 37.136C1161.12 37.136 1162.73 38.08 1162.69 40.832C1162.69 41.248 1162.65 42.272 1162.65 43.056C1162.65 44.144 1162.73 45.28 1162.91 46H1161.17C1161.1 45.632 1161.05 45.424 1161.01 44.832C1160.45 45.776 1159.45 46.208 1158.17 46.208ZM1169.97 34.4H1171.35C1171.22 35.536 1170.52 36.336 1168.69 36.336C1166.92 36.336 1166.15 35.536 1166.07 34.4H1167.46C1167.52 34.976 1167.88 35.28 1168.71 35.28C1169.52 35.28 1169.91 34.976 1169.97 34.4ZM1172.6 37.392V46H1170.69V40.032L1166.6 46H1164.69V37.392H1166.6V43.392L1170.69 37.392H1172.6ZM1181.6 38.896H1178.67V46H1176.77V38.896H1173.83V37.392H1181.6V38.896ZM1190.89 37.392V46H1188.99V40.032L1184.89 46H1182.99V37.392H1184.89V43.392L1188.99 37.392H1190.89Z" fill="#1D1D1D"/>
    <rect opacity="0.01" x="16" y="64" width="1" height="16" fill="white"/>
</svg>
