<svg width="211" height="80" viewBox="0 0 211 80" fill="none" xmlns="http://www.w3.org/2000/svg">
<rect y="4" width="48" height="48" rx="12" fill="#F5F5F5"/>
<path d="M23.9934 21.3785L23.2311 22.0258L23.9934 22.9235L24.7556 22.0258L23.9934 21.3785ZM15.5321 28.6284L16.3238 28.0176L16.3238 28.0176L15.5321 28.6284ZM32.4546 28.6284L31.6629 28.0176L31.6629 28.0176L32.4546 28.6284ZM24.0222 36.7004L23.3565 37.4466C23.7358 37.785 24.3086 37.785 24.6879 37.4466L24.0222 36.7004ZM24.7556 20.7313C22.5242 18.1033 18.6648 17.2994 15.7429 19.8142L17.0476 21.3301C18.9822 19.6649 21.5865 20.0889 23.2311 22.0258L24.7556 20.7313ZM15.7429 19.8142C12.9153 22.248 12.506 26.343 14.7403 29.2392L16.3238 28.0176C14.7443 25.9701 15.0188 23.0763 17.0476 21.3301L15.7429 19.8142ZM33.2464 29.2392C35.4719 26.3544 35.1264 22.2276 32.2334 19.8054L30.9495 21.3389C32.9964 23.0527 33.2512 25.9587 31.6629 28.0176L33.2464 29.2392ZM32.2334 19.8054C29.2801 17.3327 25.4701 18.0944 23.2311 20.7313L24.7556 22.0258C26.3927 20.0979 28.9629 19.6756 30.9495 21.3389L32.2334 19.8054ZM14.7403 29.2392C15.5952 30.3474 17.3925 32.0733 19.1058 33.6458C20.8401 35.2375 22.5827 36.7564 23.3565 37.4466L24.6879 35.9542C23.8891 35.2416 22.1794 33.7521 20.4581 32.1723C18.7159 30.5732 17.0544 28.9646 16.3238 28.0176L14.7403 29.2392ZM24.6879 37.4466C25.4672 36.7514 27.1906 35.2369 28.9128 33.6429C30.6128 32.0696 32.3932 30.3452 33.2464 29.2392L31.6629 28.0176C30.9306 28.9668 29.2811 30.5769 27.5543 32.1751C25.8499 33.7526 24.1498 35.2465 23.3565 35.9542L24.6879 37.4466Z" fill="#1D1D1D"/>
<g filter="url(#filter0_d_366_256679)">
<rect x="60" y="4" width="60" height="48" rx="12" fill="#007470"/>
<path d="M82.188 21.716C84.906 21.716 86.652 23.12 86.652 25.064C86.652 26.198 86.184 27.332 84.978 28.034C86.508 28.826 87.048 30.068 87.048 31.292C87.048 33.866 84.924 35.234 82.188 35.234C79.452 35.234 77.328 33.866 77.328 31.292C77.328 30.086 77.868 28.808 79.398 28.034C78.246 27.386 77.724 26.198 77.724 25.064C77.724 23.12 79.452 21.716 82.188 21.716ZM82.188 28.862C80.586 28.862 79.56 29.762 79.56 31.22C79.56 32.714 80.586 33.578 82.188 33.578C83.79 33.578 84.816 32.714 84.816 31.22C84.816 29.762 83.79 28.862 82.188 28.862ZM84.528 25.334C84.528 24.092 83.628 23.354 82.188 23.354C80.766 23.354 79.83 24.092 79.83 25.334C79.83 26.576 80.766 27.404 82.188 27.404C83.628 27.404 84.528 26.576 84.528 25.334ZM90.9406 35H88.4926V32.552H90.9406V35ZM97.2173 21.716C99.9353 21.716 101.681 23.12 101.681 25.064C101.681 26.198 101.213 27.332 100.007 28.034C101.537 28.826 102.077 30.068 102.077 31.292C102.077 33.866 99.9533 35.234 97.2173 35.234C94.4813 35.234 92.3573 33.866 92.3573 31.292C92.3573 30.086 92.8973 28.808 94.4273 28.034C93.2753 27.386 92.7533 26.198 92.7533 25.064C92.7533 23.12 94.4813 21.716 97.2173 21.716ZM97.2173 28.862C95.6153 28.862 94.5893 29.762 94.5893 31.22C94.5893 32.714 95.6153 33.578 97.2173 33.578C98.8193 33.578 99.8453 32.714 99.8453 31.22C99.8453 29.762 98.8193 28.862 97.2173 28.862ZM99.5573 25.334C99.5573 24.092 98.6573 23.354 97.2173 23.354C95.7953 23.354 94.8593 24.092 94.8593 25.334C94.8593 26.576 95.7953 27.404 97.2173 27.404C98.6573 27.404 99.5573 26.576 99.5573 25.334Z" fill="white"/>
</g>
<path d="M144.106 11.85H145.534V22H144.106V17.394H138.772V22H137.344V11.85H138.772V16.162H144.106V11.85ZM152.637 18.85V18.374C150.327 18.598 148.857 18.948 148.857 19.984C148.857 20.698 149.403 21.174 150.313 21.174C151.503 21.174 152.637 20.628 152.637 18.85ZM150.033 22.182C148.619 22.182 147.443 21.398 147.443 20.012C147.443 18.234 149.459 17.702 152.539 17.366V17.184C152.539 15.798 151.783 15.35 150.831 15.35C149.767 15.35 149.165 15.91 149.109 16.848H147.793C147.905 15.224 149.361 14.314 150.817 14.314C152.903 14.314 153.827 15.294 153.813 17.422L153.799 19.158C153.785 20.432 153.841 21.286 153.995 22H152.707C152.665 21.72 152.623 21.412 152.609 20.964C152.147 21.748 151.377 22.182 150.033 22.182ZM159.901 18.262C159.901 20.278 160.993 21.062 162.155 21.062C163.317 21.062 164.409 20.194 164.409 18.262C164.409 16.246 163.317 15.462 162.155 15.462C160.993 15.462 159.901 16.204 159.901 18.262ZM162.155 14.342C163.905 14.342 165.767 15.532 165.767 18.262C165.767 20.992 163.905 22.182 162.155 22.182C160.405 22.182 158.543 20.992 158.543 18.262C158.543 15.532 160.405 14.342 162.155 14.342ZM170.523 14.342C172.371 14.342 173.491 15.7 173.673 16.988H172.385C172.203 16.092 171.433 15.462 170.439 15.462C169.319 15.462 168.269 16.344 168.269 18.234C168.269 20.138 169.319 21.062 170.439 21.062C171.517 21.062 172.259 20.334 172.441 19.55H173.757C173.491 20.964 172.161 22.182 170.397 22.182C168.227 22.182 166.883 20.544 166.883 18.248C166.883 16.008 168.297 14.342 170.523 14.342ZM181.536 22H180.262V18.71H176.538V22H175.264V14.468H176.538V17.604H180.262V14.468H181.536V22ZM184.483 18.262C184.483 20.278 185.575 21.062 186.737 21.062C187.899 21.062 188.991 20.194 188.991 18.262C188.991 16.246 187.899 15.462 186.737 15.462C185.575 15.462 184.483 16.204 184.483 18.262ZM186.737 14.342C188.487 14.342 190.349 15.532 190.349 18.262C190.349 20.992 188.487 22.182 186.737 22.182C184.987 22.182 183.125 20.992 183.125 18.262C183.125 15.532 184.987 14.342 186.737 14.342ZM191.943 14.468H195.219C196.731 14.468 197.963 14.86 197.963 16.386C197.963 17.184 197.613 17.744 196.913 18.038C197.697 18.262 198.271 18.794 198.271 19.802C198.271 21.37 197.053 22 195.443 22H191.943V14.468ZM193.217 17.632H195.135C196.073 17.632 196.633 17.38 196.633 16.526C196.633 15.742 196.045 15.574 195.093 15.574H193.217V17.632ZM193.217 18.682V20.894H195.247C196.367 20.894 196.941 20.572 196.941 19.788C196.941 18.948 196.381 18.682 195.205 18.682H193.217ZM206.344 18.654H200.548C200.59 20.278 201.766 21.062 202.872 21.062C203.992 21.062 204.608 20.558 204.93 19.816H206.246C205.91 21.104 204.706 22.182 202.872 22.182C200.492 22.182 199.176 20.474 199.176 18.248C199.176 15.854 200.772 14.342 202.83 14.342C205.14 14.342 206.498 16.26 206.344 18.654ZM202.83 15.434C201.71 15.434 200.674 16.05 200.562 17.562H205C204.958 16.498 204.188 15.434 202.83 15.434ZM141.278 35.6L137.652 40.29H141.278V35.6ZM144.428 40.29V41.494H142.566V44H141.278V41.494H136.238V40.29L141.264 33.85H142.566V40.29H144.428ZM151.946 38.918C151.946 36.104 150.938 34.732 149.356 34.732C147.746 34.732 146.766 36.104 146.766 38.918C146.766 41.76 147.746 43.118 149.356 43.118C150.966 43.118 151.946 41.76 151.946 38.918ZM153.304 38.918C153.304 42.124 152.058 44.182 149.356 44.182C146.654 44.182 145.408 42.124 145.408 38.918C145.408 35.712 146.654 33.668 149.356 33.668C152.058 33.668 153.304 35.712 153.304 38.918ZM159.19 40.262C159.19 42.278 160.282 43.062 161.444 43.062C162.606 43.062 163.698 42.194 163.698 40.262C163.698 38.246 162.606 37.462 161.444 37.462C160.282 37.462 159.19 38.204 159.19 40.262ZM161.444 36.342C163.194 36.342 165.056 37.532 165.056 40.262C165.056 42.992 163.194 44.182 161.444 44.182C159.694 44.182 157.832 42.992 157.832 40.262C157.832 37.532 159.694 36.342 161.444 36.342ZM172.642 42.894H173.692V45.806H172.488V44H166.65V36.468H167.924V42.894H171.368V36.468H172.642V42.894ZM181.556 40.654H175.76C175.802 42.278 176.978 43.062 178.084 43.062C179.204 43.062 179.82 42.558 180.142 41.816H181.458C181.122 43.104 179.918 44.182 178.084 44.182C175.704 44.182 174.388 42.474 174.388 40.248C174.388 37.854 175.984 36.342 178.042 36.342C180.352 36.342 181.71 38.26 181.556 40.654ZM178.042 37.434C176.922 37.434 175.886 38.05 175.774 39.562H180.212C180.17 38.498 179.4 37.434 178.042 37.434ZM189.397 44H188.123V40.71H184.399V44H183.125V36.468H184.399V39.604H188.123V36.468H189.397V44ZM192.345 40.262C192.345 42.278 193.437 43.062 194.599 43.062C195.761 43.062 196.853 42.194 196.853 40.262C196.853 38.246 195.761 37.462 194.599 37.462C193.437 37.462 192.345 38.204 192.345 40.262ZM194.599 36.342C196.349 36.342 198.211 37.532 198.211 40.262C198.211 42.992 196.349 44.182 194.599 44.182C192.849 44.182 190.987 42.992 190.987 40.262C190.987 37.532 192.849 36.342 194.599 36.342ZM204.649 44L202.059 40.654H201.093V44H199.805V36.468H201.093V39.548H202.031L204.425 36.468H205.937L203.095 40.024L206.231 44H204.649Z" fill="#1D1D1D"/>
<defs>
<filter id="filter0_d_366_256679" x="44" y="0" width="92" height="80" filterUnits="userSpaceOnUse" color-interpolation-filters="sRGB">
<feFlood flood-opacity="0" result="BackgroundImageFix"/>
<feColorMatrix in="SourceAlpha" type="matrix" values="0 0 0 0 0 0 0 0 0 0 0 0 0 0 0 0 0 0 127 0" result="hardAlpha"/>
<feOffset dy="12"/>
<feGaussianBlur stdDeviation="8"/>
<feColorMatrix type="matrix" values="0 0 0 0 0 0 0 0 0 0 0 0 0 0 0 0 0 0 0.04 0"/>
<feBlend mode="normal" in2="BackgroundImageFix" result="effect1_dropShadow_366_256679"/>
<feBlend mode="normal" in="SourceGraphic" in2="effect1_dropShadow_366_256679" result="shape"/>
</filter>
</defs>
</svg>
