<svg width="808" height="434" viewBox="0 0 808 434" fill="none" xmlns="http://www.w3.org/2000/svg">
<path d="M1.68 23V5H14.304V7.76H5.04V12.56H12.864V15.32H5.04V23H1.68ZM16.6719 23H13.3359L20.0079 5H23.6559L30.5679 23H26.9199L25.3359 18.8H18.1599L16.6719 23ZM19.1919 15.92H24.2559L21.6639 9.008L19.1919 15.92ZM39.6793 4.736C40.9113 4.736 42.0553 4.96 43.1113 5.408C44.1673 5.856 45.0793 6.48 45.8473 7.28C46.6153 8.08 47.2153 9.04 47.6473 10.16C48.0953 11.28 48.3193 12.496 48.3193 13.808C48.3193 15.168 48.1113 16.416 47.6953 17.552C47.2953 18.672 46.7353 19.64 46.0153 20.456C45.3113 21.272 44.4633 21.92 43.4713 22.4C42.4793 22.88 41.4073 23.152 40.2553 23.216L42.0793 23.672C42.6233 24.12 42.9913 24.568 43.1833 25.016C43.3913 25.48 43.4953 26.008 43.4953 26.6H39.7033C39.6393 25.544 39.5033 24.768 39.2953 24.272C39.0873 23.792 38.6633 23.4 38.0233 23.096C36.9833 22.904 36.0313 22.552 35.1673 22.04C34.3033 21.512 33.5673 20.848 32.9593 20.048C32.3513 19.248 31.8713 18.32 31.5193 17.264C31.1833 16.208 31.0153 15.056 31.0153 13.808C31.0153 12.496 31.2313 11.28 31.6633 10.16C32.0953 9.04 32.6953 8.08 33.4633 7.28C34.2313 6.48 35.1433 5.856 36.1993 5.408C37.2713 4.96 38.4313 4.736 39.6793 4.736ZM39.6793 7.88C38.0793 7.88 36.8313 8.44 35.9353 9.56C35.0553 10.664 34.6153 12.144 34.6153 14C34.6153 15.936 35.0553 17.44 35.9353 18.512C36.8313 19.584 38.0793 20.12 39.6793 20.12C41.2633 20.12 42.4953 19.584 43.3753 18.512C44.2713 17.44 44.7193 15.936 44.7193 14C44.7193 12.144 44.2713 10.664 43.3753 9.56C42.4953 8.44 41.2633 7.88 39.6793 7.88Z" fill="#1D1D1D"/>
<rect opacity="0.01" y="28" width="1" height="16" fill="white"/>
<rect x="0.5" y="44.5" width="807" height="71" rx="15.5" fill="#F5F5F5"/>
<rect x="0.5" y="44.5" width="807" height="71" rx="15.5" stroke="#EBEBEB"/>
<path d="M34.4 88V82.1C33.3867 82.22 32.2533 82.28 31 82.28C28.88 82.28 27.38 81.9067 26.5 81.16C25.6333 80.4 25.2 79.16 25.2 77.44V73H28V77.16C28 78.12 28.2267 78.82 28.68 79.26C29.1467 79.6867 29.9467 79.9 31.08 79.9C32.4133 79.9 33.52 79.84 34.4 79.72V73H37.2V88H34.4ZM45.0094 88H42.4094V79.8H39.0094V78H48.4094V79.8H45.0094V88ZM54.8447 77.8C56.298 77.8 57.518 78.2933 58.5047 79.28C59.4914 80.2533 59.9847 81.4933 59.9847 83C59.9847 84.5067 59.4914 85.7533 58.5047 86.74C57.518 87.7133 56.298 88.2 54.8447 88.2C53.4047 88.2 52.1847 87.7133 51.1847 86.74C50.198 85.7533 49.7047 84.5067 49.7047 83C49.7047 81.4933 50.198 80.2533 51.1847 79.28C52.1847 78.2933 53.4047 77.8 54.8447 77.8ZM54.8647 79.48C53.358 79.48 52.6047 80.6533 52.6047 83C52.6047 84.1067 52.8047 84.9667 53.2047 85.58C53.6047 86.18 54.158 86.48 54.8647 86.48C55.5714 86.48 56.118 86.18 56.5047 85.58C56.8914 84.9667 57.0847 84.1067 57.0847 83C57.0847 80.6533 56.3447 79.48 54.8647 79.48ZM75.4044 85.08C75.4044 85.9733 75.0644 86.6867 74.3844 87.22C73.7177 87.74 72.691 88 71.3044 88H66.7844V78H71.2244C72.5044 78 73.4377 78.2267 74.0244 78.68C74.6244 79.1333 74.9244 79.7467 74.9244 80.52C74.9244 81.5467 74.411 82.2867 73.3844 82.74C74.731 83.1133 75.4044 83.8933 75.4044 85.08ZM70.8844 79.8H69.3844V82.24H70.9044C71.371 82.24 71.7177 82.12 71.9444 81.88C72.1844 81.6267 72.3044 81.32 72.3044 80.96C72.3044 80.1867 71.831 79.8 70.8844 79.8ZM70.9844 83.36H69.3844V86.2H70.9644C71.6044 86.2 72.0644 86.0867 72.3444 85.86C72.6377 85.62 72.7844 85.2533 72.7844 84.76C72.7844 84.36 72.631 84.0267 72.3244 83.76C72.031 83.4933 71.5844 83.36 70.9844 83.36ZM78.9494 88H76.1894L79.6894 83.08L76.2694 78H79.2494L81.2694 81L83.0694 78H85.8294L82.4494 82.74L85.9894 88H83.0094L80.8494 84.8L78.9494 88ZM91.9541 77.8C93.4074 77.8 94.6274 78.2933 95.6141 79.28C96.6007 80.2533 97.0941 81.4933 97.0941 83C97.0941 84.5067 96.6007 85.7533 95.6141 86.74C94.6274 87.7133 93.4074 88.2 91.9541 88.2C90.5141 88.2 89.2941 87.7133 88.2941 86.74C87.3074 85.7533 86.8141 84.5067 86.8141 83C86.8141 81.4933 87.3074 80.2533 88.2941 79.28C89.2941 78.2933 90.5141 77.8 91.9541 77.8ZM91.9741 79.48C90.4674 79.48 89.7141 80.6533 89.7141 83C89.7141 84.1067 89.9141 84.9667 90.3141 85.58C90.7141 86.18 91.2674 86.48 91.9741 86.48C92.6807 86.48 93.2274 86.18 93.6141 85.58C94.0007 84.9667 94.1941 84.1067 94.1941 83C94.1941 80.6533 93.4541 79.48 91.9741 79.48ZM102.144 83C102.078 84.68 101.938 85.7467 101.724 86.2H105.284V79.8H102.304L102.144 83ZM99.9244 82.94L100.184 78H107.884V86.2H109.584V91H107.384V88H100.384V91H98.1844V86.2H99.3844C99.6644 85.6533 99.8444 84.5667 99.9244 82.94ZM113.877 88H111.277V78H113.877V84.74L117.977 78H120.577V88H117.977V81.26L113.877 88ZM128.271 88H125.671V79.8H122.271V78H131.671V79.8H128.271V88ZM146.596 85.08C146.596 85.9733 146.256 86.6867 145.576 87.22C144.909 87.74 143.882 88 142.496 88H137.976V78H142.416C143.696 78 144.629 78.2267 145.216 78.68C145.816 79.1333 146.116 79.7467 146.116 80.52C146.116 81.5467 145.602 82.2867 144.576 82.74C145.922 83.1133 146.596 83.8933 146.596 85.08ZM142.076 79.8H140.576V82.24H142.096C142.562 82.24 142.909 82.12 143.136 81.88C143.376 81.6267 143.496 81.32 143.496 80.96C143.496 80.1867 143.022 79.8 142.076 79.8ZM142.176 83.36H140.576V86.2H142.156C142.796 86.2 143.256 86.0867 143.536 85.86C143.829 85.62 143.976 85.2533 143.976 84.76C143.976 84.36 143.822 84.0267 143.516 83.76C143.222 83.4933 142.776 83.36 142.176 83.36ZM152.81 82.98C152.81 81.4867 153.317 80.2533 154.33 79.28C155.357 78.2933 156.61 77.8 158.09 77.8C159.157 77.8 160.11 78.1133 160.95 78.74C161.803 79.3667 162.35 80.1867 162.59 81.2L160.21 82.08C159.89 80.3467 159.13 79.48 157.93 79.48C157.25 79.48 156.71 79.7867 156.31 80.4C155.91 81 155.71 81.86 155.71 82.98C155.71 84.1267 155.923 85 156.35 85.6C156.777 86.1867 157.31 86.48 157.95 86.48C158.55 86.48 159.023 86.2533 159.37 85.8C159.73 85.3467 160.01 84.64 160.21 83.68L162.59 84.56C162.39 85.64 161.863 86.52 161.01 87.2C160.157 87.8667 159.183 88.2 158.09 88.2C156.61 88.2 155.357 87.7133 154.33 86.74C153.317 85.7533 152.81 84.5 152.81 82.98ZM170.088 88H167.488V79.8H164.088V78H173.488V79.8H170.088V88ZM179.923 77.8C181.376 77.8 182.596 78.2933 183.583 79.28C184.569 80.2533 185.063 81.4933 185.063 83C185.063 84.5067 184.569 85.7533 183.583 86.74C182.596 87.7133 181.376 88.2 179.923 88.2C178.483 88.2 177.263 87.7133 176.263 86.74C175.276 85.7533 174.783 84.5067 174.783 83C174.783 81.4933 175.276 80.2533 176.263 79.28C177.263 78.2933 178.483 77.8 179.923 77.8ZM179.943 79.48C178.436 79.48 177.683 80.6533 177.683 83C177.683 84.1067 177.883 84.9667 178.283 85.58C178.683 86.18 179.236 86.48 179.943 86.48C180.649 86.48 181.196 86.18 181.583 85.58C181.969 84.9667 182.163 84.1067 182.163 83C182.163 80.6533 181.423 79.48 179.943 79.48ZM189.853 88H187.253V78H189.853V84.74L193.953 78H196.553V88H193.953V81.26L189.853 88ZM199.148 88V78H202.868L205.668 84.4L208.468 78H212.008V88H209.508V80.68L206.168 88H204.868L201.548 80.54V88H199.148ZM219.356 77.8C220.81 77.8 222.03 78.2933 223.016 79.28C224.003 80.2533 224.496 81.4933 224.496 83C224.496 84.5067 224.003 85.7533 223.016 86.74C222.03 87.7133 220.81 88.2 219.356 88.2C217.916 88.2 216.696 87.7133 215.696 86.74C214.71 85.7533 214.216 84.5067 214.216 83C214.216 81.4933 214.71 80.2533 215.696 79.28C216.696 78.2933 217.916 77.8 219.356 77.8ZM219.376 79.48C217.87 79.48 217.116 80.6533 217.116 83C217.116 84.1067 217.316 84.9667 217.716 85.58C218.116 86.18 218.67 86.48 219.376 86.48C220.083 86.48 220.63 86.18 221.016 85.58C221.403 84.9667 221.596 84.1067 221.596 83C221.596 80.6533 220.856 79.48 219.376 79.48ZM226.287 82.98C226.287 81.4867 226.793 80.2533 227.807 79.28C228.833 78.2933 230.087 77.8 231.567 77.8C232.633 77.8 233.587 78.1133 234.427 78.74C235.28 79.3667 235.827 80.1867 236.067 81.2L233.687 82.08C233.367 80.3467 232.607 79.48 231.407 79.48C230.727 79.48 230.187 79.7867 229.787 80.4C229.387 81 229.187 81.86 229.187 82.98C229.187 84.1267 229.4 85 229.827 85.6C230.253 86.1867 230.787 86.48 231.427 86.48C232.027 86.48 232.5 86.2533 232.847 85.8C233.207 85.3467 233.487 84.64 233.687 83.68L236.067 84.56C235.867 85.64 235.34 86.52 234.487 87.2C233.633 87.8667 232.66 88.2 231.567 88.2C230.087 88.2 228.833 87.7133 227.807 86.74C226.793 85.7533 226.287 84.5 226.287 82.98ZM243.564 88H240.964V79.8H237.564V78H246.964V79.8H243.564V88ZM257.079 84.58C257.079 86.86 255.713 88 252.979 88H248.659V78H251.259V81.44H253.339C254.406 81.44 255.293 81.7067 255.999 82.24C256.719 82.7733 257.079 83.5533 257.079 84.58ZM254.459 84.6C254.459 83.6933 253.859 83.24 252.659 83.24H251.259V86.2H252.639C253.279 86.2 253.739 86.0733 254.019 85.82C254.313 85.5533 254.459 85.1467 254.459 84.6ZM268.681 88H266.081V79.8H262.681V78H272.081V79.8H268.681V88ZM276.297 89.74L276.937 87.9L272.477 78H275.457L278.157 84.54L280.377 78H283.037L278.177 91.58C277.977 92.1267 277.75 92.5 277.497 92.7C277.243 92.9 276.797 93 276.157 93H273.877V90.8H275.137C275.337 90.8 275.497 90.78 275.617 90.74C275.75 90.7133 275.863 90.6267 275.957 90.48C276.05 90.3467 276.103 90.2533 276.117 90.2C276.143 90.16 276.203 90.0067 276.297 89.74ZM290.382 88.2C288.515 88.2 287.382 87.18 286.982 85.14V93H284.382V78H286.982V80.9C287.382 78.8333 288.515 77.8 290.382 77.8C291.502 77.8 292.462 78.2533 293.262 79.16C294.062 80.0533 294.462 81.3533 294.462 83.06C294.462 84.7133 294.062 85.9867 293.262 86.88C292.462 87.76 291.502 88.2 290.382 88.2ZM291.582 83.06C291.582 81.9667 291.362 81.12 290.922 80.52C290.495 79.92 289.935 79.62 289.242 79.62C288.562 79.62 288.029 79.92 287.642 80.52C287.255 81.1067 287.062 81.9533 287.062 83.06C287.062 84.1267 287.255 84.9533 287.642 85.54C288.042 86.1267 288.575 86.42 289.242 86.42C289.922 86.42 290.482 86.1267 290.922 85.54C291.362 84.94 291.582 84.1133 291.582 83.06ZM299.045 81.78L296.665 80.9C296.892 79.8733 297.432 79.1 298.285 78.58C299.152 78.06 300.185 77.8 301.385 77.8C302.892 77.8 303.972 78.04 304.625 78.52C305.278 79 305.605 79.7933 305.605 80.9V85.8H307.305V88H302.725L303.005 86.42V85.96L301.765 87.48C301.045 87.96 300.272 88.2 299.445 88.2C298.565 88.2 297.865 87.9667 297.345 87.5C296.825 87.02 296.565 86.3667 296.565 85.54C296.565 84.9667 296.658 84.5 296.845 84.14C297.045 83.78 297.358 83.5 297.785 83.3C298.225 83.0867 298.665 82.9267 299.105 82.82C299.558 82.7 300.172 82.5467 300.945 82.36C301.718 82.16 302.405 81.9533 303.005 81.74V81.32C303.005 80.7867 302.872 80.3933 302.605 80.14C302.338 79.8867 301.898 79.76 301.285 79.76C300.578 79.76 300.078 79.9067 299.785 80.2C299.505 80.48 299.258 81.0067 299.045 81.78ZM299.405 85.08C299.405 85.4533 299.518 85.7533 299.745 85.98C299.985 86.2067 300.305 86.32 300.705 86.32C301.132 86.32 301.578 86.1467 302.045 85.8C302.512 85.44 302.832 84.94 303.005 84.3V82.52C301.578 82.96 300.618 83.3533 300.125 83.7C299.645 84.0467 299.405 84.5067 299.405 85.08ZM314.964 83.7H312.364V81.02H313.184C314.251 81.02 315.017 80.7067 315.484 80.08C315.964 79.44 316.204 78.6267 316.204 77.64C316.204 76.4667 315.984 75.6667 315.544 75.24C315.104 74.8133 314.537 74.6 313.844 74.6C313.017 74.6 312.411 74.8933 312.024 75.48C311.637 76.0533 311.284 76.86 310.964 77.9L308.444 76.68C308.591 76.1467 308.811 75.6467 309.104 75.18C309.411 74.7 309.791 74.2867 310.244 73.94C310.697 73.58 311.231 73.3 311.844 73.1C312.457 72.9 313.137 72.8 313.884 72.8C314.751 72.8 315.511 72.9333 316.164 73.2C316.831 73.4667 317.384 73.82 317.824 74.26C318.264 74.7 318.597 75.22 318.824 75.82C319.051 76.42 319.164 77.0467 319.164 77.7C319.164 78.9133 318.771 79.9267 317.984 80.74C317.211 81.54 316.204 82.06 314.964 82.3V83.7ZM314.964 88H312.364V85.4H314.964V88Z" fill="#1D1D1D"/>
<path d="M766 76.5L772 82.5L778 76.5" stroke="#1D1D1D" stroke-width="2" stroke-linecap="square"/>
<rect opacity="0.01" y="116" width="1" height="8" fill="white"/>
<rect x="0.5" y="124.5" width="807" height="229" rx="15.5" fill="#F5F5F5"/>
<rect x="0.5" y="124.5" width="807" height="229" rx="15.5" stroke="#EBEBEB"/>
<path d="M34.4 168V162.1C33.3867 162.22 32.2533 162.28 31 162.28C28.88 162.28 27.38 161.907 26.5 161.16C25.6333 160.4 25.2 159.16 25.2 157.44V153H28V157.16C28 158.12 28.2267 158.82 28.68 159.26C29.1467 159.687 29.9467 159.9 31.08 159.9C32.4133 159.9 33.52 159.84 34.4 159.72V153H37.2V168H34.4ZM45.0094 168H42.4094V159.8H39.0094V158H48.4094V159.8H45.0094V168ZM54.8447 157.8C56.298 157.8 57.518 158.293 58.5047 159.28C59.4914 160.253 59.9847 161.493 59.9847 163C59.9847 164.507 59.4914 165.753 58.5047 166.74C57.518 167.713 56.298 168.2 54.8447 168.2C53.4047 168.2 52.1847 167.713 51.1847 166.74C50.198 165.753 49.7047 164.507 49.7047 163C49.7047 161.493 50.198 160.253 51.1847 159.28C52.1847 158.293 53.4047 157.8 54.8447 157.8ZM54.8647 159.48C53.358 159.48 52.6047 160.653 52.6047 163C52.6047 164.107 52.8047 164.967 53.2047 165.58C53.6047 166.18 54.158 166.48 54.8647 166.48C55.5714 166.48 56.118 166.18 56.5047 165.58C56.8914 164.967 57.0847 164.107 57.0847 163C57.0847 160.653 56.3447 159.48 54.8647 159.48ZM75.4044 165.08C75.4044 165.973 75.0644 166.687 74.3844 167.22C73.7177 167.74 72.691 168 71.3044 168H66.7844V158H71.2244C72.5044 158 73.4377 158.227 74.0244 158.68C74.6244 159.133 74.9244 159.747 74.9244 160.52C74.9244 161.547 74.411 162.287 73.3844 162.74C74.731 163.113 75.4044 163.893 75.4044 165.08ZM70.8844 159.8H69.3844V162.24H70.9044C71.371 162.24 71.7177 162.12 71.9444 161.88C72.1844 161.627 72.3044 161.32 72.3044 160.96C72.3044 160.187 71.831 159.8 70.8844 159.8ZM70.9844 163.36H69.3844V166.2H70.9644C71.6044 166.2 72.0644 166.087 72.3444 165.86C72.6377 165.62 72.7844 165.253 72.7844 164.76C72.7844 164.36 72.631 164.027 72.3244 163.76C72.031 163.493 71.5844 163.36 70.9844 163.36ZM78.9494 168H76.1894L79.6894 163.08L76.2694 158H79.2494L81.2694 161L83.0694 158H85.8294L82.4494 162.74L85.9894 168H83.0094L80.8494 164.8L78.9494 168ZM91.9541 157.8C93.4074 157.8 94.6274 158.293 95.6141 159.28C96.6007 160.253 97.0941 161.493 97.0941 163C97.0941 164.507 96.6007 165.753 95.6141 166.74C94.6274 167.713 93.4074 168.2 91.9541 168.2C90.5141 168.2 89.2941 167.713 88.2941 166.74C87.3074 165.753 86.8141 164.507 86.8141 163C86.8141 161.493 87.3074 160.253 88.2941 159.28C89.2941 158.293 90.5141 157.8 91.9541 157.8ZM91.9741 159.48C90.4674 159.48 89.7141 160.653 89.7141 163C89.7141 164.107 89.9141 164.967 90.3141 165.58C90.7141 166.18 91.2674 166.48 91.9741 166.48C92.6807 166.48 93.2274 166.18 93.6141 165.58C94.0007 164.967 94.1941 164.107 94.1941 163C94.1941 160.653 93.4541 159.48 91.9741 159.48ZM102.144 163C102.078 164.68 101.938 165.747 101.724 166.2H105.284V159.8H102.304L102.144 163ZM99.9244 162.94L100.184 158H107.884V166.2H109.584V171H107.384V168H100.384V171H98.1844V166.2H99.3844C99.6644 165.653 99.8444 164.567 99.9244 162.94ZM113.877 168H111.277V158H113.877V164.74L117.977 158H120.577V168H117.977V161.26L113.877 168ZM128.271 168H125.671V159.8H122.271V158H131.671V159.8H128.271V168ZM146.596 165.08C146.596 165.973 146.256 166.687 145.576 167.22C144.909 167.74 143.882 168 142.496 168H137.976V158H142.416C143.696 158 144.629 158.227 145.216 158.68C145.816 159.133 146.116 159.747 146.116 160.52C146.116 161.547 145.602 162.287 144.576 162.74C145.922 163.113 146.596 163.893 146.596 165.08ZM142.076 159.8H140.576V162.24H142.096C142.562 162.24 142.909 162.12 143.136 161.88C143.376 161.627 143.496 161.32 143.496 160.96C143.496 160.187 143.022 159.8 142.076 159.8ZM142.176 163.36H140.576V166.2H142.156C142.796 166.2 143.256 166.087 143.536 165.86C143.829 165.62 143.976 165.253 143.976 164.76C143.976 164.36 143.822 164.027 143.516 163.76C143.222 163.493 142.776 163.36 142.176 163.36ZM152.81 162.98C152.81 161.487 153.317 160.253 154.33 159.28C155.357 158.293 156.61 157.8 158.09 157.8C159.157 157.8 160.11 158.113 160.95 158.74C161.803 159.367 162.35 160.187 162.59 161.2L160.21 162.08C159.89 160.347 159.13 159.48 157.93 159.48C157.25 159.48 156.71 159.787 156.31 160.4C155.91 161 155.71 161.86 155.71 162.98C155.71 164.127 155.923 165 156.35 165.6C156.777 166.187 157.31 166.48 157.95 166.48C158.55 166.48 159.023 166.253 159.37 165.8C159.73 165.347 160.01 164.64 160.21 163.68L162.59 164.56C162.39 165.64 161.863 166.52 161.01 167.2C160.157 167.867 159.183 168.2 158.09 168.2C156.61 168.2 155.357 167.713 154.33 166.74C153.317 165.753 152.81 164.5 152.81 162.98ZM170.088 168H167.488V159.8H164.088V158H173.488V159.8H170.088V168ZM179.923 157.8C181.376 157.8 182.596 158.293 183.583 159.28C184.569 160.253 185.063 161.493 185.063 163C185.063 164.507 184.569 165.753 183.583 166.74C182.596 167.713 181.376 168.2 179.923 168.2C178.483 168.2 177.263 167.713 176.263 166.74C175.276 165.753 174.783 164.507 174.783 163C174.783 161.493 175.276 160.253 176.263 159.28C177.263 158.293 178.483 157.8 179.923 157.8ZM179.943 159.48C178.436 159.48 177.683 160.653 177.683 163C177.683 164.107 177.883 164.967 178.283 165.58C178.683 166.18 179.236 166.48 179.943 166.48C180.649 166.48 181.196 166.18 181.583 165.58C181.969 164.967 182.163 164.107 182.163 163C182.163 160.653 181.423 159.48 179.943 159.48ZM189.853 168H187.253V158H189.853V164.74L193.953 158H196.553V168H193.953V161.26L189.853 168ZM199.148 168V158H202.868L205.668 164.4L208.468 158H212.008V168H209.508V160.68L206.168 168H204.868L201.548 160.54V168H199.148ZM219.356 157.8C220.81 157.8 222.03 158.293 223.016 159.28C224.003 160.253 224.496 161.493 224.496 163C224.496 164.507 224.003 165.753 223.016 166.74C222.03 167.713 220.81 168.2 219.356 168.2C217.916 168.2 216.696 167.713 215.696 166.74C214.71 165.753 214.216 164.507 214.216 163C214.216 161.493 214.71 160.253 215.696 159.28C216.696 158.293 217.916 157.8 219.356 157.8ZM219.376 159.48C217.87 159.48 217.116 160.653 217.116 163C217.116 164.107 217.316 164.967 217.716 165.58C218.116 166.18 218.67 166.48 219.376 166.48C220.083 166.48 220.63 166.18 221.016 165.58C221.403 164.967 221.596 164.107 221.596 163C221.596 160.653 220.856 159.48 219.376 159.48ZM226.287 162.98C226.287 161.487 226.793 160.253 227.807 159.28C228.833 158.293 230.087 157.8 231.567 157.8C232.633 157.8 233.587 158.113 234.427 158.74C235.28 159.367 235.827 160.187 236.067 161.2L233.687 162.08C233.367 160.347 232.607 159.48 231.407 159.48C230.727 159.48 230.187 159.787 229.787 160.4C229.387 161 229.187 161.86 229.187 162.98C229.187 164.127 229.4 165 229.827 165.6C230.253 166.187 230.787 166.48 231.427 166.48C232.027 166.48 232.5 166.253 232.847 165.8C233.207 165.347 233.487 164.64 233.687 163.68L236.067 164.56C235.867 165.64 235.34 166.52 234.487 167.2C233.633 167.867 232.66 168.2 231.567 168.2C230.087 168.2 228.833 167.713 227.807 166.74C226.793 165.753 226.287 164.5 226.287 162.98ZM243.564 168H240.964V159.8H237.564V158H246.964V159.8H243.564V168ZM257.079 164.58C257.079 166.86 255.713 168 252.979 168H248.659V158H251.259V161.44H253.339C254.406 161.44 255.293 161.707 255.999 162.24C256.719 162.773 257.079 163.553 257.079 164.58ZM254.459 164.6C254.459 163.693 253.859 163.24 252.659 163.24H251.259V166.2H252.639C253.279 166.2 253.739 166.073 254.019 165.82C254.313 165.553 254.459 165.147 254.459 164.6ZM268.681 168H266.081V159.8H262.681V158H272.081V159.8H268.681V168ZM276.297 169.74L276.937 167.9L272.477 158H275.457L278.157 164.54L280.377 158H283.037L278.177 171.58C277.977 172.127 277.75 172.5 277.497 172.7C277.243 172.9 276.797 173 276.157 173H273.877V170.8H275.137C275.337 170.8 275.497 170.78 275.617 170.74C275.75 170.713 275.863 170.627 275.957 170.48C276.05 170.347 276.103 170.253 276.117 170.2C276.143 170.16 276.203 170.007 276.297 169.74ZM290.382 168.2C288.515 168.2 287.382 167.18 286.982 165.14V173H284.382V158H286.982V160.9C287.382 158.833 288.515 157.8 290.382 157.8C291.502 157.8 292.462 158.253 293.262 159.16C294.062 160.053 294.462 161.353 294.462 163.06C294.462 164.713 294.062 165.987 293.262 166.88C292.462 167.76 291.502 168.2 290.382 168.2ZM291.582 163.06C291.582 161.967 291.362 161.12 290.922 160.52C290.495 159.92 289.935 159.62 289.242 159.62C288.562 159.62 288.029 159.92 287.642 160.52C287.255 161.107 287.062 161.953 287.062 163.06C287.062 164.127 287.255 164.953 287.642 165.54C288.042 166.127 288.575 166.42 289.242 166.42C289.922 166.42 290.482 166.127 290.922 165.54C291.362 164.94 291.582 164.113 291.582 163.06ZM299.045 161.78L296.665 160.9C296.892 159.873 297.432 159.1 298.285 158.58C299.152 158.06 300.185 157.8 301.385 157.8C302.892 157.8 303.972 158.04 304.625 158.52C305.278 159 305.605 159.793 305.605 160.9V165.8H307.305V168H302.725L303.005 166.42V165.96L301.765 167.48C301.045 167.96 300.272 168.2 299.445 168.2C298.565 168.2 297.865 167.967 297.345 167.5C296.825 167.02 296.565 166.367 296.565 165.54C296.565 164.967 296.658 164.5 296.845 164.14C297.045 163.78 297.358 163.5 297.785 163.3C298.225 163.087 298.665 162.927 299.105 162.82C299.558 162.7 300.172 162.547 300.945 162.36C301.718 162.16 302.405 161.953 303.005 161.74V161.32C303.005 160.787 302.872 160.393 302.605 160.14C302.338 159.887 301.898 159.76 301.285 159.76C300.578 159.76 300.078 159.907 299.785 160.2C299.505 160.48 299.258 161.007 299.045 161.78ZM299.405 165.08C299.405 165.453 299.518 165.753 299.745 165.98C299.985 166.207 300.305 166.32 300.705 166.32C301.132 166.32 301.578 166.147 302.045 165.8C302.512 165.44 302.832 164.94 303.005 164.3V162.52C301.578 162.96 300.618 163.353 300.125 163.7C299.645 164.047 299.405 164.507 299.405 165.08ZM314.964 163.7H312.364V161.02H313.184C314.251 161.02 315.017 160.707 315.484 160.08C315.964 159.44 316.204 158.627 316.204 157.64C316.204 156.467 315.984 155.667 315.544 155.24C315.104 154.813 314.537 154.6 313.844 154.6C313.017 154.6 312.411 154.893 312.024 155.48C311.637 156.053 311.284 156.86 310.964 157.9L308.444 156.68C308.591 156.147 308.811 155.647 309.104 155.18C309.411 154.7 309.791 154.287 310.244 153.94C310.697 153.58 311.231 153.3 311.844 153.1C312.457 152.9 313.137 152.8 313.884 152.8C314.751 152.8 315.511 152.933 316.164 153.2C316.831 153.467 317.384 153.82 317.824 154.26C318.264 154.7 318.597 155.22 318.824 155.82C319.051 156.42 319.164 157.047 319.164 157.7C319.164 158.913 318.771 159.927 317.984 160.74C317.211 161.54 316.204 162.06 314.964 162.3V163.7ZM314.964 168H312.364V165.4H314.964V168Z" fill="#1D1D1D"/>
<path d="M766 163.5L772 157.5L778 163.5" stroke="#1D1D1D" stroke-width="2" stroke-linecap="square"/>
<rect opacity="0.01" x="24" y="172" width="1" height="16" fill="white"/>
<path d="M31.084 204H29.572L26.772 195.152V204H25.344V193.85H27.738L30.328 202.306L32.918 193.85H35.312V204H33.884V195.152L31.084 204ZM40.4542 204H37.7382V196.468H39.0122V199.128H40.4682C42.4282 199.128 43.2822 199.898 43.2822 201.508C43.2822 203.37 42.1762 204 40.4542 204ZM39.0122 200.234V202.894H40.3422C41.4622 202.894 42.0362 202.53 42.0362 201.508C42.0362 200.5 41.4762 200.234 40.3002 200.234H39.0122ZM45.8022 204H44.5282V196.468H45.8022V204ZM50.839 206.45V205.386H51.357C52.197 205.386 52.603 205.33 52.939 204.154L52.995 204L50.279 196.468H51.693L53.611 202.278L55.473 196.468H56.803L54.115 204.322C53.555 205.946 53.191 206.45 51.497 206.45H50.839ZM65.3232 200.024L68.0812 204H66.5552L64.2872 200.668H63.1812V204H61.9072V200.668H60.8432L58.5612 204H57.0072L59.7792 200.066L57.2592 196.468H58.7432L60.8432 199.562H61.9072V196.468H63.1812V199.562H64.2452L66.3592 196.468H67.8292L65.3232 200.024ZM75.5994 200.654H69.8034C69.8454 202.278 71.0214 203.062 72.1274 203.062C73.2474 203.062 73.8634 202.558 74.1854 201.816H75.5014C75.1654 203.104 73.9614 204.182 72.1274 204.182C69.7474 204.182 68.4314 202.474 68.4314 200.248C68.4314 197.854 70.0274 196.342 72.0854 196.342C74.3954 196.342 75.7534 198.26 75.5994 200.654ZM72.0854 197.434C70.9654 197.434 69.9294 198.05 69.8174 199.562H74.2554C74.2134 198.498 73.4434 197.434 72.0854 197.434ZM80.4901 196.468H83.7661C85.2781 196.468 86.5101 196.86 86.5101 198.386C86.5101 199.184 86.1601 199.744 85.4601 200.038C86.2441 200.262 86.8181 200.794 86.8181 201.802C86.8181 203.37 85.6001 204 83.9901 204H80.4901V196.468ZM81.7641 199.632H83.6821C84.6201 199.632 85.1801 199.38 85.1801 198.526C85.1801 197.742 84.5921 197.574 83.6401 197.574H81.7641V199.632ZM81.7641 200.682V202.894H83.7941C84.9141 202.894 85.4881 202.572 85.4881 201.788C85.4881 200.948 84.9281 200.682 83.7521 200.682H81.7641ZM93.1544 204L90.5644 200.654H89.5984V204H88.3104V196.468H89.5984V199.548H90.5364L92.9304 196.468H94.4424L91.6004 200.024L94.7364 204H93.1544ZM101.903 196.468V204H100.629V197.574H98.095L97.983 199.394C97.801 202.432 97.143 204 95.393 204H95.155V202.894H95.295C95.967 202.894 96.611 202.166 96.765 199.044L96.877 196.468H101.903ZM110.248 196.342C111.998 196.342 113.86 197.532 113.86 200.262C113.86 202.992 111.998 204.182 110.248 204.182C108.68 204.182 107.014 203.118 106.832 200.71H105.334V204H104.06V196.468H105.334V199.604H106.86C107.126 197.322 108.708 196.342 110.248 196.342ZM110.248 203.062C111.41 203.062 112.502 202.194 112.502 200.262C112.502 198.246 111.41 197.462 110.248 197.462C109.198 197.462 108.176 198.204 108.176 200.262C108.176 202.278 109.198 203.062 110.248 203.062ZM121.007 204H119.733V200.948C118.851 201.158 118.179 201.256 117.493 201.256C115.911 201.256 115.085 200.556 115.085 198.918V196.468H116.359V198.652C116.359 199.772 116.891 200.15 117.955 200.15C118.445 200.15 119.033 200.066 119.733 199.898V196.468H121.007V204ZM128.326 204V198.316L124.434 204H123.16V196.468H124.434V202.152L128.326 196.468H129.6V204H128.326ZM137.71 196.468V204H136.436V197.574H133.902L133.79 199.394C133.608 202.432 132.95 204 131.2 204H130.962V202.894H131.102C131.774 202.894 132.418 202.166 132.572 199.044L132.684 196.468H137.71ZM145.033 204V198.316L141.141 204H139.867V196.468H141.141V202.152L145.033 196.468H146.307V204H145.033ZM151.789 196.468H155.065C156.577 196.468 157.809 196.86 157.809 198.386C157.809 199.184 157.459 199.744 156.759 200.038C157.543 200.262 158.117 200.794 158.117 201.802C158.117 203.37 156.899 204 155.289 204H151.789V196.468ZM153.063 199.632H154.981C155.919 199.632 156.479 199.38 156.479 198.526C156.479 197.742 155.891 197.574 154.939 197.574H153.063V199.632ZM153.063 200.682V202.894H155.093C156.213 202.894 156.787 202.572 156.787 201.788C156.787 200.948 156.227 200.682 155.051 200.682H153.063ZM165.984 196.342C167.832 196.342 168.952 197.7 169.134 198.988H167.846C167.664 198.092 166.894 197.462 165.9 197.462C164.78 197.462 163.73 198.344 163.73 200.234C163.73 202.138 164.78 203.062 165.9 203.062C166.978 203.062 167.72 202.334 167.902 201.55H169.218C168.952 202.964 167.622 204.182 165.858 204.182C163.688 204.182 162.344 202.544 162.344 200.248C162.344 198.008 163.758 196.342 165.984 196.342ZM176.036 197.574H173.46V204H172.186V197.574H169.61V196.468H176.036V197.574ZM177.88 200.262C177.88 202.278 178.972 203.062 180.134 203.062C181.296 203.062 182.388 202.194 182.388 200.262C182.388 198.246 181.296 197.462 180.134 197.462C178.972 197.462 177.88 198.204 177.88 200.262ZM180.134 196.342C181.884 196.342 183.746 197.532 183.746 200.262C183.746 202.992 181.884 204.182 180.134 204.182C178.384 204.182 176.522 202.992 176.522 200.262C176.522 197.532 178.384 196.342 180.134 196.342ZM190.506 204V198.316L186.614 204H185.34V196.468H186.614V202.152L190.506 196.468H191.78V204H190.506ZM202.171 196.468V204H200.925V197.952L198.503 204H197.593L195.185 198.036V204H193.939V196.468H195.759L198.097 202.264L200.351 196.468H202.171ZM205.128 200.262C205.128 202.278 206.22 203.062 207.382 203.062C208.544 203.062 209.636 202.194 209.636 200.262C209.636 198.246 208.544 197.462 207.382 197.462C206.22 197.462 205.128 198.204 205.128 200.262ZM207.382 196.342C209.132 196.342 210.994 197.532 210.994 200.262C210.994 202.992 209.132 204.182 207.382 204.182C205.632 204.182 203.77 202.992 203.77 200.262C203.77 197.532 205.632 196.342 207.382 196.342ZM215.749 196.342C217.597 196.342 218.717 197.7 218.899 198.988H217.611C217.429 198.092 216.659 197.462 215.665 197.462C214.545 197.462 213.495 198.344 213.495 200.234C213.495 202.138 214.545 203.062 215.665 203.062C216.743 203.062 217.485 202.334 217.667 201.55H218.983C218.717 202.964 217.387 204.182 215.623 204.182C213.453 204.182 212.109 202.544 212.109 200.248C212.109 198.008 213.523 196.342 215.749 196.342ZM225.802 197.574H223.226V204H221.952V197.574H219.376V196.468H225.802V197.574ZM228.368 199.128H230.16C232.134 199.128 232.974 199.898 232.974 201.508C232.974 203.37 231.882 204 230.146 204H227.094V196.468H228.368V199.128ZM228.368 202.894H230.034C231.154 202.894 231.728 202.516 231.728 201.508C231.728 200.514 231.14 200.234 230.006 200.234H228.368V202.894ZM237.086 201.48H238.36C238.57 202.376 239.312 203.062 240.488 203.062C241.594 203.062 242.63 202.32 242.742 200.752H239.424V199.646H242.742C242.588 198.246 241.692 197.42 240.474 197.42C239.424 197.42 238.682 198.008 238.416 199.016H237.156C237.492 197.238 238.878 196.3 240.516 196.3C242.728 196.3 244.086 197.896 244.086 200.248C244.086 202.586 242.84 204.182 240.558 204.182C238.92 204.182 237.506 203.328 237.086 201.48ZM250.972 197.574H248.396V204H247.122V197.574H244.546V196.468H250.972V197.574ZM252.815 200.262C252.815 202.278 253.907 203.062 255.069 203.062C256.231 203.062 257.323 202.194 257.323 200.262C257.323 198.246 256.231 197.462 255.069 197.462C253.907 197.462 252.815 198.204 252.815 200.262ZM255.069 196.342C256.819 196.342 258.681 197.532 258.681 200.262C258.681 202.992 256.819 204.182 255.069 204.182C253.319 204.182 251.457 202.992 251.457 200.262C251.457 197.532 253.319 196.342 255.069 196.342ZM265.077 197.574H261.549V204H260.275V196.468H265.077V197.574ZM266.843 200.262C266.843 202.278 267.935 203.062 269.097 203.062C270.259 203.062 271.351 202.194 271.351 200.262C271.351 198.246 270.259 197.462 269.097 197.462C267.935 197.462 266.843 198.204 266.843 200.262ZM269.097 196.342C270.847 196.342 272.709 197.532 272.709 200.262C272.709 202.992 270.847 204.182 269.097 204.182C267.347 204.182 265.485 202.992 265.485 200.262C265.485 197.532 267.347 196.342 269.097 196.342ZM283.183 197.574H280.607V204H279.333V197.574H276.757V196.468H283.183V197.574ZM284.026 206.45V205.386H284.544C285.384 205.386 285.79 205.33 286.126 204.154L286.182 204L283.466 196.468H284.88L286.798 202.278L288.66 196.468H289.99L287.302 204.322C286.742 205.946 286.378 206.45 284.684 206.45H284.026ZM291.133 196.468H292.407V197.658C292.869 196.86 293.653 196.342 294.871 196.342C296.607 196.342 298.091 197.798 298.091 200.262C298.091 202.768 296.607 204.182 294.871 204.182C293.653 204.182 292.869 203.664 292.407 202.866V206.45H291.133V196.468ZM292.351 200.262C292.351 202.25 293.415 203.09 294.549 203.09C295.851 203.09 296.705 202.068 296.705 200.262C296.705 198.456 295.851 197.434 294.549 197.434C293.415 197.434 292.351 198.274 292.351 200.262ZM304.34 200.85V200.374C302.03 200.598 300.56 200.948 300.56 201.984C300.56 202.698 301.106 203.174 302.016 203.174C303.206 203.174 304.34 202.628 304.34 200.85ZM301.736 204.182C300.322 204.182 299.146 203.398 299.146 202.012C299.146 200.234 301.162 199.702 304.242 199.366V199.184C304.242 197.798 303.486 197.35 302.534 197.35C301.47 197.35 300.868 197.91 300.812 198.848H299.496C299.608 197.224 301.064 196.314 302.52 196.314C304.606 196.314 305.53 197.294 305.516 199.422L305.502 201.158C305.488 202.432 305.544 203.286 305.698 204H304.41C304.368 203.72 304.326 203.412 304.312 202.964C303.85 203.748 303.08 204.182 301.736 204.182ZM308.926 198.078H307.316V196.468H308.926V198.078ZM308.926 204H307.316V202.39H308.926V204Z" fill="#1D1D1D"/>
<rect opacity="0.01" x="24" y="210" width="1" height="8" fill="white"/>
<rect x="24" y="218" width="88" height="32" rx="8" fill="#FFC300"/>
<path d="M40.022 228.85V230.334H34.968V239H33.19V228.85H40.022ZM44.2172 236.032V235.458C41.8372 235.682 40.8712 236.032 40.8712 236.886C40.8712 237.544 41.4172 237.936 42.2572 237.936C43.4892 237.936 44.2172 237.32 44.2172 236.032ZM41.8932 239.182C40.2552 239.182 39.1072 238.3 39.1072 236.928C39.1072 235.038 41.4312 234.59 44.1752 234.296V234.156C44.1752 232.868 43.4472 232.476 42.6072 232.476C41.7672 232.476 41.1372 232.924 41.0952 233.834H39.4572C39.5692 232.308 40.8432 231.244 42.6632 231.244C44.4692 231.244 45.8832 232.07 45.8412 234.478C45.8412 234.842 45.8132 235.738 45.8132 236.424C45.8132 237.376 45.8832 238.37 46.0372 239H44.5112C44.4552 238.678 44.4132 238.496 44.3712 237.978C43.8812 238.804 43.0132 239.182 41.8932 239.182ZM49.1219 235.234C49.1219 236.97 49.9759 237.824 51.0679 237.824C52.2439 237.824 52.9299 236.844 52.9299 235.234C52.9299 233.652 52.2439 232.658 51.0679 232.658C49.9759 232.658 49.1219 233.498 49.1219 235.234ZM47.5259 231.468H49.1919V232.476C49.6399 231.734 50.4239 231.3 51.4319 231.3C53.2799 231.3 54.6659 232.826 54.6659 235.234C54.6659 237.656 53.2799 239.182 51.4319 239.182C50.4239 239.182 49.6399 238.748 49.1919 238.006V241.45H47.5259V231.468ZM62.7918 239H61.1258V235.794H57.7658V239H56.0998V231.468H57.7658V234.478H61.1258V231.468H62.7918V239ZM71.7248 231.468V239H70.0588V233.778L66.4748 239H64.8088V231.468H66.4748V236.718L70.0588 231.468H71.7248ZM79.6058 232.784H77.0438V239H75.3778V232.784H72.8018V231.468H79.6058V232.784ZM81.2805 241.45H80.5245V240.176H81.1545C81.8825 240.176 82.1905 240.12 82.5265 239.14L82.6105 238.958L79.8805 231.468H81.7005L83.4085 236.872L85.1165 231.468H86.8245L84.1785 238.986C83.4645 240.932 82.9745 241.45 81.2805 241.45ZM89.4266 235.234C89.4266 236.97 90.2806 237.824 91.3726 237.824C92.5486 237.824 93.2346 236.844 93.2346 235.234C93.2346 233.652 92.5486 232.658 91.3726 232.658C90.2806 232.658 89.4266 233.498 89.4266 235.234ZM87.8306 231.468H89.4966V232.476C89.9446 231.734 90.7286 231.3 91.7366 231.3C93.5846 231.3 94.9706 232.826 94.9706 235.234C94.9706 237.656 93.5846 239.182 91.7366 239.182C90.7286 239.182 89.9446 238.748 89.4966 238.006V241.45H87.8306V231.468ZM100.928 236.032V235.458C98.5481 235.682 97.5821 236.032 97.5821 236.886C97.5821 237.544 98.1281 237.936 98.9681 237.936C100.2 237.936 100.928 237.32 100.928 236.032ZM98.6041 239.182C96.9661 239.182 95.8181 238.3 95.8181 236.928C95.8181 235.038 98.1421 234.59 100.886 234.296V234.156C100.886 232.868 100.158 232.476 99.3181 232.476C98.4781 232.476 97.8481 232.924 97.8061 233.834H96.1681C96.2801 232.308 97.5541 231.244 99.3741 231.244C101.18 231.244 102.594 232.07 102.552 234.478C102.552 234.842 102.524 235.738 102.524 236.424C102.524 237.376 102.594 238.37 102.748 239H101.222C101.166 238.678 101.124 238.496 101.082 237.978C100.592 238.804 99.7241 239.182 98.6041 239.182Z" fill="#1D1D1D"/>
<rect x="120" y="218" width="162" height="32" rx="8" fill="#FFC300"/>
<path d="M134.79 228.29V229.396C137.576 229.578 139.256 231.244 139.256 233.848C139.256 236.242 137.576 238.034 134.79 238.188V239.392H133.012V238.188C130.212 238.034 128.56 236.298 128.56 233.834C128.56 231.3 130.212 229.578 133.012 229.396V228.29H134.79ZM133.012 236.76V230.824C131.458 231.006 130.38 231.986 130.38 233.848C130.38 235.584 131.458 236.606 133.012 236.76ZM134.79 230.824V236.76C136.316 236.606 137.422 235.584 137.422 233.848C137.422 231.986 136.316 231.006 134.79 230.824ZM141.969 235.248C141.969 236.984 142.893 237.824 143.957 237.824C145.021 237.824 145.945 236.984 145.945 235.248C145.945 233.512 145.021 232.658 143.957 232.658C142.893 232.658 141.969 233.512 141.969 235.248ZM143.957 231.3C145.791 231.3 147.667 232.532 147.667 235.248C147.667 237.978 145.791 239.182 143.957 239.182C142.123 239.182 140.247 237.978 140.247 235.248C140.247 232.532 142.123 231.3 143.957 231.3ZM154.866 232.784H152.304V239H150.638V232.784H148.062V231.468H154.866V232.784ZM157.021 235.248C157.021 236.984 157.945 237.824 159.009 237.824C160.073 237.824 160.997 236.984 160.997 235.248C160.997 233.512 160.073 232.658 159.009 232.658C157.945 232.658 157.021 233.512 157.021 235.248ZM159.009 231.3C160.843 231.3 162.719 232.532 162.719 235.248C162.719 237.978 160.843 239.182 159.009 239.182C157.175 239.182 155.299 237.978 155.299 235.248C155.299 232.532 157.175 231.3 159.009 231.3ZM170.493 231.3C172.145 231.3 173.573 232.378 173.867 234.044H172.243C172.089 233.246 171.403 232.686 170.493 232.686C169.443 232.686 168.519 233.456 168.519 235.234C168.519 237.026 169.471 237.796 170.451 237.796C171.277 237.796 172.075 237.432 172.299 236.424H173.923C173.587 238.188 172.033 239.182 170.423 239.182C168.239 239.182 166.797 237.488 166.797 235.248C166.797 233.008 168.239 231.3 170.493 231.3ZM183.106 236.032V235.458C180.726 235.682 179.76 236.032 179.76 236.886C179.76 237.544 180.306 237.936 181.146 237.936C182.378 237.936 183.106 237.32 183.106 236.032ZM180.782 239.182C179.144 239.182 177.996 238.3 177.996 236.928C177.996 235.038 180.32 234.59 183.064 234.296V234.156C183.064 232.868 182.336 232.476 181.496 232.476C180.656 232.476 180.026 232.924 179.984 233.834H178.346C178.458 232.308 179.732 231.244 181.552 231.244C183.358 231.244 184.772 232.07 184.73 234.478C184.73 234.842 184.702 235.738 184.702 236.424C184.702 237.376 184.772 238.37 184.926 239H183.4C183.344 238.678 183.302 238.496 183.26 237.978C182.77 238.804 181.902 239.182 180.782 239.182ZM193.177 239H191.511V235.794H188.151V239H186.485V231.468H188.151V234.478H191.511V231.468H193.177V239ZM202.11 231.468V239H200.444V233.778L196.86 239H195.194V231.468H196.86V236.718L200.444 231.468H202.11ZM212.917 231.468V239H211.307V233.036L209.095 239H207.807L205.595 233.064V239H203.985V231.468H206.505L208.479 236.844L210.397 231.468H212.917ZM219.664 236.032V235.458C217.284 235.682 216.318 236.032 216.318 236.886C216.318 237.544 216.864 237.936 217.704 237.936C218.936 237.936 219.664 237.32 219.664 236.032ZM217.34 239.182C215.702 239.182 214.554 238.3 214.554 236.928C214.554 235.038 216.878 234.59 219.622 234.296V234.156C219.622 232.868 218.894 232.476 218.054 232.476C217.214 232.476 216.584 232.924 216.542 233.834H214.904C215.016 232.308 216.29 231.244 218.11 231.244C219.916 231.244 221.33 232.07 221.288 234.478C221.288 234.842 221.26 235.738 221.26 236.424C221.26 237.376 221.33 238.37 221.484 239H219.958C219.902 238.678 219.86 238.496 219.818 237.978C219.328 238.804 218.46 239.182 217.34 239.182ZM228.94 232.784H226.378V239H224.712V232.784H222.136V231.468H228.94V232.784ZM231.095 235.248C231.095 236.984 232.019 237.824 233.083 237.824C234.147 237.824 235.071 236.984 235.071 235.248C235.071 233.512 234.147 232.658 233.083 232.658C232.019 232.658 231.095 233.512 231.095 235.248ZM233.083 231.3C234.917 231.3 236.793 232.532 236.793 235.248C236.793 237.978 234.917 239.182 233.083 239.182C231.249 239.182 229.373 237.978 229.373 235.248C229.373 232.532 231.249 231.3 233.083 231.3ZM239.759 235.234C239.759 236.97 240.613 237.824 241.705 237.824C242.881 237.824 243.567 236.844 243.567 235.234C243.567 233.652 242.881 232.658 241.705 232.658C240.613 232.658 239.759 233.498 239.759 235.234ZM238.163 231.468H239.829V232.476C240.277 231.734 241.061 231.3 242.069 231.3C243.917 231.3 245.303 232.826 245.303 235.234C245.303 237.656 243.917 239.182 242.069 239.182C241.061 239.182 240.277 238.748 239.829 238.006V241.45H238.163V231.468ZM251.26 236.032V235.458C248.88 235.682 247.914 236.032 247.914 236.886C247.914 237.544 248.46 237.936 249.3 237.936C250.532 237.936 251.26 237.32 251.26 236.032ZM248.936 239.182C247.298 239.182 246.15 238.3 246.15 236.928C246.15 235.038 248.474 234.59 251.218 234.296V234.156C251.218 232.868 250.49 232.476 249.65 232.476C248.81 232.476 248.18 232.924 248.138 233.834H246.5C246.612 232.308 247.886 231.244 249.706 231.244C251.512 231.244 252.926 232.07 252.884 234.478C252.884 234.842 252.856 235.738 252.856 236.424C252.856 237.376 252.926 238.37 253.08 239H251.554C251.498 238.678 251.456 238.496 251.414 237.978C250.924 238.804 250.056 239.182 248.936 239.182ZM263.571 231.468V239H261.961V233.036L259.749 239H258.461L256.249 233.064V239H254.639V231.468H257.159L259.133 236.844L261.051 231.468H263.571ZM272.643 231.468V239H270.977V233.778L267.393 239H265.727V231.468H267.393V236.718L270.977 231.468H272.643Z" fill="#1D1D1D"/>
<rect x="290" y="218" width="164" height="32" rx="8" fill="#FFC300"/>
<path d="M307.338 239H305.56V230.334H300.968V239H299.19V228.85H307.338V239ZM310.683 235.248C310.683 236.984 311.607 237.824 312.671 237.824C313.735 237.824 314.659 236.984 314.659 235.248C314.659 233.512 313.735 232.658 312.671 232.658C311.607 232.658 310.683 233.512 310.683 235.248ZM312.671 231.3C314.505 231.3 316.381 232.532 316.381 235.248C316.381 237.978 314.505 239.182 312.671 239.182C310.837 239.182 308.961 237.978 308.961 235.248C308.961 232.532 310.837 231.3 312.671 231.3ZM324.637 235.71H319.023C319.135 237.11 320.115 237.796 321.067 237.796C321.949 237.796 322.621 237.46 322.915 236.746H324.553C324.217 237.95 323.069 239.182 321.137 239.182C318.715 239.182 317.329 237.348 317.329 235.178C317.329 232.91 318.883 231.3 321.025 231.3C323.335 231.3 324.791 233.19 324.637 235.71ZM321.025 232.602C320.241 232.602 319.177 233.078 319.023 234.492H322.943C322.901 233.316 322.005 232.602 321.025 232.602ZM330.74 235.024C331.566 235.262 332.07 235.78 332.07 236.788C332.07 238.454 330.614 239.182 328.724 239.182C327.072 239.182 325.602 238.468 325.336 236.55H326.932C327.086 237.404 327.716 237.95 328.78 237.95C329.844 237.95 330.404 237.53 330.404 236.872C330.404 236.088 329.872 235.794 328.92 235.794H327.688V234.492H328.836C329.662 234.492 330.18 234.212 330.18 233.554C330.18 232.868 329.774 232.518 328.836 232.518C327.898 232.518 327.142 232.966 327.016 233.904H325.42C325.686 232.126 327.198 231.272 328.864 231.272C330.502 231.272 331.832 231.93 331.832 233.442C331.832 234.184 331.468 234.702 330.74 235.024ZM341.051 237.698V240.778H339.539V239H334.037V240.778H332.525V237.698H332.931C333.771 237.698 334.205 236.606 334.331 233.862L334.443 231.468H339.931V237.698H341.051ZM338.265 237.698V232.784H335.913L335.843 234.058C335.731 236.06 335.465 237.124 334.863 237.698H338.265ZM347.249 239L344.771 235.71H343.987V239H342.307V231.468H343.987V234.394H344.897L347.067 231.468H348.971L346.129 235.122L349.167 239H347.249ZM354.664 236.032V235.458C352.284 235.682 351.318 236.032 351.318 236.886C351.318 237.544 351.864 237.936 352.704 237.936C353.936 237.936 354.664 237.32 354.664 236.032ZM352.34 239.182C350.702 239.182 349.554 238.3 349.554 236.928C349.554 235.038 351.878 234.59 354.622 234.296V234.156C354.622 232.868 353.894 232.476 353.054 232.476C352.214 232.476 351.584 232.924 351.542 233.834H349.904C350.016 232.308 351.29 231.244 353.11 231.244C354.916 231.244 356.33 232.07 356.288 234.478C356.288 234.842 356.26 235.738 356.26 236.424C356.26 237.376 356.33 238.37 356.484 239H354.958C354.902 238.678 354.86 238.496 354.818 237.978C354.328 238.804 353.46 239.182 352.34 239.182ZM367.962 239H366.296V235.794H362.936V239H361.27V231.468H362.936V234.478H366.296V231.468H367.962V239ZM374.571 236.032V235.458C372.191 235.682 371.225 236.032 371.225 236.886C371.225 237.544 371.771 237.936 372.611 237.936C373.843 237.936 374.571 237.32 374.571 236.032ZM372.247 239.182C370.609 239.182 369.461 238.3 369.461 236.928C369.461 235.038 371.785 234.59 374.529 234.296V234.156C374.529 232.868 373.801 232.476 372.961 232.476C372.121 232.476 371.491 232.924 371.449 233.834H369.811C369.923 232.308 371.197 231.244 373.017 231.244C374.823 231.244 376.237 232.07 376.195 234.478C376.195 234.842 376.167 235.738 376.167 236.424C376.167 237.376 376.237 238.37 376.391 239H374.865C374.809 238.678 374.767 238.496 374.725 237.978C374.235 238.804 373.367 239.182 372.247 239.182ZM387.728 231.468V239H386.062V232.784H382.842V239H381.176V231.468H387.728ZM394.34 236.032V235.458C391.96 235.682 390.994 236.032 390.994 236.886C390.994 237.544 391.54 237.936 392.38 237.936C393.612 237.936 394.34 237.32 394.34 236.032ZM392.016 239.182C390.378 239.182 389.23 238.3 389.23 236.928C389.23 235.038 391.554 234.59 394.298 234.296V234.156C394.298 232.868 393.57 232.476 392.73 232.476C391.89 232.476 391.26 232.924 391.218 233.834H389.58C389.692 232.308 390.966 231.244 392.786 231.244C394.592 231.244 396.006 232.07 395.964 234.478C395.964 234.842 395.936 235.738 395.936 236.424C395.936 237.376 396.006 238.37 396.16 239H394.634C394.578 238.678 394.536 238.496 394.494 237.978C394.004 238.804 393.136 239.182 392.016 239.182ZM399.245 235.234C399.245 236.97 400.099 237.824 401.191 237.824C402.367 237.824 403.053 236.844 403.053 235.234C403.053 233.652 402.367 232.658 401.191 232.658C400.099 232.658 399.245 233.498 399.245 235.234ZM397.649 231.468H399.315V232.476C399.763 231.734 400.547 231.3 401.555 231.3C403.403 231.3 404.789 232.826 404.789 235.234C404.789 237.656 403.403 239.182 401.555 239.182C400.547 239.182 399.763 238.748 399.315 238.006V241.45H397.649V231.468ZM407.453 235.248C407.453 236.984 408.377 237.824 409.441 237.824C410.505 237.824 411.429 236.984 411.429 235.248C411.429 233.512 410.505 232.658 409.441 232.658C408.377 232.658 407.453 233.512 407.453 235.248ZM409.441 231.3C411.275 231.3 413.151 232.532 413.151 235.248C413.151 237.978 411.275 239.182 409.441 239.182C407.607 239.182 405.731 237.978 405.731 235.248C405.731 232.532 407.607 231.3 409.441 231.3ZM420.714 231.468L418.138 235.08L420.882 239H418.922L417.144 236.466L415.338 239H413.504L416.248 235.178L413.658 231.468H415.618L417.228 233.792L418.894 231.468H420.714ZM422.765 235.248C422.765 236.984 423.689 237.824 424.753 237.824C425.817 237.824 426.741 236.984 426.741 235.248C426.741 233.512 425.817 232.658 424.753 232.658C423.689 232.658 422.765 233.512 422.765 235.248ZM424.753 231.3C426.587 231.3 428.463 232.532 428.463 235.248C428.463 237.978 426.587 239.182 424.753 239.182C422.919 239.182 421.043 237.978 421.043 235.248C421.043 232.532 422.919 231.3 424.753 231.3ZM437.396 237.698V240.778H435.884V239H430.382V240.778H428.87V237.698H429.276C430.116 237.698 430.55 236.606 430.676 233.862L430.788 231.468H436.276V237.698H437.396ZM434.61 237.698V232.784H432.258L432.188 234.058C432.076 236.06 431.81 237.124 431.208 237.698H434.61ZM445.277 235.71H439.663C439.775 237.11 440.755 237.796 441.707 237.796C442.589 237.796 443.261 237.46 443.555 236.746H445.193C444.857 237.95 443.709 239.182 441.777 239.182C439.355 239.182 437.969 237.348 437.969 235.178C437.969 232.91 439.523 231.3 441.665 231.3C443.975 231.3 445.431 233.19 445.277 235.71ZM441.665 232.602C440.881 232.602 439.817 233.078 439.663 234.492H443.583C443.541 233.316 442.645 232.602 441.665 232.602Z" fill="#1D1D1D"/>
<rect opacity="0.01" x="24" y="250" width="1" height="16" fill="white"/>
<path opacity="0.5" d="M26.17 277.918C26.17 280.536 27.626 281.978 29.474 281.978C31.322 281.978 32.778 280.536 32.778 277.918C32.778 275.3 31.322 273.872 29.474 273.872C27.626 273.872 26.17 275.3 26.17 277.918ZM34.234 277.918C34.234 280.984 32.4 283.182 29.474 283.182C26.548 283.182 24.714 280.984 24.714 277.918C24.714 274.852 26.548 272.668 29.474 272.668C32.4 272.668 34.234 274.852 34.234 277.918ZM42.2312 275.468V283H40.9572V276.574H37.3032V283H36.0292V275.468H42.2312ZM50.3327 275.468V283H49.0587V276.574H46.5247L46.4127 278.394C46.2307 281.432 45.5727 283 43.8227 283H43.5847V281.894H43.7247C44.3967 281.894 45.0407 281.166 45.1947 278.044L45.3067 275.468H50.3327ZM57.1661 279.85V279.374C54.8561 279.598 53.3861 279.948 53.3861 280.984C53.3861 281.698 53.9321 282.174 54.8421 282.174C56.0321 282.174 57.1661 281.628 57.1661 279.85ZM54.5621 283.182C53.1481 283.182 51.9721 282.398 51.9721 281.012C51.9721 279.234 53.9881 278.702 57.0681 278.366V278.184C57.0681 276.798 56.3121 276.35 55.3601 276.35C54.2961 276.35 53.6941 276.91 53.6381 277.848H52.3221C52.4341 276.224 53.8901 275.314 55.3461 275.314C57.4321 275.314 58.3561 276.294 58.3421 278.422L58.3281 280.158C58.3141 281.432 58.3701 282.286 58.5241 283H57.2361C57.1941 282.72 57.1521 282.412 57.1381 281.964C56.6761 282.748 55.9061 283.182 54.5621 283.182ZM65.8544 283H64.5804V279.948C63.6984 280.158 63.0264 280.256 62.3404 280.256C60.7584 280.256 59.9324 279.556 59.9324 277.918V275.468H61.2064V277.652C61.2064 278.772 61.7384 279.15 62.8024 279.15C63.2924 279.15 63.8804 279.066 64.5804 278.898V275.468H65.8544V283ZM73.1737 283V277.316L69.2817 283H68.0077V275.468H69.2817V281.152L73.1737 275.468H74.4477V283H73.1737ZM76.6073 275.468H79.8833C81.3953 275.468 82.6273 275.86 82.6273 277.386C82.6273 278.184 82.2773 278.744 81.5773 279.038C82.3613 279.262 82.9353 279.794 82.9353 280.802C82.9353 282.37 81.7173 283 80.1073 283H76.6073V275.468ZM77.8813 278.632H79.7993C80.7373 278.632 81.2973 278.38 81.2973 277.526C81.2973 276.742 80.7093 276.574 79.7573 276.574H77.8813V278.632ZM77.8813 279.682V281.894H79.9113C81.0313 281.894 81.6053 281.572 81.6053 280.788C81.6053 279.948 81.0453 279.682 79.8693 279.682H77.8813ZM89.1036 279.85V279.374C86.7936 279.598 85.3236 279.948 85.3236 280.984C85.3236 281.698 85.8696 282.174 86.7796 282.174C87.9696 282.174 89.1036 281.628 89.1036 279.85ZM86.4996 283.182C85.0856 283.182 83.9096 282.398 83.9096 281.012C83.9096 279.234 85.9256 278.702 89.0056 278.366V278.184C89.0056 276.798 88.2496 276.35 87.2976 276.35C86.2336 276.35 85.6316 276.91 85.5756 277.848H84.2596C84.3716 276.224 85.8276 275.314 87.2836 275.314C89.3696 275.314 90.2936 276.294 90.2796 278.422L90.2656 280.158C90.2516 281.432 90.3076 282.286 90.4616 283H89.1736C89.1316 282.72 89.0896 282.412 89.0756 281.964C88.6136 282.748 87.8436 283.182 86.4996 283.182ZM98.8279 279.654H93.0319C93.0739 281.278 94.2499 282.062 95.3559 282.062C96.4759 282.062 97.0919 281.558 97.4139 280.816H98.7299C98.3939 282.104 97.1899 283.182 95.3559 283.182C92.9759 283.182 91.6599 281.474 91.6599 279.248C91.6599 276.854 93.2559 275.342 95.3139 275.342C97.6239 275.342 98.9819 277.26 98.8279 279.654ZM95.3139 276.434C94.1939 276.434 93.1579 277.05 93.0459 278.562H97.4839C97.4419 277.498 96.6719 276.434 95.3139 276.434ZM105.64 276.574H103.064V283H101.79V276.574H99.2139V275.468H105.64V276.574ZM109.737 275.342C111.585 275.342 112.705 276.7 112.887 277.988H111.599C111.417 277.092 110.647 276.462 109.653 276.462C108.533 276.462 107.483 277.344 107.483 279.234C107.483 281.138 108.533 282.062 109.653 282.062C110.731 282.062 111.473 281.334 111.655 280.55H112.971C112.705 281.964 111.375 283.182 109.611 283.182C107.441 283.182 106.097 281.544 106.097 279.248C106.097 277.008 107.511 275.342 109.737 275.342ZM119.845 275.468V283H118.571V280.326H117.241C117.171 280.326 117.101 280.326 117.031 280.312L114.987 283H113.405L115.687 279.962C114.735 279.64 114.091 278.912 114.091 277.792C114.091 276.238 115.155 275.468 116.891 275.468H119.845ZM118.571 276.574H116.961C116.023 276.574 115.393 276.966 115.393 277.876C115.393 278.898 116.191 279.22 117.073 279.22H118.571V276.574ZM126.118 279.262C126.118 281.278 127.21 282.062 128.372 282.062C129.534 282.062 130.626 281.194 130.626 279.262C130.626 277.246 129.534 276.462 128.372 276.462C127.21 276.462 126.118 277.204 126.118 279.262ZM128.372 275.342C130.122 275.342 131.984 276.532 131.984 279.262C131.984 281.992 130.122 283.182 128.372 283.182C126.622 283.182 124.76 281.992 124.76 279.262C124.76 276.532 126.622 275.342 128.372 275.342ZM138.89 276.574H136.314V283H135.04V276.574H132.464V275.468H138.89V276.574ZM146.663 281.894V284.666H145.431V283H139.915V284.666H138.683V281.894H139.019C139.873 281.894 140.321 280.774 140.433 277.89L140.531 275.468H145.613V281.894H146.663ZM144.339 281.894V276.574H141.763L141.693 278.016C141.581 280.242 141.259 281.334 140.671 281.894H144.339ZM154.527 279.654H148.731C148.773 281.278 149.949 282.062 151.055 282.062C152.175 282.062 152.791 281.558 153.113 280.816H154.429C154.093 282.104 152.889 283.182 151.055 283.182C148.675 283.182 147.359 281.474 147.359 279.248C147.359 276.854 148.955 275.342 151.013 275.342C153.323 275.342 154.681 277.26 154.527 279.654ZM151.013 276.434C149.893 276.434 148.857 277.05 148.745 278.562H153.183C153.141 277.498 152.371 276.434 151.013 276.434ZM162.046 275.468V283H160.772V276.574H158.238L158.126 278.394C157.944 281.432 157.286 283 155.536 283H155.298V281.894H155.438C156.11 281.894 156.754 281.166 156.908 278.044L157.02 275.468H162.046ZM165.477 278.128H167.269C169.243 278.128 170.083 278.898 170.083 280.508C170.083 282.37 168.991 283 167.255 283H164.203V275.468H165.477V278.128ZM165.477 281.894H167.143C168.263 281.894 168.837 281.516 168.837 280.508C168.837 279.514 168.249 279.234 167.115 279.234H165.477V281.894ZM177.789 283H176.515V279.71H172.791V283H171.517V275.468H172.791V278.604H176.515V275.468H177.789V283ZM180.737 279.262C180.737 281.278 181.829 282.062 182.991 282.062C184.153 282.062 185.245 281.194 185.245 279.262C185.245 277.246 184.153 276.462 182.991 276.462C181.829 276.462 180.737 277.204 180.737 279.262ZM182.991 275.342C184.741 275.342 186.603 276.532 186.603 279.262C186.603 281.992 184.741 283.182 182.991 283.182C181.241 283.182 179.379 281.992 179.379 279.262C179.379 276.532 181.241 275.342 182.991 275.342ZM189.639 277.078H188.029V275.468H189.639V277.078ZM189.639 283H188.029V281.39H189.639V283Z" fill="#1D1D1D"/>
<rect opacity="0.01" x="24" y="290" width="1" height="8" fill="white"/>
<rect x="24" y="298" width="233" height="32" rx="8" fill="white"/>
<path d="M41.338 319H39.56V310.334H34.968V319H33.19V308.85H41.338V319ZM48.1273 316.032V315.458C45.7473 315.682 44.7813 316.032 44.7813 316.886C44.7813 317.544 45.3273 317.936 46.1673 317.936C47.3993 317.936 48.1273 317.32 48.1273 316.032ZM45.8033 319.182C44.1653 319.182 43.0173 318.3 43.0173 316.928C43.0173 315.038 45.3413 314.59 48.0853 314.296V314.156C48.0853 312.868 47.3573 312.476 46.5173 312.476C45.6773 312.476 45.0473 312.924 45.0053 313.834H43.3673C43.4793 312.308 44.7533 311.244 46.5733 311.244C48.3793 311.244 49.7933 312.07 49.7513 314.478C49.7513 314.842 49.7233 315.738 49.7233 316.424C49.7233 317.376 49.7933 318.37 49.9473 319H48.4213C48.3653 318.678 48.3233 318.496 48.2813 317.978C47.7913 318.804 46.9233 319.182 45.8033 319.182ZM53.032 315.234C53.032 316.97 53.886 317.824 54.978 317.824C56.154 317.824 56.84 316.844 56.84 315.234C56.84 313.652 56.154 312.658 54.978 312.658C53.886 312.658 53.032 313.498 53.032 315.234ZM51.436 311.468H53.102V312.476C53.55 311.734 54.334 311.3 55.342 311.3C57.19 311.3 58.576 312.826 58.576 315.234C58.576 317.656 57.19 319.182 55.342 319.182C54.334 319.182 53.55 318.748 53.102 318.006V321.45H51.436V311.468ZM64.952 319L62.474 315.71H61.69V319H60.01V311.468H61.69V314.394H62.6L64.77 311.468H66.674L63.832 315.122L66.87 319H64.952ZM68.7732 315.248C68.7732 316.984 69.6972 317.824 70.7612 317.824C71.8252 317.824 72.7492 316.984 72.7492 315.248C72.7492 313.512 71.8252 312.658 70.7612 312.658C69.6972 312.658 68.7732 313.512 68.7732 315.248ZM70.7612 311.3C72.5952 311.3 74.4712 312.532 74.4712 315.248C74.4712 317.978 72.5952 319.182 70.7612 319.182C68.9272 319.182 67.0512 317.978 67.0512 315.248C67.0512 312.532 68.9272 311.3 70.7612 311.3ZM75.9103 311.468H79.4523C81.0203 311.468 82.2803 311.86 82.2803 313.414C82.2803 314.184 81.9443 314.716 81.2863 315.01C82.0283 315.234 82.5883 315.752 82.5883 316.746C82.5883 318.356 81.3283 319 79.6343 319H75.9103V311.468ZM77.5763 314.548H79.3263C80.1523 314.548 80.6283 314.31 80.6283 313.638C80.6283 312.98 80.1383 312.77 79.3123 312.77H77.5763V314.548ZM77.5763 315.752V317.698H79.4383C80.4323 317.698 80.9223 317.362 80.9223 316.69C80.9223 315.976 80.4323 315.752 79.4243 315.752H77.5763ZM89.0418 319L86.5638 315.71H85.7798V319H84.0998V311.468H85.7798V314.394H86.6898L88.8598 311.468H90.7638L87.9218 315.122L90.9598 319H89.0418ZM96.4574 316.032V315.458C94.0774 315.682 93.1114 316.032 93.1114 316.886C93.1114 317.544 93.6574 317.936 94.4974 317.936C95.7294 317.936 96.4574 317.32 96.4574 316.032ZM94.1334 319.182C92.4954 319.182 91.3474 318.3 91.3474 316.928C91.3474 315.038 93.6714 314.59 96.4154 314.296V314.156C96.4154 312.868 95.6874 312.476 94.8474 312.476C94.0074 312.476 93.3774 312.924 93.3354 313.834H91.6974C91.8094 312.308 93.0834 311.244 94.9034 311.244C96.7094 311.244 98.1234 312.07 98.0814 314.478C98.0814 314.842 98.0534 315.738 98.0534 316.424C98.0534 317.376 98.1234 318.37 98.2774 319H96.7514C96.6954 318.678 96.6534 318.496 96.6114 317.978C96.1214 318.804 95.2534 319.182 94.1334 319.182ZM109.755 319H108.089V315.794H104.729V319H103.063V311.468H104.729V314.478H108.089V311.468H109.755V319ZM116.364 316.032V315.458C113.984 315.682 113.018 316.032 113.018 316.886C113.018 317.544 113.564 317.936 114.404 317.936C115.636 317.936 116.364 317.32 116.364 316.032ZM114.04 319.182C112.402 319.182 111.254 318.3 111.254 316.928C111.254 315.038 113.578 314.59 116.322 314.296V314.156C116.322 312.868 115.594 312.476 114.754 312.476C113.914 312.476 113.284 312.924 113.242 313.834H111.604C111.716 312.308 112.99 311.244 114.81 311.244C116.616 311.244 118.03 312.07 117.988 314.478C117.988 314.842 117.96 315.738 117.96 316.424C117.96 317.376 118.03 318.37 118.184 319H116.658C116.602 318.678 116.56 318.496 116.518 317.978C116.028 318.804 115.16 319.182 114.04 319.182ZM128.975 312.784H126.413V319H124.747V312.784H122.171V311.468H128.975V312.784ZM136.717 315.71H131.103C131.215 317.11 132.195 317.796 133.147 317.796C134.029 317.796 134.701 317.46 134.995 316.746H136.633C136.297 317.95 135.149 319.182 133.217 319.182C130.795 319.182 129.409 317.348 129.409 315.178C129.409 312.91 130.963 311.3 133.105 311.3C135.415 311.3 136.871 313.19 136.717 315.71ZM133.105 312.602C132.321 312.602 131.257 313.078 131.103 314.492H135.023C134.981 313.316 134.085 312.602 133.105 312.602ZM139.698 315.234C139.698 316.97 140.552 317.824 141.644 317.824C142.82 317.824 143.506 316.844 143.506 315.234C143.506 313.652 142.82 312.658 141.644 312.658C140.552 312.658 139.698 313.498 139.698 315.234ZM138.102 311.468H139.768V312.476C140.216 311.734 141 311.3 142.008 311.3C143.856 311.3 145.242 312.826 145.242 315.234C145.242 317.656 143.856 319.182 142.008 319.182C141 319.182 140.216 318.748 139.768 318.006V321.45H138.102V311.468ZM148.202 315.234C148.202 316.97 149.056 317.824 150.148 317.824C151.324 317.824 152.01 316.844 152.01 315.234C152.01 313.652 151.324 312.658 150.148 312.658C149.056 312.658 148.202 313.498 148.202 315.234ZM146.606 311.468H148.272V312.476C148.72 311.734 149.504 311.3 150.512 311.3C152.36 311.3 153.746 312.826 153.746 315.234C153.746 317.656 152.36 319.182 150.512 319.182C149.504 319.182 148.72 318.748 148.272 318.006V321.45H146.606V311.468ZM162.096 311.468V319H160.43V313.778L156.846 319H155.18V311.468H156.846V316.718L160.43 311.468H162.096ZM169.977 312.784H167.415V319H165.749V312.784H163.173V311.468H169.977V312.784ZM172.133 315.248C172.133 316.984 173.057 317.824 174.121 317.824C175.185 317.824 176.109 316.984 176.109 315.248C176.109 313.512 175.185 312.658 174.121 312.658C173.057 312.658 172.133 313.512 172.133 315.248ZM174.121 311.3C175.955 311.3 177.831 312.532 177.831 315.248C177.831 317.978 175.955 319.182 174.121 319.182C172.287 319.182 170.411 317.978 170.411 315.248C170.411 312.532 172.287 311.3 174.121 311.3ZM180.796 315.234C180.796 316.97 181.65 317.824 182.742 317.824C183.918 317.824 184.604 316.844 184.604 315.234C184.604 313.652 183.918 312.658 182.742 312.658C181.65 312.658 180.796 313.498 180.796 315.234ZM179.2 311.468H180.866V312.476C181.314 311.734 182.098 311.3 183.106 311.3C184.954 311.3 186.34 312.826 186.34 315.234C186.34 317.656 184.954 319.182 183.106 319.182C182.098 319.182 181.314 318.748 180.866 318.006V321.45H179.2V311.468ZM194.69 311.468V319H193.024V313.778L189.44 319H187.774V311.468H189.44V316.718L193.024 311.468H194.69ZM203.481 311.468V319H201.815V313.778L198.231 319H196.565V311.468H198.231V316.718L201.815 311.468H203.481Z" fill="#1D1D1D"/>
<path d="M218.692 312.098C218.692 310.698 217.838 309.732 216.494 309.732C215.178 309.732 214.268 310.712 214.268 312.098C214.268 313.484 215.178 314.492 216.48 314.492C217.81 314.492 218.692 313.484 218.692 312.098ZM216.354 318.118C217.922 318.118 218.79 316.55 218.86 314.198C218.398 314.996 217.516 315.612 216.172 315.612C214.296 315.612 212.91 314.212 212.91 312.154C212.91 310.278 214.31 308.668 216.48 308.668C219.014 308.668 220.176 310.432 220.176 313.568C220.176 316.424 219.126 319.182 216.214 319.182C214.226 319.182 213.302 317.936 213.078 316.648H214.464C214.632 317.558 215.304 318.118 216.354 318.118ZM228.077 313.918C228.077 311.104 227.069 309.732 225.487 309.732C223.877 309.732 222.897 311.104 222.897 313.918C222.897 316.76 223.877 318.118 225.487 318.118C227.097 318.118 228.077 316.76 228.077 313.918ZM229.435 313.918C229.435 317.124 228.189 319.182 225.487 319.182C222.785 319.182 221.539 317.124 221.539 313.918C221.539 310.712 222.785 308.668 225.487 308.668C228.189 308.668 229.435 310.712 229.435 313.918ZM237.333 313.918C237.333 311.104 236.325 309.732 234.743 309.732C233.133 309.732 232.153 311.104 232.153 313.918C232.153 316.76 233.133 318.118 234.743 318.118C236.353 318.118 237.333 316.76 237.333 313.918ZM238.691 313.918C238.691 317.124 237.445 319.182 234.743 319.182C232.041 319.182 230.795 317.124 230.795 313.918C230.795 310.712 232.041 308.668 234.743 308.668C237.445 308.668 238.691 310.712 238.691 313.918ZM242.361 315.01V316.088H245.595V317.138H242.361V319H240.933V317.138H239.659V316.088H240.933V315.01H239.659V313.778H240.933V308.85H243.943C246.463 308.85 248.227 309.466 248.227 311.93C248.227 314.31 246.463 315.01 243.943 315.01H242.361ZM242.361 313.778H244.013C245.539 313.778 246.771 313.47 246.771 311.93C246.771 310.39 245.539 310.082 244.013 310.082H242.361V313.778Z" fill="#1D1D1D" fill-opacity="0.3"/>
<rect x="265" y="298" width="134" height="32" rx="8" fill="white"/>
<path d="M280.994 315.626H282.702C282.268 317.908 280.672 319.182 278.32 319.182C275.352 319.182 273.63 317.082 273.63 313.89C273.63 310.698 275.45 308.668 278.404 308.668C280.658 308.668 282.268 309.942 282.674 312.224H280.966C280.644 310.838 279.678 310.124 278.348 310.124C276.738 310.124 275.464 311.44 275.464 313.89C275.464 316.354 276.71 317.726 278.334 317.726C279.72 317.726 280.672 317.026 280.994 315.626ZM290.159 312.784H287.597V319H285.931V312.784H283.355V311.468H290.159V312.784ZM292.897 315.234C292.897 316.97 293.751 317.824 294.843 317.824C296.019 317.824 296.705 316.844 296.705 315.234C296.705 313.652 296.019 312.658 294.843 312.658C293.751 312.658 292.897 313.498 292.897 315.234ZM291.301 311.468H292.967V312.476C293.415 311.734 294.199 311.3 295.207 311.3C297.055 311.3 298.441 312.826 298.441 315.234C298.441 317.656 297.055 319.182 295.207 319.182C294.199 319.182 293.415 318.748 292.967 318.006V321.45H291.301V311.468ZM304.399 316.032V315.458C302.019 315.682 301.053 316.032 301.053 316.886C301.053 317.544 301.599 317.936 302.439 317.936C303.671 317.936 304.399 317.32 304.399 316.032ZM302.075 319.182C300.437 319.182 299.289 318.3 299.289 316.928C299.289 315.038 301.613 314.59 304.357 314.296V314.156C304.357 312.868 303.629 312.476 302.789 312.476C301.949 312.476 301.319 312.924 301.277 313.834H299.639C299.751 312.308 301.025 311.244 302.845 311.244C304.651 311.244 306.065 312.07 306.023 314.478C306.023 314.842 305.995 315.738 305.995 316.424C305.995 317.376 306.065 318.37 306.219 319H304.693C304.637 318.678 304.595 318.496 304.553 317.978C304.063 318.804 303.195 319.182 302.075 319.182ZM314.148 311.468L311.572 315.08L314.316 319H312.356L310.578 316.466L308.772 319H306.938L309.682 315.178L307.092 311.468H309.052L310.662 313.792L312.328 311.468H314.148ZM316.199 315.248C316.199 316.984 317.123 317.824 318.187 317.824C319.251 317.824 320.175 316.984 320.175 315.248C320.175 313.512 319.251 312.658 318.187 312.658C317.123 312.658 316.199 313.512 316.199 315.248ZM318.187 311.3C320.021 311.3 321.897 312.532 321.897 315.248C321.897 317.978 320.021 319.182 318.187 319.182C316.353 319.182 314.477 317.978 314.477 315.248C314.477 312.532 316.353 311.3 318.187 311.3ZM323.336 311.468H326.878C328.446 311.468 329.706 311.86 329.706 313.414C329.706 314.184 329.37 314.716 328.712 315.01C329.454 315.234 330.014 315.752 330.014 316.746C330.014 318.356 328.754 319 327.06 319H323.336V311.468ZM325.002 314.548H326.752C327.578 314.548 328.054 314.31 328.054 313.638C328.054 312.98 327.564 312.77 326.738 312.77H325.002V314.548ZM325.002 315.752V317.698H326.864C327.858 317.698 328.348 317.362 328.348 316.69C328.348 315.976 327.858 315.752 326.85 315.752H325.002ZM336.468 319L333.99 315.71H333.206V319H331.526V311.468H333.206V314.394H334.116L336.286 311.468H338.19L335.348 315.122L338.386 319H336.468ZM343.883 316.032V315.458C341.503 315.682 340.537 316.032 340.537 316.886C340.537 317.544 341.083 317.936 341.923 317.936C343.155 317.936 343.883 317.32 343.883 316.032ZM341.559 319.182C339.921 319.182 338.773 318.3 338.773 316.928C338.773 315.038 341.097 314.59 343.841 314.296V314.156C343.841 312.868 343.113 312.476 342.273 312.476C341.433 312.476 340.803 312.924 340.761 313.834H339.123C339.235 312.308 340.509 311.244 342.329 311.244C344.135 311.244 345.549 312.07 345.507 314.478C345.507 314.842 345.479 315.738 345.479 316.424C345.479 317.376 345.549 318.37 345.703 319H344.177C344.121 318.678 344.079 318.496 344.037 317.978C343.547 318.804 342.679 319.182 341.559 319.182Z" fill="#1D1D1D"/>
<path d="M360.692 312.098C360.692 310.698 359.838 309.732 358.494 309.732C357.178 309.732 356.268 310.712 356.268 312.098C356.268 313.484 357.178 314.492 358.48 314.492C359.81 314.492 360.692 313.484 360.692 312.098ZM358.354 318.118C359.922 318.118 360.79 316.55 360.86 314.198C360.398 314.996 359.516 315.612 358.172 315.612C356.296 315.612 354.91 314.212 354.91 312.154C354.91 310.278 356.31 308.668 358.48 308.668C361.014 308.668 362.176 310.432 362.176 313.568C362.176 316.424 361.126 319.182 358.214 319.182C356.226 319.182 355.302 317.936 355.078 316.648H356.464C356.632 317.558 357.304 318.118 358.354 318.118ZM370.077 313.918C370.077 311.104 369.069 309.732 367.487 309.732C365.877 309.732 364.897 311.104 364.897 313.918C364.897 316.76 365.877 318.118 367.487 318.118C369.097 318.118 370.077 316.76 370.077 313.918ZM371.435 313.918C371.435 317.124 370.189 319.182 367.487 319.182C364.785 319.182 363.539 317.124 363.539 313.918C363.539 310.712 364.785 308.668 367.487 308.668C370.189 308.668 371.435 310.712 371.435 313.918ZM379.333 313.918C379.333 311.104 378.325 309.732 376.743 309.732C375.133 309.732 374.153 311.104 374.153 313.918C374.153 316.76 375.133 318.118 376.743 318.118C378.353 318.118 379.333 316.76 379.333 313.918ZM380.691 313.918C380.691 317.124 379.445 319.182 376.743 319.182C374.041 319.182 372.795 317.124 372.795 313.918C372.795 310.712 374.041 308.668 376.743 308.668C379.445 308.668 380.691 310.712 380.691 313.918ZM384.361 315.01V316.088H387.595V317.138H384.361V319H382.933V317.138H381.659V316.088H382.933V315.01H381.659V313.778H382.933V308.85H385.943C388.463 308.85 390.227 309.466 390.227 311.93C390.227 314.31 388.463 315.01 385.943 315.01H384.361ZM384.361 313.778H386.013C387.539 313.778 388.771 313.47 388.771 311.93C388.771 310.39 387.539 310.082 386.013 310.082H384.361V313.778Z" fill="#1D1D1D" fill-opacity="0.3"/>
<rect x="407" y="298" width="128" height="32" rx="8" fill="white"/>
<path d="M418.332 319V310.334H415.14V308.85H423.302V310.334H420.11V319H418.332ZM424.917 315.234C424.917 316.97 425.771 317.824 426.863 317.824C428.039 317.824 428.725 316.844 428.725 315.234C428.725 313.652 428.039 312.658 426.863 312.658C425.771 312.658 424.917 313.498 424.917 315.234ZM423.321 311.468H424.987V312.476C425.435 311.734 426.219 311.3 427.227 311.3C429.075 311.3 430.461 312.826 430.461 315.234C430.461 317.656 429.075 319.182 427.227 319.182C426.219 319.182 425.435 318.748 424.987 318.006V321.45H423.321V311.468ZM436.418 316.032V315.458C434.038 315.682 433.072 316.032 433.072 316.886C433.072 317.544 433.618 317.936 434.458 317.936C435.69 317.936 436.418 317.32 436.418 316.032ZM434.094 319.182C432.456 319.182 431.308 318.3 431.308 316.928C431.308 315.038 433.632 314.59 436.376 314.296V314.156C436.376 312.868 435.648 312.476 434.808 312.476C433.968 312.476 433.338 312.924 433.296 313.834H431.658C431.77 312.308 433.044 311.244 434.864 311.244C436.67 311.244 438.084 312.07 438.042 314.478C438.042 314.842 438.014 315.738 438.014 316.424C438.014 317.376 438.084 318.37 438.238 319H436.712C436.656 318.678 436.614 318.496 436.572 317.978C436.082 318.804 435.214 319.182 434.094 319.182ZM446.489 319H444.823V315.794H441.463V319H439.797V311.468H441.463V314.478H444.823V311.468H446.489V319ZM451.614 311.3C453.266 311.3 454.694 312.378 454.988 314.044H453.364C453.21 313.246 452.524 312.686 451.614 312.686C450.564 312.686 449.64 313.456 449.64 315.234C449.64 317.026 450.592 317.796 451.572 317.796C452.398 317.796 453.196 317.432 453.42 316.424H455.044C454.708 318.188 453.154 319.182 451.544 319.182C449.36 319.182 447.918 317.488 447.918 315.248C447.918 313.008 449.36 311.3 451.614 311.3ZM461.448 308.85V311.468C463.59 311.468 465.382 312.672 465.382 315.276C465.382 317.964 463.576 319.084 461.448 319.084V321.45H459.782V319.084C457.64 319.084 455.848 317.964 455.848 315.276C455.848 312.672 457.64 311.468 459.782 311.468V308.85H461.448ZM459.782 317.754V312.812C458.494 312.812 457.528 313.554 457.528 315.332C457.528 317.082 458.48 317.754 459.782 317.754ZM461.448 312.812V317.754C462.75 317.754 463.688 317.082 463.688 315.332C463.688 313.554 462.75 312.812 461.448 312.812ZM473.629 315.71H468.015C468.127 317.11 469.107 317.796 470.059 317.796C470.941 317.796 471.613 317.46 471.907 316.746H473.545C473.209 317.95 472.061 319.182 470.129 319.182C467.707 319.182 466.321 317.348 466.321 315.178C466.321 312.91 467.875 311.3 470.017 311.3C472.327 311.3 473.783 313.19 473.629 315.71ZM470.017 312.602C469.233 312.602 468.169 313.078 468.015 314.492H471.935C471.893 313.316 470.997 312.602 470.017 312.602ZM476.61 315.234C476.61 316.97 477.464 317.824 478.556 317.824C479.732 317.824 480.418 316.844 480.418 315.234C480.418 313.652 479.732 312.658 478.556 312.658C477.464 312.658 476.61 313.498 476.61 315.234ZM475.014 311.468H476.68V312.476C477.128 311.734 477.912 311.3 478.92 311.3C480.768 311.3 482.154 312.826 482.154 315.234C482.154 317.656 480.768 319.182 478.92 319.182C477.912 319.182 477.128 318.748 476.68 318.006V321.45H475.014V311.468Z" fill="#1D1D1D"/>
<path d="M496.692 312.098C496.692 310.698 495.838 309.732 494.494 309.732C493.178 309.732 492.268 310.712 492.268 312.098C492.268 313.484 493.178 314.492 494.48 314.492C495.81 314.492 496.692 313.484 496.692 312.098ZM494.354 318.118C495.922 318.118 496.79 316.55 496.86 314.198C496.398 314.996 495.516 315.612 494.172 315.612C492.296 315.612 490.91 314.212 490.91 312.154C490.91 310.278 492.31 308.668 494.48 308.668C497.014 308.668 498.176 310.432 498.176 313.568C498.176 316.424 497.126 319.182 494.214 319.182C492.226 319.182 491.302 317.936 491.078 316.648H492.464C492.632 317.558 493.304 318.118 494.354 318.118ZM506.077 313.918C506.077 311.104 505.069 309.732 503.487 309.732C501.877 309.732 500.897 311.104 500.897 313.918C500.897 316.76 501.877 318.118 503.487 318.118C505.097 318.118 506.077 316.76 506.077 313.918ZM507.435 313.918C507.435 317.124 506.189 319.182 503.487 319.182C500.785 319.182 499.539 317.124 499.539 313.918C499.539 310.712 500.785 308.668 503.487 308.668C506.189 308.668 507.435 310.712 507.435 313.918ZM515.333 313.918C515.333 311.104 514.325 309.732 512.743 309.732C511.133 309.732 510.153 311.104 510.153 313.918C510.153 316.76 511.133 318.118 512.743 318.118C514.353 318.118 515.333 316.76 515.333 313.918ZM516.691 313.918C516.691 317.124 515.445 319.182 512.743 319.182C510.041 319.182 508.795 317.124 508.795 313.918C508.795 310.712 510.041 308.668 512.743 308.668C515.445 308.668 516.691 310.712 516.691 313.918ZM520.361 315.01V316.088H523.595V317.138H520.361V319H518.933V317.138H517.659V316.088H518.933V315.01H517.659V313.778H518.933V308.85H521.943C524.463 308.85 526.227 309.466 526.227 311.93C526.227 314.31 524.463 315.01 521.943 315.01H520.361ZM520.361 313.778H522.013C523.539 313.778 524.771 313.47 524.771 311.93C524.771 310.39 523.539 310.082 522.013 310.082H520.361V313.778Z" fill="#1D1D1D" fill-opacity="0.3"/>
<rect x="543" y="298" width="87" height="32" rx="8" fill="white"/>
<path d="M558.994 315.626H560.702C560.268 317.908 558.672 319.182 556.32 319.182C553.352 319.182 551.63 317.082 551.63 313.89C551.63 310.698 553.45 308.668 556.404 308.668C558.658 308.668 560.268 309.942 560.674 312.224H558.966C558.644 310.838 557.678 310.124 556.348 310.124C554.738 310.124 553.464 311.44 553.464 313.89C553.464 316.354 554.71 317.726 556.334 317.726C557.72 317.726 558.672 317.026 558.994 315.626ZM562.546 321.45H561.79V320.176H562.42C563.148 320.176 563.456 320.12 563.792 319.14L563.876 318.958L561.146 311.468H562.966L564.674 316.872L566.382 311.468H568.09L565.444 318.986C564.73 320.932 564.24 321.45 562.546 321.45ZM569.166 311.468H572.708C574.276 311.468 575.536 311.86 575.536 313.414C575.536 314.184 575.2 314.716 574.542 315.01C575.284 315.234 575.844 315.752 575.844 316.746C575.844 318.356 574.584 319 572.89 319H569.166V311.468ZM570.832 314.548H572.582C573.408 314.548 573.884 314.31 573.884 313.638C573.884 312.98 573.394 312.77 572.568 312.77H570.832V314.548ZM570.832 315.752V317.698H572.694C573.688 317.698 574.178 317.362 574.178 316.69C574.178 315.976 573.688 315.752 572.68 315.752H570.832ZM584.09 315.71H578.476C578.588 317.11 579.568 317.796 580.52 317.796C581.402 317.796 582.074 317.46 582.368 316.746H584.006C583.67 317.95 582.522 319.182 580.59 319.182C578.168 319.182 576.782 317.348 576.782 315.178C576.782 312.91 578.336 311.3 580.478 311.3C582.788 311.3 584.244 313.19 584.09 315.71ZM580.478 312.602C579.694 312.602 578.63 313.078 578.476 314.492H582.396C582.354 313.316 581.458 312.602 580.478 312.602ZM592.237 319H590.571V315.794H587.211V319H585.545V311.468H587.211V314.478H590.571V311.468H592.237V319ZM601.17 311.468V319H599.504V313.778L595.92 319H594.254V311.468H595.92V316.718L599.504 311.468H601.17ZM604.571 315.234C604.571 316.97 605.425 317.824 606.517 317.824C607.693 317.824 608.379 316.844 608.379 315.234C608.379 313.652 607.693 312.658 606.517 312.658C605.425 312.658 604.571 313.498 604.571 315.234ZM602.975 311.468H604.641V312.476C605.089 311.734 605.873 311.3 606.881 311.3C608.729 311.3 610.115 312.826 610.115 315.234C610.115 317.656 608.729 319.182 606.881 319.182C605.873 319.182 605.089 318.748 604.641 318.006V321.45H602.975V311.468ZM614.419 319H611.549V311.468H613.215V314.002H614.377C616.449 314.002 617.331 314.786 617.331 316.452C617.331 318.356 616.267 319 614.419 319ZM613.215 315.318V317.684H614.181C615.189 317.684 615.665 317.39 615.665 316.438C615.665 315.584 615.175 315.318 614.167 315.318H613.215ZM620.075 319H618.409V311.468H620.075V319Z" fill="#1D1D1D"/>
<rect opacity="0.01" y="354" width="1" height="8" fill="white"/>
<rect x="0.5" y="362.5" width="807" height="71" rx="15.5" fill="#F5F5F5"/>
<rect x="0.5" y="362.5" width="807" height="71" rx="15.5" stroke="#EBEBEB"/>
<path d="M34.4 406V400.1C33.3867 400.22 32.2533 400.28 31 400.28C28.88 400.28 27.38 399.907 26.5 399.16C25.6333 398.4 25.2 397.16 25.2 395.44V391H28V395.16C28 396.12 28.2267 396.82 28.68 397.26C29.1467 397.687 29.9467 397.9 31.08 397.9C32.4133 397.9 33.52 397.84 34.4 397.72V391H37.2V406H34.4ZM45.0094 406H42.4094V397.8H39.0094V396H48.4094V397.8H45.0094V406ZM54.8447 395.8C56.298 395.8 57.518 396.293 58.5047 397.28C59.4914 398.253 59.9847 399.493 59.9847 401C59.9847 402.507 59.4914 403.753 58.5047 404.74C57.518 405.713 56.298 406.2 54.8447 406.2C53.4047 406.2 52.1847 405.713 51.1847 404.74C50.198 403.753 49.7047 402.507 49.7047 401C49.7047 399.493 50.198 398.253 51.1847 397.28C52.1847 396.293 53.4047 395.8 54.8447 395.8ZM54.8647 397.48C53.358 397.48 52.6047 398.653 52.6047 401C52.6047 402.107 52.8047 402.967 53.2047 403.58C53.6047 404.18 54.158 404.48 54.8647 404.48C55.5714 404.48 56.118 404.18 56.5047 403.58C56.8914 402.967 57.0847 402.107 57.0847 401C57.0847 398.653 56.3447 397.48 54.8647 397.48ZM75.4044 403.08C75.4044 403.973 75.0644 404.687 74.3844 405.22C73.7177 405.74 72.691 406 71.3044 406H66.7844V396H71.2244C72.5044 396 73.4377 396.227 74.0244 396.68C74.6244 397.133 74.9244 397.747 74.9244 398.52C74.9244 399.547 74.411 400.287 73.3844 400.74C74.731 401.113 75.4044 401.893 75.4044 403.08ZM70.8844 397.8H69.3844V400.24H70.9044C71.371 400.24 71.7177 400.12 71.9444 399.88C72.1844 399.627 72.3044 399.32 72.3044 398.96C72.3044 398.187 71.831 397.8 70.8844 397.8ZM70.9844 401.36H69.3844V404.2H70.9644C71.6044 404.2 72.0644 404.087 72.3444 403.86C72.6377 403.62 72.7844 403.253 72.7844 402.76C72.7844 402.36 72.631 402.027 72.3244 401.76C72.031 401.493 71.5844 401.36 70.9844 401.36ZM78.9494 406H76.1894L79.6894 401.08L76.2694 396H79.2494L81.2694 399L83.0694 396H85.8294L82.4494 400.74L85.9894 406H83.0094L80.8494 402.8L78.9494 406ZM91.9541 395.8C93.4074 395.8 94.6274 396.293 95.6141 397.28C96.6007 398.253 97.0941 399.493 97.0941 401C97.0941 402.507 96.6007 403.753 95.6141 404.74C94.6274 405.713 93.4074 406.2 91.9541 406.2C90.5141 406.2 89.2941 405.713 88.2941 404.74C87.3074 403.753 86.8141 402.507 86.8141 401C86.8141 399.493 87.3074 398.253 88.2941 397.28C89.2941 396.293 90.5141 395.8 91.9541 395.8ZM91.9741 397.48C90.4674 397.48 89.7141 398.653 89.7141 401C89.7141 402.107 89.9141 402.967 90.3141 403.58C90.7141 404.18 91.2674 404.48 91.9741 404.48C92.6807 404.48 93.2274 404.18 93.6141 403.58C94.0007 402.967 94.1941 402.107 94.1941 401C94.1941 398.653 93.4541 397.48 91.9741 397.48ZM102.144 401C102.078 402.68 101.938 403.747 101.724 404.2H105.284V397.8H102.304L102.144 401ZM99.9244 400.94L100.184 396H107.884V404.2H109.584V409H107.384V406H100.384V409H98.1844V404.2H99.3844C99.6644 403.653 99.8444 402.567 99.9244 400.94ZM113.877 406H111.277V396H113.877V402.74L117.977 396H120.577V406H117.977V399.26L113.877 406ZM128.271 406H125.671V397.8H122.271V396H131.671V397.8H128.271V406ZM146.596 403.08C146.596 403.973 146.256 404.687 145.576 405.22C144.909 405.74 143.882 406 142.496 406H137.976V396H142.416C143.696 396 144.629 396.227 145.216 396.68C145.816 397.133 146.116 397.747 146.116 398.52C146.116 399.547 145.602 400.287 144.576 400.74C145.922 401.113 146.596 401.893 146.596 403.08ZM142.076 397.8H140.576V400.24H142.096C142.562 400.24 142.909 400.12 143.136 399.88C143.376 399.627 143.496 399.32 143.496 398.96C143.496 398.187 143.022 397.8 142.076 397.8ZM142.176 401.36H140.576V404.2H142.156C142.796 404.2 143.256 404.087 143.536 403.86C143.829 403.62 143.976 403.253 143.976 402.76C143.976 402.36 143.822 402.027 143.516 401.76C143.222 401.493 142.776 401.36 142.176 401.36ZM152.81 400.98C152.81 399.487 153.317 398.253 154.33 397.28C155.357 396.293 156.61 395.8 158.09 395.8C159.157 395.8 160.11 396.113 160.95 396.74C161.803 397.367 162.35 398.187 162.59 399.2L160.21 400.08C159.89 398.347 159.13 397.48 157.93 397.48C157.25 397.48 156.71 397.787 156.31 398.4C155.91 399 155.71 399.86 155.71 400.98C155.71 402.127 155.923 403 156.35 403.6C156.777 404.187 157.31 404.48 157.95 404.48C158.55 404.48 159.023 404.253 159.37 403.8C159.73 403.347 160.01 402.64 160.21 401.68L162.59 402.56C162.39 403.64 161.863 404.52 161.01 405.2C160.157 405.867 159.183 406.2 158.09 406.2C156.61 406.2 155.357 405.713 154.33 404.74C153.317 403.753 152.81 402.5 152.81 400.98ZM170.088 406H167.488V397.8H164.088V396H173.488V397.8H170.088V406ZM179.923 395.8C181.376 395.8 182.596 396.293 183.583 397.28C184.569 398.253 185.063 399.493 185.063 401C185.063 402.507 184.569 403.753 183.583 404.74C182.596 405.713 181.376 406.2 179.923 406.2C178.483 406.2 177.263 405.713 176.263 404.74C175.276 403.753 174.783 402.507 174.783 401C174.783 399.493 175.276 398.253 176.263 397.28C177.263 396.293 178.483 395.8 179.923 395.8ZM179.943 397.48C178.436 397.48 177.683 398.653 177.683 401C177.683 402.107 177.883 402.967 178.283 403.58C178.683 404.18 179.236 404.48 179.943 404.48C180.649 404.48 181.196 404.18 181.583 403.58C181.969 402.967 182.163 402.107 182.163 401C182.163 398.653 181.423 397.48 179.943 397.48ZM189.853 406H187.253V396H189.853V402.74L193.953 396H196.553V406H193.953V399.26L189.853 406ZM199.148 406V396H202.868L205.668 402.4L208.468 396H212.008V406H209.508V398.68L206.168 406H204.868L201.548 398.54V406H199.148ZM219.356 395.8C220.81 395.8 222.03 396.293 223.016 397.28C224.003 398.253 224.496 399.493 224.496 401C224.496 402.507 224.003 403.753 223.016 404.74C222.03 405.713 220.81 406.2 219.356 406.2C217.916 406.2 216.696 405.713 215.696 404.74C214.71 403.753 214.216 402.507 214.216 401C214.216 399.493 214.71 398.253 215.696 397.28C216.696 396.293 217.916 395.8 219.356 395.8ZM219.376 397.48C217.87 397.48 217.116 398.653 217.116 401C217.116 402.107 217.316 402.967 217.716 403.58C218.116 404.18 218.67 404.48 219.376 404.48C220.083 404.48 220.63 404.18 221.016 403.58C221.403 402.967 221.596 402.107 221.596 401C221.596 398.653 220.856 397.48 219.376 397.48ZM226.287 400.98C226.287 399.487 226.793 398.253 227.807 397.28C228.833 396.293 230.087 395.8 231.567 395.8C232.633 395.8 233.587 396.113 234.427 396.74C235.28 397.367 235.827 398.187 236.067 399.2L233.687 400.08C233.367 398.347 232.607 397.48 231.407 397.48C230.727 397.48 230.187 397.787 229.787 398.4C229.387 399 229.187 399.86 229.187 400.98C229.187 402.127 229.4 403 229.827 403.6C230.253 404.187 230.787 404.48 231.427 404.48C232.027 404.48 232.5 404.253 232.847 403.8C233.207 403.347 233.487 402.64 233.687 401.68L236.067 402.56C235.867 403.64 235.34 404.52 234.487 405.2C233.633 405.867 232.66 406.2 231.567 406.2C230.087 406.2 228.833 405.713 227.807 404.74C226.793 403.753 226.287 402.5 226.287 400.98ZM243.564 406H240.964V397.8H237.564V396H246.964V397.8H243.564V406ZM257.079 402.58C257.079 404.86 255.713 406 252.979 406H248.659V396H251.259V399.44H253.339C254.406 399.44 255.293 399.707 255.999 400.24C256.719 400.773 257.079 401.553 257.079 402.58ZM254.459 402.6C254.459 401.693 253.859 401.24 252.659 401.24H251.259V404.2H252.639C253.279 404.2 253.739 404.073 254.019 403.82C254.313 403.553 254.459 403.147 254.459 402.6ZM268.681 406H266.081V397.8H262.681V396H272.081V397.8H268.681V406ZM276.297 407.74L276.937 405.9L272.477 396H275.457L278.157 402.54L280.377 396H283.037L278.177 409.58C277.977 410.127 277.75 410.5 277.497 410.7C277.243 410.9 276.797 411 276.157 411H273.877V408.8H275.137C275.337 408.8 275.497 408.78 275.617 408.74C275.75 408.713 275.863 408.627 275.957 408.48C276.05 408.347 276.103 408.253 276.117 408.2C276.143 408.16 276.203 408.007 276.297 407.74ZM290.382 406.2C288.515 406.2 287.382 405.18 286.982 403.14V411H284.382V396H286.982V398.9C287.382 396.833 288.515 395.8 290.382 395.8C291.502 395.8 292.462 396.253 293.262 397.16C294.062 398.053 294.462 399.353 294.462 401.06C294.462 402.713 294.062 403.987 293.262 404.88C292.462 405.76 291.502 406.2 290.382 406.2ZM291.582 401.06C291.582 399.967 291.362 399.12 290.922 398.52C290.495 397.92 289.935 397.62 289.242 397.62C288.562 397.62 288.029 397.92 287.642 398.52C287.255 399.107 287.062 399.953 287.062 401.06C287.062 402.127 287.255 402.953 287.642 403.54C288.042 404.127 288.575 404.42 289.242 404.42C289.922 404.42 290.482 404.127 290.922 403.54C291.362 402.94 291.582 402.113 291.582 401.06ZM299.045 399.78L296.665 398.9C296.892 397.873 297.432 397.1 298.285 396.58C299.152 396.06 300.185 395.8 301.385 395.8C302.892 395.8 303.972 396.04 304.625 396.52C305.278 397 305.605 397.793 305.605 398.9V403.8H307.305V406H302.725L303.005 404.42V403.96L301.765 405.48C301.045 405.96 300.272 406.2 299.445 406.2C298.565 406.2 297.865 405.967 297.345 405.5C296.825 405.02 296.565 404.367 296.565 403.54C296.565 402.967 296.658 402.5 296.845 402.14C297.045 401.78 297.358 401.5 297.785 401.3C298.225 401.087 298.665 400.927 299.105 400.82C299.558 400.7 300.172 400.547 300.945 400.36C301.718 400.16 302.405 399.953 303.005 399.74V399.32C303.005 398.787 302.872 398.393 302.605 398.14C302.338 397.887 301.898 397.76 301.285 397.76C300.578 397.76 300.078 397.907 299.785 398.2C299.505 398.48 299.258 399.007 299.045 399.78ZM299.405 403.08C299.405 403.453 299.518 403.753 299.745 403.98C299.985 404.207 300.305 404.32 300.705 404.32C301.132 404.32 301.578 404.147 302.045 403.8C302.512 403.44 302.832 402.94 303.005 402.3V400.52C301.578 400.96 300.618 401.353 300.125 401.7C299.645 402.047 299.405 402.507 299.405 403.08ZM314.964 401.7H312.364V399.02H313.184C314.251 399.02 315.017 398.707 315.484 398.08C315.964 397.44 316.204 396.627 316.204 395.64C316.204 394.467 315.984 393.667 315.544 393.24C315.104 392.813 314.537 392.6 313.844 392.6C313.017 392.6 312.411 392.893 312.024 393.48C311.637 394.053 311.284 394.86 310.964 395.9L308.444 394.68C308.591 394.147 308.811 393.647 309.104 393.18C309.411 392.7 309.791 392.287 310.244 391.94C310.697 391.58 311.231 391.3 311.844 391.1C312.457 390.9 313.137 390.8 313.884 390.8C314.751 390.8 315.511 390.933 316.164 391.2C316.831 391.467 317.384 391.82 317.824 392.26C318.264 392.7 318.597 393.22 318.824 393.82C319.051 394.42 319.164 395.047 319.164 395.7C319.164 396.913 318.771 397.927 317.984 398.74C317.211 399.54 316.204 400.06 314.964 400.3V401.7ZM314.964 406H312.364V403.4H314.964V406Z" fill="#1D1D1D"/>
<path d="M766 394.5L772 400.5L778 394.5" stroke="#1D1D1D" stroke-width="2" stroke-linecap="square"/>
</svg>
