<svg width="20" height="20" viewBox="0 0 20 20" fill="none" xmlns="http://www.w3.org/2000/svg">
<g id="clock-fast-forward">
<path id="Icon" d="M19.0826 10.0374L19.6482 9.47161L18.5167 8.34041L17.9511 8.90618L19.0826 10.0374ZM16.7593 11.2298L16.1937 11.7956L16.7595 12.3612L17.3251 11.7954L16.7593 11.2298ZM15.5663 8.90601L15.0006 8.34041L13.8694 9.47195L14.4351 10.0376L15.5663 8.90601ZM16.1791 10.7024C16.1306 11.1416 16.4472 11.5369 16.8864 11.5855C17.3255 11.634 17.7209 11.3174 17.7694 10.8782L16.1791 10.7024ZM15.8864 15.3875L16.3896 14.7656L15.1458 13.7592L14.6426 14.381L15.8864 15.3875ZM9.91125 5.51613V4.71613H8.31125V5.51613H9.91125ZM9.11125 9.9113H8.31125V10.2411L8.54364 10.4751L9.11125 9.9113ZM10.6631 12.609L11.2268 13.1766L12.3621 12.0491L11.7983 11.4815L10.6631 12.609ZM17.9511 8.90618L16.1935 10.6642L17.3251 11.7954L19.0826 10.0374L17.9511 8.90618ZM17.3249 10.6641L15.5663 8.90601L14.4351 10.0376L16.1937 11.7956L17.3249 10.6641ZM9.11125 17.0226C5.18379 17.0226 1.99995 13.8388 1.99995 9.9113H0.399951C0.399951 14.7224 4.30013 18.6226 9.11125 18.6226V17.0226ZM1.99995 9.9113C1.99995 5.98384 5.18379 2.8 9.11125 2.8V1.2C4.30013 1.2 0.399951 5.10018 0.399951 9.9113H1.99995ZM9.11125 2.8C13.0387 2.8 16.2225 5.98384 16.2225 9.9113H17.8225C17.8225 5.10018 13.9224 1.2 9.11125 1.2V2.8ZM16.2225 9.9113C16.2225 10.179 16.2078 10.4429 16.1791 10.7024L17.7694 10.8782C17.8045 10.5605 17.8225 10.2378 17.8225 9.9113H16.2225ZM14.6426 14.381C13.3376 15.9938 11.3449 17.0226 9.11125 17.0226V18.6226C11.8482 18.6226 14.2906 17.3595 15.8864 15.3875L14.6426 14.381ZM8.31125 5.51613V9.9113H9.91125V5.51613H8.31125ZM8.54364 10.4751L10.6631 12.609L11.7983 11.4815L9.67886 9.34754L8.54364 10.4751Z" fill="#1D1D1D"/>
</g>
</svg>
