<svg width="760" height="38" viewBox="0 0 760 38" fill="none" xmlns="http://www.w3.org/2000/svg">
<rect x="0.5" y="0.5" width="759" height="37" rx="11.5" stroke="#0370C7" stroke-opacity="0.25"/>
<path d="M13.344 24V13.85H20.232V15.082H14.772V18.162H19.91V19.394H14.772V22.768H20.232V24H13.344ZM25.0577 16.342C26.9057 16.342 28.0257 17.7 28.2077 18.988H26.9197C26.7377 18.092 25.9677 17.462 24.9737 17.462C23.8537 17.462 22.8037 18.344 22.8037 20.234C22.8037 22.138 23.8537 23.062 24.9737 23.062C26.0517 23.062 26.7937 22.334 26.9757 21.55H28.2917C28.0257 22.964 26.6957 24.182 24.9317 24.182C22.7617 24.182 21.4177 22.544 21.4177 20.248C21.4177 18.008 22.8317 16.342 25.0577 16.342ZM35.1106 17.574H32.5346V24H31.2606V17.574H28.6846V16.468H35.1106V17.574ZM37.6762 19.128H39.4682C41.4422 19.128 42.2822 19.898 42.2822 21.508C42.2822 23.37 41.1902 24 39.4542 24H36.4022V16.468H37.6762V19.128ZM37.6762 22.894H39.3422C40.4622 22.894 41.0362 22.516 41.0362 21.508C41.0362 20.514 40.4482 20.234 39.3142 20.234H37.6762V22.894ZM53.2409 16.468V24H51.9669V17.574H48.3129V24H47.0389V16.468H53.2409ZM55.3925 16.468H56.6665V17.658C57.1285 16.86 57.9125 16.342 59.1305 16.342C60.8665 16.342 62.3505 17.798 62.3505 20.262C62.3505 22.768 60.8665 24.182 59.1305 24.182C57.9125 24.182 57.1285 23.664 56.6665 22.866V26.45H55.3925V16.468ZM56.6105 20.262C56.6105 22.25 57.6745 23.09 58.8085 23.09C60.1105 23.09 60.9645 22.068 60.9645 20.262C60.9645 18.456 60.1105 17.434 58.8085 17.434C57.6745 17.434 56.6105 18.274 56.6105 20.262ZM64.8311 20.262C64.8311 22.278 65.9231 23.062 67.0851 23.062C68.2471 23.062 69.3391 22.194 69.3391 20.262C69.3391 18.246 68.2471 17.462 67.0851 17.462C65.9231 17.462 64.8311 18.204 64.8311 20.262ZM67.0851 16.342C68.8351 16.342 70.6971 17.532 70.6971 20.262C70.6971 22.992 68.8351 24.182 67.0851 24.182C65.3351 24.182 63.4731 22.992 63.4731 20.262C63.4731 17.532 65.3351 16.342 67.0851 16.342ZM76.9643 13.85V16.482C79.1623 16.482 80.8423 17.7 80.8423 20.262C80.8423 22.908 79.1343 24.07 76.9643 24.07V26.45H75.6903V24.07C73.5063 24.07 71.8123 22.908 71.8123 20.262C71.8123 17.7 73.5063 16.482 75.6903 16.482V13.85H76.9643ZM75.6903 22.978V17.574C74.2343 17.574 73.1703 18.456 73.1703 20.304C73.1703 22.138 74.1923 22.978 75.6903 22.978ZM76.9643 17.574V22.978C78.4203 22.978 79.4843 22.138 79.4843 20.304C79.4843 18.456 78.4623 17.574 76.9643 17.574ZM87.5741 24V18.316L83.6821 24H82.4081V16.468H83.6821V22.152L87.5741 16.468H88.8481V24H87.5741ZM96.9577 16.468V24H95.6837V17.574H93.1497L93.0377 19.394C92.8557 22.432 92.1977 24 90.4477 24H90.2097V22.894H90.3497C91.0217 22.894 91.6657 22.166 91.8197 19.044L91.9317 16.468H96.9577ZM100.389 19.128H102.181C104.155 19.128 104.995 19.898 104.995 21.508C104.995 23.37 103.903 24 102.167 24H99.1151V16.468H100.389V19.128ZM100.389 22.894H102.055C103.175 22.894 103.749 22.516 103.749 21.508C103.749 20.514 103.161 20.234 102.027 20.234H100.389V22.894ZM116.024 24H114.75V20.71H111.026V24H109.752V16.468H111.026V19.604H114.75V16.468H116.024V24ZM122.85 20.85V20.374C120.54 20.598 119.07 20.948 119.07 21.984C119.07 22.698 119.616 23.174 120.526 23.174C121.716 23.174 122.85 22.628 122.85 20.85ZM120.246 24.182C118.832 24.182 117.656 23.398 117.656 22.012C117.656 20.234 119.672 19.702 122.752 19.366V19.184C122.752 17.798 121.996 17.35 121.044 17.35C119.98 17.35 119.378 17.91 119.322 18.848H118.006C118.118 17.224 119.574 16.314 121.03 16.314C123.116 16.314 124.04 17.294 124.026 19.422L124.012 21.158C123.998 22.432 124.054 23.286 124.208 24H122.92C122.878 23.72 122.836 23.412 122.822 22.964C122.36 23.748 121.59 24.182 120.246 24.182ZM135.63 24L133.432 19.716C133.166 19.73 132.928 19.73 132.662 19.73H130.87V24H129.442V13.85H132.662C135.126 13.85 136.89 14.34 136.89 16.776C136.89 18.386 136.12 19.156 134.874 19.492L137.226 24H135.63ZM132.774 15.054H130.87V18.526H132.774C134.272 18.526 135.42 18.372 135.42 16.804C135.42 15.236 134.272 15.054 132.774 15.054ZM138.722 13.85H140.15V20.024C140.15 22.026 140.864 22.95 142.768 22.95C144.714 22.95 145.428 21.872 145.428 19.87V13.85H146.856V19.758C146.856 22.726 145.722 24.182 142.768 24.182C139.954 24.182 138.722 23.034 138.722 19.87V13.85ZM148.696 16.44C148.696 14.494 150.726 13.668 152.364 13.668C154.198 13.668 155.808 14.494 156.214 16.44H154.828C154.492 15.278 153.316 14.872 152.308 14.872C151.524 14.872 150.152 15.222 150.152 16.356C150.152 17.252 150.852 17.7 151.804 17.91L152.98 18.176C154.534 18.512 156.396 19.1 156.396 21.144C156.396 23.118 154.548 24.182 152.532 24.182C150.138 24.182 148.626 22.866 148.36 20.85H149.76C150.026 22.25 150.992 22.978 152.56 22.978C154.072 22.978 154.926 22.278 154.926 21.27C154.926 20.192 154.002 19.772 152.742 19.478L151.482 19.212C150.082 18.904 148.696 18.12 148.696 16.44ZM157.802 16.44C157.802 14.494 159.832 13.668 161.47 13.668C163.304 13.668 164.914 14.494 165.32 16.44H163.934C163.598 15.278 162.422 14.872 161.414 14.872C160.63 14.872 159.258 15.222 159.258 16.356C159.258 17.252 159.958 17.7 160.91 17.91L162.086 18.176C163.64 18.512 165.502 19.1 165.502 21.144C165.502 23.118 163.654 24.182 161.638 24.182C159.244 24.182 157.732 22.866 157.466 20.85H158.866C159.132 22.25 160.098 22.978 161.666 22.978C163.178 22.978 164.032 22.278 164.032 21.27C164.032 20.192 163.108 19.772 161.848 19.478L160.588 19.212C159.188 18.904 157.802 18.12 157.802 16.44ZM167.19 13.85H170.368C172.846 13.85 174.582 14.41 174.582 16.916C174.582 19.436 172.846 19.982 170.368 19.982H168.618V24H167.19V13.85ZM170.48 15.054H168.618V18.736H170.48C171.978 18.736 173.126 18.582 173.126 16.916C173.126 15.264 171.978 15.054 170.48 15.054ZM173.902 24L177.668 13.85H179.32L183.142 24H181.602L180.804 21.802H176.142L175.358 24H173.902ZM178.452 15.292L176.576 20.584H180.356L178.452 15.292ZM183.723 16.44C183.723 14.494 185.753 13.668 187.391 13.668C189.225 13.668 190.835 14.494 191.241 16.44H189.855C189.519 15.278 188.343 14.872 187.335 14.872C186.551 14.872 185.179 15.222 185.179 16.356C185.179 17.252 185.879 17.7 186.831 17.91L188.007 18.176C189.561 18.512 191.423 19.1 191.423 21.144C191.423 23.118 189.575 24.182 187.559 24.182C185.165 24.182 183.653 22.866 183.387 20.85H184.787C185.053 22.25 186.019 22.978 187.587 22.978C189.099 22.978 189.953 22.278 189.953 21.27C189.953 20.192 189.029 19.772 187.769 19.478L186.509 19.212C185.109 18.904 183.723 18.12 183.723 16.44ZM192.829 16.44C192.829 14.494 194.859 13.668 196.497 13.668C198.331 13.668 199.941 14.494 200.347 16.44H198.961C198.625 15.278 197.449 14.872 196.441 14.872C195.657 14.872 194.285 15.222 194.285 16.356C194.285 17.252 194.985 17.7 195.937 17.91L197.113 18.176C198.667 18.512 200.529 19.1 200.529 21.144C200.529 23.118 198.681 24.182 196.665 24.182C194.271 24.182 192.759 22.866 192.493 20.85H193.893C194.159 22.25 195.125 22.978 196.693 22.978C198.205 22.978 199.059 22.278 199.059 21.27C199.059 20.192 198.135 19.772 196.875 19.478L195.615 19.212C194.215 18.904 192.829 18.12 192.829 16.44ZM204.626 13.668C206.208 13.668 207.79 14.438 207.79 16.132C207.79 17.476 206.852 18.414 205.9 19.016C205.032 19.576 204.724 19.828 204.724 20.598V21.032H203.422V20.556C203.422 19.38 203.982 18.876 205.158 18.12C205.886 17.658 206.46 17.098 206.46 16.188C206.46 15.292 205.676 14.732 204.598 14.732C203.044 14.732 202.512 15.824 202.47 16.678H201.196C201.196 14.858 202.652 13.668 204.626 13.668ZM204.906 24H203.296V22.39H204.906V24ZM212.666 24V13.85H216.32C218.21 13.85 219.89 14.34 219.89 16.356C219.89 17.322 219.484 18.19 218.77 18.596C219.736 19.002 220.31 19.758 220.31 21.004C220.31 23.16 218.7 24 216.67 24H212.666ZM214.094 19.324V22.796H216.684C218.14 22.796 218.84 22.18 218.84 21.018C218.84 19.828 218.126 19.324 216.6 19.324H214.094ZM214.094 15.054V18.19H216.544C217.72 18.19 218.448 17.742 218.448 16.552C218.448 15.502 217.678 15.054 216.544 15.054H214.094ZM222.769 20.262C222.769 22.278 223.861 23.062 225.023 23.062C226.185 23.062 227.277 22.194 227.277 20.262C227.277 18.246 226.185 17.462 225.023 17.462C223.861 17.462 222.769 18.204 222.769 20.262ZM225.023 16.342C226.773 16.342 228.635 17.532 228.635 20.262C228.635 22.992 226.773 24.182 225.023 24.182C223.273 24.182 221.411 22.992 221.411 20.262C221.411 17.532 223.273 16.342 225.023 16.342ZM234.736 13.85H235.73C235.618 14.69 235.086 15.544 233.49 15.544C231.95 15.544 231.362 14.69 231.292 13.85H232.286C232.342 14.298 232.678 14.704 233.504 14.704C234.33 14.704 234.68 14.298 234.736 13.85ZM235.394 24V18.316L231.502 24H230.228V16.468H231.502V22.152L235.394 16.468H236.668V24H235.394ZM245.87 22.894V25.666H244.638V24H239.122V25.666H237.89V22.894H238.226C239.08 22.894 239.528 21.774 239.64 18.89L239.738 16.468H244.82V22.894H245.87ZM243.546 22.894V17.574H240.97L240.9 19.016C240.788 21.242 240.466 22.334 239.878 22.894H243.546ZM252.32 24V18.316L248.428 24H247.154V16.468H248.428V22.152L252.32 16.468H253.594V24H252.32ZM261.312 17.574H258.736V24H257.462V17.574H254.886V16.468H261.312V17.574ZM268.937 20.654H263.141C263.183 22.278 264.359 23.062 265.465 23.062C266.585 23.062 267.201 22.558 267.523 21.816H268.839C268.503 23.104 267.299 24.182 265.465 24.182C263.085 24.182 261.769 22.474 261.769 20.248C261.769 17.854 263.365 16.342 265.423 16.342C267.733 16.342 269.091 18.26 268.937 20.654ZM265.423 17.434C264.303 17.434 263.267 18.05 263.155 19.562H267.593C267.551 18.498 266.781 17.434 265.423 17.434ZM280.87 22.894V25.666H279.638V24H274.122V25.666H272.89V22.894H273.226C274.08 22.894 274.528 21.774 274.64 18.89L274.738 16.468H279.82V22.894H280.87ZM278.546 22.894V17.574H275.97L275.9 19.016C275.788 21.242 275.466 22.334 274.878 22.894H278.546ZM288.104 16.468V24H286.83V17.574H284.296L284.184 19.394C284.002 22.432 283.344 24 281.594 24H281.356V22.894H281.496C282.168 22.894 282.812 22.166 282.966 19.044L283.078 16.468H288.104ZM295.834 16.468V24H294.56V21.326H293.23C293.16 21.326 293.09 21.326 293.02 21.312L290.976 24H289.394L291.676 20.962C290.724 20.64 290.08 19.912 290.08 18.792C290.08 17.238 291.144 16.468 292.88 16.468H295.834ZM294.56 17.574H292.95C292.012 17.574 291.382 17.966 291.382 18.876C291.382 19.898 292.18 20.22 293.062 20.22H294.56V17.574ZM304.696 16.902C306.404 16.902 307.874 18.092 307.874 20.472C307.874 22.894 306.32 24.182 304.472 24.182C302.526 24.182 300.93 22.824 300.93 20.08V19.212C300.972 16.496 301.868 14.914 304.892 14.312L307.37 13.822V14.956L304.962 15.474C303.128 15.88 302.246 16.566 302.064 18.442C302.568 17.392 303.576 16.902 304.696 16.902ZM304.472 23.076C305.704 23.076 306.516 22.138 306.516 20.5C306.516 18.848 305.648 18.008 304.486 18.008C303.338 18.008 302.302 18.792 302.302 20.486C302.302 22.082 303.198 23.076 304.472 23.076ZM312.091 24H309.375V16.468H310.649V19.128H312.105C314.065 19.128 314.919 19.898 314.919 21.508C314.919 23.37 313.813 24 312.091 24ZM310.649 20.234V22.894H311.979C313.099 22.894 313.673 22.53 313.673 21.508C313.673 20.5 313.113 20.234 311.937 20.234H310.649ZM317.439 24H316.165V16.468H317.439V24ZM322.653 16.342C324.501 16.342 325.621 17.7 325.803 18.988H324.515C324.333 18.092 323.563 17.462 322.569 17.462C321.449 17.462 320.399 18.344 320.399 20.234C320.399 22.138 321.449 23.062 322.569 23.062C323.647 23.062 324.389 22.334 324.571 21.55H325.887C325.621 22.964 324.291 24.182 322.527 24.182C320.357 24.182 319.013 22.544 319.013 20.248C319.013 18.008 320.427 16.342 322.653 16.342ZM332.706 17.574H330.13V24H328.856V17.574H326.28V16.468H332.706V17.574ZM333.998 16.468H335.272V17.658C335.734 16.86 336.518 16.342 337.736 16.342C339.472 16.342 340.956 17.798 340.956 20.262C340.956 22.768 339.472 24.182 337.736 24.182C336.518 24.182 335.734 23.664 335.272 22.866V26.45H333.998V16.468ZM335.216 20.262C335.216 22.25 336.28 23.09 337.414 23.09C338.716 23.09 339.57 22.068 339.57 20.262C339.57 18.456 338.716 17.434 337.414 17.434C336.28 17.434 335.216 18.274 335.216 20.262ZM343.437 20.262C343.437 22.278 344.529 23.062 345.691 23.062C346.853 23.062 347.945 22.194 347.945 20.262C347.945 18.246 346.853 17.462 345.691 17.462C344.529 17.462 343.437 18.204 343.437 20.262ZM345.691 16.342C347.441 16.342 349.303 17.532 349.303 20.262C349.303 22.992 347.441 24.182 345.691 24.182C343.941 24.182 342.079 22.992 342.079 20.262C342.079 17.532 343.941 16.342 345.691 16.342ZM355.698 17.574H352.17V24H350.896V16.468H355.698V17.574ZM357.464 20.262C357.464 22.278 358.556 23.062 359.718 23.062C360.88 23.062 361.972 22.194 361.972 20.262C361.972 18.246 360.88 17.462 359.718 17.462C358.556 17.462 357.464 18.204 357.464 20.262ZM359.718 16.342C361.468 16.342 363.33 17.532 363.33 20.262C363.33 22.992 361.468 24.182 359.718 24.182C357.968 24.182 356.106 22.992 356.106 20.262C356.106 17.532 357.968 16.342 359.718 16.342ZM369.044 20.262C369.044 22.278 370.136 23.062 371.298 23.062C372.46 23.062 373.552 22.194 373.552 20.262C373.552 18.246 372.46 17.462 371.298 17.462C370.136 17.462 369.044 18.204 369.044 20.262ZM371.298 16.342C373.048 16.342 374.91 17.532 374.91 20.262C374.91 22.992 373.048 24.182 371.298 24.182C369.548 24.182 367.686 22.992 367.686 20.262C367.686 17.532 369.548 16.342 371.298 16.342ZM381.177 13.85V16.482C383.375 16.482 385.055 17.7 385.055 20.262C385.055 22.908 383.347 24.07 381.177 24.07V26.45H379.903V24.07C377.719 24.07 376.025 22.908 376.025 20.262C376.025 17.7 377.719 16.482 379.903 16.482V13.85H381.177ZM379.903 22.978V17.574C378.447 17.574 377.383 18.456 377.383 20.304C377.383 22.138 378.405 22.978 379.903 22.978ZM381.177 17.574V22.978C382.633 22.978 383.697 22.138 383.697 20.304C383.697 18.456 382.675 17.574 381.177 17.574ZM387.528 20.262C387.528 22.278 388.62 23.062 389.782 23.062C390.944 23.062 392.036 22.194 392.036 20.262C392.036 18.246 390.944 17.462 389.782 17.462C388.62 17.462 387.528 18.204 387.528 20.262ZM389.782 16.342C391.532 16.342 393.394 17.532 393.394 20.262C393.394 22.992 391.532 24.182 389.782 24.182C388.032 24.182 386.17 22.992 386.17 20.262C386.17 17.532 388.032 16.342 389.782 16.342ZM394.988 16.468H396.262V17.658C396.724 16.86 397.508 16.342 398.726 16.342C400.462 16.342 401.946 17.798 401.946 20.262C401.946 22.768 400.462 24.182 398.726 24.182C397.508 24.182 396.724 23.664 396.262 22.866V26.45H394.988V16.468ZM396.206 20.262C396.206 22.25 397.27 23.09 398.404 23.09C399.706 23.09 400.56 22.068 400.56 20.262C400.56 18.456 399.706 17.434 398.404 17.434C397.27 17.434 396.206 18.274 396.206 20.262ZM411.751 16.468V24H410.505V17.952L408.083 24H407.173L404.765 18.036V24H403.519V16.468H405.339L407.677 22.264L409.931 16.468H411.751ZM419.86 16.468V24H418.586V17.574H416.052L415.94 19.394C415.758 22.432 415.1 24 413.35 24H413.112V22.894H413.252C413.924 22.894 414.568 22.166 414.722 19.044L414.834 16.468H419.86ZM428.597 20.654H422.801C422.843 22.278 424.019 23.062 425.125 23.062C426.245 23.062 426.861 22.558 427.183 21.816H428.499C428.163 23.104 426.959 24.182 425.125 24.182C422.745 24.182 421.429 22.474 421.429 20.248C421.429 17.854 423.025 16.342 425.083 16.342C427.393 16.342 428.751 18.26 428.597 20.654ZM425.083 17.434C423.963 17.434 422.927 18.05 422.815 19.562H427.253C427.211 18.498 426.441 17.434 425.083 17.434ZM436.438 24H435.164V20.71H431.44V24H430.166V16.468H431.44V19.604H435.164V16.468H436.438V24ZM443.754 24V18.316L439.862 24H438.588V16.468H439.862V22.152L443.754 16.468H445.028V24H443.754ZM452.759 16.468V24H451.485V21.326H450.155C450.085 21.326 450.015 21.326 449.945 21.312L447.901 24H446.319L448.601 20.962C447.649 20.64 447.005 19.912 447.005 18.792C447.005 17.238 448.069 16.468 449.805 16.468H452.759ZM451.485 17.574H449.875C448.937 17.574 448.307 17.966 448.307 18.876C448.307 19.898 449.105 20.22 449.987 20.22H451.485V17.574ZM462.266 20.052C463.064 20.276 463.792 20.85 463.792 21.858C463.792 23.482 462.294 24.182 460.614 24.182C459.004 24.182 457.674 23.426 457.408 21.704H458.696C458.906 22.67 459.62 23.118 460.698 23.118C461.762 23.118 462.434 22.628 462.434 21.914C462.434 21.032 461.86 20.682 460.796 20.682H459.592V19.632H460.726C461.608 19.632 462.14 19.24 462.14 18.456C462.14 17.742 461.496 17.42 460.67 17.42C459.732 17.42 459.018 17.77 458.85 18.792H457.534C457.8 17.154 459.018 16.3 460.6 16.3C462.084 16.3 463.456 17.014 463.456 18.428C463.456 19.198 462.938 19.73 462.266 20.052ZM469.979 20.85V20.374C467.669 20.598 466.199 20.948 466.199 21.984C466.199 22.698 466.745 23.174 467.655 23.174C468.845 23.174 469.979 22.628 469.979 20.85ZM467.375 24.182C465.961 24.182 464.785 23.398 464.785 22.012C464.785 20.234 466.801 19.702 469.881 19.366V19.184C469.881 17.798 469.125 17.35 468.173 17.35C467.109 17.35 466.507 17.91 466.451 18.848H465.135C465.247 17.224 466.703 16.314 468.159 16.314C470.245 16.314 471.169 17.294 471.155 19.422L471.141 21.158C471.127 22.432 471.183 23.286 471.337 24H470.049C470.007 23.72 469.965 23.412 469.951 22.964C469.489 23.748 468.719 24.182 467.375 24.182ZM477.967 24L475.377 20.654H474.411V24H473.123V16.468H474.411V19.548H475.349L477.743 16.468H479.255L476.413 20.024L479.549 24H477.967ZM485.264 20.85V20.374C482.954 20.598 481.484 20.948 481.484 21.984C481.484 22.698 482.03 23.174 482.94 23.174C484.13 23.174 485.264 22.628 485.264 20.85ZM482.66 24.182C481.246 24.182 480.07 23.398 480.07 22.012C480.07 20.234 482.086 19.702 485.166 19.366V19.184C485.166 17.798 484.41 17.35 483.458 17.35C482.394 17.35 481.792 17.91 481.736 18.848H480.42C480.532 17.224 481.988 16.314 483.444 16.314C485.53 16.314 486.454 17.294 486.44 19.422L486.426 21.158C486.412 22.432 486.468 23.286 486.622 24H485.334C485.292 23.72 485.25 23.412 485.236 22.964C484.774 23.748 484.004 24.182 482.66 24.182ZM492.44 20.052C493.238 20.276 493.966 20.85 493.966 21.858C493.966 23.482 492.468 24.182 490.788 24.182C489.178 24.182 487.848 23.426 487.582 21.704H488.87C489.08 22.67 489.794 23.118 490.872 23.118C491.936 23.118 492.608 22.628 492.608 21.914C492.608 21.032 492.034 20.682 490.97 20.682H489.766V19.632H490.9C491.782 19.632 492.314 19.24 492.314 18.456C492.314 17.742 491.67 17.42 490.844 17.42C489.906 17.42 489.192 17.77 489.024 18.792H487.708C487.974 17.154 489.192 16.3 490.774 16.3C492.258 16.3 493.63 17.014 493.63 18.428C493.63 19.198 493.112 19.73 492.44 20.052ZM500.152 20.85V20.374C497.842 20.598 496.372 20.948 496.372 21.984C496.372 22.698 496.918 23.174 497.828 23.174C499.018 23.174 500.152 22.628 500.152 20.85ZM497.548 24.182C496.134 24.182 494.958 23.398 494.958 22.012C494.958 20.234 496.974 19.702 500.054 19.366V19.184C500.054 17.798 499.298 17.35 498.346 17.35C497.282 17.35 496.68 17.91 496.624 18.848H495.308C495.42 17.224 496.876 16.314 498.332 16.314C500.418 16.314 501.342 17.294 501.328 19.422L501.314 21.158C501.3 22.432 501.356 23.286 501.51 24H500.222C500.18 23.72 500.138 23.412 500.124 22.964C499.662 23.748 498.892 24.182 497.548 24.182Z" fill="#0370C7"/>
</svg>
