<svg width="808" height="434" viewBox="0 0 808 434" fill="none" xmlns="http://www.w3.org/2000/svg">
<path d="M1.68 23V5H14.304V7.76H5.04V12.56H12.864V15.32H5.04V23H1.68ZM16.6719 23H13.3359L20.0079 5H23.6559L30.5679 23H26.9199L25.3359 18.8H18.1599L16.6719 23ZM19.1919 15.92H24.2559L21.6639 9.008L19.1919 15.92ZM39.6793 4.736C40.9113 4.736 42.0553 4.96 43.1113 5.408C44.1673 5.856 45.0793 6.48 45.8473 7.28C46.6153 8.08 47.2153 9.04 47.6473 10.16C48.0953 11.28 48.3193 12.496 48.3193 13.808C48.3193 15.168 48.1113 16.416 47.6953 17.552C47.2953 18.672 46.7353 19.64 46.0153 20.456C45.3113 21.272 44.4633 21.92 43.4713 22.4C42.4793 22.88 41.4073 23.152 40.2553 23.216L42.0793 23.672C42.6233 24.12 42.9913 24.568 43.1833 25.016C43.3913 25.48 43.4953 26.008 43.4953 26.6H39.7033C39.6393 25.544 39.5033 24.768 39.2953 24.272C39.0873 23.792 38.6633 23.4 38.0233 23.096C36.9833 22.904 36.0313 22.552 35.1673 22.04C34.3033 21.512 33.5673 20.848 32.9593 20.048C32.3513 19.248 31.8713 18.32 31.5193 17.264C31.1833 16.208 31.0153 15.056 31.0153 13.808C31.0153 12.496 31.2313 11.28 31.6633 10.16C32.0953 9.04 32.6953 8.08 33.4633 7.28C34.2313 6.48 35.1433 5.856 36.1993 5.408C37.2713 4.96 38.4313 4.736 39.6793 4.736ZM39.6793 7.88C38.0793 7.88 36.8313 8.44 35.9353 9.56C35.0553 10.664 34.6153 12.144 34.6153 14C34.6153 15.936 35.0553 17.44 35.9353 18.512C36.8313 19.584 38.0793 20.12 39.6793 20.12C41.2633 20.12 42.4953 19.584 43.3753 18.512C44.2713 17.44 44.7193 15.936 44.7193 14C44.7193 12.144 44.2713 10.664 43.3753 9.56C42.4953 8.44 41.2633 7.88 39.6793 7.88Z" fill="#1D1D1D"/>
<rect opacity="0.01" y="28" width="1" height="16" fill="white"/>
<rect x="0.5" y="44.5" width="807" height="71" rx="15.5" fill="#F5F5F5"/>
<rect x="0.5" y="44.5" width="807" height="71" rx="15.5" stroke="#EBEBEB"/>
<path d="M38 88H34.44L28.2 81.28V88H25.4V73H28.2V79.32L34.12 73H37.52L30.72 80.2L38 88ZM41.9355 81.78L39.5555 80.9C39.7821 79.8733 40.3221 79.1 41.1755 78.58C42.0421 78.06 43.0755 77.8 44.2755 77.8C45.7821 77.8 46.8621 78.04 47.5155 78.52C48.1688 79 48.4955 79.7933 48.4955 80.9V85.8H50.1955V88H45.6155L45.8955 86.42V85.96L44.6555 87.48C43.9355 87.96 43.1621 88.2 42.3355 88.2C41.4555 88.2 40.7555 87.9667 40.2355 87.5C39.7155 87.02 39.4555 86.3667 39.4555 85.54C39.4555 84.9667 39.5488 84.5 39.7355 84.14C39.9355 83.78 40.2488 83.5 40.6755 83.3C41.1155 83.0867 41.5555 82.9267 41.9955 82.82C42.4488 82.7 43.0621 82.5467 43.8355 82.36C44.6088 82.16 45.2955 81.9533 45.8955 81.74V81.32C45.8955 80.7867 45.7621 80.3933 45.4955 80.14C45.2288 79.8867 44.7888 79.76 44.1755 79.76C43.4688 79.76 42.9688 79.9067 42.6755 80.2C42.3955 80.48 42.1488 81.0067 41.9355 81.78ZM42.2955 85.08C42.2955 85.4533 42.4088 85.7533 42.6355 85.98C42.8755 86.2067 43.1955 86.32 43.5955 86.32C44.0221 86.32 44.4688 86.1467 44.9355 85.8C45.4021 85.44 45.7221 84.94 45.8955 84.3V82.52C44.4688 82.96 43.5088 83.3533 43.0155 83.7C42.5355 84.0467 42.2955 84.5067 42.2955 85.08ZM58.9145 88L54.7945 83.38V88H52.1945V78H54.7945V82.3L58.6145 78H61.7145L57.3945 82.56L62.1145 88H58.9145ZM68.025 82.98C68.025 81.4867 68.5317 80.2533 69.545 79.28C70.5717 78.2933 71.825 77.8 73.305 77.8C74.3717 77.8 75.325 78.1133 76.165 78.74C77.0183 79.3667 77.565 80.1867 77.805 81.2L75.425 82.08C75.105 80.3467 74.345 79.48 73.145 79.48C72.465 79.48 71.925 79.7867 71.525 80.4C71.125 81 70.925 81.86 70.925 82.98C70.925 84.1267 71.1383 85 71.565 85.6C71.9917 86.1867 72.525 86.48 73.165 86.48C73.765 86.48 74.2383 86.2533 74.585 85.8C74.945 85.3467 75.225 84.64 75.425 83.68L77.805 84.56C77.605 85.64 77.0783 86.52 76.225 87.2C75.3717 87.8667 74.3983 88.2 73.305 88.2C71.825 88.2 70.5717 87.7133 69.545 86.74C68.5317 85.7533 68.025 84.5 68.025 82.98ZM82.4823 81.78L80.1023 80.9C80.329 79.8733 80.869 79.1 81.7223 78.58C82.589 78.06 83.6223 77.8 84.8223 77.8C86.329 77.8 87.409 78.04 88.0623 78.52C88.7157 79 89.0423 79.7933 89.0423 80.9V85.8H90.7423V88H86.1623L86.4423 86.42V85.96L85.2023 87.48C84.4823 87.96 83.709 88.2 82.8823 88.2C82.0023 88.2 81.3023 87.9667 80.7823 87.5C80.2623 87.02 80.0023 86.3667 80.0023 85.54C80.0023 84.9667 80.0957 84.5 80.2823 84.14C80.4823 83.78 80.7957 83.5 81.2223 83.3C81.6623 83.0867 82.1023 82.9267 82.5423 82.82C82.9957 82.7 83.609 82.5467 84.3823 82.36C85.1557 82.16 85.8423 81.9533 86.4423 81.74V81.32C86.4423 80.7867 86.309 80.3933 86.0423 80.14C85.7757 79.8867 85.3357 79.76 84.7223 79.76C84.0157 79.76 83.5157 79.9067 83.2223 80.2C82.9423 80.48 82.6957 81.0067 82.4823 81.78ZM82.8423 85.08C82.8423 85.4533 82.9557 85.7533 83.1823 85.98C83.4223 86.2067 83.7423 86.32 84.1423 86.32C84.569 86.32 85.0157 86.1467 85.4823 85.8C85.949 85.44 86.269 84.94 86.4423 84.3V82.52C85.0157 82.96 84.0557 83.3533 83.5623 83.7C83.0823 84.0467 82.8423 84.5067 82.8423 85.08ZM92.7414 88V78H96.4614L99.2614 84.4L102.061 78H105.601V88H103.101V80.68L99.7614 88H98.4614L95.1414 80.54V88H92.7414ZM112.95 77.8C114.403 77.8 115.623 78.2933 116.61 79.28C117.597 80.2533 118.09 81.4933 118.09 83C118.09 84.5067 117.597 85.7533 116.61 86.74C115.623 87.7133 114.403 88.2 112.95 88.2C111.51 88.2 110.29 87.7133 109.29 86.74C108.303 85.7533 107.81 84.5067 107.81 83C107.81 81.4933 108.303 80.2533 109.29 79.28C110.29 78.2933 111.51 77.8 112.95 77.8ZM112.97 79.48C111.463 79.48 110.71 80.6533 110.71 83C110.71 84.1067 110.91 84.9667 111.31 85.58C111.71 86.18 112.263 86.48 112.97 86.48C113.677 86.48 114.223 86.18 114.61 85.58C114.997 84.9667 115.19 84.1067 115.19 83C115.19 80.6533 114.45 79.48 112.97 79.48ZM119.88 82.98C119.88 81.4867 120.387 80.2533 121.4 79.28C122.427 78.2933 123.68 77.8 125.16 77.8C126.227 77.8 127.18 78.1133 128.02 78.74C128.874 79.3667 129.42 80.1867 129.66 81.2L127.28 82.08C126.96 80.3467 126.2 79.48 125 79.48C124.32 79.48 123.78 79.7867 123.38 80.4C122.98 81 122.78 81.86 122.78 82.98C122.78 84.1267 122.994 85 123.42 85.6C123.847 86.1867 124.38 86.48 125.02 86.48C125.62 86.48 126.094 86.2533 126.44 85.8C126.8 85.3467 127.08 84.64 127.28 83.68L129.66 84.56C129.46 85.64 128.934 86.52 128.08 87.2C127.227 87.8667 126.254 88.2 125.16 88.2C123.68 88.2 122.427 87.7133 121.4 86.74C120.387 85.7533 119.88 84.5 119.88 82.98ZM137.158 88H134.558V79.8H131.158V78H140.558V79.8H137.158V88ZM146.993 77.8C148.446 77.8 149.666 78.2933 150.653 79.28C151.64 80.2533 152.133 81.4933 152.133 83C152.133 84.5067 151.64 85.7533 150.653 86.74C149.666 87.7133 148.446 88.2 146.993 88.2C145.553 88.2 144.333 87.7133 143.333 86.74C142.346 85.7533 141.853 84.5067 141.853 83C141.853 81.4933 142.346 80.2533 143.333 79.28C144.333 78.2933 145.553 77.8 146.993 77.8ZM147.013 79.48C145.506 79.48 144.753 80.6533 144.753 83C144.753 84.1067 144.953 84.9667 145.353 85.58C145.753 86.18 146.306 86.48 147.013 86.48C147.72 86.48 148.266 86.18 148.653 85.58C149.04 84.9667 149.233 84.1067 149.233 83C149.233 80.6533 148.493 79.48 147.013 79.48ZM156.683 88H153.623V87.68C153.837 87.5333 154.11 86.9267 154.443 85.86L154.563 85.48C154.883 84.4533 155.57 83.8 156.623 83.52C154.863 83.3067 153.983 82.4733 153.983 81.02C153.983 80.02 154.323 79.2667 155.003 78.76C155.697 78.2533 156.81 78 158.343 78H162.663V88H160.063V84.18H159.043C158.497 84.18 158.097 84.2667 157.843 84.44C157.59 84.6 157.417 84.86 157.323 85.22L157.183 85.72C156.97 86.4667 156.803 87.2267 156.683 88ZM158.143 82.58H160.063V79.6H158.283C157.683 79.6 157.25 79.7133 156.983 79.94C156.73 80.1667 156.603 80.5333 156.603 81.04C156.603 82.0667 157.117 82.58 158.143 82.58ZM170.361 88H167.761V79.8H164.361V78H173.761V79.8H170.361V88ZM184.936 84.08C184.896 85.08 184.45 86.02 183.596 86.9C182.743 87.7667 181.603 88.2 180.176 88.2C178.536 88.2 177.27 87.72 176.376 86.76C175.496 85.8 175.056 84.5733 175.056 83.08C175.056 81.4933 175.53 80.22 176.476 79.26C177.423 78.2867 178.623 77.8 180.076 77.8C181.636 77.8 182.823 78.2667 183.636 79.2C184.463 80.12 184.896 81.3933 184.936 83.02H177.956V83.12C177.956 84.1467 178.143 84.9467 178.516 85.52C178.903 86.08 179.463 86.36 180.196 86.36C181.423 86.36 182.123 85.6 182.296 84.08H184.936ZM180.096 79.64C178.936 79.64 178.25 80.4133 178.036 81.96H182.096C182.096 81.3333 181.923 80.7933 181.576 80.34C181.23 79.8733 180.736 79.64 180.096 79.64ZM188.056 83.92L188.376 78H195.976V88H193.376V79.8H190.556L190.356 83.94C190.276 85.5133 189.976 86.5867 189.456 87.16C188.949 87.72 188.003 88 186.616 88H186.436V85.6H186.616C187.163 85.6 187.529 85.4933 187.716 85.28C187.903 85.0667 188.016 84.6133 188.056 83.92ZM207.001 84.58C207.001 86.86 205.635 88 202.901 88H198.581V78H201.181V81.44H203.261C204.328 81.44 205.215 81.7067 205.921 82.24C206.641 82.7733 207.001 83.5533 207.001 84.58ZM204.381 84.6C204.381 83.6933 203.781 83.24 202.581 83.24H201.181V86.2H202.561C203.201 86.2 203.661 86.0733 203.941 85.82C204.235 85.5533 204.381 85.1467 204.381 84.6ZM211.494 88H208.894V78H211.494V82H215.194V78H217.794V88H215.194V83.8H211.494V88ZM225.138 77.8C226.591 77.8 227.811 78.2933 228.798 79.28C229.784 80.2533 230.278 81.4933 230.278 83C230.278 84.5067 229.784 85.7533 228.798 86.74C227.811 87.7133 226.591 88.2 225.138 88.2C223.698 88.2 222.478 87.7133 221.478 86.74C220.491 85.7533 219.998 84.5067 219.998 83C219.998 81.4933 220.491 80.2533 221.478 79.28C222.478 78.2933 223.698 77.8 225.138 77.8ZM225.158 79.48C223.651 79.48 222.898 80.6533 222.898 83C222.898 84.1067 223.098 84.9667 223.498 85.58C223.898 86.18 224.451 86.48 225.158 86.48C225.864 86.48 226.411 86.18 226.798 85.58C227.184 84.9667 227.378 84.1067 227.378 83C227.378 80.6533 226.638 79.48 225.158 79.48ZM239.937 83C239.871 84.68 239.731 85.7467 239.517 86.2H243.077V79.8H240.097L239.937 83ZM237.717 82.94L237.977 78H245.677V86.2H247.377V91H245.177V88H238.177V91H235.977V86.2H237.177C237.457 85.6533 237.637 84.5667 237.717 82.94ZM253.81 77.8C255.263 77.8 256.483 78.2933 257.47 79.28C258.456 80.2533 258.95 81.4933 258.95 83C258.95 84.5067 258.456 85.7533 257.47 86.74C256.483 87.7133 255.263 88.2 253.81 88.2C252.37 88.2 251.15 87.7133 250.15 86.74C249.163 85.7533 248.67 84.5067 248.67 83C248.67 81.4933 249.163 80.2533 250.15 79.28C251.15 78.2933 252.37 77.8 253.81 77.8ZM253.83 79.48C252.323 79.48 251.57 80.6533 251.57 83C251.57 84.1067 251.77 84.9667 252.17 85.58C252.57 86.18 253.123 86.48 253.83 86.48C254.536 86.48 255.083 86.18 255.47 85.58C255.856 84.9667 256.05 84.1067 256.05 83C256.05 80.6533 255.31 79.48 253.83 79.48ZM266.7 78.2C267.98 78.2 269.033 78.6733 269.86 79.62C270.7 80.5533 271.12 81.7467 271.12 83.2C271.12 84.6533 270.627 85.8533 269.64 86.8C268.653 87.7333 267.433 88.2 265.98 88.2C264.393 88.2 263.18 87.7467 262.34 86.84C261.34 85.7733 260.84 84.06 260.84 81.7C260.84 79.1133 261.3 77.1867 262.22 75.92C263.153 74.64 264.58 73.88 266.5 73.64C267.167 73.56 267.633 73.46 267.9 73.34C268.18 73.2067 268.333 73.0267 268.36 72.8H270.72C270.68 73.8267 270.433 74.5733 269.98 75.04C269.54 75.5067 268.653 75.8333 267.32 76.02C265.867 76.2333 264.907 76.6533 264.44 77.28C263.973 77.9067 263.7 79.14 263.62 80.98C263.993 79.1267 265.02 78.2 266.7 78.2ZM266 79.88C265.28 79.88 264.72 80.16 264.32 80.72C263.933 81.2667 263.74 82.0933 263.74 83.2C263.74 84.24 263.94 85.0467 264.34 85.62C264.74 86.1933 265.293 86.48 266 86.48C266.707 86.48 267.253 86.2 267.64 85.64C268.027 85.0667 268.22 84.2533 268.22 83.2C268.22 80.9867 267.48 79.88 266 79.88ZM279.327 88.2C277.461 88.2 276.327 87.18 275.927 85.14V93H273.327V78H275.927V80.9C276.327 78.8333 277.461 77.8 279.327 77.8C280.447 77.8 281.407 78.2533 282.207 79.16C283.007 80.0533 283.407 81.3533 283.407 83.06C283.407 84.7133 283.007 85.9867 282.207 86.88C281.407 87.76 280.447 88.2 279.327 88.2ZM280.527 83.06C280.527 81.9667 280.307 81.12 279.867 80.52C279.441 79.92 278.881 79.62 278.187 79.62C277.507 79.62 276.974 79.92 276.587 80.52C276.201 81.1067 276.007 81.9533 276.007 83.06C276.007 84.1267 276.201 84.9533 276.587 85.54C276.987 86.1267 277.521 86.42 278.187 86.42C278.867 86.42 279.427 86.1267 279.867 85.54C280.307 84.94 280.527 84.1133 280.527 83.06ZM287.99 81.78L285.61 80.9C285.837 79.8733 286.377 79.1 287.23 78.58C288.097 78.06 289.13 77.8 290.33 77.8C291.837 77.8 292.917 78.04 293.57 78.52C294.223 79 294.55 79.7933 294.55 80.9V85.8H296.25V88H291.67L291.95 86.42V85.96L290.71 87.48C289.99 87.96 289.217 88.2 288.39 88.2C287.51 88.2 286.81 87.9667 286.29 87.5C285.77 87.02 285.51 86.3667 285.51 85.54C285.51 84.9667 285.603 84.5 285.79 84.14C285.99 83.78 286.303 83.5 286.73 83.3C287.17 83.0867 287.61 82.9267 288.05 82.82C288.503 82.7 289.117 82.5467 289.89 82.36C290.663 82.16 291.35 81.9533 291.95 81.74V81.32C291.95 80.7867 291.817 80.3933 291.55 80.14C291.283 79.8867 290.843 79.76 290.23 79.76C289.523 79.76 289.023 79.9067 288.73 80.2C288.45 80.48 288.203 81.0067 287.99 81.78ZM288.35 85.08C288.35 85.4533 288.463 85.7533 288.69 85.98C288.93 86.2067 289.25 86.32 289.65 86.32C290.077 86.32 290.523 86.1467 290.99 85.8C291.457 85.44 291.777 84.94 291.95 84.3V82.52C290.523 82.96 289.563 83.3533 289.07 83.7C288.59 84.0467 288.35 84.5067 288.35 85.08ZM303.349 88H300.749V79.8H297.349V78H306.749V79.8H303.349V88ZM316.865 84.58C316.865 86.86 315.498 88 312.765 88H308.445V78H311.045V81.44H313.125C314.191 81.44 315.078 81.7067 315.785 82.24C316.505 82.7733 316.865 83.5533 316.865 84.58ZM314.245 84.6C314.245 83.6933 313.645 83.24 312.445 83.24H311.045V86.2H312.425C313.065 86.2 313.525 86.0733 313.805 85.82C314.098 85.5533 314.245 85.1467 314.245 84.6ZM318.357 82.98C318.357 81.4867 318.864 80.2533 319.877 79.28C320.904 78.2933 322.157 77.8 323.637 77.8C324.704 77.8 325.657 78.1133 326.497 78.74C327.35 79.3667 327.897 80.1867 328.137 81.2L325.757 82.08C325.437 80.3467 324.677 79.48 323.477 79.48C322.797 79.48 322.257 79.7867 321.857 80.4C321.457 81 321.257 81.86 321.257 82.98C321.257 84.1267 321.47 85 321.897 85.6C322.324 86.1867 322.857 86.48 323.497 86.48C324.097 86.48 324.57 86.2533 324.917 85.8C325.277 85.3467 325.557 84.64 325.757 83.68L328.137 84.56C327.937 85.64 327.41 86.52 326.557 87.2C325.704 87.8667 324.73 88.2 323.637 88.2C322.157 88.2 320.904 87.7133 319.877 86.74C318.864 85.7533 318.357 84.5 318.357 82.98ZM332.894 88H329.834V87.68C330.048 87.5333 330.321 86.9267 330.654 85.86L330.774 85.48C331.094 84.4533 331.781 83.8 332.834 83.52C331.074 83.3067 330.194 82.4733 330.194 81.02C330.194 80.02 330.534 79.2667 331.214 78.76C331.908 78.2533 333.021 78 334.554 78H338.874V88H336.274V84.18H335.254C334.708 84.18 334.308 84.2667 334.054 84.44C333.801 84.6 333.628 84.86 333.534 85.22L333.394 85.72C333.181 86.4667 333.014 87.2267 332.894 88ZM334.354 82.58H336.274V79.6H334.494C333.894 79.6 333.461 79.7133 333.194 79.94C332.941 80.1667 332.814 80.5333 332.814 81.04C332.814 82.0667 333.328 82.58 334.354 82.58ZM348.941 83C348.875 84.68 348.735 85.7467 348.521 86.2H352.081V79.8H349.101L348.941 83ZM346.721 82.94L346.981 78H354.681V86.2H356.381V91H354.181V88H347.181V91H344.981V86.2H346.181C346.461 85.6533 346.641 84.5667 346.721 82.94ZM362.813 77.8C364.267 77.8 365.487 78.2933 366.473 79.28C367.46 80.2533 367.953 81.4933 367.953 83C367.953 84.5067 367.46 85.7533 366.473 86.74C365.487 87.7133 364.267 88.2 362.813 88.2C361.373 88.2 360.153 87.7133 359.153 86.74C358.167 85.7533 357.673 84.5067 357.673 83C357.673 81.4933 358.167 80.2533 359.153 79.28C360.153 78.2933 361.373 77.8 362.813 77.8ZM362.833 79.48C361.327 79.48 360.573 80.6533 360.573 83C360.573 84.1067 360.773 84.9667 361.173 85.58C361.573 86.18 362.127 86.48 362.833 86.48C363.54 86.48 364.087 86.18 364.473 85.58C364.86 84.9667 365.053 84.1067 365.053 83C365.053 80.6533 364.313 79.48 362.833 79.48ZM374.753 88V78H378.473L381.273 84.4L384.073 78H387.613V88H385.113V80.68L381.773 88H380.473L377.153 80.54V88H374.753ZM399.702 84.08C399.662 85.08 399.215 86.02 398.362 86.9C397.509 87.7667 396.369 88.2 394.942 88.2C393.302 88.2 392.035 87.72 391.142 86.76C390.262 85.8 389.822 84.5733 389.822 83.08C389.822 81.4933 390.295 80.22 391.242 79.26C392.189 78.2867 393.389 77.8 394.842 77.8C396.402 77.8 397.589 78.2667 398.402 79.2C399.229 80.12 399.662 81.3933 399.702 83.02H392.722V83.12C392.722 84.1467 392.909 84.9467 393.282 85.52C393.669 86.08 394.229 86.36 394.962 86.36C396.189 86.36 396.889 85.6 397.062 84.08H399.702ZM394.862 79.64C393.702 79.64 393.015 80.4133 392.802 81.96H396.862C396.862 81.3333 396.689 80.7933 396.342 80.34C395.995 79.8733 395.502 79.64 394.862 79.64ZM401.502 82.98C401.502 81.4867 402.008 80.2533 403.022 79.28C404.048 78.2933 405.302 77.8 406.782 77.8C407.848 77.8 408.802 78.1133 409.642 78.74C410.495 79.3667 411.042 80.1867 411.282 81.2L408.902 82.08C408.582 80.3467 407.822 79.48 406.622 79.48C405.942 79.48 405.402 79.7867 405.002 80.4C404.602 81 404.402 81.86 404.402 82.98C404.402 84.1267 404.615 85 405.042 85.6C405.468 86.1867 406.002 86.48 406.642 86.48C407.242 86.48 407.715 86.2533 408.062 85.8C408.422 85.3467 408.702 84.64 408.902 83.68L411.282 84.56C411.082 85.64 410.555 86.52 409.702 87.2C408.848 87.8667 407.875 88.2 406.782 88.2C405.302 88.2 404.048 87.7133 403.022 86.74C402.008 85.7533 401.502 84.5 401.502 82.98ZM418.779 88H416.179V79.8H412.779V78H422.179V79.8H418.779V88ZM426.154 81.78L423.774 80.9C424.001 79.8733 424.541 79.1 425.394 78.58C426.261 78.06 427.294 77.8 428.494 77.8C430.001 77.8 431.081 78.04 431.734 78.52C432.388 79 432.714 79.7933 432.714 80.9V85.8H434.414V88H429.834L430.114 86.42V85.96L428.874 87.48C428.154 87.96 427.381 88.2 426.554 88.2C425.674 88.2 424.974 87.9667 424.454 87.5C423.934 87.02 423.674 86.3667 423.674 85.54C423.674 84.9667 423.768 84.5 423.954 84.14C424.154 83.78 424.468 83.5 424.894 83.3C425.334 83.0867 425.774 82.9267 426.214 82.82C426.668 82.7 427.281 82.5467 428.054 82.36C428.828 82.16 429.514 81.9533 430.114 81.74V81.32C430.114 80.7867 429.981 80.3933 429.714 80.14C429.448 79.8867 429.008 79.76 428.394 79.76C427.688 79.76 427.188 79.9067 426.894 80.2C426.614 80.48 426.368 81.0067 426.154 81.78ZM426.514 85.08C426.514 85.4533 426.628 85.7533 426.854 85.98C427.094 86.2067 427.414 86.32 427.814 86.32C428.241 86.32 428.688 86.1467 429.154 85.8C429.621 85.44 429.941 84.94 430.114 84.3V82.52C428.688 82.96 427.728 83.3533 427.234 83.7C426.754 84.0467 426.514 84.5067 426.514 85.08ZM442.073 83.7H439.473V81.02H440.293C441.36 81.02 442.127 80.7067 442.593 80.08C443.073 79.44 443.313 78.6267 443.313 77.64C443.313 76.4667 443.093 75.6667 442.653 75.24C442.213 74.8133 441.647 74.6 440.953 74.6C440.127 74.6 439.52 74.8933 439.133 75.48C438.747 76.0533 438.393 76.86 438.073 77.9L435.553 76.68C435.7 76.1467 435.92 75.6467 436.213 75.18C436.52 74.7 436.9 74.2867 437.353 73.94C437.807 73.58 438.34 73.3 438.953 73.1C439.567 72.9 440.247 72.8 440.993 72.8C441.86 72.8 442.62 72.9333 443.273 73.2C443.94 73.4667 444.493 73.82 444.933 74.26C445.373 74.7 445.707 75.22 445.933 75.82C446.16 76.42 446.273 77.0467 446.273 77.7C446.273 78.9133 445.88 79.9267 445.093 80.74C444.32 81.54 443.313 82.06 442.073 82.3V83.7ZM442.073 88H439.473V85.4H442.073V88Z" fill="#1D1D1D"/>
<path d="M766 76.5L772 82.5L778 76.5" stroke="#1D1D1D" stroke-width="2" stroke-linecap="square"/>
<rect x="0.5" y="124.5" width="807" height="229" rx="15.5" fill="#F5F5F5"/>
<rect x="0.5" y="124.5" width="807" height="229" rx="15.5" stroke="#EBEBEB"/>
<path d="M34.4 168V162.1C33.3867 162.22 32.2533 162.28 31 162.28C28.88 162.28 27.38 161.907 26.5 161.16C25.6333 160.4 25.2 159.16 25.2 157.44V153H28V157.16C28 158.12 28.2267 158.82 28.68 159.26C29.1467 159.687 29.9467 159.9 31.08 159.9C32.4133 159.9 33.52 159.84 34.4 159.72V153H37.2V168H34.4ZM45.0094 168H42.4094V159.8H39.0094V158H48.4094V159.8H45.0094V168ZM54.8447 157.8C56.298 157.8 57.518 158.293 58.5047 159.28C59.4914 160.253 59.9847 161.493 59.9847 163C59.9847 164.507 59.4914 165.753 58.5047 166.74C57.518 167.713 56.298 168.2 54.8447 168.2C53.4047 168.2 52.1847 167.713 51.1847 166.74C50.198 165.753 49.7047 164.507 49.7047 163C49.7047 161.493 50.198 160.253 51.1847 159.28C52.1847 158.293 53.4047 157.8 54.8447 157.8ZM54.8647 159.48C53.358 159.48 52.6047 160.653 52.6047 163C52.6047 164.107 52.8047 164.967 53.2047 165.58C53.6047 166.18 54.158 166.48 54.8647 166.48C55.5714 166.48 56.118 166.18 56.5047 165.58C56.8914 164.967 57.0847 164.107 57.0847 163C57.0847 160.653 56.3447 159.48 54.8647 159.48ZM75.4044 165.08C75.4044 165.973 75.0644 166.687 74.3844 167.22C73.7177 167.74 72.691 168 71.3044 168H66.7844V158H71.2244C72.5044 158 73.4377 158.227 74.0244 158.68C74.6244 159.133 74.9244 159.747 74.9244 160.52C74.9244 161.547 74.411 162.287 73.3844 162.74C74.731 163.113 75.4044 163.893 75.4044 165.08ZM70.8844 159.8H69.3844V162.24H70.9044C71.371 162.24 71.7177 162.12 71.9444 161.88C72.1844 161.627 72.3044 161.32 72.3044 160.96C72.3044 160.187 71.831 159.8 70.8844 159.8ZM70.9844 163.36H69.3844V166.2H70.9644C71.6044 166.2 72.0644 166.087 72.3444 165.86C72.6377 165.62 72.7844 165.253 72.7844 164.76C72.7844 164.36 72.631 164.027 72.3244 163.76C72.031 163.493 71.5844 163.36 70.9844 163.36ZM78.9494 168H76.1894L79.6894 163.08L76.2694 158H79.2494L81.2694 161L83.0694 158H85.8294L82.4494 162.74L85.9894 168H83.0094L80.8494 164.8L78.9494 168ZM91.9541 157.8C93.4074 157.8 94.6274 158.293 95.6141 159.28C96.6007 160.253 97.0941 161.493 97.0941 163C97.0941 164.507 96.6007 165.753 95.6141 166.74C94.6274 167.713 93.4074 168.2 91.9541 168.2C90.5141 168.2 89.2941 167.713 88.2941 166.74C87.3074 165.753 86.8141 164.507 86.8141 163C86.8141 161.493 87.3074 160.253 88.2941 159.28C89.2941 158.293 90.5141 157.8 91.9541 157.8ZM91.9741 159.48C90.4674 159.48 89.7141 160.653 89.7141 163C89.7141 164.107 89.9141 164.967 90.3141 165.58C90.7141 166.18 91.2674 166.48 91.9741 166.48C92.6807 166.48 93.2274 166.18 93.6141 165.58C94.0007 164.967 94.1941 164.107 94.1941 163C94.1941 160.653 93.4541 159.48 91.9741 159.48ZM102.144 163C102.078 164.68 101.938 165.747 101.724 166.2H105.284V159.8H102.304L102.144 163ZM99.9244 162.94L100.184 158H107.884V166.2H109.584V171H107.384V168H100.384V171H98.1844V166.2H99.3844C99.6644 165.653 99.8444 164.567 99.9244 162.94ZM113.877 168H111.277V158H113.877V164.74L117.977 158H120.577V168H117.977V161.26L113.877 168ZM128.271 168H125.671V159.8H122.271V158H131.671V159.8H128.271V168ZM146.596 165.08C146.596 165.973 146.256 166.687 145.576 167.22C144.909 167.74 143.882 168 142.496 168H137.976V158H142.416C143.696 158 144.629 158.227 145.216 158.68C145.816 159.133 146.116 159.747 146.116 160.52C146.116 161.547 145.602 162.287 144.576 162.74C145.922 163.113 146.596 163.893 146.596 165.08ZM142.076 159.8H140.576V162.24H142.096C142.562 162.24 142.909 162.12 143.136 161.88C143.376 161.627 143.496 161.32 143.496 160.96C143.496 160.187 143.022 159.8 142.076 159.8ZM142.176 163.36H140.576V166.2H142.156C142.796 166.2 143.256 166.087 143.536 165.86C143.829 165.62 143.976 165.253 143.976 164.76C143.976 164.36 143.822 164.027 143.516 163.76C143.222 163.493 142.776 163.36 142.176 163.36ZM152.81 162.98C152.81 161.487 153.317 160.253 154.33 159.28C155.357 158.293 156.61 157.8 158.09 157.8C159.157 157.8 160.11 158.113 160.95 158.74C161.803 159.367 162.35 160.187 162.59 161.2L160.21 162.08C159.89 160.347 159.13 159.48 157.93 159.48C157.25 159.48 156.71 159.787 156.31 160.4C155.91 161 155.71 161.86 155.71 162.98C155.71 164.127 155.923 165 156.35 165.6C156.777 166.187 157.31 166.48 157.95 166.48C158.55 166.48 159.023 166.253 159.37 165.8C159.73 165.347 160.01 164.64 160.21 163.68L162.59 164.56C162.39 165.64 161.863 166.52 161.01 167.2C160.157 167.867 159.183 168.2 158.09 168.2C156.61 168.2 155.357 167.713 154.33 166.74C153.317 165.753 152.81 164.5 152.81 162.98ZM170.088 168H167.488V159.8H164.088V158H173.488V159.8H170.088V168ZM179.923 157.8C181.376 157.8 182.596 158.293 183.583 159.28C184.569 160.253 185.063 161.493 185.063 163C185.063 164.507 184.569 165.753 183.583 166.74C182.596 167.713 181.376 168.2 179.923 168.2C178.483 168.2 177.263 167.713 176.263 166.74C175.276 165.753 174.783 164.507 174.783 163C174.783 161.493 175.276 160.253 176.263 159.28C177.263 158.293 178.483 157.8 179.923 157.8ZM179.943 159.48C178.436 159.48 177.683 160.653 177.683 163C177.683 164.107 177.883 164.967 178.283 165.58C178.683 166.18 179.236 166.48 179.943 166.48C180.649 166.48 181.196 166.18 181.583 165.58C181.969 164.967 182.163 164.107 182.163 163C182.163 160.653 181.423 159.48 179.943 159.48ZM189.853 168H187.253V158H189.853V164.74L193.953 158H196.553V168H193.953V161.26L189.853 168ZM199.148 168V158H202.868L205.668 164.4L208.468 158H212.008V168H209.508V160.68L206.168 168H204.868L201.548 160.54V168H199.148ZM219.356 157.8C220.81 157.8 222.03 158.293 223.016 159.28C224.003 160.253 224.496 161.493 224.496 163C224.496 164.507 224.003 165.753 223.016 166.74C222.03 167.713 220.81 168.2 219.356 168.2C217.916 168.2 216.696 167.713 215.696 166.74C214.71 165.753 214.216 164.507 214.216 163C214.216 161.493 214.71 160.253 215.696 159.28C216.696 158.293 217.916 157.8 219.356 157.8ZM219.376 159.48C217.87 159.48 217.116 160.653 217.116 163C217.116 164.107 217.316 164.967 217.716 165.58C218.116 166.18 218.67 166.48 219.376 166.48C220.083 166.48 220.63 166.18 221.016 165.58C221.403 164.967 221.596 164.107 221.596 163C221.596 160.653 220.856 159.48 219.376 159.48ZM226.287 162.98C226.287 161.487 226.793 160.253 227.807 159.28C228.833 158.293 230.087 157.8 231.567 157.8C232.633 157.8 233.587 158.113 234.427 158.74C235.28 159.367 235.827 160.187 236.067 161.2L233.687 162.08C233.367 160.347 232.607 159.48 231.407 159.48C230.727 159.48 230.187 159.787 229.787 160.4C229.387 161 229.187 161.86 229.187 162.98C229.187 164.127 229.4 165 229.827 165.6C230.253 166.187 230.787 166.48 231.427 166.48C232.027 166.48 232.5 166.253 232.847 165.8C233.207 165.347 233.487 164.64 233.687 163.68L236.067 164.56C235.867 165.64 235.34 166.52 234.487 167.2C233.633 167.867 232.66 168.2 231.567 168.2C230.087 168.2 228.833 167.713 227.807 166.74C226.793 165.753 226.287 164.5 226.287 162.98ZM243.564 168H240.964V159.8H237.564V158H246.964V159.8H243.564V168ZM257.079 164.58C257.079 166.86 255.713 168 252.979 168H248.659V158H251.259V161.44H253.339C254.406 161.44 255.293 161.707 255.999 162.24C256.719 162.773 257.079 163.553 257.079 164.58ZM254.459 164.6C254.459 163.693 253.859 163.24 252.659 163.24H251.259V166.2H252.639C253.279 166.2 253.739 166.073 254.019 165.82C254.313 165.553 254.459 165.147 254.459 164.6ZM268.681 168H266.081V159.8H262.681V158H272.081V159.8H268.681V168ZM276.297 169.74L276.937 167.9L272.477 158H275.457L278.157 164.54L280.377 158H283.037L278.177 171.58C277.977 172.127 277.75 172.5 277.497 172.7C277.243 172.9 276.797 173 276.157 173H273.877V170.8H275.137C275.337 170.8 275.497 170.78 275.617 170.74C275.75 170.713 275.863 170.627 275.957 170.48C276.05 170.347 276.103 170.253 276.117 170.2C276.143 170.16 276.203 170.007 276.297 169.74ZM290.382 168.2C288.515 168.2 287.382 167.18 286.982 165.14V173H284.382V158H286.982V160.9C287.382 158.833 288.515 157.8 290.382 157.8C291.502 157.8 292.462 158.253 293.262 159.16C294.062 160.053 294.462 161.353 294.462 163.06C294.462 164.713 294.062 165.987 293.262 166.88C292.462 167.76 291.502 168.2 290.382 168.2ZM291.582 163.06C291.582 161.967 291.362 161.12 290.922 160.52C290.495 159.92 289.935 159.62 289.242 159.62C288.562 159.62 288.029 159.92 287.642 160.52C287.255 161.107 287.062 161.953 287.062 163.06C287.062 164.127 287.255 164.953 287.642 165.54C288.042 166.127 288.575 166.42 289.242 166.42C289.922 166.42 290.482 166.127 290.922 165.54C291.362 164.94 291.582 164.113 291.582 163.06ZM299.045 161.78L296.665 160.9C296.892 159.873 297.432 159.1 298.285 158.58C299.152 158.06 300.185 157.8 301.385 157.8C302.892 157.8 303.972 158.04 304.625 158.52C305.278 159 305.605 159.793 305.605 160.9V165.8H307.305V168H302.725L303.005 166.42V165.96L301.765 167.48C301.045 167.96 300.272 168.2 299.445 168.2C298.565 168.2 297.865 167.967 297.345 167.5C296.825 167.02 296.565 166.367 296.565 165.54C296.565 164.967 296.658 164.5 296.845 164.14C297.045 163.78 297.358 163.5 297.785 163.3C298.225 163.087 298.665 162.927 299.105 162.82C299.558 162.7 300.172 162.547 300.945 162.36C301.718 162.16 302.405 161.953 303.005 161.74V161.32C303.005 160.787 302.872 160.393 302.605 160.14C302.338 159.887 301.898 159.76 301.285 159.76C300.578 159.76 300.078 159.907 299.785 160.2C299.505 160.48 299.258 161.007 299.045 161.78ZM299.405 165.08C299.405 165.453 299.518 165.753 299.745 165.98C299.985 166.207 300.305 166.32 300.705 166.32C301.132 166.32 301.578 166.147 302.045 165.8C302.512 165.44 302.832 164.94 303.005 164.3V162.52C301.578 162.96 300.618 163.353 300.125 163.7C299.645 164.047 299.405 164.507 299.405 165.08ZM314.964 163.7H312.364V161.02H313.184C314.251 161.02 315.017 160.707 315.484 160.08C315.964 159.44 316.204 158.627 316.204 157.64C316.204 156.467 315.984 155.667 315.544 155.24C315.104 154.813 314.537 154.6 313.844 154.6C313.017 154.6 312.411 154.893 312.024 155.48C311.637 156.053 311.284 156.86 310.964 157.9L308.444 156.68C308.591 156.147 308.811 155.647 309.104 155.18C309.411 154.7 309.791 154.287 310.244 153.94C310.697 153.58 311.231 153.3 311.844 153.1C312.457 152.9 313.137 152.8 313.884 152.8C314.751 152.8 315.511 152.933 316.164 153.2C316.831 153.467 317.384 153.82 317.824 154.26C318.264 154.7 318.597 155.22 318.824 155.82C319.051 156.42 319.164 157.047 319.164 157.7C319.164 158.913 318.771 159.927 317.984 160.74C317.211 161.54 316.204 162.06 314.964 162.3V163.7ZM314.964 168H312.364V165.4H314.964V168Z" fill="#1D1D1D"/>
<path d="M766 163.5L772 157.5L778 163.5" stroke="#1D1D1D" stroke-width="2" stroke-linecap="square"/>
<rect opacity="0.01" x="24" y="172" width="1" height="16" fill="white"/>
<path d="M31.084 204H29.572L26.772 195.152V204H25.344V193.85H27.738L30.328 202.306L32.918 193.85H35.312V204H33.884V195.152L31.084 204ZM40.4542 204H37.7382V196.468H39.0122V199.128H40.4682C42.4282 199.128 43.2822 199.898 43.2822 201.508C43.2822 203.37 42.1762 204 40.4542 204ZM39.0122 200.234V202.894H40.3422C41.4622 202.894 42.0362 202.53 42.0362 201.508C42.0362 200.5 41.4762 200.234 40.3002 200.234H39.0122ZM45.8022 204H44.5282V196.468H45.8022V204ZM50.839 206.45V205.386H51.357C52.197 205.386 52.603 205.33 52.939 204.154L52.995 204L50.279 196.468H51.693L53.611 202.278L55.473 196.468H56.803L54.115 204.322C53.555 205.946 53.191 206.45 51.497 206.45H50.839ZM65.3232 200.024L68.0812 204H66.5552L64.2872 200.668H63.1812V204H61.9072V200.668H60.8432L58.5612 204H57.0072L59.7792 200.066L57.2592 196.468H58.7432L60.8432 199.562H61.9072V196.468H63.1812V199.562H64.2452L66.3592 196.468H67.8292L65.3232 200.024ZM75.5994 200.654H69.8034C69.8454 202.278 71.0214 203.062 72.1274 203.062C73.2474 203.062 73.8634 202.558 74.1854 201.816H75.5014C75.1654 203.104 73.9614 204.182 72.1274 204.182C69.7474 204.182 68.4314 202.474 68.4314 200.248C68.4314 197.854 70.0274 196.342 72.0854 196.342C74.3954 196.342 75.7534 198.26 75.5994 200.654ZM72.0854 197.434C70.9654 197.434 69.9294 198.05 69.8174 199.562H74.2554C74.2134 198.498 73.4434 197.434 72.0854 197.434ZM80.4901 196.468H83.7661C85.2781 196.468 86.5101 196.86 86.5101 198.386C86.5101 199.184 86.1601 199.744 85.4601 200.038C86.2441 200.262 86.8181 200.794 86.8181 201.802C86.8181 203.37 85.6001 204 83.9901 204H80.4901V196.468ZM81.7641 199.632H83.6821C84.6201 199.632 85.1801 199.38 85.1801 198.526C85.1801 197.742 84.5921 197.574 83.6401 197.574H81.7641V199.632ZM81.7641 200.682V202.894H83.7941C84.9141 202.894 85.4881 202.572 85.4881 201.788C85.4881 200.948 84.9281 200.682 83.7521 200.682H81.7641ZM93.1544 204L90.5644 200.654H89.5984V204H88.3104V196.468H89.5984V199.548H90.5364L92.9304 196.468H94.4424L91.6004 200.024L94.7364 204H93.1544ZM101.903 196.468V204H100.629V197.574H98.095L97.983 199.394C97.801 202.432 97.143 204 95.393 204H95.155V202.894H95.295C95.967 202.894 96.611 202.166 96.765 199.044L96.877 196.468H101.903ZM110.248 196.342C111.998 196.342 113.86 197.532 113.86 200.262C113.86 202.992 111.998 204.182 110.248 204.182C108.68 204.182 107.014 203.118 106.832 200.71H105.334V204H104.06V196.468H105.334V199.604H106.86C107.126 197.322 108.708 196.342 110.248 196.342ZM110.248 203.062C111.41 203.062 112.502 202.194 112.502 200.262C112.502 198.246 111.41 197.462 110.248 197.462C109.198 197.462 108.176 198.204 108.176 200.262C108.176 202.278 109.198 203.062 110.248 203.062ZM121.007 204H119.733V200.948C118.851 201.158 118.179 201.256 117.493 201.256C115.911 201.256 115.085 200.556 115.085 198.918V196.468H116.359V198.652C116.359 199.772 116.891 200.15 117.955 200.15C118.445 200.15 119.033 200.066 119.733 199.898V196.468H121.007V204ZM128.326 204V198.316L124.434 204H123.16V196.468H124.434V202.152L128.326 196.468H129.6V204H128.326ZM137.71 196.468V204H136.436V197.574H133.902L133.79 199.394C133.608 202.432 132.95 204 131.2 204H130.962V202.894H131.102C131.774 202.894 132.418 202.166 132.572 199.044L132.684 196.468H137.71ZM145.033 204V198.316L141.141 204H139.867V196.468H141.141V202.152L145.033 196.468H146.307V204H145.033ZM151.789 196.468H155.065C156.577 196.468 157.809 196.86 157.809 198.386C157.809 199.184 157.459 199.744 156.759 200.038C157.543 200.262 158.117 200.794 158.117 201.802C158.117 203.37 156.899 204 155.289 204H151.789V196.468ZM153.063 199.632H154.981C155.919 199.632 156.479 199.38 156.479 198.526C156.479 197.742 155.891 197.574 154.939 197.574H153.063V199.632ZM153.063 200.682V202.894H155.093C156.213 202.894 156.787 202.572 156.787 201.788C156.787 200.948 156.227 200.682 155.051 200.682H153.063ZM165.984 196.342C167.832 196.342 168.952 197.7 169.134 198.988H167.846C167.664 198.092 166.894 197.462 165.9 197.462C164.78 197.462 163.73 198.344 163.73 200.234C163.73 202.138 164.78 203.062 165.9 203.062C166.978 203.062 167.72 202.334 167.902 201.55H169.218C168.952 202.964 167.622 204.182 165.858 204.182C163.688 204.182 162.344 202.544 162.344 200.248C162.344 198.008 163.758 196.342 165.984 196.342ZM176.036 197.574H173.46V204H172.186V197.574H169.61V196.468H176.036V197.574ZM177.88 200.262C177.88 202.278 178.972 203.062 180.134 203.062C181.296 203.062 182.388 202.194 182.388 200.262C182.388 198.246 181.296 197.462 180.134 197.462C178.972 197.462 177.88 198.204 177.88 200.262ZM180.134 196.342C181.884 196.342 183.746 197.532 183.746 200.262C183.746 202.992 181.884 204.182 180.134 204.182C178.384 204.182 176.522 202.992 176.522 200.262C176.522 197.532 178.384 196.342 180.134 196.342ZM190.506 204V198.316L186.614 204H185.34V196.468H186.614V202.152L190.506 196.468H191.78V204H190.506ZM202.171 196.468V204H200.925V197.952L198.503 204H197.593L195.185 198.036V204H193.939V196.468H195.759L198.097 202.264L200.351 196.468H202.171ZM205.128 200.262C205.128 202.278 206.22 203.062 207.382 203.062C208.544 203.062 209.636 202.194 209.636 200.262C209.636 198.246 208.544 197.462 207.382 197.462C206.22 197.462 205.128 198.204 205.128 200.262ZM207.382 196.342C209.132 196.342 210.994 197.532 210.994 200.262C210.994 202.992 209.132 204.182 207.382 204.182C205.632 204.182 203.77 202.992 203.77 200.262C203.77 197.532 205.632 196.342 207.382 196.342ZM215.749 196.342C217.597 196.342 218.717 197.7 218.899 198.988H217.611C217.429 198.092 216.659 197.462 215.665 197.462C214.545 197.462 213.495 198.344 213.495 200.234C213.495 202.138 214.545 203.062 215.665 203.062C216.743 203.062 217.485 202.334 217.667 201.55H218.983C218.717 202.964 217.387 204.182 215.623 204.182C213.453 204.182 212.109 202.544 212.109 200.248C212.109 198.008 213.523 196.342 215.749 196.342ZM225.802 197.574H223.226V204H221.952V197.574H219.376V196.468H225.802V197.574ZM228.368 199.128H230.16C232.134 199.128 232.974 199.898 232.974 201.508C232.974 203.37 231.882 204 230.146 204H227.094V196.468H228.368V199.128ZM228.368 202.894H230.034C231.154 202.894 231.728 202.516 231.728 201.508C231.728 200.514 231.14 200.234 230.006 200.234H228.368V202.894ZM237.086 201.48H238.36C238.57 202.376 239.312 203.062 240.488 203.062C241.594 203.062 242.63 202.32 242.742 200.752H239.424V199.646H242.742C242.588 198.246 241.692 197.42 240.474 197.42C239.424 197.42 238.682 198.008 238.416 199.016H237.156C237.492 197.238 238.878 196.3 240.516 196.3C242.728 196.3 244.086 197.896 244.086 200.248C244.086 202.586 242.84 204.182 240.558 204.182C238.92 204.182 237.506 203.328 237.086 201.48ZM250.972 197.574H248.396V204H247.122V197.574H244.546V196.468H250.972V197.574ZM252.815 200.262C252.815 202.278 253.907 203.062 255.069 203.062C256.231 203.062 257.323 202.194 257.323 200.262C257.323 198.246 256.231 197.462 255.069 197.462C253.907 197.462 252.815 198.204 252.815 200.262ZM255.069 196.342C256.819 196.342 258.681 197.532 258.681 200.262C258.681 202.992 256.819 204.182 255.069 204.182C253.319 204.182 251.457 202.992 251.457 200.262C251.457 197.532 253.319 196.342 255.069 196.342ZM265.077 197.574H261.549V204H260.275V196.468H265.077V197.574ZM266.843 200.262C266.843 202.278 267.935 203.062 269.097 203.062C270.259 203.062 271.351 202.194 271.351 200.262C271.351 198.246 270.259 197.462 269.097 197.462C267.935 197.462 266.843 198.204 266.843 200.262ZM269.097 196.342C270.847 196.342 272.709 197.532 272.709 200.262C272.709 202.992 270.847 204.182 269.097 204.182C267.347 204.182 265.485 202.992 265.485 200.262C265.485 197.532 267.347 196.342 269.097 196.342ZM283.183 197.574H280.607V204H279.333V197.574H276.757V196.468H283.183V197.574ZM284.026 206.45V205.386H284.544C285.384 205.386 285.79 205.33 286.126 204.154L286.182 204L283.466 196.468H284.88L286.798 202.278L288.66 196.468H289.99L287.302 204.322C286.742 205.946 286.378 206.45 284.684 206.45H284.026ZM291.133 196.468H292.407V197.658C292.869 196.86 293.653 196.342 294.871 196.342C296.607 196.342 298.091 197.798 298.091 200.262C298.091 202.768 296.607 204.182 294.871 204.182C293.653 204.182 292.869 203.664 292.407 202.866V206.45H291.133V196.468ZM292.351 200.262C292.351 202.25 293.415 203.09 294.549 203.09C295.851 203.09 296.705 202.068 296.705 200.262C296.705 198.456 295.851 197.434 294.549 197.434C293.415 197.434 292.351 198.274 292.351 200.262ZM304.34 200.85V200.374C302.03 200.598 300.56 200.948 300.56 201.984C300.56 202.698 301.106 203.174 302.016 203.174C303.206 203.174 304.34 202.628 304.34 200.85ZM301.736 204.182C300.322 204.182 299.146 203.398 299.146 202.012C299.146 200.234 301.162 199.702 304.242 199.366V199.184C304.242 197.798 303.486 197.35 302.534 197.35C301.47 197.35 300.868 197.91 300.812 198.848H299.496C299.608 197.224 301.064 196.314 302.52 196.314C304.606 196.314 305.53 197.294 305.516 199.422L305.502 201.158C305.488 202.432 305.544 203.286 305.698 204H304.41C304.368 203.72 304.326 203.412 304.312 202.964C303.85 203.748 303.08 204.182 301.736 204.182ZM308.926 198.078H307.316V196.468H308.926V198.078ZM308.926 204H307.316V202.39H308.926V204Z" fill="#1D1D1D"/>
<rect opacity="0.01" x="24" y="210" width="1" height="8" fill="white"/>
<rect x="24" y="218" width="88" height="32" rx="8" fill="#FFC300"/>
<path d="M40.022 228.85V230.334H34.968V239H33.19V228.85H40.022ZM44.2172 236.032V235.458C41.8372 235.682 40.8712 236.032 40.8712 236.886C40.8712 237.544 41.4172 237.936 42.2572 237.936C43.4892 237.936 44.2172 237.32 44.2172 236.032ZM41.8932 239.182C40.2552 239.182 39.1072 238.3 39.1072 236.928C39.1072 235.038 41.4312 234.59 44.1752 234.296V234.156C44.1752 232.868 43.4472 232.476 42.6072 232.476C41.7672 232.476 41.1372 232.924 41.0952 233.834H39.4572C39.5692 232.308 40.8432 231.244 42.6632 231.244C44.4692 231.244 45.8832 232.07 45.8412 234.478C45.8412 234.842 45.8132 235.738 45.8132 236.424C45.8132 237.376 45.8832 238.37 46.0372 239H44.5112C44.4552 238.678 44.4132 238.496 44.3712 237.978C43.8812 238.804 43.0132 239.182 41.8932 239.182ZM49.1219 235.234C49.1219 236.97 49.9759 237.824 51.0679 237.824C52.2439 237.824 52.9299 236.844 52.9299 235.234C52.9299 233.652 52.2439 232.658 51.0679 232.658C49.9759 232.658 49.1219 233.498 49.1219 235.234ZM47.5259 231.468H49.1919V232.476C49.6399 231.734 50.4239 231.3 51.4319 231.3C53.2799 231.3 54.6659 232.826 54.6659 235.234C54.6659 237.656 53.2799 239.182 51.4319 239.182C50.4239 239.182 49.6399 238.748 49.1919 238.006V241.45H47.5259V231.468ZM62.7918 239H61.1258V235.794H57.7658V239H56.0998V231.468H57.7658V234.478H61.1258V231.468H62.7918V239ZM71.7248 231.468V239H70.0588V233.778L66.4748 239H64.8088V231.468H66.4748V236.718L70.0588 231.468H71.7248ZM79.6058 232.784H77.0438V239H75.3778V232.784H72.8018V231.468H79.6058V232.784ZM81.2805 241.45H80.5245V240.176H81.1545C81.8825 240.176 82.1905 240.12 82.5265 239.14L82.6105 238.958L79.8805 231.468H81.7005L83.4085 236.872L85.1165 231.468H86.8245L84.1785 238.986C83.4645 240.932 82.9745 241.45 81.2805 241.45ZM89.4266 235.234C89.4266 236.97 90.2806 237.824 91.3726 237.824C92.5486 237.824 93.2346 236.844 93.2346 235.234C93.2346 233.652 92.5486 232.658 91.3726 232.658C90.2806 232.658 89.4266 233.498 89.4266 235.234ZM87.8306 231.468H89.4966V232.476C89.9446 231.734 90.7286 231.3 91.7366 231.3C93.5846 231.3 94.9706 232.826 94.9706 235.234C94.9706 237.656 93.5846 239.182 91.7366 239.182C90.7286 239.182 89.9446 238.748 89.4966 238.006V241.45H87.8306V231.468ZM100.928 236.032V235.458C98.5481 235.682 97.5821 236.032 97.5821 236.886C97.5821 237.544 98.1281 237.936 98.9681 237.936C100.2 237.936 100.928 237.32 100.928 236.032ZM98.6041 239.182C96.9661 239.182 95.8181 238.3 95.8181 236.928C95.8181 235.038 98.1421 234.59 100.886 234.296V234.156C100.886 232.868 100.158 232.476 99.3181 232.476C98.4781 232.476 97.8481 232.924 97.8061 233.834H96.1681C96.2801 232.308 97.5541 231.244 99.3741 231.244C101.18 231.244 102.594 232.07 102.552 234.478C102.552 234.842 102.524 235.738 102.524 236.424C102.524 237.376 102.594 238.37 102.748 239H101.222C101.166 238.678 101.124 238.496 101.082 237.978C100.592 238.804 99.7241 239.182 98.6041 239.182Z" fill="#1D1D1D"/>
<rect x="120" y="218" width="162" height="32" rx="8" fill="#FFC300"/>
<path d="M134.79 228.29V229.396C137.576 229.578 139.256 231.244 139.256 233.848C139.256 236.242 137.576 238.034 134.79 238.188V239.392H133.012V238.188C130.212 238.034 128.56 236.298 128.56 233.834C128.56 231.3 130.212 229.578 133.012 229.396V228.29H134.79ZM133.012 236.76V230.824C131.458 231.006 130.38 231.986 130.38 233.848C130.38 235.584 131.458 236.606 133.012 236.76ZM134.79 230.824V236.76C136.316 236.606 137.422 235.584 137.422 233.848C137.422 231.986 136.316 231.006 134.79 230.824ZM141.969 235.248C141.969 236.984 142.893 237.824 143.957 237.824C145.021 237.824 145.945 236.984 145.945 235.248C145.945 233.512 145.021 232.658 143.957 232.658C142.893 232.658 141.969 233.512 141.969 235.248ZM143.957 231.3C145.791 231.3 147.667 232.532 147.667 235.248C147.667 237.978 145.791 239.182 143.957 239.182C142.123 239.182 140.247 237.978 140.247 235.248C140.247 232.532 142.123 231.3 143.957 231.3ZM154.866 232.784H152.304V239H150.638V232.784H148.062V231.468H154.866V232.784ZM157.021 235.248C157.021 236.984 157.945 237.824 159.009 237.824C160.073 237.824 160.997 236.984 160.997 235.248C160.997 233.512 160.073 232.658 159.009 232.658C157.945 232.658 157.021 233.512 157.021 235.248ZM159.009 231.3C160.843 231.3 162.719 232.532 162.719 235.248C162.719 237.978 160.843 239.182 159.009 239.182C157.175 239.182 155.299 237.978 155.299 235.248C155.299 232.532 157.175 231.3 159.009 231.3ZM170.493 231.3C172.145 231.3 173.573 232.378 173.867 234.044H172.243C172.089 233.246 171.403 232.686 170.493 232.686C169.443 232.686 168.519 233.456 168.519 235.234C168.519 237.026 169.471 237.796 170.451 237.796C171.277 237.796 172.075 237.432 172.299 236.424H173.923C173.587 238.188 172.033 239.182 170.423 239.182C168.239 239.182 166.797 237.488 166.797 235.248C166.797 233.008 168.239 231.3 170.493 231.3ZM183.106 236.032V235.458C180.726 235.682 179.76 236.032 179.76 236.886C179.76 237.544 180.306 237.936 181.146 237.936C182.378 237.936 183.106 237.32 183.106 236.032ZM180.782 239.182C179.144 239.182 177.996 238.3 177.996 236.928C177.996 235.038 180.32 234.59 183.064 234.296V234.156C183.064 232.868 182.336 232.476 181.496 232.476C180.656 232.476 180.026 232.924 179.984 233.834H178.346C178.458 232.308 179.732 231.244 181.552 231.244C183.358 231.244 184.772 232.07 184.73 234.478C184.73 234.842 184.702 235.738 184.702 236.424C184.702 237.376 184.772 238.37 184.926 239H183.4C183.344 238.678 183.302 238.496 183.26 237.978C182.77 238.804 181.902 239.182 180.782 239.182ZM193.177 239H191.511V235.794H188.151V239H186.485V231.468H188.151V234.478H191.511V231.468H193.177V239ZM202.11 231.468V239H200.444V233.778L196.86 239H195.194V231.468H196.86V236.718L200.444 231.468H202.11ZM212.917 231.468V239H211.307V233.036L209.095 239H207.807L205.595 233.064V239H203.985V231.468H206.505L208.479 236.844L210.397 231.468H212.917ZM219.664 236.032V235.458C217.284 235.682 216.318 236.032 216.318 236.886C216.318 237.544 216.864 237.936 217.704 237.936C218.936 237.936 219.664 237.32 219.664 236.032ZM217.34 239.182C215.702 239.182 214.554 238.3 214.554 236.928C214.554 235.038 216.878 234.59 219.622 234.296V234.156C219.622 232.868 218.894 232.476 218.054 232.476C217.214 232.476 216.584 232.924 216.542 233.834H214.904C215.016 232.308 216.29 231.244 218.11 231.244C219.916 231.244 221.33 232.07 221.288 234.478C221.288 234.842 221.26 235.738 221.26 236.424C221.26 237.376 221.33 238.37 221.484 239H219.958C219.902 238.678 219.86 238.496 219.818 237.978C219.328 238.804 218.46 239.182 217.34 239.182ZM228.94 232.784H226.378V239H224.712V232.784H222.136V231.468H228.94V232.784ZM231.095 235.248C231.095 236.984 232.019 237.824 233.083 237.824C234.147 237.824 235.071 236.984 235.071 235.248C235.071 233.512 234.147 232.658 233.083 232.658C232.019 232.658 231.095 233.512 231.095 235.248ZM233.083 231.3C234.917 231.3 236.793 232.532 236.793 235.248C236.793 237.978 234.917 239.182 233.083 239.182C231.249 239.182 229.373 237.978 229.373 235.248C229.373 232.532 231.249 231.3 233.083 231.3ZM239.759 235.234C239.759 236.97 240.613 237.824 241.705 237.824C242.881 237.824 243.567 236.844 243.567 235.234C243.567 233.652 242.881 232.658 241.705 232.658C240.613 232.658 239.759 233.498 239.759 235.234ZM238.163 231.468H239.829V232.476C240.277 231.734 241.061 231.3 242.069 231.3C243.917 231.3 245.303 232.826 245.303 235.234C245.303 237.656 243.917 239.182 242.069 239.182C241.061 239.182 240.277 238.748 239.829 238.006V241.45H238.163V231.468ZM251.26 236.032V235.458C248.88 235.682 247.914 236.032 247.914 236.886C247.914 237.544 248.46 237.936 249.3 237.936C250.532 237.936 251.26 237.32 251.26 236.032ZM248.936 239.182C247.298 239.182 246.15 238.3 246.15 236.928C246.15 235.038 248.474 234.59 251.218 234.296V234.156C251.218 232.868 250.49 232.476 249.65 232.476C248.81 232.476 248.18 232.924 248.138 233.834H246.5C246.612 232.308 247.886 231.244 249.706 231.244C251.512 231.244 252.926 232.07 252.884 234.478C252.884 234.842 252.856 235.738 252.856 236.424C252.856 237.376 252.926 238.37 253.08 239H251.554C251.498 238.678 251.456 238.496 251.414 237.978C250.924 238.804 250.056 239.182 248.936 239.182ZM263.571 231.468V239H261.961V233.036L259.749 239H258.461L256.249 233.064V239H254.639V231.468H257.159L259.133 236.844L261.051 231.468H263.571ZM272.643 231.468V239H270.977V233.778L267.393 239H265.727V231.468H267.393V236.718L270.977 231.468H272.643Z" fill="#1D1D1D"/>
<rect x="290" y="218" width="164" height="32" rx="8" fill="#FFC300"/>
<path d="M307.338 239H305.56V230.334H300.968V239H299.19V228.85H307.338V239ZM310.683 235.248C310.683 236.984 311.607 237.824 312.671 237.824C313.735 237.824 314.659 236.984 314.659 235.248C314.659 233.512 313.735 232.658 312.671 232.658C311.607 232.658 310.683 233.512 310.683 235.248ZM312.671 231.3C314.505 231.3 316.381 232.532 316.381 235.248C316.381 237.978 314.505 239.182 312.671 239.182C310.837 239.182 308.961 237.978 308.961 235.248C308.961 232.532 310.837 231.3 312.671 231.3ZM324.637 235.71H319.023C319.135 237.11 320.115 237.796 321.067 237.796C321.949 237.796 322.621 237.46 322.915 236.746H324.553C324.217 237.95 323.069 239.182 321.137 239.182C318.715 239.182 317.329 237.348 317.329 235.178C317.329 232.91 318.883 231.3 321.025 231.3C323.335 231.3 324.791 233.19 324.637 235.71ZM321.025 232.602C320.241 232.602 319.177 233.078 319.023 234.492H322.943C322.901 233.316 322.005 232.602 321.025 232.602ZM330.74 235.024C331.566 235.262 332.07 235.78 332.07 236.788C332.07 238.454 330.614 239.182 328.724 239.182C327.072 239.182 325.602 238.468 325.336 236.55H326.932C327.086 237.404 327.716 237.95 328.78 237.95C329.844 237.95 330.404 237.53 330.404 236.872C330.404 236.088 329.872 235.794 328.92 235.794H327.688V234.492H328.836C329.662 234.492 330.18 234.212 330.18 233.554C330.18 232.868 329.774 232.518 328.836 232.518C327.898 232.518 327.142 232.966 327.016 233.904H325.42C325.686 232.126 327.198 231.272 328.864 231.272C330.502 231.272 331.832 231.93 331.832 233.442C331.832 234.184 331.468 234.702 330.74 235.024ZM341.051 237.698V240.778H339.539V239H334.037V240.778H332.525V237.698H332.931C333.771 237.698 334.205 236.606 334.331 233.862L334.443 231.468H339.931V237.698H341.051ZM338.265 237.698V232.784H335.913L335.843 234.058C335.731 236.06 335.465 237.124 334.863 237.698H338.265ZM347.249 239L344.771 235.71H343.987V239H342.307V231.468H343.987V234.394H344.897L347.067 231.468H348.971L346.129 235.122L349.167 239H347.249ZM354.664 236.032V235.458C352.284 235.682 351.318 236.032 351.318 236.886C351.318 237.544 351.864 237.936 352.704 237.936C353.936 237.936 354.664 237.32 354.664 236.032ZM352.34 239.182C350.702 239.182 349.554 238.3 349.554 236.928C349.554 235.038 351.878 234.59 354.622 234.296V234.156C354.622 232.868 353.894 232.476 353.054 232.476C352.214 232.476 351.584 232.924 351.542 233.834H349.904C350.016 232.308 351.29 231.244 353.11 231.244C354.916 231.244 356.33 232.07 356.288 234.478C356.288 234.842 356.26 235.738 356.26 236.424C356.26 237.376 356.33 238.37 356.484 239H354.958C354.902 238.678 354.86 238.496 354.818 237.978C354.328 238.804 353.46 239.182 352.34 239.182ZM367.962 239H366.296V235.794H362.936V239H361.27V231.468H362.936V234.478H366.296V231.468H367.962V239ZM374.571 236.032V235.458C372.191 235.682 371.225 236.032 371.225 236.886C371.225 237.544 371.771 237.936 372.611 237.936C373.843 237.936 374.571 237.32 374.571 236.032ZM372.247 239.182C370.609 239.182 369.461 238.3 369.461 236.928C369.461 235.038 371.785 234.59 374.529 234.296V234.156C374.529 232.868 373.801 232.476 372.961 232.476C372.121 232.476 371.491 232.924 371.449 233.834H369.811C369.923 232.308 371.197 231.244 373.017 231.244C374.823 231.244 376.237 232.07 376.195 234.478C376.195 234.842 376.167 235.738 376.167 236.424C376.167 237.376 376.237 238.37 376.391 239H374.865C374.809 238.678 374.767 238.496 374.725 237.978C374.235 238.804 373.367 239.182 372.247 239.182ZM387.728 231.468V239H386.062V232.784H382.842V239H381.176V231.468H387.728ZM394.34 236.032V235.458C391.96 235.682 390.994 236.032 390.994 236.886C390.994 237.544 391.54 237.936 392.38 237.936C393.612 237.936 394.34 237.32 394.34 236.032ZM392.016 239.182C390.378 239.182 389.23 238.3 389.23 236.928C389.23 235.038 391.554 234.59 394.298 234.296V234.156C394.298 232.868 393.57 232.476 392.73 232.476C391.89 232.476 391.26 232.924 391.218 233.834H389.58C389.692 232.308 390.966 231.244 392.786 231.244C394.592 231.244 396.006 232.07 395.964 234.478C395.964 234.842 395.936 235.738 395.936 236.424C395.936 237.376 396.006 238.37 396.16 239H394.634C394.578 238.678 394.536 238.496 394.494 237.978C394.004 238.804 393.136 239.182 392.016 239.182ZM399.245 235.234C399.245 236.97 400.099 237.824 401.191 237.824C402.367 237.824 403.053 236.844 403.053 235.234C403.053 233.652 402.367 232.658 401.191 232.658C400.099 232.658 399.245 233.498 399.245 235.234ZM397.649 231.468H399.315V232.476C399.763 231.734 400.547 231.3 401.555 231.3C403.403 231.3 404.789 232.826 404.789 235.234C404.789 237.656 403.403 239.182 401.555 239.182C400.547 239.182 399.763 238.748 399.315 238.006V241.45H397.649V231.468ZM407.453 235.248C407.453 236.984 408.377 237.824 409.441 237.824C410.505 237.824 411.429 236.984 411.429 235.248C411.429 233.512 410.505 232.658 409.441 232.658C408.377 232.658 407.453 233.512 407.453 235.248ZM409.441 231.3C411.275 231.3 413.151 232.532 413.151 235.248C413.151 237.978 411.275 239.182 409.441 239.182C407.607 239.182 405.731 237.978 405.731 235.248C405.731 232.532 407.607 231.3 409.441 231.3ZM420.714 231.468L418.138 235.08L420.882 239H418.922L417.144 236.466L415.338 239H413.504L416.248 235.178L413.658 231.468H415.618L417.228 233.792L418.894 231.468H420.714ZM422.765 235.248C422.765 236.984 423.689 237.824 424.753 237.824C425.817 237.824 426.741 236.984 426.741 235.248C426.741 233.512 425.817 232.658 424.753 232.658C423.689 232.658 422.765 233.512 422.765 235.248ZM424.753 231.3C426.587 231.3 428.463 232.532 428.463 235.248C428.463 237.978 426.587 239.182 424.753 239.182C422.919 239.182 421.043 237.978 421.043 235.248C421.043 232.532 422.919 231.3 424.753 231.3ZM437.396 237.698V240.778H435.884V239H430.382V240.778H428.87V237.698H429.276C430.116 237.698 430.55 236.606 430.676 233.862L430.788 231.468H436.276V237.698H437.396ZM434.61 237.698V232.784H432.258L432.188 234.058C432.076 236.06 431.81 237.124 431.208 237.698H434.61ZM445.277 235.71H439.663C439.775 237.11 440.755 237.796 441.707 237.796C442.589 237.796 443.261 237.46 443.555 236.746H445.193C444.857 237.95 443.709 239.182 441.777 239.182C439.355 239.182 437.969 237.348 437.969 235.178C437.969 232.91 439.523 231.3 441.665 231.3C443.975 231.3 445.431 233.19 445.277 235.71ZM441.665 232.602C440.881 232.602 439.817 233.078 439.663 234.492H443.583C443.541 233.316 442.645 232.602 441.665 232.602Z" fill="#1D1D1D"/>
<rect opacity="0.01" x="24" y="250" width="1" height="16" fill="white"/>
<path opacity="0.5" d="M26.17 277.918C26.17 280.536 27.626 281.978 29.474 281.978C31.322 281.978 32.778 280.536 32.778 277.918C32.778 275.3 31.322 273.872 29.474 273.872C27.626 273.872 26.17 275.3 26.17 277.918ZM34.234 277.918C34.234 280.984 32.4 283.182 29.474 283.182C26.548 283.182 24.714 280.984 24.714 277.918C24.714 274.852 26.548 272.668 29.474 272.668C32.4 272.668 34.234 274.852 34.234 277.918ZM42.2312 275.468V283H40.9572V276.574H37.3032V283H36.0292V275.468H42.2312ZM50.3327 275.468V283H49.0587V276.574H46.5247L46.4127 278.394C46.2307 281.432 45.5727 283 43.8227 283H43.5847V281.894H43.7247C44.3967 281.894 45.0407 281.166 45.1947 278.044L45.3067 275.468H50.3327ZM57.1661 279.85V279.374C54.8561 279.598 53.3861 279.948 53.3861 280.984C53.3861 281.698 53.9321 282.174 54.8421 282.174C56.0321 282.174 57.1661 281.628 57.1661 279.85ZM54.5621 283.182C53.1481 283.182 51.9721 282.398 51.9721 281.012C51.9721 279.234 53.9881 278.702 57.0681 278.366V278.184C57.0681 276.798 56.3121 276.35 55.3601 276.35C54.2961 276.35 53.6941 276.91 53.6381 277.848H52.3221C52.4341 276.224 53.8901 275.314 55.3461 275.314C57.4321 275.314 58.3561 276.294 58.3421 278.422L58.3281 280.158C58.3141 281.432 58.3701 282.286 58.5241 283H57.2361C57.1941 282.72 57.1521 282.412 57.1381 281.964C56.6761 282.748 55.9061 283.182 54.5621 283.182ZM65.8544 283H64.5804V279.948C63.6984 280.158 63.0264 280.256 62.3404 280.256C60.7584 280.256 59.9324 279.556 59.9324 277.918V275.468H61.2064V277.652C61.2064 278.772 61.7384 279.15 62.8024 279.15C63.2924 279.15 63.8804 279.066 64.5804 278.898V275.468H65.8544V283ZM73.1737 283V277.316L69.2817 283H68.0077V275.468H69.2817V281.152L73.1737 275.468H74.4477V283H73.1737ZM76.6073 275.468H79.8833C81.3953 275.468 82.6273 275.86 82.6273 277.386C82.6273 278.184 82.2773 278.744 81.5773 279.038C82.3613 279.262 82.9353 279.794 82.9353 280.802C82.9353 282.37 81.7173 283 80.1073 283H76.6073V275.468ZM77.8813 278.632H79.7993C80.7373 278.632 81.2973 278.38 81.2973 277.526C81.2973 276.742 80.7093 276.574 79.7573 276.574H77.8813V278.632ZM77.8813 279.682V281.894H79.9113C81.0313 281.894 81.6053 281.572 81.6053 280.788C81.6053 279.948 81.0453 279.682 79.8693 279.682H77.8813ZM89.1036 279.85V279.374C86.7936 279.598 85.3236 279.948 85.3236 280.984C85.3236 281.698 85.8696 282.174 86.7796 282.174C87.9696 282.174 89.1036 281.628 89.1036 279.85ZM86.4996 283.182C85.0856 283.182 83.9096 282.398 83.9096 281.012C83.9096 279.234 85.9256 278.702 89.0056 278.366V278.184C89.0056 276.798 88.2496 276.35 87.2976 276.35C86.2336 276.35 85.6316 276.91 85.5756 277.848H84.2596C84.3716 276.224 85.8276 275.314 87.2836 275.314C89.3696 275.314 90.2936 276.294 90.2796 278.422L90.2656 280.158C90.2516 281.432 90.3076 282.286 90.4616 283H89.1736C89.1316 282.72 89.0896 282.412 89.0756 281.964C88.6136 282.748 87.8436 283.182 86.4996 283.182ZM98.8279 279.654H93.0319C93.0739 281.278 94.2499 282.062 95.3559 282.062C96.4759 282.062 97.0919 281.558 97.4139 280.816H98.7299C98.3939 282.104 97.1899 283.182 95.3559 283.182C92.9759 283.182 91.6599 281.474 91.6599 279.248C91.6599 276.854 93.2559 275.342 95.3139 275.342C97.6239 275.342 98.9819 277.26 98.8279 279.654ZM95.3139 276.434C94.1939 276.434 93.1579 277.05 93.0459 278.562H97.4839C97.4419 277.498 96.6719 276.434 95.3139 276.434ZM105.64 276.574H103.064V283H101.79V276.574H99.2139V275.468H105.64V276.574ZM109.737 275.342C111.585 275.342 112.705 276.7 112.887 277.988H111.599C111.417 277.092 110.647 276.462 109.653 276.462C108.533 276.462 107.483 277.344 107.483 279.234C107.483 281.138 108.533 282.062 109.653 282.062C110.731 282.062 111.473 281.334 111.655 280.55H112.971C112.705 281.964 111.375 283.182 109.611 283.182C107.441 283.182 106.097 281.544 106.097 279.248C106.097 277.008 107.511 275.342 109.737 275.342ZM119.845 275.468V283H118.571V280.326H117.241C117.171 280.326 117.101 280.326 117.031 280.312L114.987 283H113.405L115.687 279.962C114.735 279.64 114.091 278.912 114.091 277.792C114.091 276.238 115.155 275.468 116.891 275.468H119.845ZM118.571 276.574H116.961C116.023 276.574 115.393 276.966 115.393 277.876C115.393 278.898 116.191 279.22 117.073 279.22H118.571V276.574ZM126.118 279.262C126.118 281.278 127.21 282.062 128.372 282.062C129.534 282.062 130.626 281.194 130.626 279.262C130.626 277.246 129.534 276.462 128.372 276.462C127.21 276.462 126.118 277.204 126.118 279.262ZM128.372 275.342C130.122 275.342 131.984 276.532 131.984 279.262C131.984 281.992 130.122 283.182 128.372 283.182C126.622 283.182 124.76 281.992 124.76 279.262C124.76 276.532 126.622 275.342 128.372 275.342ZM138.89 276.574H136.314V283H135.04V276.574H132.464V275.468H138.89V276.574ZM146.663 281.894V284.666H145.431V283H139.915V284.666H138.683V281.894H139.019C139.873 281.894 140.321 280.774 140.433 277.89L140.531 275.468H145.613V281.894H146.663ZM144.339 281.894V276.574H141.763L141.693 278.016C141.581 280.242 141.259 281.334 140.671 281.894H144.339ZM154.527 279.654H148.731C148.773 281.278 149.949 282.062 151.055 282.062C152.175 282.062 152.791 281.558 153.113 280.816H154.429C154.093 282.104 152.889 283.182 151.055 283.182C148.675 283.182 147.359 281.474 147.359 279.248C147.359 276.854 148.955 275.342 151.013 275.342C153.323 275.342 154.681 277.26 154.527 279.654ZM151.013 276.434C149.893 276.434 148.857 277.05 148.745 278.562H153.183C153.141 277.498 152.371 276.434 151.013 276.434ZM162.046 275.468V283H160.772V276.574H158.238L158.126 278.394C157.944 281.432 157.286 283 155.536 283H155.298V281.894H155.438C156.11 281.894 156.754 281.166 156.908 278.044L157.02 275.468H162.046ZM165.477 278.128H167.269C169.243 278.128 170.083 278.898 170.083 280.508C170.083 282.37 168.991 283 167.255 283H164.203V275.468H165.477V278.128ZM165.477 281.894H167.143C168.263 281.894 168.837 281.516 168.837 280.508C168.837 279.514 168.249 279.234 167.115 279.234H165.477V281.894ZM177.789 283H176.515V279.71H172.791V283H171.517V275.468H172.791V278.604H176.515V275.468H177.789V283ZM180.737 279.262C180.737 281.278 181.829 282.062 182.991 282.062C184.153 282.062 185.245 281.194 185.245 279.262C185.245 277.246 184.153 276.462 182.991 276.462C181.829 276.462 180.737 277.204 180.737 279.262ZM182.991 275.342C184.741 275.342 186.603 276.532 186.603 279.262C186.603 281.992 184.741 283.182 182.991 283.182C181.241 283.182 179.379 281.992 179.379 279.262C179.379 276.532 181.241 275.342 182.991 275.342ZM189.639 277.078H188.029V275.468H189.639V277.078ZM189.639 283H188.029V281.39H189.639V283Z" fill="#1D1D1D"/>
<rect opacity="0.01" x="24" y="290" width="1" height="8" fill="white"/>
<rect x="24" y="298" width="233" height="32" rx="8" fill="white"/>
<path d="M41.338 319H39.56V310.334H34.968V319H33.19V308.85H41.338V319ZM48.1273 316.032V315.458C45.7473 315.682 44.7813 316.032 44.7813 316.886C44.7813 317.544 45.3273 317.936 46.1673 317.936C47.3993 317.936 48.1273 317.32 48.1273 316.032ZM45.8033 319.182C44.1653 319.182 43.0173 318.3 43.0173 316.928C43.0173 315.038 45.3413 314.59 48.0853 314.296V314.156C48.0853 312.868 47.3573 312.476 46.5173 312.476C45.6773 312.476 45.0473 312.924 45.0053 313.834H43.3673C43.4793 312.308 44.7533 311.244 46.5733 311.244C48.3793 311.244 49.7933 312.07 49.7513 314.478C49.7513 314.842 49.7233 315.738 49.7233 316.424C49.7233 317.376 49.7933 318.37 49.9473 319H48.4213C48.3653 318.678 48.3233 318.496 48.2813 317.978C47.7913 318.804 46.9233 319.182 45.8033 319.182ZM53.032 315.234C53.032 316.97 53.886 317.824 54.978 317.824C56.154 317.824 56.84 316.844 56.84 315.234C56.84 313.652 56.154 312.658 54.978 312.658C53.886 312.658 53.032 313.498 53.032 315.234ZM51.436 311.468H53.102V312.476C53.55 311.734 54.334 311.3 55.342 311.3C57.19 311.3 58.576 312.826 58.576 315.234C58.576 317.656 57.19 319.182 55.342 319.182C54.334 319.182 53.55 318.748 53.102 318.006V321.45H51.436V311.468ZM64.952 319L62.474 315.71H61.69V319H60.01V311.468H61.69V314.394H62.6L64.77 311.468H66.674L63.832 315.122L66.87 319H64.952ZM68.7732 315.248C68.7732 316.984 69.6972 317.824 70.7612 317.824C71.8252 317.824 72.7492 316.984 72.7492 315.248C72.7492 313.512 71.8252 312.658 70.7612 312.658C69.6972 312.658 68.7732 313.512 68.7732 315.248ZM70.7612 311.3C72.5952 311.3 74.4712 312.532 74.4712 315.248C74.4712 317.978 72.5952 319.182 70.7612 319.182C68.9272 319.182 67.0512 317.978 67.0512 315.248C67.0512 312.532 68.9272 311.3 70.7612 311.3ZM75.9103 311.468H79.4523C81.0203 311.468 82.2803 311.86 82.2803 313.414C82.2803 314.184 81.9443 314.716 81.2863 315.01C82.0283 315.234 82.5883 315.752 82.5883 316.746C82.5883 318.356 81.3283 319 79.6343 319H75.9103V311.468ZM77.5763 314.548H79.3263C80.1523 314.548 80.6283 314.31 80.6283 313.638C80.6283 312.98 80.1383 312.77 79.3123 312.77H77.5763V314.548ZM77.5763 315.752V317.698H79.4383C80.4323 317.698 80.9223 317.362 80.9223 316.69C80.9223 315.976 80.4323 315.752 79.4243 315.752H77.5763ZM89.0418 319L86.5638 315.71H85.7798V319H84.0998V311.468H85.7798V314.394H86.6898L88.8598 311.468H90.7638L87.9218 315.122L90.9598 319H89.0418ZM96.4574 316.032V315.458C94.0774 315.682 93.1114 316.032 93.1114 316.886C93.1114 317.544 93.6574 317.936 94.4974 317.936C95.7294 317.936 96.4574 317.32 96.4574 316.032ZM94.1334 319.182C92.4954 319.182 91.3474 318.3 91.3474 316.928C91.3474 315.038 93.6714 314.59 96.4154 314.296V314.156C96.4154 312.868 95.6874 312.476 94.8474 312.476C94.0074 312.476 93.3774 312.924 93.3354 313.834H91.6974C91.8094 312.308 93.0834 311.244 94.9034 311.244C96.7094 311.244 98.1234 312.07 98.0814 314.478C98.0814 314.842 98.0534 315.738 98.0534 316.424C98.0534 317.376 98.1234 318.37 98.2774 319H96.7514C96.6954 318.678 96.6534 318.496 96.6114 317.978C96.1214 318.804 95.2534 319.182 94.1334 319.182ZM109.755 319H108.089V315.794H104.729V319H103.063V311.468H104.729V314.478H108.089V311.468H109.755V319ZM116.364 316.032V315.458C113.984 315.682 113.018 316.032 113.018 316.886C113.018 317.544 113.564 317.936 114.404 317.936C115.636 317.936 116.364 317.32 116.364 316.032ZM114.04 319.182C112.402 319.182 111.254 318.3 111.254 316.928C111.254 315.038 113.578 314.59 116.322 314.296V314.156C116.322 312.868 115.594 312.476 114.754 312.476C113.914 312.476 113.284 312.924 113.242 313.834H111.604C111.716 312.308 112.99 311.244 114.81 311.244C116.616 311.244 118.03 312.07 117.988 314.478C117.988 314.842 117.96 315.738 117.96 316.424C117.96 317.376 118.03 318.37 118.184 319H116.658C116.602 318.678 116.56 318.496 116.518 317.978C116.028 318.804 115.16 319.182 114.04 319.182ZM128.975 312.784H126.413V319H124.747V312.784H122.171V311.468H128.975V312.784ZM136.717 315.71H131.103C131.215 317.11 132.195 317.796 133.147 317.796C134.029 317.796 134.701 317.46 134.995 316.746H136.633C136.297 317.95 135.149 319.182 133.217 319.182C130.795 319.182 129.409 317.348 129.409 315.178C129.409 312.91 130.963 311.3 133.105 311.3C135.415 311.3 136.871 313.19 136.717 315.71ZM133.105 312.602C132.321 312.602 131.257 313.078 131.103 314.492H135.023C134.981 313.316 134.085 312.602 133.105 312.602ZM139.698 315.234C139.698 316.97 140.552 317.824 141.644 317.824C142.82 317.824 143.506 316.844 143.506 315.234C143.506 313.652 142.82 312.658 141.644 312.658C140.552 312.658 139.698 313.498 139.698 315.234ZM138.102 311.468H139.768V312.476C140.216 311.734 141 311.3 142.008 311.3C143.856 311.3 145.242 312.826 145.242 315.234C145.242 317.656 143.856 319.182 142.008 319.182C141 319.182 140.216 318.748 139.768 318.006V321.45H138.102V311.468ZM148.202 315.234C148.202 316.97 149.056 317.824 150.148 317.824C151.324 317.824 152.01 316.844 152.01 315.234C152.01 313.652 151.324 312.658 150.148 312.658C149.056 312.658 148.202 313.498 148.202 315.234ZM146.606 311.468H148.272V312.476C148.72 311.734 149.504 311.3 150.512 311.3C152.36 311.3 153.746 312.826 153.746 315.234C153.746 317.656 152.36 319.182 150.512 319.182C149.504 319.182 148.72 318.748 148.272 318.006V321.45H146.606V311.468ZM162.096 311.468V319H160.43V313.778L156.846 319H155.18V311.468H156.846V316.718L160.43 311.468H162.096ZM169.977 312.784H167.415V319H165.749V312.784H163.173V311.468H169.977V312.784ZM172.133 315.248C172.133 316.984 173.057 317.824 174.121 317.824C175.185 317.824 176.109 316.984 176.109 315.248C176.109 313.512 175.185 312.658 174.121 312.658C173.057 312.658 172.133 313.512 172.133 315.248ZM174.121 311.3C175.955 311.3 177.831 312.532 177.831 315.248C177.831 317.978 175.955 319.182 174.121 319.182C172.287 319.182 170.411 317.978 170.411 315.248C170.411 312.532 172.287 311.3 174.121 311.3ZM180.796 315.234C180.796 316.97 181.65 317.824 182.742 317.824C183.918 317.824 184.604 316.844 184.604 315.234C184.604 313.652 183.918 312.658 182.742 312.658C181.65 312.658 180.796 313.498 180.796 315.234ZM179.2 311.468H180.866V312.476C181.314 311.734 182.098 311.3 183.106 311.3C184.954 311.3 186.34 312.826 186.34 315.234C186.34 317.656 184.954 319.182 183.106 319.182C182.098 319.182 181.314 318.748 180.866 318.006V321.45H179.2V311.468ZM194.69 311.468V319H193.024V313.778L189.44 319H187.774V311.468H189.44V316.718L193.024 311.468H194.69ZM203.481 311.468V319H201.815V313.778L198.231 319H196.565V311.468H198.231V316.718L201.815 311.468H203.481Z" fill="#1D1D1D"/>
<path d="M218.692 312.098C218.692 310.698 217.838 309.732 216.494 309.732C215.178 309.732 214.268 310.712 214.268 312.098C214.268 313.484 215.178 314.492 216.48 314.492C217.81 314.492 218.692 313.484 218.692 312.098ZM216.354 318.118C217.922 318.118 218.79 316.55 218.86 314.198C218.398 314.996 217.516 315.612 216.172 315.612C214.296 315.612 212.91 314.212 212.91 312.154C212.91 310.278 214.31 308.668 216.48 308.668C219.014 308.668 220.176 310.432 220.176 313.568C220.176 316.424 219.126 319.182 216.214 319.182C214.226 319.182 213.302 317.936 213.078 316.648H214.464C214.632 317.558 215.304 318.118 216.354 318.118ZM228.077 313.918C228.077 311.104 227.069 309.732 225.487 309.732C223.877 309.732 222.897 311.104 222.897 313.918C222.897 316.76 223.877 318.118 225.487 318.118C227.097 318.118 228.077 316.76 228.077 313.918ZM229.435 313.918C229.435 317.124 228.189 319.182 225.487 319.182C222.785 319.182 221.539 317.124 221.539 313.918C221.539 310.712 222.785 308.668 225.487 308.668C228.189 308.668 229.435 310.712 229.435 313.918ZM237.333 313.918C237.333 311.104 236.325 309.732 234.743 309.732C233.133 309.732 232.153 311.104 232.153 313.918C232.153 316.76 233.133 318.118 234.743 318.118C236.353 318.118 237.333 316.76 237.333 313.918ZM238.691 313.918C238.691 317.124 237.445 319.182 234.743 319.182C232.041 319.182 230.795 317.124 230.795 313.918C230.795 310.712 232.041 308.668 234.743 308.668C237.445 308.668 238.691 310.712 238.691 313.918ZM242.361 315.01V316.088H245.595V317.138H242.361V319H240.933V317.138H239.659V316.088H240.933V315.01H239.659V313.778H240.933V308.85H243.943C246.463 308.85 248.227 309.466 248.227 311.93C248.227 314.31 246.463 315.01 243.943 315.01H242.361ZM242.361 313.778H244.013C245.539 313.778 246.771 313.47 246.771 311.93C246.771 310.39 245.539 310.082 244.013 310.082H242.361V313.778Z" fill="#1D1D1D" fill-opacity="0.3"/>
<rect x="265" y="298" width="134" height="32" rx="8" fill="white"/>
<path d="M280.994 315.626H282.702C282.268 317.908 280.672 319.182 278.32 319.182C275.352 319.182 273.63 317.082 273.63 313.89C273.63 310.698 275.45 308.668 278.404 308.668C280.658 308.668 282.268 309.942 282.674 312.224H280.966C280.644 310.838 279.678 310.124 278.348 310.124C276.738 310.124 275.464 311.44 275.464 313.89C275.464 316.354 276.71 317.726 278.334 317.726C279.72 317.726 280.672 317.026 280.994 315.626ZM290.159 312.784H287.597V319H285.931V312.784H283.355V311.468H290.159V312.784ZM292.897 315.234C292.897 316.97 293.751 317.824 294.843 317.824C296.019 317.824 296.705 316.844 296.705 315.234C296.705 313.652 296.019 312.658 294.843 312.658C293.751 312.658 292.897 313.498 292.897 315.234ZM291.301 311.468H292.967V312.476C293.415 311.734 294.199 311.3 295.207 311.3C297.055 311.3 298.441 312.826 298.441 315.234C298.441 317.656 297.055 319.182 295.207 319.182C294.199 319.182 293.415 318.748 292.967 318.006V321.45H291.301V311.468ZM304.399 316.032V315.458C302.019 315.682 301.053 316.032 301.053 316.886C301.053 317.544 301.599 317.936 302.439 317.936C303.671 317.936 304.399 317.32 304.399 316.032ZM302.075 319.182C300.437 319.182 299.289 318.3 299.289 316.928C299.289 315.038 301.613 314.59 304.357 314.296V314.156C304.357 312.868 303.629 312.476 302.789 312.476C301.949 312.476 301.319 312.924 301.277 313.834H299.639C299.751 312.308 301.025 311.244 302.845 311.244C304.651 311.244 306.065 312.07 306.023 314.478C306.023 314.842 305.995 315.738 305.995 316.424C305.995 317.376 306.065 318.37 306.219 319H304.693C304.637 318.678 304.595 318.496 304.553 317.978C304.063 318.804 303.195 319.182 302.075 319.182ZM314.148 311.468L311.572 315.08L314.316 319H312.356L310.578 316.466L308.772 319H306.938L309.682 315.178L307.092 311.468H309.052L310.662 313.792L312.328 311.468H314.148ZM316.199 315.248C316.199 316.984 317.123 317.824 318.187 317.824C319.251 317.824 320.175 316.984 320.175 315.248C320.175 313.512 319.251 312.658 318.187 312.658C317.123 312.658 316.199 313.512 316.199 315.248ZM318.187 311.3C320.021 311.3 321.897 312.532 321.897 315.248C321.897 317.978 320.021 319.182 318.187 319.182C316.353 319.182 314.477 317.978 314.477 315.248C314.477 312.532 316.353 311.3 318.187 311.3ZM323.336 311.468H326.878C328.446 311.468 329.706 311.86 329.706 313.414C329.706 314.184 329.37 314.716 328.712 315.01C329.454 315.234 330.014 315.752 330.014 316.746C330.014 318.356 328.754 319 327.06 319H323.336V311.468ZM325.002 314.548H326.752C327.578 314.548 328.054 314.31 328.054 313.638C328.054 312.98 327.564 312.77 326.738 312.77H325.002V314.548ZM325.002 315.752V317.698H326.864C327.858 317.698 328.348 317.362 328.348 316.69C328.348 315.976 327.858 315.752 326.85 315.752H325.002ZM336.468 319L333.99 315.71H333.206V319H331.526V311.468H333.206V314.394H334.116L336.286 311.468H338.19L335.348 315.122L338.386 319H336.468ZM343.883 316.032V315.458C341.503 315.682 340.537 316.032 340.537 316.886C340.537 317.544 341.083 317.936 341.923 317.936C343.155 317.936 343.883 317.32 343.883 316.032ZM341.559 319.182C339.921 319.182 338.773 318.3 338.773 316.928C338.773 315.038 341.097 314.59 343.841 314.296V314.156C343.841 312.868 343.113 312.476 342.273 312.476C341.433 312.476 340.803 312.924 340.761 313.834H339.123C339.235 312.308 340.509 311.244 342.329 311.244C344.135 311.244 345.549 312.07 345.507 314.478C345.507 314.842 345.479 315.738 345.479 316.424C345.479 317.376 345.549 318.37 345.703 319H344.177C344.121 318.678 344.079 318.496 344.037 317.978C343.547 318.804 342.679 319.182 341.559 319.182Z" fill="#1D1D1D"/>
<path d="M360.692 312.098C360.692 310.698 359.838 309.732 358.494 309.732C357.178 309.732 356.268 310.712 356.268 312.098C356.268 313.484 357.178 314.492 358.48 314.492C359.81 314.492 360.692 313.484 360.692 312.098ZM358.354 318.118C359.922 318.118 360.79 316.55 360.86 314.198C360.398 314.996 359.516 315.612 358.172 315.612C356.296 315.612 354.91 314.212 354.91 312.154C354.91 310.278 356.31 308.668 358.48 308.668C361.014 308.668 362.176 310.432 362.176 313.568C362.176 316.424 361.126 319.182 358.214 319.182C356.226 319.182 355.302 317.936 355.078 316.648H356.464C356.632 317.558 357.304 318.118 358.354 318.118ZM370.077 313.918C370.077 311.104 369.069 309.732 367.487 309.732C365.877 309.732 364.897 311.104 364.897 313.918C364.897 316.76 365.877 318.118 367.487 318.118C369.097 318.118 370.077 316.76 370.077 313.918ZM371.435 313.918C371.435 317.124 370.189 319.182 367.487 319.182C364.785 319.182 363.539 317.124 363.539 313.918C363.539 310.712 364.785 308.668 367.487 308.668C370.189 308.668 371.435 310.712 371.435 313.918ZM379.333 313.918C379.333 311.104 378.325 309.732 376.743 309.732C375.133 309.732 374.153 311.104 374.153 313.918C374.153 316.76 375.133 318.118 376.743 318.118C378.353 318.118 379.333 316.76 379.333 313.918ZM380.691 313.918C380.691 317.124 379.445 319.182 376.743 319.182C374.041 319.182 372.795 317.124 372.795 313.918C372.795 310.712 374.041 308.668 376.743 308.668C379.445 308.668 380.691 310.712 380.691 313.918ZM384.361 315.01V316.088H387.595V317.138H384.361V319H382.933V317.138H381.659V316.088H382.933V315.01H381.659V313.778H382.933V308.85H385.943C388.463 308.85 390.227 309.466 390.227 311.93C390.227 314.31 388.463 315.01 385.943 315.01H384.361ZM384.361 313.778H386.013C387.539 313.778 388.771 313.47 388.771 311.93C388.771 310.39 387.539 310.082 386.013 310.082H384.361V313.778Z" fill="#1D1D1D" fill-opacity="0.3"/>
<rect x="407" y="298" width="128" height="32" rx="8" fill="white"/>
<path d="M418.332 319V310.334H415.14V308.85H423.302V310.334H420.11V319H418.332ZM424.917 315.234C424.917 316.97 425.771 317.824 426.863 317.824C428.039 317.824 428.725 316.844 428.725 315.234C428.725 313.652 428.039 312.658 426.863 312.658C425.771 312.658 424.917 313.498 424.917 315.234ZM423.321 311.468H424.987V312.476C425.435 311.734 426.219 311.3 427.227 311.3C429.075 311.3 430.461 312.826 430.461 315.234C430.461 317.656 429.075 319.182 427.227 319.182C426.219 319.182 425.435 318.748 424.987 318.006V321.45H423.321V311.468ZM436.418 316.032V315.458C434.038 315.682 433.072 316.032 433.072 316.886C433.072 317.544 433.618 317.936 434.458 317.936C435.69 317.936 436.418 317.32 436.418 316.032ZM434.094 319.182C432.456 319.182 431.308 318.3 431.308 316.928C431.308 315.038 433.632 314.59 436.376 314.296V314.156C436.376 312.868 435.648 312.476 434.808 312.476C433.968 312.476 433.338 312.924 433.296 313.834H431.658C431.77 312.308 433.044 311.244 434.864 311.244C436.67 311.244 438.084 312.07 438.042 314.478C438.042 314.842 438.014 315.738 438.014 316.424C438.014 317.376 438.084 318.37 438.238 319H436.712C436.656 318.678 436.614 318.496 436.572 317.978C436.082 318.804 435.214 319.182 434.094 319.182ZM446.489 319H444.823V315.794H441.463V319H439.797V311.468H441.463V314.478H444.823V311.468H446.489V319ZM451.614 311.3C453.266 311.3 454.694 312.378 454.988 314.044H453.364C453.21 313.246 452.524 312.686 451.614 312.686C450.564 312.686 449.64 313.456 449.64 315.234C449.64 317.026 450.592 317.796 451.572 317.796C452.398 317.796 453.196 317.432 453.42 316.424H455.044C454.708 318.188 453.154 319.182 451.544 319.182C449.36 319.182 447.918 317.488 447.918 315.248C447.918 313.008 449.36 311.3 451.614 311.3ZM461.448 308.85V311.468C463.59 311.468 465.382 312.672 465.382 315.276C465.382 317.964 463.576 319.084 461.448 319.084V321.45H459.782V319.084C457.64 319.084 455.848 317.964 455.848 315.276C455.848 312.672 457.64 311.468 459.782 311.468V308.85H461.448ZM459.782 317.754V312.812C458.494 312.812 457.528 313.554 457.528 315.332C457.528 317.082 458.48 317.754 459.782 317.754ZM461.448 312.812V317.754C462.75 317.754 463.688 317.082 463.688 315.332C463.688 313.554 462.75 312.812 461.448 312.812ZM473.629 315.71H468.015C468.127 317.11 469.107 317.796 470.059 317.796C470.941 317.796 471.613 317.46 471.907 316.746H473.545C473.209 317.95 472.061 319.182 470.129 319.182C467.707 319.182 466.321 317.348 466.321 315.178C466.321 312.91 467.875 311.3 470.017 311.3C472.327 311.3 473.783 313.19 473.629 315.71ZM470.017 312.602C469.233 312.602 468.169 313.078 468.015 314.492H471.935C471.893 313.316 470.997 312.602 470.017 312.602ZM476.61 315.234C476.61 316.97 477.464 317.824 478.556 317.824C479.732 317.824 480.418 316.844 480.418 315.234C480.418 313.652 479.732 312.658 478.556 312.658C477.464 312.658 476.61 313.498 476.61 315.234ZM475.014 311.468H476.68V312.476C477.128 311.734 477.912 311.3 478.92 311.3C480.768 311.3 482.154 312.826 482.154 315.234C482.154 317.656 480.768 319.182 478.92 319.182C477.912 319.182 477.128 318.748 476.68 318.006V321.45H475.014V311.468Z" fill="#1D1D1D"/>
<path d="M496.692 312.098C496.692 310.698 495.838 309.732 494.494 309.732C493.178 309.732 492.268 310.712 492.268 312.098C492.268 313.484 493.178 314.492 494.48 314.492C495.81 314.492 496.692 313.484 496.692 312.098ZM494.354 318.118C495.922 318.118 496.79 316.55 496.86 314.198C496.398 314.996 495.516 315.612 494.172 315.612C492.296 315.612 490.91 314.212 490.91 312.154C490.91 310.278 492.31 308.668 494.48 308.668C497.014 308.668 498.176 310.432 498.176 313.568C498.176 316.424 497.126 319.182 494.214 319.182C492.226 319.182 491.302 317.936 491.078 316.648H492.464C492.632 317.558 493.304 318.118 494.354 318.118ZM506.077 313.918C506.077 311.104 505.069 309.732 503.487 309.732C501.877 309.732 500.897 311.104 500.897 313.918C500.897 316.76 501.877 318.118 503.487 318.118C505.097 318.118 506.077 316.76 506.077 313.918ZM507.435 313.918C507.435 317.124 506.189 319.182 503.487 319.182C500.785 319.182 499.539 317.124 499.539 313.918C499.539 310.712 500.785 308.668 503.487 308.668C506.189 308.668 507.435 310.712 507.435 313.918ZM515.333 313.918C515.333 311.104 514.325 309.732 512.743 309.732C511.133 309.732 510.153 311.104 510.153 313.918C510.153 316.76 511.133 318.118 512.743 318.118C514.353 318.118 515.333 316.76 515.333 313.918ZM516.691 313.918C516.691 317.124 515.445 319.182 512.743 319.182C510.041 319.182 508.795 317.124 508.795 313.918C508.795 310.712 510.041 308.668 512.743 308.668C515.445 308.668 516.691 310.712 516.691 313.918ZM520.361 315.01V316.088H523.595V317.138H520.361V319H518.933V317.138H517.659V316.088H518.933V315.01H517.659V313.778H518.933V308.85H521.943C524.463 308.85 526.227 309.466 526.227 311.93C526.227 314.31 524.463 315.01 521.943 315.01H520.361ZM520.361 313.778H522.013C523.539 313.778 524.771 313.47 524.771 311.93C524.771 310.39 523.539 310.082 522.013 310.082H520.361V313.778Z" fill="#1D1D1D" fill-opacity="0.3"/>
<rect x="543" y="298" width="87" height="32" rx="8" fill="white"/>
<path d="M558.994 315.626H560.702C560.268 317.908 558.672 319.182 556.32 319.182C553.352 319.182 551.63 317.082 551.63 313.89C551.63 310.698 553.45 308.668 556.404 308.668C558.658 308.668 560.268 309.942 560.674 312.224H558.966C558.644 310.838 557.678 310.124 556.348 310.124C554.738 310.124 553.464 311.44 553.464 313.89C553.464 316.354 554.71 317.726 556.334 317.726C557.72 317.726 558.672 317.026 558.994 315.626ZM562.546 321.45H561.79V320.176H562.42C563.148 320.176 563.456 320.12 563.792 319.14L563.876 318.958L561.146 311.468H562.966L564.674 316.872L566.382 311.468H568.09L565.444 318.986C564.73 320.932 564.24 321.45 562.546 321.45ZM569.166 311.468H572.708C574.276 311.468 575.536 311.86 575.536 313.414C575.536 314.184 575.2 314.716 574.542 315.01C575.284 315.234 575.844 315.752 575.844 316.746C575.844 318.356 574.584 319 572.89 319H569.166V311.468ZM570.832 314.548H572.582C573.408 314.548 573.884 314.31 573.884 313.638C573.884 312.98 573.394 312.77 572.568 312.77H570.832V314.548ZM570.832 315.752V317.698H572.694C573.688 317.698 574.178 317.362 574.178 316.69C574.178 315.976 573.688 315.752 572.68 315.752H570.832ZM584.09 315.71H578.476C578.588 317.11 579.568 317.796 580.52 317.796C581.402 317.796 582.074 317.46 582.368 316.746H584.006C583.67 317.95 582.522 319.182 580.59 319.182C578.168 319.182 576.782 317.348 576.782 315.178C576.782 312.91 578.336 311.3 580.478 311.3C582.788 311.3 584.244 313.19 584.09 315.71ZM580.478 312.602C579.694 312.602 578.63 313.078 578.476 314.492H582.396C582.354 313.316 581.458 312.602 580.478 312.602ZM592.237 319H590.571V315.794H587.211V319H585.545V311.468H587.211V314.478H590.571V311.468H592.237V319ZM601.17 311.468V319H599.504V313.778L595.92 319H594.254V311.468H595.92V316.718L599.504 311.468H601.17ZM604.571 315.234C604.571 316.97 605.425 317.824 606.517 317.824C607.693 317.824 608.379 316.844 608.379 315.234C608.379 313.652 607.693 312.658 606.517 312.658C605.425 312.658 604.571 313.498 604.571 315.234ZM602.975 311.468H604.641V312.476C605.089 311.734 605.873 311.3 606.881 311.3C608.729 311.3 610.115 312.826 610.115 315.234C610.115 317.656 608.729 319.182 606.881 319.182C605.873 319.182 605.089 318.748 604.641 318.006V321.45H602.975V311.468ZM614.419 319H611.549V311.468H613.215V314.002H614.377C616.449 314.002 617.331 314.786 617.331 316.452C617.331 318.356 616.267 319 614.419 319ZM613.215 315.318V317.684H614.181C615.189 317.684 615.665 317.39 615.665 316.438C615.665 315.584 615.175 315.318 614.167 315.318H613.215ZM620.075 319H618.409V311.468H620.075V319Z" fill="#1D1D1D"/>
<rect x="0.5" y="362.5" width="807" height="71" rx="15.5" fill="#F5F5F5"/>
<rect x="0.5" y="362.5" width="807" height="71" rx="15.5" stroke="#EBEBEB"/>
<path d="M38 406H34.44L28.2 399.28V406H25.4V391H28.2V397.32L34.12 391H37.52L30.72 398.2L38 406ZM41.9355 399.78L39.5555 398.9C39.7821 397.873 40.3221 397.1 41.1755 396.58C42.0421 396.06 43.0755 395.8 44.2755 395.8C45.7821 395.8 46.8621 396.04 47.5155 396.52C48.1688 397 48.4955 397.793 48.4955 398.9V403.8H50.1955V406H45.6155L45.8955 404.42V403.96L44.6555 405.48C43.9355 405.96 43.1621 406.2 42.3355 406.2C41.4555 406.2 40.7555 405.967 40.2355 405.5C39.7155 405.02 39.4555 404.367 39.4555 403.54C39.4555 402.967 39.5488 402.5 39.7355 402.14C39.9355 401.78 40.2488 401.5 40.6755 401.3C41.1155 401.087 41.5555 400.927 41.9955 400.82C42.4488 400.7 43.0621 400.547 43.8355 400.36C44.6088 400.16 45.2955 399.953 45.8955 399.74V399.32C45.8955 398.787 45.7621 398.393 45.4955 398.14C45.2288 397.887 44.7888 397.76 44.1755 397.76C43.4688 397.76 42.9688 397.907 42.6755 398.2C42.3955 398.48 42.1488 399.007 41.9355 399.78ZM42.2955 403.08C42.2955 403.453 42.4088 403.753 42.6355 403.98C42.8755 404.207 43.1955 404.32 43.5955 404.32C44.0221 404.32 44.4688 404.147 44.9355 403.8C45.4021 403.44 45.7221 402.94 45.8955 402.3V400.52C44.4688 400.96 43.5088 401.353 43.0155 401.7C42.5355 402.047 42.2955 402.507 42.2955 403.08ZM58.9145 406L54.7945 401.38V406H52.1945V396H54.7945V400.3L58.6145 396H61.7145L57.3945 400.56L62.1145 406H58.9145ZM73.165 395.8C74.6183 395.8 75.8383 396.293 76.825 397.28C77.8117 398.253 78.305 399.493 78.305 401C78.305 402.507 77.8117 403.753 76.825 404.74C75.8383 405.713 74.6183 406.2 73.165 406.2C71.725 406.2 70.505 405.713 69.505 404.74C68.5183 403.753 68.025 402.507 68.025 401C68.025 399.493 68.5183 398.253 69.505 397.28C70.505 396.293 71.725 395.8 73.165 395.8ZM73.185 397.48C71.6783 397.48 70.925 398.653 70.925 401C70.925 402.107 71.125 402.967 71.525 403.58C71.925 404.18 72.4783 404.48 73.185 404.48C73.8917 404.48 74.4383 404.18 74.825 403.58C75.2117 402.967 75.405 402.107 75.405 401C75.405 398.653 74.665 397.48 73.185 397.48ZM86.4953 406.2C84.6286 406.2 83.4953 405.18 83.0953 403.14V411H80.4953V396H83.0953V398.9C83.4953 396.833 84.6286 395.8 86.4953 395.8C87.6153 395.8 88.5753 396.253 89.3753 397.16C90.1753 398.053 90.5753 399.353 90.5753 401.06C90.5753 402.713 90.1753 403.987 89.3753 404.88C88.5753 405.76 87.6153 406.2 86.4953 406.2ZM87.6953 401.06C87.6953 399.967 87.4753 399.12 87.0353 398.52C86.6086 397.92 86.0486 397.62 85.3553 397.62C84.6753 397.62 84.142 397.92 83.7553 398.52C83.3686 399.107 83.1753 399.953 83.1753 401.06C83.1753 402.127 83.3686 402.953 83.7553 403.54C84.1553 404.127 84.6886 404.42 85.3553 404.42C86.0353 404.42 86.5953 404.127 87.0353 403.54C87.4753 402.94 87.6953 402.113 87.6953 401.06ZM95.4781 406H92.8781V396H99.7181V397.8H95.4781V406ZM103.693 399.78L101.313 398.9C101.54 397.873 102.08 397.1 102.933 396.58C103.8 396.06 104.833 395.8 106.033 395.8C107.54 395.8 108.62 396.04 109.273 396.52C109.927 397 110.253 397.793 110.253 398.9V403.8H111.953V406H107.373L107.653 404.42V403.96L106.413 405.48C105.693 405.96 104.92 406.2 104.093 406.2C103.213 406.2 102.513 405.967 101.993 405.5C101.473 405.02 101.213 404.367 101.213 403.54C101.213 402.967 101.307 402.5 101.493 402.14C101.693 401.78 102.007 401.5 102.433 401.3C102.873 401.087 103.313 400.927 103.753 400.82C104.207 400.7 104.82 400.547 105.593 400.36C106.367 400.16 107.053 399.953 107.653 399.74V399.32C107.653 398.787 107.52 398.393 107.253 398.14C106.987 397.887 106.547 397.76 105.933 397.76C105.227 397.76 104.727 397.907 104.433 398.2C104.153 398.48 103.907 399.007 103.693 399.78ZM104.053 403.08C104.053 403.453 104.167 403.753 104.393 403.98C104.633 404.207 104.953 404.32 105.353 404.32C105.78 404.32 106.227 404.147 106.693 403.8C107.16 403.44 107.48 402.94 107.653 402.3V400.52C106.227 400.96 105.267 401.353 104.773 401.7C104.293 402.047 104.053 402.507 104.053 403.08ZM116.552 406H113.952V396H116.552V400H120.252V396H122.852V406H120.252V401.8H116.552V406ZM128.056 406H125.456V396H128.056V402.74L132.156 396H134.756V406H132.156V399.26L128.056 406ZM141.551 404.46C142.097 404.46 142.517 404.327 142.811 404.06C143.104 403.78 143.251 403.44 143.251 403.04C143.251 402.053 142.611 401.56 141.331 401.56H140.311V400.22H141.331C141.864 400.22 142.264 400.093 142.531 399.84C142.797 399.587 142.931 399.24 142.931 398.8C142.931 398.387 142.797 398.073 142.531 397.86C142.277 397.647 141.931 397.54 141.491 397.54C140.371 397.54 139.644 398.24 139.311 399.64L136.951 398.76C137.297 397.84 137.864 397.12 138.651 396.6C139.451 396.067 140.451 395.8 141.651 395.8C142.864 395.8 143.811 396.033 144.491 396.5C145.184 396.967 145.531 397.633 145.531 398.5C145.531 399.567 144.971 400.34 143.851 400.82C144.531 401.033 145.031 401.347 145.351 401.76C145.684 402.16 145.851 402.607 145.851 403.1C145.851 404.073 145.457 404.833 144.671 405.38C143.884 405.927 142.824 406.2 141.491 406.2C139.157 406.2 137.651 405.2 136.971 403.2L139.311 402.24C139.564 403.72 140.311 404.46 141.551 404.46ZM152.696 395.8C154.15 395.8 155.37 396.293 156.356 397.28C157.343 398.253 157.836 399.493 157.836 401C157.836 402.507 157.343 403.753 156.356 404.74C155.37 405.713 154.15 406.2 152.696 406.2C151.256 406.2 150.036 405.713 149.036 404.74C148.05 403.753 147.556 402.507 147.556 401C147.556 399.493 148.05 398.253 149.036 397.28C150.036 396.293 151.256 395.8 152.696 395.8ZM152.716 397.48C151.21 397.48 150.456 398.653 150.456 401C150.456 402.107 150.656 402.967 151.056 403.58C151.456 404.18 152.01 404.48 152.716 404.48C153.423 404.48 153.97 404.18 154.356 403.58C154.743 402.967 154.936 402.107 154.936 401C154.936 398.653 154.196 397.48 152.716 397.48ZM168.647 403.08C168.647 403.973 168.307 404.687 167.627 405.22C166.96 405.74 165.933 406 164.547 406H160.027V396H164.467C165.747 396 166.68 396.227 167.267 396.68C167.867 397.133 168.167 397.747 168.167 398.52C168.167 399.547 167.653 400.287 166.627 400.74C167.973 401.113 168.647 401.893 168.647 403.08ZM164.127 397.8H162.627V400.24H164.147C164.613 400.24 164.96 400.12 165.187 399.88C165.427 399.627 165.547 399.32 165.547 398.96C165.547 398.187 165.073 397.8 164.127 397.8ZM164.227 401.36H162.627V404.2H164.207C164.847 404.2 165.307 404.087 165.587 403.86C165.88 403.62 166.027 403.253 166.027 402.76C166.027 402.36 165.873 402.027 165.567 401.76C165.273 401.493 164.827 401.36 164.227 401.36ZM172.932 399.78L170.552 398.9C170.778 397.873 171.318 397.1 172.172 396.58C173.038 396.06 174.072 395.8 175.272 395.8C176.778 395.8 177.858 396.04 178.512 396.52C179.165 397 179.492 397.793 179.492 398.9V403.8H181.192V406H176.612L176.892 404.42V403.96L175.652 405.48C174.932 405.96 174.158 406.2 173.332 406.2C172.452 406.2 171.752 405.967 171.232 405.5C170.712 405.02 170.452 404.367 170.452 403.54C170.452 402.967 170.545 402.5 170.732 402.14C170.932 401.78 171.245 401.5 171.672 401.3C172.112 401.087 172.552 400.927 172.992 400.82C173.445 400.7 174.058 400.547 174.832 400.36C175.605 400.16 176.292 399.953 176.892 399.74V399.32C176.892 398.787 176.758 398.393 176.492 398.14C176.225 397.887 175.785 397.76 175.172 397.76C174.465 397.76 173.965 397.907 173.672 398.2C173.392 398.48 173.145 399.007 172.932 399.78ZM173.292 403.08C173.292 403.453 173.405 403.753 173.632 403.98C173.872 404.207 174.192 404.32 174.592 404.32C175.018 404.32 175.465 404.147 175.932 403.8C176.398 403.44 176.718 402.94 176.892 402.3V400.52C175.465 400.96 174.505 401.353 174.012 401.7C173.532 402.047 173.292 402.507 173.292 403.08ZM185.791 406H183.191V396H185.791V400H189.491V396H192.091V406H189.491V401.8H185.791V406ZM199.435 395.8C200.888 395.8 202.108 396.293 203.095 397.28C204.081 398.253 204.575 399.493 204.575 401C204.575 402.507 204.081 403.753 203.095 404.74C202.108 405.713 200.888 406.2 199.435 406.2C197.995 406.2 196.775 405.713 195.775 404.74C194.788 403.753 194.295 402.507 194.295 401C194.295 399.493 194.788 398.253 195.775 397.28C196.775 396.293 197.995 395.8 199.435 395.8ZM199.455 397.48C197.948 397.48 197.195 398.653 197.195 401C197.195 402.107 197.395 402.967 197.795 403.58C198.195 404.18 198.748 404.48 199.455 404.48C200.161 404.48 200.708 404.18 201.095 403.58C201.481 402.967 201.675 402.107 201.675 401C201.675 398.653 200.935 397.48 199.455 397.48ZM213.974 406H211.374V396H220.174V406H217.574V397.8H213.974V406ZM228.78 406.2C226.914 406.2 225.78 405.18 225.38 403.14V411H222.78V396H225.38V398.9C225.78 396.833 226.914 395.8 228.78 395.8C229.9 395.8 230.86 396.253 231.66 397.16C232.46 398.053 232.86 399.353 232.86 401.06C232.86 402.713 232.46 403.987 231.66 404.88C230.86 405.76 229.9 406.2 228.78 406.2ZM229.98 401.06C229.98 399.967 229.76 399.12 229.32 398.52C228.894 397.92 228.334 397.62 227.64 397.62C226.96 397.62 226.427 397.92 226.04 398.52C225.654 399.107 225.46 399.953 225.46 401.06C225.46 402.127 225.654 402.953 226.04 403.54C226.44 404.127 226.974 404.42 227.64 404.42C228.32 404.42 228.88 404.127 229.32 403.54C229.76 402.94 229.98 402.113 229.98 401.06ZM239.903 395.8C241.357 395.8 242.577 396.293 243.563 397.28C244.55 398.253 245.043 399.493 245.043 401C245.043 402.507 244.55 403.753 243.563 404.74C242.577 405.713 241.357 406.2 239.903 406.2C238.463 406.2 237.243 405.713 236.243 404.74C235.257 403.753 234.763 402.507 234.763 401C234.763 399.493 235.257 398.253 236.243 397.28C237.243 396.293 238.463 395.8 239.903 395.8ZM239.923 397.48C238.417 397.48 237.663 398.653 237.663 401C237.663 402.107 237.863 402.967 238.263 403.58C238.663 404.18 239.217 404.48 239.923 404.48C240.63 404.48 241.177 404.18 241.563 403.58C241.95 402.967 242.143 402.107 242.143 401C242.143 398.653 241.403 397.48 239.923 397.48ZM249.394 406H246.334L250.674 400.72L246.674 396H249.694L253.214 400.32V396H255.814V400.34L259.334 396H262.354L258.374 400.68L262.754 406H259.634L255.814 401.36V406H253.214V401.36L249.394 406ZM267.06 406H264.46V396H267.06V402.74L271.16 396H273.76V406H271.16V399.26L267.06 406ZM284.975 403.08C284.975 403.973 284.635 404.687 283.955 405.22C283.288 405.74 282.261 406 280.875 406H276.355V396H280.795C282.075 396 283.008 396.227 283.595 396.68C284.195 397.133 284.495 397.747 284.495 398.52C284.495 399.547 283.981 400.287 282.955 400.74C284.301 401.113 284.975 401.893 284.975 403.08ZM280.455 397.8H278.955V400.24H280.475C280.941 400.24 281.288 400.12 281.515 399.88C281.755 399.627 281.875 399.32 281.875 398.96C281.875 398.187 281.401 397.8 280.455 397.8ZM280.555 401.36H278.955V404.2H280.535C281.175 404.2 281.635 404.087 281.915 403.86C282.208 403.62 282.355 403.253 282.355 402.76C282.355 402.36 282.201 402.027 281.895 401.76C281.601 401.493 281.155 401.36 280.555 401.36ZM289.26 399.78L286.88 398.9C287.106 397.873 287.646 397.1 288.5 396.58C289.366 396.06 290.4 395.8 291.6 395.8C293.106 395.8 294.186 396.04 294.84 396.52C295.493 397 295.82 397.793 295.82 398.9V403.8H297.52V406H292.94L293.22 404.42V403.96L291.98 405.48C291.26 405.96 290.486 406.2 289.66 406.2C288.78 406.2 288.08 405.967 287.56 405.5C287.04 405.02 286.78 404.367 286.78 403.54C286.78 402.967 286.873 402.5 287.06 402.14C287.26 401.78 287.573 401.5 288 401.3C288.44 401.087 288.88 400.927 289.32 400.82C289.773 400.7 290.386 400.547 291.16 400.36C291.933 400.16 292.62 399.953 293.22 399.74V399.32C293.22 398.787 293.086 398.393 292.82 398.14C292.553 397.887 292.113 397.76 291.5 397.76C290.793 397.76 290.293 397.907 290 398.2C289.72 398.48 289.473 399.007 289.26 399.78ZM289.62 403.08C289.62 403.453 289.733 403.753 289.96 403.98C290.2 404.207 290.52 404.32 290.92 404.32C291.346 404.32 291.793 404.147 292.26 403.8C292.726 403.44 293.046 402.94 293.22 402.3V400.52C291.793 400.96 290.833 401.353 290.34 401.7C289.86 402.047 289.62 402.507 289.62 403.08ZM302.119 406H299.519V396H302.119V400H305.819V396H308.419V406H305.819V401.8H302.119V406ZM313.623 406H311.023V396H313.623V402.74L317.723 396H320.323V406H317.723V399.26L313.623 406ZM332.397 402.08C332.357 403.08 331.911 404.02 331.057 404.9C330.204 405.767 329.064 406.2 327.637 406.2C325.997 406.2 324.731 405.72 323.837 404.76C322.957 403.8 322.517 402.573 322.517 401.08C322.517 399.493 322.991 398.22 323.937 397.26C324.884 396.287 326.084 395.8 327.537 395.8C329.097 395.8 330.284 396.267 331.097 397.2C331.924 398.12 332.357 399.393 332.397 401.02H325.417V401.12C325.417 402.147 325.604 402.947 325.977 403.52C326.364 404.08 326.924 404.36 327.657 404.36C328.884 404.36 329.584 403.6 329.757 402.08H332.397ZM327.557 397.64C326.397 397.64 325.711 398.413 325.497 399.96H329.557C329.557 399.333 329.384 398.793 329.037 398.34C328.691 397.873 328.197 397.64 327.557 397.64ZM340.257 401.7H337.657V399.02H338.477C339.544 399.02 340.31 398.707 340.777 398.08C341.257 397.44 341.497 396.627 341.497 395.64C341.497 394.467 341.277 393.667 340.837 393.24C340.397 392.813 339.83 392.6 339.137 392.6C338.31 392.6 337.704 392.893 337.317 393.48C336.93 394.053 336.577 394.86 336.257 395.9L333.737 394.68C333.884 394.147 334.104 393.647 334.397 393.18C334.704 392.7 335.084 392.287 335.537 391.94C335.99 391.58 336.524 391.3 337.137 391.1C337.75 390.9 338.43 390.8 339.177 390.8C340.044 390.8 340.804 390.933 341.457 391.2C342.124 391.467 342.677 391.82 343.117 392.26C343.557 392.7 343.89 393.22 344.117 393.82C344.344 394.42 344.457 395.047 344.457 395.7C344.457 396.913 344.064 397.927 343.277 398.74C342.504 399.54 341.497 400.06 340.257 400.3V401.7ZM340.257 406H337.657V403.4H340.257V406Z" fill="#1D1D1D"/>
<path d="M766 394.5L772 400.5L778 394.5" stroke="#1D1D1D" stroke-width="2" stroke-linecap="square"/>
</svg>
