<svg width="24" height="24" viewBox="0 0 24 24" fill="none" xmlns="http://www.w3.org/2000/svg">
<g id="users-03">
<path id="Icon" d="M16.7776 19.5L15.8205 19.7898L15.8205 19.7898L16.7776 19.5ZM2.22238 19.5L1.2653 19.2102L2.22238 19.5ZM2 21H1V22H2V21ZM17 21V22H18V21H17ZM21.7776 19.4993L20.8205 19.7891L20.8205 19.7891L21.7776 19.4993ZM22 20.9993V21.9993H23V20.9993H22ZM13 7.5C13 9.433 11.433 11 9.5 11V13C12.5376 13 15 10.5376 15 7.5H13ZM9.5 11C7.567 11 6 9.433 6 7.5H4C4 10.5376 6.46243 13 9.5 13V11ZM6 7.5C6 5.567 7.567 4 9.5 4V2C6.46243 2 4 4.46243 4 7.5H6ZM9.5 4C11.433 4 13 5.567 13 7.5H15C15 4.46243 12.5376 2 9.5 2V4ZM17.5 7.5C17.5 8.87276 16.7098 10.0628 15.555 10.6367L16.445 12.4278C18.2536 11.529 19.5 9.66096 19.5 7.5H17.5ZM15.555 4.36327C16.7098 4.9372 17.5 6.12724 17.5 7.5H19.5C19.5 5.33904 18.2536 3.47103 16.445 2.57225L15.555 4.36327ZM9.5 16C10.9581 16 12.4014 16.426 13.5566 17.1326C14.7182 17.8432 15.518 18.7908 15.8205 19.7898L17.7347 19.2102C17.2536 17.6214 16.0591 16.3189 14.6002 15.4265C13.1348 14.5301 11.331 14 9.5 14V16ZM3.17947 19.7898C3.48197 18.7908 4.28176 17.8432 5.44344 17.1326C6.59863 16.426 8.04189 16 9.5 16V14C7.66898 14 5.86523 14.5301 4.3998 15.4265C2.94085 16.3189 1.7464 17.6214 1.2653 19.2102L3.17947 19.7898ZM3 21C3 20.5822 3.06217 20.1772 3.17947 19.7898L1.2653 19.2102C1.09226 19.7817 1 20.3819 1 21H3ZM15.8205 19.7898C15.9378 20.1772 16 20.5822 16 21H18C18 20.3819 17.9077 19.7817 17.7347 19.2102L15.8205 19.7898ZM17 20H2V22H17V20ZM20.8205 19.7891C20.9378 20.1765 21 20.5815 21 20.9993H23C23 20.3811 22.9077 19.7809 22.7347 19.2095L20.8205 19.7891ZM17.0987 15.791C18.8434 16.9178 20.3625 18.2766 20.8205 19.7891L22.7347 19.2095C22.0525 16.9564 19.9674 15.2629 18.1837 14.1109L17.0987 15.791ZM22 19.9993H19.0033V21.9993H22V19.9993Z" fill="#747474"/>
</g>
</svg>
