<svg width="808" height="48" viewBox="0 0 808 48" fill="none" xmlns="http://www.w3.org/2000/svg">
<rect width="808" height="48" rx="12" fill="#FFCF08"/>
<path d="M344.344 22H342.312V12.096H337.064V22H335.032V10.4H344.344V22ZM354.551 18.24H348.135C348.263 19.84 349.383 20.624 350.471 20.624C351.479 20.624 352.247 20.24 352.583 19.424H354.455C354.071 20.8 352.759 22.208 350.551 22.208C347.783 22.208 346.199 20.112 346.199 17.632C346.199 15.04 347.975 13.2 350.423 13.2C353.063 13.2 354.727 15.36 354.551 18.24ZM350.423 14.688C349.527 14.688 348.311 15.232 348.135 16.848H352.615C352.567 15.504 351.543 14.688 350.423 14.688ZM357.959 17.696C357.959 19.68 358.935 20.656 360.183 20.656C361.527 20.656 362.311 19.536 362.311 17.696C362.311 15.888 361.527 14.752 360.183 14.752C358.935 14.752 357.959 15.712 357.959 17.696ZM356.135 13.392H358.039V14.544C358.551 13.696 359.447 13.2 360.599 13.2C362.711 13.2 364.295 14.944 364.295 17.696C364.295 20.464 362.711 22.208 360.599 22.208C359.447 22.208 358.551 21.712 358.039 20.864V24.8H356.135V13.392ZM373.723 18.24H367.307C367.435 19.84 368.555 20.624 369.643 20.624C370.651 20.624 371.419 20.24 371.755 19.424H373.627C373.243 20.8 371.931 22.208 369.723 22.208C366.955 22.208 365.371 20.112 365.371 17.632C365.371 15.04 367.147 13.2 369.595 13.2C372.235 13.2 373.899 15.36 373.723 18.24ZM369.595 14.688C368.699 14.688 367.483 15.232 367.307 16.848H371.787C371.739 15.504 370.715 14.688 369.595 14.688ZM380.666 10.4H382.042C381.914 11.536 381.21 12.336 379.386 12.336C377.61 12.336 376.842 11.536 376.762 10.4H378.154C378.218 10.976 378.57 11.28 379.402 11.28C380.218 11.28 380.602 10.976 380.666 10.4ZM383.29 13.392V22H381.386V16.032L377.29 22H375.386V13.392H377.29V19.392L381.386 13.392H383.29ZM392.297 14.896H389.369V22H387.465V14.896H384.521V13.392H392.297V14.896ZM401.587 13.392V22H399.683V16.032L395.587 22H393.683V13.392H395.587V19.392L399.683 13.392H401.587ZM413.066 22L410.234 18.24H409.338V22H407.418V13.392H409.338V16.736H410.378L412.858 13.392H415.034L411.786 17.568L415.258 22H413.066ZM421.605 17.712C421.605 19.696 422.661 20.656 423.877 20.656C425.093 20.656 426.149 19.696 426.149 17.712C426.149 15.728 425.093 14.752 423.877 14.752C422.661 14.752 421.605 15.728 421.605 17.712ZM423.877 13.2C425.973 13.2 428.117 14.608 428.117 17.712C428.117 20.832 425.973 22.208 423.877 22.208C421.781 22.208 419.637 20.832 419.637 17.712C419.637 14.608 421.781 13.2 423.877 13.2ZM437.249 13.392V22H435.345V14.896H431.665V22H429.761V13.392H437.249ZM446.822 22H444.918V14.896H442.39L442.262 16.752C442.022 20.352 441.062 22 439.078 22H438.726V20.496H438.918C439.622 20.496 440.278 19.744 440.454 16.48L440.614 13.392H446.822V22ZM454.369 18.608V17.952C451.649 18.208 450.545 18.608 450.545 19.584C450.545 20.336 451.169 20.784 452.129 20.784C453.537 20.784 454.369 20.08 454.369 18.608ZM451.713 22.208C449.841 22.208 448.529 21.2 448.529 19.632C448.529 17.472 451.185 16.96 454.321 16.624V16.464C454.321 14.992 453.489 14.544 452.529 14.544C451.569 14.544 450.849 15.056 450.801 16.096H448.929C449.057 14.352 450.513 13.136 452.593 13.136C454.657 13.136 456.273 14.08 456.225 16.832C456.225 17.248 456.193 18.272 456.193 19.056C456.193 20.144 456.273 21.28 456.449 22H454.705C454.641 21.632 454.593 21.424 454.545 20.832C453.985 21.776 452.993 22.208 451.713 22.208ZM464.969 14.896H462.041V22H460.137V14.896H457.193V13.392H464.969V14.896ZM473.817 18.24H467.401C467.529 19.84 468.649 20.624 469.737 20.624C470.745 20.624 471.513 20.24 471.849 19.424H473.721C473.337 20.8 472.025 22.208 469.817 22.208C467.049 22.208 465.465 20.112 465.465 17.632C465.465 15.04 467.241 13.2 469.689 13.2C472.329 13.2 473.993 15.36 473.817 18.24ZM469.689 14.688C468.793 14.688 467.577 15.232 467.401 16.848H471.881C471.833 15.504 470.809 14.688 469.689 14.688Z" fill="#1D1D1D"/>
<path d="M339.056 37.204C339.056 38.356 339.752 39.052 340.748 39.052C341.744 39.052 342.452 38.356 342.452 37.204C342.452 36.052 341.756 35.344 340.76 35.344C339.764 35.344 339.056 36.052 339.056 37.204ZM340.844 32.236C339.656 32.236 338.984 33.436 338.948 35.212C339.332 34.648 340.028 34.216 341.036 34.216C342.632 34.216 343.928 35.368 343.928 37.18C343.928 38.908 342.632 40.156 340.76 40.156C338.504 40.156 337.496 38.452 337.496 35.908C337.496 33.4 338.408 31.144 340.952 31.144C342.788 31.144 343.628 32.332 343.76 33.484H342.308C342.212 32.632 341.624 32.236 340.844 32.236ZM347.998 39.052C348.958 39.052 349.714 38.368 349.714 37.204C349.714 35.908 348.826 35.296 347.962 35.296C347.146 35.296 346.57 35.692 346.39 36.208L345.046 36.136L345.622 31.3H350.83V32.56H346.798L346.522 34.744C346.942 34.408 347.542 34.204 348.322 34.204C349.81 34.204 351.19 35.224 351.19 37.18C351.19 39.124 349.702 40.156 347.974 40.156C345.958 40.156 344.902 38.836 344.806 37.336H346.186C346.318 38.344 346.846 39.052 347.998 39.052ZM358.366 39.052C359.626 39.052 360.346 37.852 360.346 35.644C360.346 33.436 359.626 32.236 358.366 32.236C357.118 32.236 356.398 33.436 356.398 35.644C356.398 37.852 357.118 39.052 358.366 39.052ZM358.366 40.156C356.062 40.156 354.91 38.32 354.91 35.644C354.91 32.992 356.062 31.144 358.366 31.144C360.694 31.144 361.834 32.992 361.834 35.644C361.834 38.32 360.694 40.156 358.366 40.156ZM366.241 39.052C367.501 39.052 368.221 37.852 368.221 35.644C368.221 33.436 367.501 32.236 366.241 32.236C364.993 32.236 364.273 33.436 364.273 35.644C364.273 37.852 364.993 39.052 366.241 39.052ZM366.241 40.156C363.937 40.156 362.785 38.32 362.785 35.644C362.785 32.992 363.937 31.144 366.241 31.144C368.569 31.144 369.709 32.992 369.709 35.644C369.709 38.32 368.569 40.156 366.241 40.156ZM374.116 39.052C375.376 39.052 376.096 37.852 376.096 35.644C376.096 33.436 375.376 32.236 374.116 32.236C372.868 32.236 372.148 33.436 372.148 35.644C372.148 37.852 372.868 39.052 374.116 39.052ZM374.116 40.156C371.812 40.156 370.66 38.32 370.66 35.644C370.66 32.992 371.812 31.144 374.116 31.144C376.444 31.144 377.584 32.992 377.584 35.644C377.584 38.32 376.444 40.156 374.116 40.156ZM383.592 36.736V37.624H386.256V38.584H383.592V40H382.068V38.584H381.06V37.624H382.068V36.736H381.06V35.476H382.068V31.3H384.852C387.06 31.3 388.608 31.852 388.608 34.012C388.608 36.076 387.06 36.736 384.852 36.736H383.592ZM383.592 35.476H384.912C386.088 35.476 387.036 35.236 387.036 34.012C387.036 32.8 386.088 32.572 384.912 32.572H383.592V35.476ZM396.438 36.592C397.146 36.796 397.578 37.24 397.578 38.104C397.578 39.532 396.33 40.156 394.71 40.156C393.294 40.156 392.034 39.544 391.806 37.9H393.174C393.306 38.632 393.846 39.1 394.758 39.1C395.67 39.1 396.15 38.74 396.15 38.176C396.15 37.504 395.694 37.252 394.878 37.252H393.822V36.136H394.806C395.514 36.136 395.958 35.896 395.958 35.332C395.958 34.744 395.61 34.444 394.806 34.444C394.002 34.444 393.354 34.828 393.246 35.632H391.878C392.106 34.108 393.402 33.376 394.83 33.376C396.234 33.376 397.374 33.94 397.374 35.236C397.374 35.872 397.062 36.316 396.438 36.592ZM402.741 37.456V36.964C400.701 37.156 399.873 37.456 399.873 38.188C399.873 38.752 400.341 39.088 401.061 39.088C402.117 39.088 402.741 38.56 402.741 37.456ZM400.749 40.156C399.345 40.156 398.361 39.4 398.361 38.224C398.361 36.604 400.353 36.22 402.705 35.968V35.848C402.705 34.744 402.081 34.408 401.361 34.408C400.641 34.408 400.101 34.792 400.065 35.572H398.661C398.757 34.264 399.849 33.352 401.409 33.352C402.957 33.352 404.169 34.06 404.133 36.124C404.133 36.436 404.109 37.204 404.109 37.792C404.109 38.608 404.169 39.46 404.301 40H402.993C402.945 39.724 402.909 39.568 402.873 39.124C402.453 39.832 401.709 40.156 400.749 40.156ZM411.115 31.144C412.723 31.144 413.947 31.96 413.947 33.448C413.947 35.248 412.219 36.928 409.591 38.752H414.151V40H407.815V38.824C410.719 36.568 412.459 35.008 412.459 33.568C412.459 32.716 411.919 32.236 411.055 32.236C410.227 32.236 409.435 32.728 409.435 34.084H408.007C407.971 32.332 409.207 31.144 411.115 31.144ZM423.219 34.672H421.023V40H419.595V34.672H417.387V33.544H423.219V34.672ZM424.655 42.1H424.007V41.008H424.547C425.171 41.008 425.435 40.96 425.723 40.12L425.795 39.964L423.455 33.544H425.015L426.479 38.176L427.943 33.544H429.407L427.139 39.988C426.527 41.656 426.107 42.1 424.655 42.1ZM431.637 36.772C431.637 38.26 432.369 38.992 433.305 38.992C434.313 38.992 434.901 38.152 434.901 36.772C434.901 35.416 434.313 34.564 433.305 34.564C432.369 34.564 431.637 35.284 431.637 36.772ZM430.269 33.544H431.697V34.408C432.081 33.772 432.753 33.4 433.617 33.4C435.201 33.4 436.389 34.708 436.389 36.772C436.389 38.848 435.201 40.156 433.617 40.156C432.753 40.156 432.081 39.784 431.697 39.148V42.1H430.269V33.544ZM443.546 33.544V40H442.118V35.524L439.046 40H437.618V33.544H439.046V38.044L442.118 33.544H443.546ZM447.817 33.4C449.233 33.4 450.457 34.324 450.709 35.752H449.317C449.185 35.068 448.597 34.588 447.817 34.588C446.917 34.588 446.125 35.248 446.125 36.772C446.125 38.308 446.941 38.968 447.781 38.968C448.489 38.968 449.173 38.656 449.365 37.792H450.757C450.469 39.304 449.137 40.156 447.757 40.156C445.885 40.156 444.649 38.704 444.649 36.784C444.649 34.864 445.885 33.4 447.817 33.4ZM456.864 34.672H454.668V40H453.24V34.672H451.032V33.544H456.864V34.672ZM458.711 36.784C458.711 38.272 459.503 38.992 460.415 38.992C461.327 38.992 462.119 38.272 462.119 36.784C462.119 35.296 461.327 34.564 460.415 34.564C459.503 34.564 458.711 35.296 458.711 36.784ZM460.415 33.4C461.987 33.4 463.595 34.456 463.595 36.784C463.595 39.124 461.987 40.156 460.415 40.156C458.843 40.156 457.235 39.124 457.235 36.784C457.235 34.456 458.843 33.4 460.415 33.4ZM464.829 33.544H467.865C469.209 33.544 470.289 33.88 470.289 35.212C470.289 35.872 470.001 36.328 469.437 36.58C470.073 36.772 470.553 37.216 470.553 38.068C470.553 39.448 469.473 40 468.021 40H464.829V33.544ZM466.257 36.184H467.757C468.465 36.184 468.873 35.98 468.873 35.404C468.873 34.84 468.453 34.66 467.745 34.66H466.257V36.184ZM466.257 37.216V38.884H467.853C468.705 38.884 469.125 38.596 469.125 38.02C469.125 37.408 468.705 37.216 467.841 37.216H466.257Z" fill="#1D1D1D" fill-opacity="0.5"/>
</svg>
