<svg width="25" height="25" viewBox="0 0 25 25" fill="none" xmlns="http://www.w3.org/2000/svg">
<mask id="mask0_359_85752" style="mask-type:alpha" maskUnits="userSpaceOnUse" x="0" y="0" width="25" height="25">
<rect x="0.624023" y="0.366699" width="24" height="24" fill="#D9D9D9"/>
</mask>
<g mask="url(#mask0_359_85752)">
<path d="M6.62402 21.3667C6.34069 21.3667 6.10319 21.2709 5.91152 21.0792C5.71986 20.8875 5.62402 20.65 5.62402 20.3667V18.3167C5.32402 17.9834 5.08236 17.6125 4.89902 17.2042C4.71569 16.7959 4.62402 16.35 4.62402 15.8667V6.3667C4.62402 4.98337 5.26569 3.97087 6.54902 3.3292C7.83236 2.68753 9.85736 2.3667 12.624 2.3667C15.4907 2.3667 17.5407 2.67503 18.774 3.2917C20.0074 3.90837 20.624 4.93337 20.624 6.3667V15.8667C20.624 16.35 20.5324 16.7959 20.349 17.2042C20.1657 17.6125 19.924 17.9834 19.624 18.3167V20.3667C19.624 20.65 19.5282 20.8875 19.3365 21.0792C19.1449 21.2709 18.9074 21.3667 18.624 21.3667H17.624C17.3407 21.3667 17.1032 21.2709 16.9115 21.0792C16.7199 20.8875 16.624 20.65 16.624 20.3667V19.3667H8.62402V20.3667C8.62402 20.65 8.52819 20.8875 8.33652 21.0792C8.14486 21.2709 7.90736 21.3667 7.62402 21.3667H6.62402ZM6.62402 10.3667H18.624V7.3667H6.62402V10.3667ZM9.12402 16.3667C9.54069 16.3667 9.89486 16.2209 10.1865 15.9292C10.4782 15.6375 10.624 15.2834 10.624 14.8667C10.624 14.45 10.4782 14.0959 10.1865 13.8042C9.89486 13.5125 9.54069 13.3667 9.12402 13.3667C8.70736 13.3667 8.35319 13.5125 8.06152 13.8042C7.76986 14.0959 7.62402 14.45 7.62402 14.8667C7.62402 15.2834 7.76986 15.6375 8.06152 15.9292C8.35319 16.2209 8.70736 16.3667 9.12402 16.3667ZM16.124 16.3667C16.5407 16.3667 16.8949 16.2209 17.1865 15.9292C17.4782 15.6375 17.624 15.2834 17.624 14.8667C17.624 14.45 17.4782 14.0959 17.1865 13.8042C16.8949 13.5125 16.5407 13.3667 16.124 13.3667C15.7074 13.3667 15.3532 13.5125 15.0615 13.8042C14.7699 14.0959 14.624 14.45 14.624 14.8667C14.624 15.2834 14.7699 15.6375 15.0615 15.9292C15.3532 16.2209 15.7074 16.3667 16.124 16.3667ZM7.07402 5.3667H18.274C18.024 5.08337 17.4865 4.84587 16.6615 4.6542C15.8365 4.46253 14.5074 4.3667 12.674 4.3667C10.8907 4.3667 9.58652 4.47087 8.76152 4.6792C7.93652 4.88753 7.37402 5.1167 7.07402 5.3667ZM8.62402 17.3667H16.624C17.174 17.3667 17.6449 17.1709 18.0365 16.7792C18.4282 16.3875 18.624 15.9167 18.624 15.3667V12.3667H6.62402V15.3667C6.62402 15.9167 6.81986 16.3875 7.21152 16.7792C7.60319 17.1709 8.07402 17.3667 8.62402 17.3667Z" fill="#1C1B1F"/>
</g>
</svg>
